<svg viewBox="0 0 334.6267 112" fill="none" xmlns="http://www.w3.org/2000/svg" x="0" y="0"><g id="Group 1000013364">
<g id="Group 1000013360_4">
<g id="Group 1000013358_4">
<rect id="Rectangle 379_4" x="0.2899999999999636" y="-9.624300000000005" width="92.0212" height="112.029" rx="25" fill="#E8F2FF"/>
<rect id="Rectangle 378_4" x="8.38000000000011" y="-9.624300000000005" width="326.625" height="112.029" rx="25" fill="#E8F2FF"/>
</g>
</g>
<g id="Group 1000013359_4">
<path id="🤖 AI Proctor Smart Exam Proctoring" d="M20.67,41.509h16.01v-16.004h-16.01zM43.82,40.389h-2.25l4.1,-11.64h2.6l4.11,11.64h-2.25l-3.11,-9.253h-0.09zM43.9,35.825h6.13v1.694h-6.13zM56.02,28.749v11.64h-2.11v-11.64zM62.27,40.389v-11.64h4.37c0.89,0 1.64,0.167 2.25,0.501c0.61,0.333 1.07,0.791 1.38,1.375c0.31,0.58 0.47,1.239 0.47,1.978c0,0.746 -0.16,1.409 -0.47,1.989c-0.32,0.58 -0.78,1.036 -1.4,1.37c-0.61,0.329 -1.37,0.494 -2.26,0.494h-2.9v-1.733h2.61c0.53,0 0.95,-0.091 1.29,-0.273c0.33,-0.182 0.58,-0.432 0.74,-0.75c0.16,-0.319 0.24,-0.684 0.24,-1.097c0,-0.413 -0.08,-0.777 -0.24,-1.091c-0.16,-0.315 -0.41,-0.559 -0.75,-0.734c-0.33,-0.178 -0.76,-0.267 -1.29,-0.267h-1.93v9.878zM72.48,40.389v-8.73h1.99v1.455h0.09c0.16,-0.504 0.44,-0.892 0.82,-1.165c0.39,-0.276 0.84,-0.415 1.34,-0.415c0.11,0 0.24,0.006 0.38,0.017c0.14,0.008 0.26,0.021 0.36,0.04v1.893c-0.09,-0.031 -0.23,-0.057 -0.42,-0.08c-0.18,-0.026 -0.36,-0.04 -0.54,-0.04c-0.37,0 -0.71,0.082 -1.01,0.245c-0.29,0.159 -0.53,0.38 -0.7,0.665c-0.17,0.284 -0.25,0.612 -0.25,0.983v5.132zM82.27,40.559c-0.85,0 -1.59,-0.187 -2.21,-0.562c-0.63,-0.375 -1.11,-0.9 -1.46,-1.575c-0.34,-0.674 -0.51,-1.462 -0.51,-2.364c0,-0.902 0.17,-1.692 0.51,-2.37c0.35,-0.678 0.83,-1.205 1.46,-1.58c0.62,-0.375 1.36,-0.562 2.21,-0.562c0.86,0 1.59,0.187 2.22,0.562c0.62,0.375 1.11,0.902 1.45,1.58c0.34,0.678 0.52,1.468 0.52,2.37c0,0.902 -0.18,1.69 -0.52,2.364c-0.34,0.675 -0.83,1.2 -1.45,1.575c-0.63,0.375 -1.36,0.562 -2.22,0.562zM82.28,38.911c0.47,0 0.85,-0.127 1.16,-0.381c0.31,-0.257 0.55,-0.602 0.7,-1.034c0.15,-0.432 0.23,-0.913 0.23,-1.444c0,-0.534 -0.08,-1.017 -0.23,-1.449c-0.15,-0.435 -0.39,-0.782 -0.7,-1.04c-0.31,-0.257 -0.69,-0.386 -1.16,-0.386c-0.47,0 -0.86,0.129 -1.18,0.386c-0.31,0.258 -0.54,0.605 -0.7,1.04c-0.15,0.432 -0.22,0.915 -0.22,1.449c0,0.531 0.07,1.012 0.22,1.444c0.16,0.432 0.39,0.777 0.7,1.034c0.32,0.254 0.71,0.381 1.18,0.381zM92.01,40.559c-0.87,0 -1.62,-0.191 -2.25,-0.574c-0.62,-0.382 -1.1,-0.911 -1.43,-1.585c-0.34,-0.679 -0.5,-1.459 -0.5,-2.342c0,-0.886 0.17,-1.669 0.51,-2.347c0.34,-0.682 0.82,-1.212 1.44,-1.591c0.63,-0.383 1.37,-0.574 2.22,-0.574c0.71,0 1.33,0.13 1.88,0.392c0.55,0.257 0.99,0.623 1.31,1.097c0.33,0.469 0.51,1.019 0.56,1.648h-1.97c-0.08,-0.421 -0.27,-0.771 -0.57,-1.052c-0.29,-0.284 -0.69,-0.426 -1.18,-0.426c-0.42,0 -0.79,0.114 -1.11,0.341c-0.32,0.224 -0.57,0.546 -0.75,0.966c-0.17,0.421 -0.26,0.925 -0.26,1.512c0,0.595 0.09,1.106 0.26,1.535c0.18,0.424 0.42,0.752 0.74,0.983c0.32,0.227 0.69,0.341 1.12,0.341c0.3,0 0.57,-0.057 0.81,-0.171c0.24,-0.117 0.44,-0.286 0.61,-0.506c0.16,-0.219 0.27,-0.486 0.33,-0.801h1.97c-0.05,0.618 -0.23,1.165 -0.55,1.643c-0.31,0.473 -0.74,0.845 -1.28,1.114c-0.54,0.265 -1.18,0.397 -1.91,0.397zM101.8,31.659v1.592h-5.02v-1.592zM98.02,29.568h2.06v8.195c0,0.277 0.04,0.489 0.12,0.637c0.09,0.144 0.2,0.242 0.34,0.295c0.14,0.053 0.3,0.08 0.47,0.08c0.13,0 0.24,-0.01 0.35,-0.029c0.11,-0.019 0.19,-0.036 0.25,-0.051l0.35,1.609c-0.11,0.037 -0.27,0.079 -0.47,0.125c-0.21,0.045 -0.45,0.072 -0.74,0.079c-0.52,0.015 -0.98,-0.062 -1.4,-0.233c-0.41,-0.174 -0.74,-0.443 -0.98,-0.807c-0.24,-0.364 -0.36,-0.818 -0.35,-1.364zM107.23,40.559c-0.85,0 -1.59,-0.187 -2.21,-0.562c-0.63,-0.375 -1.11,-0.9 -1.46,-1.575c-0.34,-0.674 -0.51,-1.462 -0.51,-2.364c0,-0.902 0.17,-1.692 0.51,-2.37c0.35,-0.678 0.83,-1.205 1.46,-1.58c0.62,-0.375 1.36,-0.562 2.21,-0.562c0.86,0 1.59,0.187 2.22,0.562c0.62,0.375 1.11,0.902 1.45,1.58c0.34,0.678 0.52,1.468 0.52,2.37c0,0.902 -0.18,1.69 -0.52,2.364c-0.34,0.675 -0.83,1.2 -1.45,1.575c-0.63,0.375 -1.36,0.562 -2.22,0.562zM107.24,38.911c0.47,0 0.85,-0.127 1.16,-0.381c0.31,-0.257 0.55,-0.602 0.7,-1.034c0.15,-0.432 0.23,-0.913 0.23,-1.444c0,-0.534 -0.08,-1.017 -0.23,-1.449c-0.15,-0.435 -0.39,-0.782 -0.7,-1.04c-0.31,-0.257 -0.69,-0.386 -1.16,-0.386c-0.47,0 -0.86,0.129 -1.18,0.386c-0.31,0.258 -0.54,0.605 -0.7,1.04c-0.15,0.432 -0.22,0.915 -0.22,1.449c0,0.531 0.07,1.012 0.22,1.444c0.16,0.432 0.39,0.777 0.7,1.034c0.32,0.254 0.71,0.381 1.18,0.381zM113.16,40.389v-8.73h2v1.455h0.09c0.16,-0.504 0.43,-0.892 0.82,-1.165c0.39,-0.276 0.83,-0.415 1.33,-0.415c0.12,0 0.24,0.006 0.38,0.017c0.15,0.008 0.27,0.021 0.36,0.04v1.893c-0.09,-0.031 -0.23,-0.057 -0.41,-0.08c-0.19,-0.026 -0.37,-0.04 -0.54,-0.04c-0.38,0 -0.72,0.082 -1.02,0.245c-0.29,0.159 -0.52,0.38 -0.7,0.665c-0.17,0.284 -0.25,0.612 -0.25,0.983v5.132zM28.45,63.668c-0.07,-0.576 -0.35,-1.023 -0.83,-1.342c-0.49,-0.318 -1.08,-0.477 -1.79,-0.477c-0.51,0 -0.96,0.083 -1.35,0.25c-0.38,0.167 -0.68,0.396 -0.9,0.688c-0.21,0.292 -0.31,0.623 -0.31,0.994c0,0.311 0.07,0.578 0.22,0.802c0.15,0.219 0.34,0.403 0.58,0.551c0.23,0.144 0.48,0.263 0.74,0.358c0.25,0.091 0.49,0.165 0.71,0.222l1.18,0.318c0.3,0.08 0.64,0.189 1.01,0.33c0.38,0.14 0.73,0.331 1.07,0.574c0.35,0.238 0.63,0.545 0.86,0.92c0.22,0.375 0.33,0.836 0.33,1.381c0,0.629 -0.16,1.198 -0.49,1.705c-0.33,0.508 -0.81,0.912 -1.43,1.211c-0.63,0.299 -1.39,0.449 -2.28,0.449c-0.84,0 -1.56,-0.135 -2.17,-0.404c-0.61,-0.269 -1.08,-0.644 -1.43,-1.125c-0.35,-0.481 -0.54,-1.04 -0.59,-1.677h1.46c0.04,0.44 0.18,0.804 0.44,1.092c0.26,0.284 0.59,0.496 0.99,0.636c0.4,0.137 0.83,0.205 1.3,0.205c0.53,0 1.02,-0.087 1.45,-0.262c0.42,-0.178 0.76,-0.424 1.01,-0.738c0.25,-0.319 0.38,-0.69 0.38,-1.114c0,-0.387 -0.11,-0.701 -0.33,-0.944c-0.21,-0.242 -0.5,-0.439 -0.85,-0.591c-0.35,-0.151 -0.73,-0.284 -1.14,-0.398l-1.43,-0.409c-0.91,-0.261 -1.63,-0.635 -2.16,-1.12c-0.53,-0.485 -0.8,-1.119 -0.8,-1.903c0,-0.652 0.18,-1.22 0.53,-1.705c0.36,-0.489 0.83,-0.868 1.43,-1.137c0.61,-0.273 1.28,-0.409 2.02,-0.409c0.75,0 1.42,0.134 2,0.403c0.58,0.265 1.05,0.629 1.39,1.091c0.34,0.463 0.52,0.987 0.54,1.575zM32.11,72.397v-8.729h1.29v1.364h0.12c0.18,-0.466 0.47,-0.828 0.88,-1.086c0.4,-0.261 0.89,-0.392 1.46,-0.392c0.57,0 1.05,0.131 1.44,0.392c0.38,0.258 0.68,0.62 0.9,1.086h0.09c0.22,-0.451 0.56,-0.809 1.01,-1.074c0.44,-0.269 0.98,-0.404 1.61,-0.404c0.78,0 1.41,0.244 1.91,0.733c0.5,0.485 0.75,1.241 0.75,2.268v5.842h-1.35v-5.842c0,-0.644 -0.17,-1.105 -0.52,-1.381c-0.36,-0.277 -0.77,-0.415 -1.25,-0.415c-0.61,0 -1.09,0.186 -1.43,0.557c-0.33,0.367 -0.5,0.833 -0.5,1.398v5.683h-1.37v-5.979c0,-0.496 -0.16,-0.896 -0.48,-1.199c-0.32,-0.307 -0.74,-0.46 -1.24,-0.46c-0.35,0 -0.68,0.093 -0.98,0.278c-0.3,0.186 -0.54,0.444 -0.73,0.773c-0.18,0.326 -0.27,0.703 -0.27,1.131v5.456zM48.59,72.602c-0.56,0 -1.06,-0.104 -1.51,-0.313c-0.45,-0.212 -0.81,-0.517 -1.07,-0.915c-0.27,-0.401 -0.4,-0.886 -0.4,-1.455c0,-0.5 0.1,-0.905 0.29,-1.216c0.2,-0.314 0.46,-0.561 0.79,-0.739c0.33,-0.178 0.7,-0.31 1.1,-0.398c0.4,-0.09 0.8,-0.162 1.21,-0.216c0.53,-0.068 0.96,-0.119 1.29,-0.153c0.33,-0.038 0.57,-0.1 0.72,-0.188c0.16,-0.087 0.24,-0.238 0.24,-0.454v-0.046c0,-0.56 -0.16,-0.996 -0.46,-1.307c-0.31,-0.31 -0.77,-0.466 -1.39,-0.466c-0.64,0 -1.14,0.14 -1.5,0.421c-0.36,0.28 -0.62,0.579 -0.77,0.898l-1.27,-0.455c0.23,-0.53 0.53,-0.943 0.91,-1.239c0.38,-0.299 0.8,-0.508 1.25,-0.625c0.45,-0.121 0.9,-0.182 1.34,-0.182c0.28,0 0.6,0.034 0.97,0.102c0.36,0.065 0.72,0.199 1.06,0.404c0.34,0.204 0.63,0.513 0.86,0.926c0.22,0.413 0.34,0.966 0.34,1.66v5.751h-1.34v-1.182h-0.07c-0.09,0.19 -0.24,0.392 -0.46,0.608c-0.21,0.216 -0.49,0.4 -0.84,0.552c-0.36,0.151 -0.79,0.227 -1.29,0.227zM48.79,71.397c0.53,0 0.98,-0.104 1.34,-0.313c0.37,-0.208 0.65,-0.477 0.83,-0.807c0.19,-0.329 0.29,-0.676 0.29,-1.04v-1.227c-0.06,0.068 -0.19,0.13 -0.38,0.187c-0.19,0.053 -0.41,0.101 -0.66,0.142c-0.24,0.038 -0.49,0.072 -0.72,0.103c-0.23,0.026 -0.42,0.049 -0.56,0.068c-0.35,0.045 -0.68,0.119 -0.98,0.222c-0.3,0.098 -0.54,0.248 -0.73,0.449c-0.18,0.197 -0.27,0.466 -0.27,0.807c0,0.466 0.17,0.818 0.52,1.057c0.35,0.235 0.79,0.352 1.32,0.352zM55.04,72.397v-8.729h1.29v1.318h0.09c0.16,-0.432 0.45,-0.782 0.87,-1.051c0.41,-0.269 0.88,-0.404 1.41,-0.404c0.09,0 0.22,0.002 0.37,0.006c0.14,0.004 0.25,0.009 0.33,0.017v1.364c-0.05,-0.011 -0.15,-0.028 -0.31,-0.051c-0.16,-0.027 -0.33,-0.04 -0.51,-0.04c-0.42,0 -0.8,0.089 -1.13,0.267c-0.33,0.174 -0.6,0.417 -0.79,0.728c-0.19,0.307 -0.28,0.657 -0.28,1.051v5.524zM65.33,63.668v1.136h-4.52v-1.136zM62.13,61.576h1.34v8.321c0,0.378 0.05,0.663 0.16,0.852c0.12,0.186 0.26,0.311 0.44,0.375c0.17,0.061 0.36,0.091 0.56,0.091c0.15,0 0.27,-0.007 0.36,-0.023c0.1,-0.019 0.17,-0.034 0.23,-0.045l0.27,1.205c-0.09,0.034 -0.22,0.068 -0.38,0.102c-0.16,0.038 -0.37,0.057 -0.62,0.057c-0.38,0 -0.75,-0.082 -1.11,-0.244c-0.36,-0.163 -0.66,-0.412 -0.9,-0.745c-0.23,-0.333 -0.35,-0.754 -0.35,-1.262zM72.03,72.397v-11.639h7.03v1.25h-5.62v3.933h5.26v1.25h-5.26v3.956h5.71v1.25zM82.42,63.668l2.09,3.569l2.09,-3.569h1.55l-2.82,4.364l2.82,4.365h-1.55l-2.09,-3.387l-2.09,3.387h-1.55l2.78,-4.365l-2.78,-4.364zM92.63,72.602c-0.55,0 -1.06,-0.104 -1.51,-0.313c-0.45,-0.212 -0.81,-0.517 -1.07,-0.915c-0.27,-0.401 -0.4,-0.886 -0.4,-1.455c0,-0.5 0.1,-0.905 0.3,-1.216c0.19,-0.314 0.46,-0.561 0.79,-0.739c0.33,-0.178 0.69,-0.31 1.09,-0.398c0.4,-0.09 0.8,-0.162 1.21,-0.216c0.53,-0.068 0.96,-0.119 1.29,-0.153c0.33,-0.038 0.57,-0.1 0.73,-0.188c0.15,-0.087 0.23,-0.238 0.23,-0.454v-0.046c0,-0.56 -0.15,-0.996 -0.46,-1.307c-0.3,-0.31 -0.76,-0.466 -1.38,-0.466c-0.64,0 -1.14,0.14 -1.51,0.421c-0.36,0.28 -0.62,0.579 -0.77,0.898l-1.27,-0.455c0.23,-0.53 0.53,-0.943 0.91,-1.239c0.38,-0.299 0.8,-0.508 1.25,-0.625c0.46,-0.121 0.9,-0.182 1.34,-0.182c0.28,0 0.6,0.034 0.97,0.102c0.37,0.065 0.72,0.199 1.06,0.404c0.35,0.204 0.63,0.513 0.86,0.926c0.23,0.413 0.34,0.966 0.34,1.66v5.751h-1.34v-1.182h-0.07c-0.09,0.19 -0.24,0.392 -0.45,0.608c-0.22,0.216 -0.5,0.4 -0.85,0.552c-0.35,0.151 -0.78,0.227 -1.29,0.227zM92.83,71.397c0.53,0 0.98,-0.104 1.35,-0.313c0.36,-0.208 0.64,-0.477 0.82,-0.807c0.19,-0.329 0.29,-0.676 0.29,-1.04v-1.227c-0.06,0.068 -0.18,0.13 -0.38,0.187c-0.19,0.053 -0.41,0.101 -0.66,0.142c-0.24,0.038 -0.48,0.072 -0.72,0.103c-0.23,0.026 -0.42,0.049 -0.56,0.068c-0.35,0.045 -0.67,0.119 -0.98,0.222c-0.3,0.098 -0.54,0.248 -0.72,0.449c-0.19,0.197 -0.28,0.466 -0.28,0.807c0,0.466 0.17,0.818 0.52,1.057c0.35,0.235 0.79,0.352 1.32,0.352zM99.08,72.397v-8.729h1.29v1.364h0.12c0.18,-0.466 0.47,-0.828 0.88,-1.086c0.4,-0.261 0.89,-0.392 1.46,-0.392c0.58,0 1.05,0.131 1.44,0.392c0.38,0.258 0.68,0.62 0.9,1.086h0.09c0.23,-0.451 0.56,-0.809 1.01,-1.074c0.44,-0.269 0.98,-0.404 1.61,-0.404c0.78,0 1.42,0.244 1.91,0.733c0.5,0.485 0.75,1.241 0.75,2.268v5.842h-1.35v-5.842c0,-0.644 -0.17,-1.105 -0.52,-1.381c-0.36,-0.277 -0.77,-0.415 -1.25,-0.415c-0.61,0 -1.09,0.186 -1.43,0.557c-0.33,0.367 -0.5,0.833 -0.5,1.398v5.683h-1.36v-5.979c0,-0.496 -0.17,-0.896 -0.49,-1.199c-0.32,-0.307 -0.73,-0.46 -1.24,-0.46c-0.35,0 -0.68,0.093 -0.98,0.278c-0.3,0.186 -0.54,0.444 -0.73,0.773c-0.18,0.326 -0.27,0.703 -0.27,1.131v5.456zM117.67,72.397v-11.639h3.93c0.92,0 1.66,0.165 2.24,0.494c0.59,0.326 1.02,0.768 1.3,1.324c0.28,0.557 0.42,1.179 0.42,1.865c0,0.685 -0.14,1.309 -0.42,1.869c-0.28,0.561 -0.71,1.008 -1.29,1.342c-0.57,0.329 -1.32,0.494 -2.22,0.494h-2.82v-1.25h2.77c0.63,0 1.13,-0.108 1.51,-0.324c0.38,-0.216 0.65,-0.508 0.82,-0.875c0.18,-0.372 0.26,-0.79 0.26,-1.256c0,-0.466 -0.08,-0.883 -0.26,-1.251c-0.17,-0.367 -0.45,-0.655 -0.83,-0.864c-0.38,-0.212 -0.89,-0.318 -1.52,-0.318h-2.48v10.389zM127.65,72.397v-8.729h1.29v1.318h0.1c0.15,-0.432 0.44,-0.782 0.86,-1.051c0.42,-0.269 0.89,-0.404 1.41,-0.404c0.1,0 0.22,0.002 0.37,0.006c0.15,0.004 0.26,0.009 0.33,0.017v1.364c-0.04,-0.011 -0.15,-0.028 -0.31,-0.051c-0.16,-0.027 -0.33,-0.04 -0.51,-0.04c-0.42,0 -0.8,0.089 -1.13,0.267c-0.33,0.174 -0.59,0.417 -0.79,0.728c-0.19,0.307 -0.28,0.657 -0.28,1.051v5.524zM136.88,72.579c-0.78,0 -1.48,-0.187 -2.07,-0.563c-0.59,-0.375 -1.05,-0.899 -1.39,-1.574c-0.33,-0.674 -0.49,-1.462 -0.49,-2.364c0,-0.909 0.16,-1.703 0.49,-2.381c0.34,-0.679 0.8,-1.205 1.39,-1.58c0.59,-0.375 1.29,-0.563 2.07,-0.563c0.79,0 1.48,0.188 2.07,0.563c0.6,0.375 1.06,0.901 1.39,1.58c0.33,0.678 0.5,1.472 0.5,2.381c0,0.902 -0.17,1.69 -0.5,2.364c-0.33,0.675 -0.79,1.199 -1.39,1.574c-0.59,0.376 -1.28,0.563 -2.07,0.563zM136.88,71.374c0.6,0 1.09,-0.153 1.48,-0.46c0.39,-0.307 0.67,-0.71 0.86,-1.211c0.19,-0.5 0.28,-1.042 0.28,-1.625c0,-0.584 -0.09,-1.127 -0.28,-1.631c-0.19,-0.504 -0.47,-0.911 -0.86,-1.222c-0.39,-0.311 -0.88,-0.466 -1.48,-0.466c-0.59,0 -1.09,0.155 -1.47,0.466c-0.39,0.311 -0.68,0.718 -0.86,1.222c-0.19,0.504 -0.28,1.047 -0.28,1.631c0,0.583 0.09,1.125 0.28,1.625c0.18,0.501 0.47,0.904 0.86,1.211c0.38,0.307 0.88,0.46 1.47,0.46zM146.43,72.579c-0.82,0 -1.52,-0.193 -2.11,-0.58c-0.59,-0.386 -1.05,-0.918 -1.37,-1.597c-0.31,-0.678 -0.47,-1.453 -0.47,-2.324c0,-0.887 0.16,-1.669 0.49,-2.347c0.33,-0.682 0.78,-1.215 1.37,-1.597c0.59,-0.387 1.28,-0.58 2.07,-0.58c0.61,0 1.17,0.114 1.66,0.341c0.49,0.227 0.9,0.546 1.21,0.955c0.31,0.409 0.51,0.886 0.59,1.432h-1.35c-0.1,-0.398 -0.33,-0.75 -0.68,-1.057c-0.35,-0.311 -0.82,-0.466 -1.41,-0.466c-0.52,0 -0.98,0.136 -1.37,0.409c-0.39,0.269 -0.7,0.65 -0.92,1.142c-0.21,0.489 -0.32,1.063 -0.32,1.722c0,0.675 0.1,1.262 0.32,1.762c0.21,0.5 0.52,0.889 0.91,1.165c0.39,0.277 0.85,0.415 1.38,0.415c0.35,0 0.67,-0.06 0.95,-0.182c0.29,-0.121 0.53,-0.295 0.72,-0.522c0.2,-0.228 0.34,-0.501 0.42,-0.819h1.35c-0.08,0.515 -0.27,0.98 -0.57,1.393c-0.29,0.409 -0.68,0.735 -1.17,0.977c-0.49,0.239 -1.05,0.358 -1.7,0.358zM155.62,63.668v1.136h-4.52v-1.136zM152.42,61.576h1.34v8.321c0,0.378 0.05,0.663 0.16,0.852c0.12,0.186 0.26,0.311 0.44,0.375c0.17,0.061 0.36,0.091 0.56,0.091c0.15,0 0.27,-0.007 0.36,-0.023c0.1,-0.019 0.17,-0.034 0.23,-0.045l0.27,1.205c-0.09,0.034 -0.22,0.068 -0.38,0.102c-0.16,0.038 -0.37,0.057 -0.62,0.057c-0.38,0 -0.75,-0.082 -1.11,-0.244c-0.36,-0.163 -0.66,-0.412 -0.9,-0.745c-0.23,-0.333 -0.35,-0.754 -0.35,-1.262zM161.09,72.579c-0.78,0 -1.48,-0.187 -2.07,-0.563c-0.59,-0.375 -1.05,-0.899 -1.39,-1.574c-0.33,-0.674 -0.49,-1.462 -0.49,-2.364c0,-0.909 0.16,-1.703 0.49,-2.381c0.34,-0.679 0.8,-1.205 1.39,-1.58c0.59,-0.375 1.29,-0.563 2.07,-0.563c0.79,0 1.48,0.188 2.07,0.563c0.6,0.375 1.06,0.901 1.39,1.58c0.33,0.678 0.5,1.472 0.5,2.381c0,0.902 -0.17,1.69 -0.5,2.364c-0.33,0.675 -0.79,1.199 -1.39,1.574c-0.59,0.376 -1.28,0.563 -2.07,0.563zM161.09,71.374c0.6,0 1.09,-0.153 1.48,-0.46c0.39,-0.307 0.67,-0.71 0.86,-1.211c0.18,-0.5 0.28,-1.042 0.28,-1.625c0,-0.584 -0.1,-1.127 -0.28,-1.631c-0.19,-0.504 -0.47,-0.911 -0.86,-1.222c-0.39,-0.311 -0.88,-0.466 -1.48,-0.466c-0.6,0 -1.09,0.155 -1.47,0.466c-0.39,0.311 -0.68,0.718 -0.86,1.222c-0.19,0.504 -0.28,1.047 -0.28,1.631c0,0.583 0.09,1.125 0.28,1.625c0.18,0.501 0.47,0.904 0.86,1.211c0.38,0.307 0.87,0.46 1.47,0.46zM167.1,72.397v-8.729h1.29v1.318h0.09c0.16,-0.432 0.45,-0.782 0.87,-1.051c0.41,-0.269 0.88,-0.404 1.41,-0.404c0.09,0 0.22,0.002 0.37,0.006c0.14,0.004 0.26,0.009 0.33,0.017v1.364c-0.04,-0.011 -0.15,-0.028 -0.31,-0.051c-0.16,-0.027 -0.33,-0.04 -0.51,-0.04c-0.42,0 -0.8,0.089 -1.13,0.267c-0.33,0.174 -0.6,0.417 -0.79,0.728c-0.19,0.307 -0.28,0.657 -0.28,1.051v5.524zM173.05,72.397v-8.729h1.34v8.729zM173.73,62.213c-0.26,0 -0.48,-0.089 -0.67,-0.267c-0.19,-0.178 -0.28,-0.392 -0.28,-0.643c0,-0.25 0.09,-0.464 0.28,-0.642c0.19,-0.178 0.41,-0.267 0.67,-0.267c0.26,0 0.49,0.089 0.67,0.267c0.19,0.178 0.29,0.392 0.29,0.642c0,0.251 -0.1,0.465 -0.29,0.643c-0.18,0.178 -0.41,0.267 -0.67,0.267zM178.19,67.146v5.251h-1.34v-8.729h1.29v1.364h0.12c0.2,-0.444 0.51,-0.8 0.93,-1.069c0.42,-0.273 0.96,-0.409 1.61,-0.409c0.6,0 1.11,0.121 1.56,0.364c0.44,0.238 0.78,0.602 1.03,1.091c0.25,0.485 0.37,1.099 0.37,1.841v5.547h-1.34v-5.456c0,-0.686 -0.18,-1.22 -0.54,-1.602c-0.35,-0.387 -0.84,-0.58 -1.46,-0.58c-0.43,0 -0.81,0.093 -1.15,0.278c-0.33,0.186 -0.6,0.457 -0.79,0.813c-0.19,0.356 -0.29,0.788 -0.29,1.296zM189.73,75.853c-0.64,0 -1.2,-0.084 -1.67,-0.25c-0.46,-0.163 -0.85,-0.379 -1.16,-0.648c-0.31,-0.265 -0.55,-0.55 -0.73,-0.853l1.06,-0.75c0.12,0.159 0.28,0.341 0.46,0.546c0.19,0.208 0.44,0.388 0.77,0.54c0.32,0.155 0.75,0.233 1.27,0.233c0.71,0 1.29,-0.171 1.75,-0.512c0.46,-0.341 0.69,-0.875 0.69,-1.603v-1.773h-0.12c-0.1,0.159 -0.24,0.356 -0.42,0.591c-0.18,0.231 -0.43,0.438 -0.77,0.62c-0.33,0.178 -0.78,0.267 -1.35,0.267c-0.71,0 -1.34,-0.167 -1.9,-0.5c-0.56,-0.334 -1,-0.819 -1.33,-1.455c-0.32,-0.637 -0.48,-1.41 -0.48,-2.319c0,-0.894 0.16,-1.673 0.47,-2.336c0.32,-0.667 0.76,-1.182 1.32,-1.546c0.56,-0.367 1.2,-0.551 1.94,-0.551c0.57,0 1.02,0.095 1.35,0.284c0.34,0.186 0.6,0.398 0.78,0.637c0.18,0.235 0.32,0.428 0.42,0.579h0.13v-1.386h1.3v8.979c0,0.751 -0.17,1.361 -0.51,1.83c-0.34,0.474 -0.8,0.821 -1.37,1.04c-0.57,0.224 -1.2,0.336 -1.9,0.336zM189.69,71.056c0.54,0 0.99,-0.123 1.36,-0.369c0.37,-0.247 0.66,-0.601 0.85,-1.063c0.19,-0.462 0.29,-1.016 0.29,-1.66c0,-0.629 -0.1,-1.184 -0.28,-1.665c-0.19,-0.481 -0.47,-0.858 -0.85,-1.131c-0.37,-0.273 -0.83,-0.409 -1.37,-0.409c-0.57,0 -1.04,0.144 -1.42,0.432c-0.38,0.288 -0.66,0.674 -0.85,1.159c-0.18,0.485 -0.28,1.023 -0.28,1.614c0,0.606 0.1,1.143 0.29,1.609c0.19,0.462 0.47,0.826 0.85,1.091c0.38,0.261 0.85,0.392 1.41,0.392z" fill="black"/>
</g>
</g></svg>