<svg viewBox="0 0 334 112" fill="none" xmlns="http://www.w3.org/2000/svg" x="0" y="0"><g id="Group 1000013362_2">
<g id="Group 1000013360_6">
<g id="Group 1000013358_6">
<rect id="Rectangle 379_6" x="0.09500000000002728" y="-9.587999999999994" width="91.8489" height="112.029" rx="25" fill="#E8F2FF"/>
<rect id="Rectangle 378_6" x="8.170000000000016" y="-9.587999999999994" width="326.013" height="112.029" rx="25" fill="#E8F2FF"/>
</g>
</g>
<g id="Group 1000013359_6">
<path id="💳 1 Card System Campus Smart Card Solution" d="M20.229,41.546h16.005v-16.005h-16.005zM45.972,28.786v11.639h-2.109v-9.587h-0.068l-2.722,1.739v-1.933l2.893,-1.858zM62.974,32.713h-2.126c-0.061,-0.348 -0.172,-0.657 -0.335,-0.926c-0.163,-0.273 -0.366,-0.504 -0.608,-0.694c-0.243,-0.189 -0.52,-0.331 -0.83,-0.426c-0.307,-0.098 -0.639,-0.148 -0.995,-0.148c-0.633,0 -1.193,0.159 -1.682,0.478c-0.489,0.314 -0.872,0.776 -1.148,1.386c-0.277,0.607 -0.415,1.347 -0.415,2.223c0,0.89 0.138,1.64 0.415,2.25c0.28,0.606 0.663,1.065 1.148,1.376c0.489,0.307 1.048,0.46 1.676,0.46c0.349,0 0.675,-0.045 0.978,-0.136c0.307,-0.095 0.582,-0.233 0.824,-0.415c0.246,-0.182 0.453,-0.406 0.62,-0.671c0.17,-0.265 0.288,-0.568 0.352,-0.909l2.126,0.011c-0.08,0.553 -0.252,1.072 -0.518,1.557c-0.261,0.485 -0.604,0.913 -1.028,1.285c-0.425,0.367 -0.921,0.655 -1.489,0.864c-0.569,0.204 -1.2,0.307 -1.893,0.307c-1.023,0 -1.936,-0.237 -2.739,-0.711c-0.804,-0.474 -1.436,-1.157 -1.899,-2.052c-0.462,-0.894 -0.693,-1.966 -0.693,-3.216c0,-1.254 0.233,-2.327 0.699,-3.217c0.466,-0.894 1.101,-1.578 1.904,-2.052c0.803,-0.473 1.713,-0.71 2.728,-0.71c0.648,0 1.25,0.091 1.807,0.273c0.557,0.181 1.054,0.449 1.489,0.801c0.436,0.349 0.794,0.777 1.075,1.284c0.284,0.504 0.469,1.08 0.557,1.728zM67.325,40.602c-0.553,0 -1.051,-0.099 -1.494,-0.296c-0.44,-0.201 -0.788,-0.496 -1.046,-0.887c-0.254,-0.39 -0.381,-0.871 -0.381,-1.443c0,-0.493 0.091,-0.9 0.273,-1.222c0.182,-0.322 0.43,-0.58 0.745,-0.773c0.314,-0.193 0.668,-0.339 1.062,-0.438c0.398,-0.102 0.809,-0.176 1.234,-0.221c0.511,-0.053 0.926,-0.101 1.244,-0.142c0.319,-0.046 0.55,-0.114 0.694,-0.205c0.147,-0.095 0.221,-0.241 0.221,-0.438v-0.034c0,-0.428 -0.127,-0.759 -0.38,-0.994c-0.254,-0.235 -0.62,-0.353 -1.097,-0.353c-0.504,0 -0.904,0.11 -1.2,0.33c-0.291,0.22 -0.488,0.479 -0.591,0.779l-1.921,-0.273c0.152,-0.531 0.402,-0.974 0.751,-1.33c0.348,-0.36 0.774,-0.629 1.278,-0.807c0.504,-0.182 1.061,-0.273 1.671,-0.273c0.421,0 0.84,0.049 1.256,0.148c0.417,0.098 0.798,0.261 1.143,0.489c0.344,0.223 0.621,0.528 0.829,0.915c0.213,0.386 0.319,0.869 0.319,1.449v5.842h-1.978v-1.199h-0.068c-0.125,0.243 -0.302,0.47 -0.529,0.682c-0.223,0.209 -0.506,0.377 -0.847,0.506c-0.337,0.125 -0.733,0.188 -1.188,0.188zM67.86,39.09c0.413,0 0.771,-0.082 1.074,-0.245c0.303,-0.166 0.536,-0.386 0.699,-0.659c0.167,-0.273 0.25,-0.57 0.25,-0.892v-1.029c-0.064,0.053 -0.174,0.102 -0.33,0.148c-0.151,0.045 -0.322,0.085 -0.511,0.119c-0.19,0.034 -0.377,0.065 -0.563,0.091c-0.185,0.027 -0.346,0.049 -0.483,0.068c-0.307,0.042 -0.581,0.11 -0.824,0.205c-0.242,0.095 -0.434,0.227 -0.574,0.398c-0.14,0.167 -0.21,0.383 -0.21,0.648c0,0.379 0.138,0.665 0.415,0.858c0.276,0.193 0.629,0.29 1.057,0.29zM74.003,40.425v-8.729h1.995v1.455h0.091c0.159,-0.504 0.432,-0.893 0.819,-1.165c0.39,-0.277 0.835,-0.415 1.335,-0.415c0.114,0 0.241,0.005 0.381,0.017c0.144,0.007 0.263,0.021 0.358,0.04v1.892c-0.087,-0.03 -0.225,-0.057 -0.415,-0.079c-0.186,-0.027 -0.366,-0.04 -0.54,-0.04c-0.375,0 -0.712,0.081 -1.011,0.244c-0.296,0.159 -0.529,0.381 -0.7,0.665c-0.17,0.284 -0.255,0.612 -0.255,0.983v5.132zM83.229,40.579c-0.686,0 -1.3,-0.176 -1.842,-0.529c-0.541,-0.352 -0.97,-0.864 -1.284,-1.534c-0.314,-0.671 -0.472,-1.485 -0.472,-2.444c0,-0.97 0.159,-1.788 0.478,-2.455c0.322,-0.671 0.756,-1.177 1.301,-1.518c0.546,-0.344 1.154,-0.517 1.825,-0.517c0.511,0 0.932,0.087 1.261,0.262c0.33,0.17 0.591,0.377 0.784,0.619c0.194,0.239 0.343,0.464 0.449,0.676h0.086v-4.353h2.063v11.639h-2.023v-1.375h-0.126c-0.106,0.212 -0.259,0.438 -0.46,0.676c-0.201,0.235 -0.466,0.436 -0.796,0.603c-0.329,0.166 -0.744,0.25 -1.244,0.25zM83.803,38.891c0.436,0 0.807,-0.118 1.114,-0.352c0.307,-0.239 0.54,-0.571 0.699,-0.995c0.159,-0.424 0.239,-0.919 0.239,-1.483c0,-0.565 -0.08,-1.056 -0.239,-1.472c-0.156,-0.417 -0.387,-0.741 -0.694,-0.972c-0.303,-0.231 -0.676,-0.347 -1.119,-0.347c-0.459,0 -0.841,0.119 -1.148,0.358c-0.307,0.239 -0.538,0.568 -0.694,0.989c-0.155,0.421 -0.233,0.902 -0.233,1.444c0,0.545 0.078,1.032 0.233,1.46c0.16,0.425 0.393,0.76 0.699,1.006c0.311,0.243 0.692,0.364 1.143,0.364zM100.456,31.986c-0.053,-0.497 -0.276,-0.883 -0.67,-1.16c-0.391,-0.276 -0.898,-0.415 -1.523,-0.415c-0.44,0 -0.817,0.067 -1.131,0.199c-0.315,0.133 -0.555,0.313 -0.722,0.54c-0.167,0.228 -0.252,0.487 -0.256,0.779c0,0.242 0.055,0.453 0.165,0.631c0.114,0.178 0.267,0.329 0.46,0.454c0.193,0.122 0.408,0.224 0.642,0.307c0.235,0.084 0.472,0.154 0.711,0.211l1.091,0.272c0.44,0.103 0.862,0.241 1.267,0.415c0.41,0.174 0.775,0.394 1.097,0.659c0.326,0.266 0.584,0.586 0.773,0.961c0.19,0.375 0.284,0.815 0.284,1.318c0,0.682 -0.174,1.283 -0.522,1.802c-0.349,0.515 -0.853,0.919 -1.512,1.211c-0.656,0.288 -1.449,0.432 -2.382,0.432c-0.905,0 -1.691,-0.141 -2.358,-0.421c-0.663,-0.28 -1.182,-0.69 -1.557,-1.228c-0.372,-0.538 -0.572,-1.193 -0.603,-1.966h2.075c0.03,0.405 0.155,0.743 0.375,1.012c0.22,0.269 0.506,0.469 0.858,0.602c0.356,0.133 0.754,0.199 1.193,0.199c0.459,0 0.861,-0.068 1.205,-0.205c0.349,-0.14 0.622,-0.333 0.819,-0.579c0.197,-0.25 0.297,-0.542 0.301,-0.876c-0.004,-0.303 -0.093,-0.553 -0.267,-0.75c-0.174,-0.201 -0.419,-0.367 -0.733,-0.5c-0.311,-0.136 -0.675,-0.258 -1.092,-0.364l-1.324,-0.341c-0.958,-0.246 -1.716,-0.619 -2.273,-1.119c-0.553,-0.504 -0.83,-1.173 -0.83,-2.006c0,-0.686 0.186,-1.287 0.557,-1.802c0.375,-0.515 0.885,-0.915 1.529,-1.199c0.644,-0.288 1.373,-0.432 2.188,-0.432c0.826,0 1.55,0.144 2.171,0.432c0.625,0.284 1.116,0.68 1.472,1.188c0.356,0.503 0.54,1.083 0.551,1.739zM105.712,43.699c-0.28,0 -0.54,-0.023 -0.779,-0.068c-0.235,-0.042 -0.422,-0.091 -0.562,-0.148l0.477,-1.603c0.299,0.087 0.567,0.129 0.801,0.125c0.235,-0.003 0.442,-0.077 0.62,-0.221c0.182,-0.14 0.335,-0.375 0.46,-0.705l0.176,-0.472l-3.165,-8.911h2.182l2.012,6.592h0.091l2.018,-6.592h2.188l-3.495,9.786c-0.163,0.463 -0.379,0.859 -0.648,1.188c-0.269,0.334 -0.599,0.588 -0.989,0.762c-0.387,0.178 -0.849,0.267 -1.387,0.267zM120.554,34.003l-1.876,0.205c-0.053,-0.19 -0.145,-0.368 -0.278,-0.534c-0.129,-0.167 -0.303,-0.302 -0.523,-0.404c-0.22,-0.102 -0.489,-0.153 -0.807,-0.153c-0.428,0 -0.788,0.092 -1.08,0.278c-0.288,0.186 -0.43,0.426 -0.426,0.722c-0.004,0.254 0.089,0.46 0.279,0.619c0.193,0.16 0.511,0.29 0.954,0.393l1.489,0.318c0.826,0.178 1.44,0.46 1.842,0.847c0.405,0.386 0.61,0.892 0.614,1.517c-0.004,0.549 -0.165,1.034 -0.484,1.455c-0.314,0.417 -0.752,0.743 -1.312,0.978c-0.561,0.234 -1.205,0.352 -1.933,0.352c-1.068,0 -1.928,-0.224 -2.58,-0.671c-0.652,-0.451 -1.04,-1.078 -1.165,-1.881l2.006,-0.193c0.091,0.394 0.284,0.691 0.58,0.892c0.295,0.201 0.68,0.301 1.154,0.301c0.488,0 0.88,-0.1 1.176,-0.301c0.299,-0.201 0.449,-0.449 0.449,-0.744c0,-0.25 -0.097,-0.457 -0.29,-0.62c-0.189,-0.163 -0.485,-0.288 -0.886,-0.375l-1.489,-0.313c-0.838,-0.174 -1.457,-0.467 -1.859,-0.88c-0.402,-0.417 -0.6,-0.944 -0.597,-1.58c-0.003,-0.538 0.142,-1.004 0.438,-1.399c0.299,-0.397 0.714,-0.704 1.245,-0.92c0.534,-0.22 1.15,-0.33 1.847,-0.33c1.023,0 1.828,0.218 2.415,0.654c0.591,0.435 0.957,1.025 1.097,1.767zM126.797,31.696v1.591h-5.018v-1.591zM123.018,29.604h2.057v8.196c0,0.276 0.042,0.488 0.125,0.636c0.087,0.144 0.201,0.243 0.341,0.296c0.14,0.053 0.296,0.079 0.466,0.079c0.129,0 0.246,-0.009 0.352,-0.028c0.11,-0.019 0.194,-0.036 0.251,-0.051l0.346,1.608c-0.11,0.038 -0.267,0.08 -0.471,0.125c-0.201,0.046 -0.448,0.072 -0.739,0.08c-0.516,0.015 -0.98,-0.063 -1.393,-0.233c-0.413,-0.175 -0.74,-0.444 -0.983,-0.807c-0.239,-0.364 -0.356,-0.819 -0.352,-1.364zM132.289,40.596c-0.876,0 -1.632,-0.182 -2.268,-0.546c-0.633,-0.367 -1.12,-0.886 -1.461,-1.557c-0.341,-0.674 -0.511,-1.468 -0.511,-2.381c0,-0.898 0.17,-1.686 0.511,-2.365c0.345,-0.682 0.826,-1.212 1.444,-1.591c0.617,-0.383 1.343,-0.574 2.177,-0.574c0.538,0 1.045,0.087 1.523,0.262c0.481,0.17 0.905,0.435 1.273,0.795c0.371,0.36 0.663,0.819 0.875,1.376c0.212,0.553 0.318,1.212 0.318,1.977v0.631h-7.155v-1.386h5.183c-0.004,-0.395 -0.089,-0.745 -0.256,-1.052c-0.166,-0.311 -0.399,-0.555 -0.699,-0.733c-0.295,-0.178 -0.64,-0.267 -1.034,-0.267c-0.421,0 -0.79,0.102 -1.108,0.307c-0.318,0.201 -0.567,0.466 -0.745,0.795c-0.174,0.326 -0.263,0.684 -0.267,1.075v1.21c0,0.508 0.093,0.944 0.279,1.307c0.185,0.36 0.445,0.637 0.778,0.83c0.334,0.189 0.724,0.284 1.171,0.284c0.299,0 0.57,-0.041 0.813,-0.125c0.242,-0.087 0.452,-0.214 0.631,-0.381c0.178,-0.166 0.312,-0.373 0.403,-0.619l1.921,0.216c-0.121,0.508 -0.352,0.951 -0.693,1.33c-0.338,0.375 -0.769,0.667 -1.296,0.875c-0.527,0.205 -1.129,0.307 -1.807,0.307zM137.911,40.425v-8.729h1.966v1.483h0.103c0.181,-0.5 0.483,-0.89 0.903,-1.171c0.421,-0.284 0.923,-0.426 1.506,-0.426c0.591,0 1.09,0.144 1.495,0.432c0.409,0.284 0.697,0.673 0.864,1.165h0.091c0.193,-0.485 0.519,-0.871 0.977,-1.159c0.463,-0.292 1.01,-0.438 1.643,-0.438c0.803,0 1.458,0.254 1.966,0.762c0.508,0.507 0.762,1.248 0.762,2.222v5.859h-2.063v-5.541c0,-0.542 -0.144,-0.938 -0.432,-1.188c-0.288,-0.254 -0.641,-0.38 -1.057,-0.38c-0.497,0 -0.885,0.155 -1.165,0.466c-0.277,0.306 -0.415,0.706 -0.415,1.199v5.444h-2.018v-5.626c0,-0.451 -0.136,-0.811 -0.409,-1.08c-0.269,-0.269 -0.621,-0.403 -1.057,-0.403c-0.296,0 -0.565,0.075 -0.807,0.227c-0.243,0.148 -0.436,0.358 -0.58,0.631c-0.144,0.269 -0.216,0.583 -0.216,0.943v5.308zM31.005,64.432h-1.41c-0.083,-0.406 -0.229,-0.762 -0.437,-1.069c-0.205,-0.307 -0.455,-0.564 -0.75,-0.773c-0.292,-0.212 -0.616,-0.371 -0.972,-0.477c-0.356,-0.106 -0.728,-0.159 -1.114,-0.159c-0.705,0 -1.343,0.178 -1.915,0.534c-0.569,0.356 -1.022,0.881 -1.359,1.574c-0.333,0.694 -0.5,1.544 -0.5,2.552c0,1.008 0.167,1.859 0.5,2.552c0.337,0.693 0.79,1.218 1.359,1.574c0.572,0.356 1.21,0.534 1.915,0.534c0.386,0 0.758,-0.053 1.114,-0.159c0.356,-0.106 0.68,-0.263 0.972,-0.471c0.295,-0.213 0.545,-0.472 0.75,-0.779c0.208,-0.311 0.354,-0.667 0.437,-1.069h1.41c-0.106,0.595 -0.299,1.128 -0.58,1.597c-0.28,0.47 -0.629,0.87 -1.046,1.2c-0.416,0.325 -0.884,0.574 -1.403,0.744c-0.516,0.171 -1.067,0.256 -1.654,0.256c-0.993,0 -1.876,-0.243 -2.649,-0.728c-0.773,-0.485 -1.381,-1.174 -1.824,-2.068c-0.443,-0.894 -0.665,-1.955 -0.665,-3.183c0,-1.228 0.222,-2.288 0.665,-3.183c0.443,-0.894 1.051,-1.583 1.824,-2.068c0.773,-0.485 1.656,-0.728 2.649,-0.728c0.587,0 1.138,0.085 1.654,0.256c0.519,0.17 0.987,0.421 1.403,0.75c0.417,0.326 0.766,0.724 1.046,1.194c0.281,0.466 0.474,0.998 0.58,1.597zM35.669,72.638c-0.553,0 -1.055,-0.104 -1.506,-0.312c-0.451,-0.212 -0.809,-0.517 -1.074,-0.915c-0.265,-0.402 -0.398,-0.887 -0.398,-1.455c0,-0.5 0.099,-0.906 0.296,-1.216c0.197,-0.315 0.46,-0.561 0.79,-0.739c0.33,-0.178 0.693,-0.311 1.091,-0.398c0.402,-0.091 0.805,-0.163 1.211,-0.216c0.53,-0.068 0.96,-0.119 1.29,-0.153c0.333,-0.038 0.576,-0.101 0.727,-0.188c0.156,-0.087 0.233,-0.239 0.233,-0.455v-0.045c0,-0.561 -0.153,-0.997 -0.46,-1.307c-0.303,-0.311 -0.764,-0.466 -1.381,-0.466c-0.64,0 -1.142,0.14 -1.506,0.42c-0.364,0.281 -0.62,0.58 -0.767,0.898l-1.274,-0.454c0.228,-0.531 0.531,-0.944 0.91,-1.239c0.382,-0.3 0.799,-0.508 1.25,-0.626c0.455,-0.121 0.902,-0.181 1.341,-0.181c0.281,0 0.603,0.034 0.967,0.102c0.367,0.064 0.721,0.199 1.062,0.403c0.345,0.205 0.631,0.514 0.859,0.927c0.227,0.413 0.341,0.966 0.341,1.659v5.752h-1.342v-1.182h-0.068c-0.091,0.189 -0.242,0.392 -0.455,0.608c-0.212,0.216 -0.494,0.399 -0.846,0.551c-0.353,0.152 -0.783,0.227 -1.291,0.227zM35.874,71.434c0.53,0 0.978,-0.105 1.341,-0.313c0.368,-0.208 0.644,-0.477 0.83,-0.807c0.19,-0.33 0.284,-0.676 0.284,-1.04v-1.228c-0.057,0.068 -0.182,0.131 -0.375,0.188c-0.189,0.053 -0.409,0.1 -0.659,0.142c-0.246,0.038 -0.487,0.072 -0.722,0.102c-0.231,0.027 -0.419,0.049 -0.563,0.068c-0.348,0.046 -0.674,0.12 -0.977,0.222c-0.299,0.099 -0.542,0.248 -0.728,0.449c-0.181,0.197 -0.272,0.466 -0.272,0.807c0,0.466 0.172,0.818 0.517,1.057c0.348,0.235 0.79,0.353 1.324,0.353zM42.119,72.434v-8.73h1.295v1.364h0.114c0.182,-0.466 0.476,-0.828 0.881,-1.085c0.405,-0.262 0.892,-0.392 1.461,-0.392c0.575,0 1.055,0.13 1.437,0.392c0.387,0.257 0.688,0.619 0.904,1.085h0.091c0.224,-0.451 0.559,-0.809 1.006,-1.074c0.447,-0.269 0.983,-0.403 1.608,-0.403c0.781,0 1.419,0.244 1.916,0.733c0.496,0.485 0.744,1.241 0.744,2.267v5.843h-1.341v-5.843c0,-0.644 -0.176,-1.104 -0.529,-1.381c-0.352,-0.276 -0.767,-0.415 -1.244,-0.415c-0.614,0 -1.09,0.186 -1.427,0.557c-0.337,0.368 -0.506,0.834 -0.506,1.398v5.684h-1.364v-5.979c0,-0.496 -0.161,-0.896 -0.483,-1.199c-0.322,-0.307 -0.737,-0.461 -1.244,-0.461c-0.349,0 -0.675,0.093 -0.978,0.279c-0.299,0.186 -0.542,0.443 -0.727,0.773c-0.182,0.326 -0.273,0.703 -0.273,1.131v5.456zM56.028,75.707v-12.003h1.296v1.387h0.159c0.099,-0.152 0.235,-0.345 0.41,-0.58c0.178,-0.238 0.432,-0.451 0.761,-0.636c0.334,-0.19 0.784,-0.284 1.353,-0.284c0.735,0 1.383,0.183 1.944,0.551c0.56,0.367 0.998,0.888 1.312,1.563c0.315,0.674 0.472,1.47 0.472,2.387c0,0.924 -0.157,1.726 -0.472,2.404c-0.314,0.674 -0.75,1.197 -1.307,1.568c-0.557,0.368 -1.199,0.552 -1.926,0.552c-0.561,0 -1.01,-0.093 -1.347,-0.279c-0.338,-0.189 -0.597,-0.403 -0.779,-0.642c-0.182,-0.243 -0.322,-0.443 -0.421,-0.602h-0.113v4.614zM57.347,68.069c0,0.659 0.097,1.241 0.29,1.745c0.193,0.5 0.475,0.892 0.847,1.176c0.371,0.281 0.826,0.421 1.364,0.421c0.56,0 1.028,-0.148 1.403,-0.444c0.379,-0.299 0.664,-0.7 0.853,-1.204c0.193,-0.508 0.29,-1.073 0.29,-1.694c0,-0.614 -0.095,-1.167 -0.284,-1.66c-0.186,-0.496 -0.468,-0.888 -0.847,-1.176c-0.375,-0.292 -0.847,-0.438 -1.415,-0.438c-0.546,0 -1.004,0.139 -1.376,0.415c-0.371,0.273 -0.651,0.656 -0.841,1.148c-0.189,0.489 -0.284,1.059 -0.284,1.711zM71.283,68.865v-5.161h1.341v8.73h-1.341v-1.478h-0.091c-0.205,0.443 -0.523,0.82 -0.955,1.131c-0.432,0.307 -0.978,0.46 -1.637,0.46c-0.546,0 -1.031,-0.119 -1.455,-0.358c-0.424,-0.242 -0.758,-0.606 -1,-1.091c-0.243,-0.489 -0.364,-1.104 -0.364,-1.847v-5.547h1.341v5.456c0,0.637 0.178,1.144 0.535,1.523c0.359,0.379 0.818,0.569 1.375,0.569c0.333,0 0.672,-0.086 1.017,-0.256c0.349,-0.171 0.641,-0.432 0.875,-0.784c0.239,-0.353 0.359,-0.802 0.359,-1.347zM81.264,65.659l-1.205,0.341c-0.076,-0.201 -0.188,-0.396 -0.335,-0.585c-0.144,-0.193 -0.341,-0.352 -0.591,-0.478c-0.25,-0.125 -0.571,-0.187 -0.961,-0.187c-0.534,0 -0.979,0.123 -1.335,0.369c-0.353,0.243 -0.529,0.552 -0.529,0.927c0,0.333 0.121,0.596 0.364,0.79c0.242,0.193 0.621,0.354 1.136,0.483l1.296,0.318c0.781,0.19 1.362,0.479 1.745,0.87c0.383,0.386 0.574,0.884 0.574,1.494c0,0.5 -0.144,0.948 -0.432,1.342c-0.284,0.394 -0.682,0.704 -1.193,0.932c-0.512,0.227 -1.107,0.341 -1.785,0.341c-0.89,0 -1.627,-0.194 -2.211,-0.58c-0.583,-0.387 -0.953,-0.951 -1.108,-1.694l1.273,-0.318c0.121,0.47 0.35,0.822 0.688,1.057c0.341,0.235 0.786,0.353 1.335,0.353c0.625,0 1.122,-0.133 1.489,-0.398c0.372,-0.269 0.557,-0.591 0.557,-0.966c0,-0.304 -0.106,-0.557 -0.318,-0.762c-0.212,-0.208 -0.538,-0.364 -0.978,-0.466l-1.455,-0.341c-0.799,-0.19 -1.386,-0.483 -1.761,-0.881c-0.372,-0.402 -0.557,-0.904 -0.557,-1.506c0,-0.493 0.138,-0.928 0.415,-1.307c0.28,-0.379 0.661,-0.677 1.142,-0.892c0.485,-0.216 1.034,-0.324 1.648,-0.324c0.864,0 1.542,0.189 2.035,0.568c0.496,0.379 0.848,0.879 1.057,1.5zM94.49,63.704c-0.068,-0.576 -0.344,-1.023 -0.829,-1.341c-0.485,-0.318 -1.08,-0.477 -1.785,-0.477c-0.515,0 -0.966,0.083 -1.353,0.25c-0.382,0.166 -0.682,0.396 -0.898,0.687c-0.212,0.292 -0.318,0.624 -0.318,0.995c0,0.311 0.074,0.578 0.222,0.801c0.151,0.22 0.345,0.404 0.579,0.552c0.235,0.143 0.482,0.263 0.739,0.358c0.258,0.09 0.495,0.164 0.711,0.221l1.182,0.318c0.303,0.08 0.64,0.19 1.011,0.33c0.376,0.14 0.734,0.332 1.075,0.574c0.344,0.239 0.629,0.546 0.852,0.921c0.224,0.375 0.335,0.835 0.335,1.381c0,0.629 -0.164,1.197 -0.494,1.705c-0.326,0.508 -0.803,0.911 -1.432,1.21c-0.625,0.3 -1.385,0.449 -2.279,0.449c-0.834,0 -1.556,-0.134 -2.166,-0.403c-0.606,-0.269 -1.083,-0.644 -1.432,-1.125c-0.345,-0.482 -0.54,-1.04 -0.585,-1.677h1.455c0.038,0.44 0.185,0.803 0.443,1.091c0.262,0.284 0.591,0.497 0.989,0.637c0.402,0.136 0.834,0.204 1.296,0.204c0.538,0 1.021,-0.087 1.449,-0.261c0.428,-0.178 0.767,-0.424 1.017,-0.739c0.25,-0.318 0.375,-0.69 0.375,-1.114c0,-0.386 -0.108,-0.701 -0.324,-0.943c-0.215,-0.243 -0.5,-0.44 -0.852,-0.591c-0.352,-0.152 -0.733,-0.285 -1.142,-0.398l-1.433,-0.409c-0.909,-0.262 -1.629,-0.635 -2.159,-1.12c-0.531,-0.485 -0.796,-1.12 -0.796,-1.904c0,-0.652 0.176,-1.22 0.529,-1.705c0.356,-0.489 0.833,-0.868 1.432,-1.137c0.602,-0.272 1.275,-0.409 2.017,-0.409c0.751,0 1.417,0.135 2.001,0.404c0.583,0.265 1.046,0.629 1.387,1.091c0.344,0.462 0.526,0.987 0.545,1.574zM98.149,72.434v-8.73h1.296v1.364h0.113c0.182,-0.466 0.476,-0.828 0.881,-1.085c0.406,-0.262 0.893,-0.392 1.461,-0.392c0.576,0 1.055,0.13 1.438,0.392c0.386,0.257 0.687,0.619 0.903,1.085h0.091c0.224,-0.451 0.559,-0.809 1.006,-1.074c0.447,-0.269 0.984,-0.403 1.609,-0.403c0.78,0 1.419,0.244 1.915,0.733c0.496,0.485 0.744,1.241 0.744,2.267v5.843h-1.341v-5.843c0,-0.644 -0.176,-1.104 -0.528,-1.381c-0.353,-0.276 -0.768,-0.415 -1.245,-0.415c-0.614,0 -1.089,0.186 -1.426,0.557c-0.338,0.368 -0.506,0.834 -0.506,1.398v5.684h-1.364v-5.979c0,-0.496 -0.161,-0.896 -0.483,-1.199c-0.322,-0.307 -0.737,-0.461 -1.245,-0.461c-0.349,0 -0.674,0.093 -0.978,0.279c-0.299,0.186 -0.541,0.443 -0.727,0.773c-0.182,0.326 -0.273,0.703 -0.273,1.131v5.456zM114.628,72.638c-0.553,0 -1.056,-0.104 -1.506,-0.312c-0.451,-0.212 -0.809,-0.517 -1.075,-0.915c-0.265,-0.402 -0.397,-0.887 -0.397,-1.455c0,-0.5 0.098,-0.906 0.295,-1.216c0.197,-0.315 0.461,-0.561 0.79,-0.739c0.33,-0.178 0.694,-0.311 1.091,-0.398c0.402,-0.091 0.805,-0.163 1.211,-0.216c0.53,-0.068 0.96,-0.119 1.29,-0.153c0.333,-0.038 0.576,-0.101 0.727,-0.188c0.156,-0.087 0.233,-0.239 0.233,-0.455v-0.045c0,-0.561 -0.153,-0.997 -0.46,-1.307c-0.303,-0.311 -0.763,-0.466 -1.381,-0.466c-0.64,0 -1.142,0.14 -1.506,0.42c-0.364,0.281 -0.619,0.58 -0.767,0.898l-1.273,-0.454c0.227,-0.531 0.53,-0.944 0.909,-1.239c0.383,-0.3 0.799,-0.508 1.25,-0.626c0.455,-0.121 0.902,-0.181 1.342,-0.181c0.28,0 0.602,0.034 0.966,0.102c0.367,0.064 0.722,0.199 1.063,0.403c0.344,0.205 0.63,0.514 0.858,0.927c0.227,0.413 0.341,0.966 0.341,1.659v5.752h-1.342v-1.182h-0.068c-0.091,0.189 -0.242,0.392 -0.454,0.608c-0.213,0.216 -0.495,0.399 -0.847,0.551c-0.353,0.152 -0.783,0.227 -1.29,0.227zM114.832,71.434c0.531,0 0.978,-0.105 1.342,-0.313c0.367,-0.208 0.644,-0.477 0.829,-0.807c0.19,-0.33 0.284,-0.676 0.284,-1.04v-1.228c-0.056,0.068 -0.181,0.131 -0.375,0.188c-0.189,0.053 -0.409,0.1 -0.659,0.142c-0.246,0.038 -0.487,0.072 -0.722,0.102c-0.231,0.027 -0.418,0.049 -0.562,0.068c-0.349,0.046 -0.675,0.12 -0.978,0.222c-0.299,0.099 -0.542,0.248 -0.727,0.449c-0.182,0.197 -0.273,0.466 -0.273,0.807c0,0.466 0.172,0.818 0.517,1.057c0.349,0.235 0.79,0.353 1.324,0.353zM121.077,72.434v-8.73h1.296v1.319h0.091c0.159,-0.432 0.447,-0.783 0.863,-1.052c0.417,-0.269 0.887,-0.403 1.41,-0.403c0.098,0 0.222,0.002 0.369,0.006c0.148,0.003 0.26,0.009 0.336,0.017v1.364c-0.046,-0.012 -0.15,-0.029 -0.313,-0.052c-0.159,-0.026 -0.328,-0.039 -0.506,-0.039c-0.424,0 -0.803,0.089 -1.136,0.267c-0.33,0.174 -0.592,0.417 -0.785,0.727c-0.189,0.307 -0.284,0.658 -0.284,1.052v5.524zM131.375,63.704v1.137h-4.524v-1.137zM128.17,61.613h1.341v8.32c0,0.379 0.055,0.663 0.165,0.853c0.113,0.185 0.257,0.31 0.432,0.375c0.178,0.06 0.365,0.091 0.562,0.091c0.148,0 0.269,-0.008 0.364,-0.023c0.095,-0.019 0.17,-0.034 0.227,-0.046l0.273,1.205c-0.091,0.034 -0.218,0.069 -0.381,0.103c-0.163,0.038 -0.369,0.056 -0.619,0.056c-0.379,0 -0.75,-0.081 -1.114,-0.244c-0.36,-0.163 -0.659,-0.411 -0.898,-0.744c-0.235,-0.334 -0.352,-0.754 -0.352,-1.262zM147.442,64.432h-1.41c-0.083,-0.406 -0.229,-0.762 -0.437,-1.069c-0.205,-0.307 -0.455,-0.564 -0.751,-0.773c-0.291,-0.212 -0.615,-0.371 -0.971,-0.477c-0.357,-0.106 -0.728,-0.159 -1.114,-0.159c-0.705,0 -1.343,0.178 -1.916,0.534c-0.568,0.356 -1.021,0.881 -1.358,1.574c-0.333,0.694 -0.5,1.544 -0.5,2.552c0,1.008 0.167,1.859 0.5,2.552c0.337,0.693 0.79,1.218 1.358,1.574c0.573,0.356 1.211,0.534 1.916,0.534c0.386,0 0.757,-0.053 1.114,-0.159c0.356,-0.106 0.68,-0.263 0.971,-0.471c0.296,-0.213 0.546,-0.472 0.751,-0.779c0.208,-0.311 0.354,-0.667 0.437,-1.069h1.41c-0.106,0.595 -0.3,1.128 -0.58,1.597c-0.28,0.47 -0.629,0.87 -1.046,1.2c-0.416,0.325 -0.884,0.574 -1.403,0.744c-0.516,0.171 -1.067,0.256 -1.654,0.256c-0.993,0 -1.876,-0.243 -2.649,-0.728c-0.773,-0.485 -1.381,-1.174 -1.824,-2.068c-0.443,-0.894 -0.665,-1.955 -0.665,-3.183c0,-1.228 0.222,-2.288 0.665,-3.183c0.443,-0.894 1.051,-1.583 1.824,-2.068c0.773,-0.485 1.656,-0.728 2.649,-0.728c0.587,0 1.138,0.085 1.654,0.256c0.519,0.17 0.987,0.421 1.403,0.75c0.417,0.326 0.766,0.724 1.046,1.194c0.28,0.466 0.474,0.998 0.58,1.597zM152.106,72.638c-0.553,0 -1.055,-0.104 -1.506,-0.312c-0.451,-0.212 -0.809,-0.517 -1.074,-0.915c-0.265,-0.402 -0.398,-0.887 -0.398,-1.455c0,-0.5 0.099,-0.906 0.296,-1.216c0.197,-0.315 0.46,-0.561 0.79,-0.739c0.329,-0.178 0.693,-0.311 1.091,-0.398c0.402,-0.091 0.805,-0.163 1.21,-0.216c0.531,-0.068 0.961,-0.119 1.291,-0.153c0.333,-0.038 0.576,-0.101 0.727,-0.188c0.155,-0.087 0.233,-0.239 0.233,-0.455v-0.045c0,-0.561 -0.153,-0.997 -0.46,-1.307c-0.303,-0.311 -0.764,-0.466 -1.381,-0.466c-0.641,0 -1.143,0.14 -1.506,0.42c-0.364,0.281 -0.62,0.58 -0.768,0.898l-1.273,-0.454c0.228,-0.531 0.531,-0.944 0.91,-1.239c0.382,-0.3 0.799,-0.508 1.25,-0.626c0.455,-0.121 0.902,-0.181 1.341,-0.181c0.281,0 0.603,0.034 0.966,0.102c0.368,0.064 0.722,0.199 1.063,0.403c0.345,0.205 0.631,0.514 0.858,0.927c0.228,0.413 0.341,0.966 0.341,1.659v5.752h-1.341v-1.182h-0.068c-0.091,0.189 -0.243,0.392 -0.455,0.608c-0.212,0.216 -0.494,0.399 -0.847,0.551c-0.352,0.152 -0.782,0.227 -1.29,0.227zM152.311,71.434c0.53,0 0.977,-0.105 1.341,-0.313c0.368,-0.208 0.644,-0.477 0.83,-0.807c0.189,-0.33 0.284,-0.676 0.284,-1.04v-1.228c-0.057,0.068 -0.182,0.131 -0.375,0.188c-0.189,0.053 -0.409,0.1 -0.659,0.142c-0.247,0.038 -0.487,0.072 -0.722,0.102c-0.231,0.027 -0.419,0.049 -0.563,0.068c-0.348,0.046 -0.674,0.12 -0.977,0.222c-0.3,0.099 -0.542,0.248 -0.728,0.449c-0.182,0.197 -0.273,0.466 -0.273,0.807c0,0.466 0.173,0.818 0.518,1.057c0.348,0.235 0.79,0.353 1.324,0.353zM158.555,72.434v-8.73h1.296v1.319h0.091c0.159,-0.432 0.447,-0.783 0.864,-1.052c0.417,-0.269 0.887,-0.403 1.409,-0.403c0.099,0 0.222,0.002 0.37,0.006c0.148,0.003 0.259,0.009 0.335,0.017v1.364c-0.045,-0.012 -0.149,-0.029 -0.312,-0.052c-0.16,-0.026 -0.328,-0.039 -0.506,-0.039c-0.425,0 -0.803,0.089 -1.137,0.267c-0.329,0.174 -0.591,0.417 -0.784,0.727c-0.19,0.307 -0.284,0.658 -0.284,1.052v5.524zM167.541,72.616c-0.728,0 -1.37,-0.184 -1.927,-0.552c-0.557,-0.371 -0.993,-0.894 -1.307,-1.568c-0.315,-0.678 -0.472,-1.48 -0.472,-2.404c0,-0.917 0.157,-1.713 0.472,-2.387c0.314,-0.675 0.752,-1.196 1.313,-1.563c0.561,-0.368 1.208,-0.551 1.943,-0.551c0.569,0 1.018,0.094 1.347,0.284c0.334,0.185 0.588,0.398 0.762,0.636c0.178,0.235 0.316,0.428 0.415,0.58h0.114v-4.297h1.341v11.64h-1.296v-1.341h-0.159c-0.099,0.159 -0.239,0.359 -0.421,0.602c-0.182,0.239 -0.441,0.453 -0.778,0.642c-0.338,0.186 -0.787,0.279 -1.347,0.279zM167.723,71.411c0.538,0 0.992,-0.14 1.364,-0.421c0.371,-0.284 0.653,-0.676 0.846,-1.176c0.194,-0.504 0.29,-1.086 0.29,-1.745c0,-0.652 -0.094,-1.222 -0.284,-1.711c-0.189,-0.492 -0.47,-0.875 -0.841,-1.148c-0.371,-0.276 -0.83,-0.415 -1.375,-0.415c-0.569,0 -1.042,0.146 -1.421,0.438c-0.375,0.288 -0.658,0.68 -0.847,1.176c-0.186,0.493 -0.279,1.046 -0.279,1.66c0,0.621 0.095,1.186 0.285,1.694c0.193,0.504 0.477,0.905 0.852,1.204c0.379,0.296 0.849,0.444 1.41,0.444zM185.233,63.704c-0.068,-0.576 -0.345,-1.023 -0.83,-1.341c-0.485,-0.318 -1.08,-0.477 -1.784,-0.477c-0.516,0 -0.967,0.083 -1.353,0.25c-0.383,0.166 -0.682,0.396 -0.898,0.687c-0.212,0.292 -0.318,0.624 -0.318,0.995c0,0.311 0.074,0.578 0.221,0.801c0.152,0.22 0.345,0.404 0.58,0.552c0.235,0.143 0.481,0.263 0.739,0.358c0.258,0.09 0.494,0.164 0.71,0.221l1.182,0.318c0.304,0.08 0.641,0.19 1.012,0.33c0.375,0.14 0.733,0.332 1.074,0.574c0.345,0.239 0.629,0.546 0.853,0.921c0.223,0.375 0.335,0.835 0.335,1.381c0,0.629 -0.165,1.197 -0.494,1.705c-0.326,0.508 -0.804,0.911 -1.433,1.21c-0.625,0.3 -1.384,0.449 -2.279,0.449c-0.833,0 -1.555,-0.134 -2.165,-0.403c-0.606,-0.269 -1.084,-0.644 -1.432,-1.125c-0.345,-0.482 -0.54,-1.04 -0.586,-1.677h1.455c0.038,0.44 0.186,0.803 0.444,1.091c0.261,0.284 0.591,0.497 0.989,0.637c0.401,0.136 0.833,0.204 1.295,0.204c0.538,0 1.021,-0.087 1.45,-0.261c0.428,-0.178 0.767,-0.424 1.017,-0.739c0.25,-0.318 0.375,-0.69 0.375,-1.114c0,-0.386 -0.108,-0.701 -0.324,-0.943c-0.216,-0.243 -0.5,-0.44 -0.852,-0.591c-0.353,-0.152 -0.734,-0.285 -1.143,-0.398l-1.432,-0.409c-0.909,-0.262 -1.629,-0.635 -2.16,-1.12c-0.53,-0.485 -0.795,-1.12 -0.795,-1.904c0,-0.652 0.176,-1.22 0.528,-1.705c0.356,-0.489 0.834,-0.868 1.432,-1.137c0.603,-0.272 1.275,-0.409 2.018,-0.409c0.75,0 1.417,0.135 2.001,0.404c0.583,0.265 1.045,0.629 1.386,1.091c0.345,0.462 0.527,0.987 0.546,1.574zM192.438,72.616c-0.788,0 -1.48,-0.188 -2.075,-0.563c-0.591,-0.375 -1.053,-0.9 -1.386,-1.574c-0.33,-0.675 -0.495,-1.463 -0.495,-2.365c0,-0.909 0.165,-1.703 0.495,-2.381c0.333,-0.678 0.795,-1.205 1.386,-1.58c0.595,-0.375 1.287,-0.562 2.075,-0.562c0.788,0 1.478,0.187 2.069,0.562c0.594,0.375 1.057,0.902 1.386,1.58c0.334,0.678 0.5,1.472 0.5,2.381c0,0.902 -0.166,1.69 -0.5,2.365c-0.329,0.674 -0.792,1.199 -1.386,1.574c-0.591,0.375 -1.281,0.563 -2.069,0.563zM192.438,71.411c0.599,0 1.091,-0.154 1.478,-0.461c0.386,-0.306 0.672,-0.71 0.858,-1.21c0.185,-0.5 0.278,-1.042 0.278,-1.626c0,-0.583 -0.093,-1.127 -0.278,-1.631c-0.186,-0.504 -0.472,-0.911 -0.858,-1.222c-0.387,-0.31 -0.879,-0.466 -1.478,-0.466c-0.599,0 -1.091,0.156 -1.478,0.466c-0.386,0.311 -0.672,0.718 -0.858,1.222c-0.186,0.504 -0.278,1.048 -0.278,1.631c0,0.584 0.092,1.126 0.278,1.626c0.186,0.5 0.472,0.904 0.858,1.21c0.387,0.307 0.879,0.461 1.478,0.461zM199.782,60.794v11.64h-1.341v-11.64zM207.74,68.865v-5.161h1.341v8.73h-1.341v-1.478h-0.091c-0.204,0.443 -0.523,0.82 -0.955,1.131c-0.431,0.307 -0.977,0.46 -1.636,0.46c-0.546,0 -1.031,-0.119 -1.455,-0.358c-0.425,-0.242 -0.758,-0.606 -1,-1.091c-0.243,-0.489 -0.364,-1.104 -0.364,-1.847v-5.547h1.341v5.456c0,0.637 0.178,1.144 0.534,1.523c0.36,0.379 0.819,0.569 1.376,0.569c0.333,0 0.672,-0.086 1.017,-0.256c0.349,-0.171 0.64,-0.432 0.875,-0.784c0.239,-0.353 0.358,-0.802 0.358,-1.347zM215.335,63.704v1.137h-4.524v-1.137zM212.129,61.613h1.341v8.32c0,0.379 0.055,0.663 0.165,0.853c0.114,0.185 0.258,0.31 0.432,0.375c0.178,0.06 0.366,0.091 0.563,0.091c0.148,0 0.269,-0.008 0.364,-0.023c0.094,-0.019 0.17,-0.034 0.227,-0.046l0.273,1.205c-0.091,0.034 -0.218,0.069 -0.381,0.103c-0.163,0.038 -0.37,0.056 -0.62,0.056c-0.378,0 -0.75,-0.081 -1.114,-0.244c-0.359,-0.163 -0.659,-0.411 -0.897,-0.744c-0.235,-0.334 -0.353,-0.754 -0.353,-1.262zM217.352,72.434v-8.73h1.341v8.73zM218.034,62.249c-0.261,0 -0.487,-0.089 -0.676,-0.267c-0.186,-0.178 -0.279,-0.392 -0.279,-0.642c0,-0.25 0.093,-0.464 0.279,-0.642c0.189,-0.178 0.415,-0.267 0.676,-0.267c0.262,0 0.485,0.089 0.671,0.267c0.189,0.178 0.284,0.392 0.284,0.642c0,0.25 -0.095,0.464 -0.284,0.642c-0.186,0.178 -0.409,0.267 -0.671,0.267zM224.696,72.616c-0.788,0 -1.479,-0.188 -2.074,-0.563c-0.591,-0.375 -1.053,-0.9 -1.387,-1.574c-0.329,-0.675 -0.494,-1.463 -0.494,-2.365c0,-0.909 0.165,-1.703 0.494,-2.381c0.334,-0.678 0.796,-1.205 1.387,-1.58c0.595,-0.375 1.286,-0.562 2.074,-0.562c0.788,0 1.478,0.187 2.069,0.562c0.595,0.375 1.057,0.902 1.387,1.58c0.333,0.678 0.5,1.472 0.5,2.381c0,0.902 -0.167,1.69 -0.5,2.365c-0.33,0.674 -0.792,1.199 -1.387,1.574c-0.591,0.375 -1.281,0.563 -2.069,0.563zM224.696,71.411c0.599,0 1.092,-0.154 1.478,-0.461c0.387,-0.306 0.673,-0.71 0.858,-1.21c0.186,-0.5 0.279,-1.042 0.279,-1.626c0,-0.583 -0.093,-1.127 -0.279,-1.631c-0.185,-0.504 -0.471,-0.911 -0.858,-1.222c-0.386,-0.31 -0.879,-0.466 -1.478,-0.466c-0.598,0 -1.091,0.156 -1.477,0.466c-0.387,0.311 -0.673,0.718 -0.858,1.222c-0.186,0.504 -0.279,1.048 -0.279,1.631c0,0.584 0.093,1.126 0.279,1.626c0.185,0.5 0.471,0.904 0.858,1.21c0.386,0.307 0.879,0.461 1.477,0.461zM232.041,67.182v5.252h-1.342v-8.73h1.296v1.364h0.114c0.204,-0.443 0.515,-0.799 0.932,-1.068c0.417,-0.273 0.955,-0.409 1.614,-0.409c0.591,0 1.108,0.121 1.552,0.363c0.443,0.239 0.788,0.603 1.034,1.091c0.246,0.485 0.369,1.099 0.369,1.842v5.547h-1.341v-5.456c0,-0.686 -0.178,-1.22 -0.534,-1.603c-0.356,-0.386 -0.845,-0.58 -1.467,-0.58c-0.428,0 -0.81,0.093 -1.148,0.279c-0.333,0.186 -0.596,0.456 -0.79,0.813c-0.193,0.356 -0.289,0.788 -0.289,1.295z" fill="black"/>
</g>
</g></svg>