<svg viewBox="0 0 334.6265 112" fill="none" xmlns="http://www.w3.org/2000/svg" x="0" y="0"><g id="Group 1000013363">
<g id="Group 1000013360_3">
<g id="Group 1000013358_3">
<rect id="Rectangle 379_3" x="0.19000000000005457" y="-9.624300000000005" width="92.0212" height="112.029" rx="25" fill="#E8F2FF"/>
<rect id="Rectangle 378_3" x="8.279999999999973" y="-9.624300000000005" width="326.625" height="112.029" rx="25" fill="#E8F2FF"/>
</g>
</g>
<g id="Group 1000013359_3">
<path id="🔐 Blockchain Certificates Secure Credential Verification" d="M20.579,41.509h16.004v-16.004h-16.004zM42.232,40.389v-11.64h4.456c0.841,0 1.54,0.133 2.097,0.398c0.561,0.262 0.98,0.62 1.256,1.074c0.281,0.455 0.421,0.97 0.421,1.546c0,0.474 -0.091,0.879 -0.273,1.216c-0.182,0.334 -0.426,0.605 -0.733,0.813c-0.307,0.209 -0.65,0.358 -1.029,0.449v0.114c0.413,0.023 0.809,0.15 1.188,0.381c0.383,0.227 0.695,0.549 0.938,0.966c0.242,0.417 0.363,0.921 0.363,1.512c0,0.602 -0.145,1.144 -0.437,1.625c-0.292,0.477 -0.731,0.854 -1.319,1.131c-0.587,0.277 -1.326,0.415 -2.216,0.415zM44.341,38.627h2.267c0.766,0 1.317,-0.146 1.654,-0.438c0.341,-0.295 0.512,-0.674 0.512,-1.136c0,-0.345 -0.085,-0.656 -0.256,-0.932c-0.17,-0.281 -0.413,-0.5 -0.727,-0.66c-0.315,-0.162 -0.69,-0.244 -1.126,-0.244h-2.324zM44.341,33.7h2.086c0.363,0 0.691,-0.067 0.983,-0.199c0.292,-0.137 0.521,-0.328 0.687,-0.574c0.171,-0.25 0.256,-0.546 0.256,-0.887c0,-0.451 -0.159,-0.822 -0.477,-1.114c-0.315,-0.292 -0.783,-0.437 -1.404,-0.437h-2.131zM54.717,28.749v11.64h-2.057v-11.64zM60.641,40.559c-0.853,0 -1.592,-0.187 -2.217,-0.562c-0.625,-0.375 -1.11,-0.9 -1.455,-1.575c-0.341,-0.674 -0.511,-1.462 -0.511,-2.364c0,-0.902 0.17,-1.692 0.511,-2.37c0.345,-0.678 0.83,-1.205 1.455,-1.58c0.625,-0.375 1.364,-0.562 2.217,-0.562c0.852,0 1.591,0.187 2.216,0.562c0.625,0.375 1.108,0.902 1.449,1.58c0.345,0.678 0.517,1.468 0.517,2.37c0,0.902 -0.172,1.69 -0.517,2.364c-0.341,0.675 -0.824,1.2 -1.449,1.575c-0.625,0.375 -1.364,0.562 -2.216,0.562zM60.652,38.911c0.462,0 0.849,-0.127 1.159,-0.381c0.311,-0.257 0.542,-0.602 0.694,-1.034c0.155,-0.432 0.233,-0.913 0.233,-1.444c0,-0.534 -0.078,-1.017 -0.233,-1.449c-0.152,-0.435 -0.383,-0.782 -0.694,-1.04c-0.31,-0.257 -0.697,-0.386 -1.159,-0.386c-0.474,0 -0.868,0.129 -1.182,0.386c-0.311,0.258 -0.544,0.605 -0.699,1.04c-0.152,0.432 -0.228,0.915 -0.228,1.449c0,0.531 0.076,1.012 0.228,1.444c0.155,0.432 0.388,0.777 0.699,1.034c0.314,0.254 0.708,0.381 1.182,0.381zM70.377,40.559c-0.871,0 -1.619,-0.191 -2.244,-0.574c-0.622,-0.382 -1.101,-0.911 -1.438,-1.585c-0.334,-0.679 -0.5,-1.459 -0.5,-2.342c0,-0.886 0.17,-1.669 0.511,-2.347c0.341,-0.682 0.822,-1.212 1.444,-1.591c0.625,-0.383 1.364,-0.574 2.216,-0.574c0.709,0 1.336,0.13 1.881,0.392c0.55,0.257 0.987,0.623 1.313,1.097c0.326,0.469 0.512,1.019 0.557,1.648h-1.966c-0.08,-0.421 -0.269,-0.771 -0.569,-1.052c-0.295,-0.284 -0.691,-0.426 -1.187,-0.426c-0.421,0 -0.79,0.114 -1.109,0.341c-0.318,0.224 -0.566,0.546 -0.744,0.966c-0.175,0.421 -0.262,0.925 -0.262,1.512c0,0.595 0.087,1.106 0.262,1.535c0.174,0.424 0.418,0.752 0.733,0.983c0.318,0.227 0.691,0.341 1.12,0.341c0.303,0 0.574,-0.057 0.812,-0.171c0.243,-0.117 0.445,-0.286 0.608,-0.506c0.163,-0.219 0.275,-0.486 0.336,-0.801h1.966c-0.049,0.618 -0.231,1.165 -0.545,1.643c-0.315,0.473 -0.743,0.845 -1.285,1.114c-0.542,0.265 -1.178,0.397 -1.91,0.397zM77.682,37.649l-0.006,-2.483h0.33l3.137,-3.507h2.404l-3.859,4.297h-0.426zM75.806,40.389v-11.64h2.058v11.64zM81.285,40.389l-2.841,-3.973l1.386,-1.449l3.916,5.422zM88.367,40.559c-0.872,0 -1.62,-0.191 -2.245,-0.574c-0.622,-0.382 -1.101,-0.911 -1.438,-1.585c-0.334,-0.679 -0.5,-1.459 -0.5,-2.342c0,-0.886 0.17,-1.669 0.511,-2.347c0.341,-0.682 0.822,-1.212 1.444,-1.591c0.625,-0.383 1.364,-0.574 2.216,-0.574c0.709,0 1.336,0.13 1.881,0.392c0.55,0.257 0.987,0.623 1.313,1.097c0.326,0.469 0.512,1.019 0.557,1.648h-1.966c-0.08,-0.421 -0.269,-0.771 -0.569,-1.052c-0.295,-0.284 -0.691,-0.426 -1.187,-0.426c-0.421,0 -0.79,0.114 -1.109,0.341c-0.318,0.224 -0.566,0.546 -0.744,0.966c-0.174,0.421 -0.262,0.925 -0.262,1.512c0,0.595 0.088,1.106 0.262,1.535c0.174,0.424 0.419,0.752 0.733,0.983c0.318,0.227 0.691,0.341 1.12,0.341c0.303,0 0.574,-0.057 0.812,-0.171c0.243,-0.117 0.446,-0.286 0.608,-0.506c0.163,-0.219 0.275,-0.486 0.336,-0.801h1.966c-0.049,0.618 -0.231,1.165 -0.545,1.643c-0.315,0.473 -0.743,0.845 -1.285,1.114c-0.542,0.265 -1.178,0.397 -1.909,0.397zM95.853,35.274v5.115h-2.057v-11.64h2.011v4.394h0.103c0.204,-0.493 0.521,-0.881 0.949,-1.165c0.432,-0.288 0.981,-0.432 1.648,-0.432c0.606,0 1.135,0.127 1.586,0.38c0.451,0.254 0.799,0.626 1.045,1.114c0.25,0.489 0.376,1.086 0.376,1.791v5.558h-2.058v-5.24c0,-0.587 -0.151,-1.044 -0.455,-1.37c-0.299,-0.329 -0.719,-0.494 -1.261,-0.494c-0.364,0 -0.69,0.079 -0.978,0.238c-0.284,0.156 -0.507,0.381 -0.67,0.677c-0.159,0.295 -0.239,0.653 -0.239,1.074zM106.123,40.565c-0.553,0 -1.052,-0.098 -1.495,-0.295c-0.44,-0.201 -0.788,-0.497 -1.046,-0.887c-0.254,-0.39 -0.381,-0.872 -0.381,-1.444c0,-0.492 0.091,-0.9 0.273,-1.222c0.182,-0.322 0.43,-0.579 0.745,-0.772c0.314,-0.194 0.669,-0.34 1.063,-0.438c0.397,-0.102 0.808,-0.176 1.233,-0.222c0.511,-0.053 0.926,-0.1 1.244,-0.142c0.319,-0.045 0.55,-0.114 0.694,-0.204c0.148,-0.095 0.221,-0.241 0.221,-0.438v-0.034c0,-0.428 -0.126,-0.76 -0.38,-0.995c-0.254,-0.235 -0.62,-0.352 -1.097,-0.352c-0.504,0 -0.904,0.11 -1.199,0.33c-0.292,0.219 -0.489,0.479 -0.591,0.778l-1.921,-0.273c0.151,-0.53 0.401,-0.973 0.75,-1.33c0.348,-0.359 0.775,-0.629 1.279,-0.807c0.503,-0.181 1.06,-0.272 1.67,-0.272c0.421,0 0.84,0.049 1.256,0.147c0.417,0.099 0.798,0.262 1.143,0.489c0.345,0.224 0.621,0.529 0.83,0.915c0.212,0.387 0.318,0.87 0.318,1.449v5.843h-1.978v-1.199h-0.068c-0.125,0.242 -0.301,0.469 -0.529,0.682c-0.223,0.208 -0.506,0.377 -0.847,0.505c-0.337,0.126 -0.733,0.188 -1.187,0.188zM106.657,39.053c0.413,0 0.771,-0.081 1.074,-0.244c0.303,-0.167 0.536,-0.387 0.699,-0.659c0.167,-0.273 0.25,-0.571 0.25,-0.893v-1.028c-0.064,0.053 -0.174,0.102 -0.329,0.147c-0.152,0.046 -0.323,0.086 -0.512,0.12c-0.189,0.034 -0.377,0.064 -0.563,0.091c-0.185,0.026 -0.346,0.049 -0.483,0.068c-0.307,0.042 -0.581,0.11 -0.824,0.205c-0.242,0.094 -0.434,0.227 -0.574,0.397c-0.14,0.167 -0.21,0.383 -0.21,0.648c0,0.379 0.138,0.665 0.415,0.858c0.276,0.194 0.629,0.29 1.057,0.29zM112.801,40.389v-8.73h2.057v8.73zM113.835,30.42c-0.326,0 -0.606,-0.108 -0.841,-0.324c-0.235,-0.219 -0.353,-0.483 -0.353,-0.79c0,-0.31 0.118,-0.574 0.353,-0.79c0.235,-0.219 0.515,-0.329 0.841,-0.329c0.33,0 0.61,0.11 0.841,0.329c0.235,0.216 0.352,0.48 0.352,0.79c0,0.307 -0.117,0.571 -0.352,0.79c-0.231,0.216 -0.511,0.324 -0.841,0.324zM119.031,35.274v5.115h-2.057v-8.73h1.966v1.484h0.102c0.201,-0.489 0.521,-0.877 0.961,-1.165c0.443,-0.288 0.991,-0.432 1.642,-0.432c0.603,0 1.127,0.128 1.574,0.386c0.451,0.258 0.8,0.631 1.046,1.12c0.25,0.488 0.373,1.081 0.37,1.779v5.558h-2.058v-5.24c0,-0.584 -0.151,-1.04 -0.454,-1.37c-0.3,-0.329 -0.715,-0.494 -1.245,-0.494c-0.36,0 -0.68,0.079 -0.961,0.238c-0.276,0.156 -0.494,0.381 -0.653,0.677c-0.155,0.295 -0.233,0.653 -0.233,1.074zM140.75,32.677h-2.126c-0.061,-0.349 -0.172,-0.658 -0.335,-0.927c-0.163,-0.273 -0.366,-0.504 -0.608,-0.693c-0.243,-0.19 -0.519,-0.332 -0.83,-0.426c-0.307,-0.099 -0.639,-0.148 -0.995,-0.148c-0.632,0 -1.193,0.159 -1.682,0.477c-0.489,0.315 -0.871,0.777 -1.148,1.387c-0.277,0.606 -0.415,1.347 -0.415,2.222c0,0.891 0.138,1.641 0.415,2.251c0.28,0.606 0.663,1.064 1.148,1.375c0.489,0.307 1.048,0.46 1.677,0.46c0.348,0 0.674,-0.045 0.977,-0.136c0.307,-0.095 0.582,-0.233 0.824,-0.415c0.247,-0.182 0.453,-0.405 0.62,-0.67c0.17,-0.266 0.288,-0.569 0.352,-0.91l2.126,0.012c-0.08,0.553 -0.252,1.072 -0.518,1.557c-0.261,0.485 -0.604,0.913 -1.028,1.284c-0.425,0.368 -0.921,0.656 -1.489,0.864c-0.569,0.205 -1.199,0.307 -1.893,0.307c-1.023,0 -1.936,-0.237 -2.739,-0.71c-0.803,-0.474 -1.436,-1.158 -1.898,-2.052c-0.463,-0.894 -0.694,-1.967 -0.694,-3.217c0,-1.254 0.233,-2.326 0.699,-3.217c0.466,-0.894 1.101,-1.578 1.904,-2.051c0.803,-0.474 1.713,-0.711 2.728,-0.711c0.648,0 1.251,0.091 1.808,0.273c0.556,0.182 1.053,0.449 1.489,0.801c0.435,0.349 0.793,0.777 1.074,1.285c0.284,0.504 0.47,1.08 0.557,1.728zM146.454,40.559c-0.875,0 -1.631,-0.182 -2.267,-0.545c-0.633,-0.368 -1.12,-0.887 -1.461,-1.557c-0.341,-0.675 -0.511,-1.469 -0.511,-2.382c0,-0.898 0.17,-1.686 0.511,-2.364c0.345,-0.682 0.826,-1.212 1.444,-1.591c0.617,-0.383 1.343,-0.574 2.176,-0.574c0.538,0 1.046,0.087 1.523,0.261c0.482,0.171 0.906,0.436 1.274,0.796c0.371,0.36 0.663,0.818 0.875,1.375c0.212,0.553 0.318,1.213 0.318,1.978v0.631h-7.155v-1.387h5.183c-0.004,-0.394 -0.089,-0.745 -0.256,-1.051c-0.167,-0.311 -0.4,-0.555 -0.699,-0.734c-0.295,-0.178 -0.64,-0.267 -1.034,-0.267c-0.421,0 -0.79,0.103 -1.109,0.307c-0.318,0.201 -0.566,0.466 -0.744,0.796c-0.174,0.326 -0.263,0.684 -0.267,1.074v1.211c0,0.507 0.093,0.943 0.278,1.307c0.186,0.36 0.446,0.636 0.779,0.829c0.333,0.19 0.724,0.285 1.171,0.285c0.299,0 0.57,-0.042 0.812,-0.125c0.243,-0.088 0.453,-0.214 0.631,-0.381c0.178,-0.167 0.313,-0.373 0.404,-0.62l1.921,0.216c-0.121,0.508 -0.353,0.951 -0.694,1.33c-0.337,0.375 -0.769,0.667 -1.295,0.875c-0.527,0.205 -1.129,0.307 -1.808,0.307zM152.077,40.389v-8.73h1.994v1.455h0.091c0.159,-0.504 0.432,-0.892 0.819,-1.165c0.39,-0.276 0.835,-0.415 1.335,-0.415c0.114,0 0.241,0.006 0.381,0.017c0.144,0.008 0.263,0.021 0.358,0.04v1.893c-0.087,-0.031 -0.225,-0.057 -0.415,-0.08c-0.185,-0.026 -0.365,-0.04 -0.54,-0.04c-0.375,0 -0.712,0.082 -1.011,0.245c-0.296,0.159 -0.529,0.38 -0.699,0.665c-0.171,0.284 -0.256,0.612 -0.256,0.983v5.132zM163.25,31.659v1.592h-5.018v-1.592zM159.47,29.568h2.058v8.195c0,0.277 0.042,0.489 0.125,0.637c0.087,0.144 0.201,0.242 0.341,0.295c0.14,0.053 0.295,0.08 0.466,0.08c0.129,0 0.246,-0.01 0.352,-0.029c0.11,-0.019 0.194,-0.036 0.25,-0.051l0.347,1.609c-0.11,0.037 -0.267,0.079 -0.472,0.125c-0.2,0.045 -0.447,0.072 -0.739,0.079c-0.515,0.015 -0.979,-0.062 -1.392,-0.233c-0.413,-0.174 -0.741,-0.443 -0.983,-0.807c-0.239,-0.364 -0.356,-0.818 -0.353,-1.364zM164.971,40.389v-8.73h2.057v8.73zM166.005,30.42c-0.326,0 -0.606,-0.108 -0.841,-0.324c-0.235,-0.219 -0.353,-0.483 -0.353,-0.79c0,-0.31 0.118,-0.574 0.353,-0.79c0.235,-0.219 0.515,-0.329 0.841,-0.329c0.33,0 0.61,0.11 0.841,0.329c0.235,0.216 0.352,0.48 0.352,0.79c0,0.307 -0.117,0.571 -0.352,0.79c-0.231,0.216 -0.511,0.324 -0.841,0.324zM173.565,31.659v1.592h-5.16v-1.592zM169.695,40.389v-9.554c0,-0.587 0.121,-1.076 0.364,-1.466c0.246,-0.39 0.575,-0.682 0.988,-0.875c0.413,-0.194 0.872,-0.29 1.376,-0.29c0.356,0 0.672,0.028 0.949,0.085c0.276,0.057 0.481,0.108 0.614,0.154l-0.41,1.591c-0.087,-0.027 -0.197,-0.053 -0.329,-0.08c-0.133,-0.03 -0.281,-0.045 -0.443,-0.045c-0.383,0 -0.654,0.093 -0.813,0.278c-0.156,0.182 -0.233,0.444 -0.233,0.785v9.417zM175.176,40.389v-8.73h2.058v8.73zM176.211,30.42c-0.326,0 -0.607,-0.108 -0.841,-0.324c-0.235,-0.219 -0.353,-0.483 -0.353,-0.79c0,-0.31 0.118,-0.574 0.353,-0.79c0.234,-0.219 0.515,-0.329 0.841,-0.329c0.329,0 0.61,0.11 0.841,0.329c0.235,0.216 0.352,0.48 0.352,0.79c0,0.307 -0.117,0.571 -0.352,0.79c-0.231,0.216 -0.512,0.324 -0.841,0.324zM183.157,40.559c-0.871,0 -1.62,-0.191 -2.245,-0.574c-0.621,-0.382 -1.1,-0.911 -1.438,-1.585c-0.333,-0.679 -0.5,-1.459 -0.5,-2.342c0,-0.886 0.171,-1.669 0.512,-2.347c0.341,-0.682 0.822,-1.212 1.443,-1.591c0.625,-0.383 1.364,-0.574 2.217,-0.574c0.708,0 1.335,0.13 1.881,0.392c0.549,0.257 0.987,0.623 1.313,1.097c0.326,0.469 0.511,1.019 0.557,1.648h-1.967c-0.079,-0.421 -0.269,-0.771 -0.568,-1.052c-0.296,-0.284 -0.691,-0.426 -1.188,-0.426c-0.42,0 -0.79,0.114 -1.108,0.341c-0.318,0.224 -0.567,0.546 -0.745,0.966c-0.174,0.421 -0.261,0.925 -0.261,1.512c0,0.595 0.087,1.106 0.261,1.535c0.175,0.424 0.419,0.752 0.734,0.983c0.318,0.227 0.691,0.341 1.119,0.341c0.303,0 0.574,-0.057 0.813,-0.171c0.242,-0.117 0.445,-0.286 0.608,-0.506c0.163,-0.219 0.275,-0.486 0.335,-0.801h1.967c-0.05,0.618 -0.231,1.165 -0.546,1.643c-0.314,0.473 -0.742,0.845 -1.284,1.114c-0.542,0.265 -1.179,0.397 -1.91,0.397zM191.098,40.565c-0.553,0 -1.051,-0.098 -1.495,-0.295c-0.439,-0.201 -0.788,-0.497 -1.045,-0.887c-0.254,-0.39 -0.381,-0.872 -0.381,-1.444c0,-0.492 0.091,-0.9 0.273,-1.222c0.182,-0.322 0.43,-0.579 0.744,-0.772c0.315,-0.194 0.669,-0.34 1.063,-0.438c0.398,-0.102 0.809,-0.176 1.233,-0.222c0.512,-0.053 0.927,-0.1 1.245,-0.142c0.318,-0.045 0.549,-0.114 0.693,-0.204c0.148,-0.095 0.222,-0.241 0.222,-0.438v-0.034c0,-0.428 -0.127,-0.76 -0.381,-0.995c-0.254,-0.235 -0.619,-0.352 -1.097,-0.352c-0.504,0 -0.903,0.11 -1.199,0.33c-0.292,0.219 -0.489,0.479 -0.591,0.778l-1.921,-0.273c0.152,-0.53 0.402,-0.973 0.75,-1.33c0.349,-0.359 0.775,-0.629 1.279,-0.807c0.504,-0.181 1.061,-0.272 1.671,-0.272c0.42,0 0.839,0.049 1.256,0.147c0.417,0.099 0.797,0.262 1.142,0.489c0.345,0.224 0.622,0.529 0.83,0.915c0.212,0.387 0.318,0.87 0.318,1.449v5.843h-1.978v-1.199h-0.068c-0.125,0.242 -0.301,0.469 -0.528,0.682c-0.224,0.208 -0.506,0.377 -0.847,0.505c-0.337,0.126 -0.733,0.188 -1.188,0.188zM191.632,39.053c0.413,0 0.771,-0.081 1.075,-0.244c0.303,-0.167 0.536,-0.387 0.699,-0.659c0.166,-0.273 0.25,-0.571 0.25,-0.893v-1.028c-0.065,0.053 -0.175,0.102 -0.33,0.147c-0.152,0.046 -0.322,0.086 -0.512,0.12c-0.189,0.034 -0.377,0.064 -0.562,0.091c-0.186,0.026 -0.347,0.049 -0.483,0.068c-0.307,0.042 -0.582,0.11 -0.824,0.205c-0.243,0.094 -0.434,0.227 -0.574,0.397c-0.141,0.167 -0.211,0.383 -0.211,0.648c0,0.379 0.139,0.665 0.415,0.858c0.277,0.194 0.629,0.29 1.057,0.29zM202.135,31.659v1.592h-5.018v-1.592zM198.356,29.568h2.057v8.195c0,0.277 0.042,0.489 0.125,0.637c0.087,0.144 0.201,0.242 0.341,0.295c0.14,0.053 0.296,0.08 0.466,0.08c0.129,0 0.246,-0.01 0.353,-0.029c0.109,-0.019 0.193,-0.036 0.25,-0.051l0.346,1.609c-0.11,0.037 -0.267,0.079 -0.471,0.125c-0.201,0.045 -0.448,0.072 -0.739,0.079c-0.516,0.015 -0.98,-0.062 -1.393,-0.233c-0.413,-0.174 -0.74,-0.443 -0.983,-0.807c-0.239,-0.364 -0.356,-0.818 -0.352,-1.364zM207.627,40.559c-0.876,0 -1.631,-0.182 -2.268,-0.545c-0.633,-0.368 -1.12,-0.887 -1.461,-1.557c-0.341,-0.675 -0.511,-1.469 -0.511,-2.382c0,-0.898 0.17,-1.686 0.511,-2.364c0.345,-0.682 0.826,-1.212 1.444,-1.591c0.618,-0.383 1.343,-0.574 2.177,-0.574c0.538,0 1.045,0.087 1.523,0.261c0.481,0.171 0.905,0.436 1.273,0.796c0.371,0.36 0.663,0.818 0.875,1.375c0.212,0.553 0.318,1.213 0.318,1.978v0.631h-7.155v-1.387h5.183c-0.004,-0.394 -0.089,-0.745 -0.256,-1.051c-0.166,-0.311 -0.399,-0.555 -0.699,-0.734c-0.295,-0.178 -0.64,-0.267 -1.034,-0.267c-0.421,0 -0.79,0.103 -1.108,0.307c-0.318,0.201 -0.567,0.466 -0.745,0.796c-0.174,0.326 -0.263,0.684 -0.267,1.074v1.211c0,0.507 0.093,0.943 0.279,1.307c0.185,0.36 0.445,0.636 0.778,0.829c0.334,0.19 0.724,0.285 1.171,0.285c0.299,0 0.57,-0.042 0.813,-0.125c0.242,-0.088 0.453,-0.214 0.631,-0.381c0.178,-0.167 0.312,-0.373 0.403,-0.62l1.921,0.216c-0.121,0.508 -0.352,0.951 -0.693,1.33c-0.338,0.375 -0.769,0.667 -1.296,0.875c-0.527,0.205 -1.129,0.307 -1.807,0.307zM220.148,33.967l-1.875,0.204c-0.053,-0.189 -0.146,-0.367 -0.279,-0.534c-0.128,-0.167 -0.303,-0.301 -0.522,-0.403c-0.22,-0.103 -0.489,-0.154 -0.807,-0.154c-0.429,0 -0.789,0.093 -1.08,0.279c-0.288,0.185 -0.43,0.426 -0.427,0.721c-0.003,0.254 0.089,0.461 0.279,0.62c0.193,0.159 0.511,0.29 0.955,0.392l1.489,0.318c0.826,0.178 1.44,0.461 1.841,0.847c0.406,0.387 0.61,0.892 0.614,1.518c-0.004,0.549 -0.165,1.034 -0.483,1.454c-0.315,0.417 -0.752,0.743 -1.313,0.978c-0.561,0.235 -1.205,0.352 -1.932,0.352c-1.069,0 -1.929,-0.223 -2.581,-0.67c-0.651,-0.451 -1.04,-1.078 -1.165,-1.881l2.007,-0.194c0.091,0.394 0.284,0.692 0.579,0.893c0.296,0.2 0.68,0.301 1.154,0.301c0.489,0 0.881,-0.101 1.176,-0.301c0.3,-0.201 0.449,-0.449 0.449,-0.745c0,-0.25 -0.096,-0.456 -0.289,-0.619c-0.19,-0.163 -0.485,-0.288 -0.887,-0.376l-1.489,-0.312c-0.837,-0.174 -1.457,-0.468 -1.859,-0.881c-0.401,-0.417 -0.6,-0.943 -0.596,-1.58c-0.004,-0.538 0.142,-1.004 0.437,-1.398c0.3,-0.398 0.715,-0.705 1.245,-0.921c0.534,-0.22 1.15,-0.329 1.847,-0.329c1.023,0 1.828,0.217 2.415,0.653c0.592,0.436 0.957,1.025 1.097,1.768zM28.354,63.668c-0.069,-0.576 -0.345,-1.023 -0.83,-1.342c-0.485,-0.318 -1.08,-0.477 -1.785,-0.477c-0.515,0 -0.966,0.083 -1.352,0.25c-0.383,0.167 -0.682,0.396 -0.898,0.688c-0.212,0.292 -0.319,0.623 -0.319,0.994c0,0.311 0.074,0.578 0.222,0.802c0.152,0.219 0.345,0.403 0.58,0.551c0.235,0.144 0.481,0.263 0.739,0.358c0.257,0.091 0.494,0.165 0.71,0.222l1.182,0.318c0.303,0.08 0.641,0.189 1.012,0.33c0.375,0.14 0.733,0.331 1.074,0.574c0.345,0.238 0.629,0.545 0.852,0.92c0.224,0.375 0.336,0.836 0.336,1.381c0,0.629 -0.165,1.198 -0.495,1.705c-0.325,0.508 -0.803,0.912 -1.432,1.211c-0.625,0.299 -1.385,0.449 -2.279,0.449c-0.833,0 -1.555,-0.135 -2.165,-0.404c-0.606,-0.269 -1.084,-0.644 -1.432,-1.125c-0.345,-0.481 -0.54,-1.04 -0.586,-1.677h1.455c0.038,0.44 0.186,0.804 0.443,1.092c0.262,0.284 0.592,0.496 0.989,0.636c0.402,0.137 0.834,0.205 1.296,0.205c0.538,0 1.021,-0.087 1.449,-0.262c0.429,-0.178 0.768,-0.424 1.018,-0.738c0.25,-0.319 0.375,-0.69 0.375,-1.114c0,-0.387 -0.108,-0.701 -0.324,-0.944c-0.216,-0.242 -0.5,-0.439 -0.853,-0.591c-0.352,-0.151 -0.733,-0.284 -1.142,-0.398l-1.432,-0.409c-0.91,-0.261 -1.629,-0.635 -2.16,-1.12c-0.53,-0.485 -0.796,-1.119 -0.796,-1.903c0,-0.652 0.177,-1.22 0.529,-1.705c0.356,-0.489 0.834,-0.868 1.432,-1.137c0.603,-0.273 1.275,-0.409 2.018,-0.409c0.75,0 1.417,0.134 2,0.403c0.584,0.265 1.046,0.629 1.387,1.091c0.345,0.463 0.527,0.987 0.546,1.575zM35.672,72.579c-0.841,0 -1.566,-0.186 -2.176,-0.557c-0.607,-0.375 -1.075,-0.898 -1.404,-1.568c-0.326,-0.675 -0.489,-1.459 -0.489,-2.353c0,-0.894 0.163,-1.683 0.489,-2.365c0.329,-0.685 0.788,-1.22 1.375,-1.602c0.591,-0.387 1.281,-0.58 2.069,-0.58c0.455,0 0.904,0.076 1.347,0.227c0.443,0.152 0.847,0.398 1.21,0.739c0.364,0.337 0.654,0.784 0.87,1.341c0.216,0.557 0.324,1.243 0.324,2.058v0.568h-6.729v-1.159h5.365c0,-0.493 -0.099,-0.932 -0.296,-1.319c-0.193,-0.386 -0.469,-0.691 -0.829,-0.915c-0.357,-0.223 -0.777,-0.335 -1.262,-0.335c-0.534,0 -0.997,0.133 -1.387,0.398c-0.386,0.261 -0.684,0.602 -0.892,1.023c-0.208,0.42 -0.313,0.871 -0.313,1.352v0.773c0,0.66 0.114,1.218 0.341,1.677c0.231,0.455 0.552,0.801 0.961,1.04c0.409,0.235 0.885,0.352 1.426,0.352c0.353,0 0.671,-0.049 0.955,-0.148c0.288,-0.102 0.536,-0.253 0.745,-0.454c0.208,-0.205 0.369,-0.459 0.483,-0.762l1.296,0.364c-0.137,0.44 -0.366,0.826 -0.688,1.159c-0.322,0.33 -0.72,0.588 -1.194,0.773c-0.473,0.182 -1.006,0.273 -1.597,0.273zM44.874,72.579c-0.819,0 -1.523,-0.193 -2.115,-0.58c-0.591,-0.386 -1.045,-0.918 -1.364,-1.597c-0.318,-0.678 -0.477,-1.453 -0.477,-2.324c0,-0.887 0.163,-1.669 0.489,-2.347c0.329,-0.682 0.788,-1.215 1.375,-1.597c0.591,-0.387 1.281,-0.58 2.069,-0.58c0.614,0 1.167,0.114 1.659,0.341c0.493,0.227 0.896,0.546 1.211,0.955c0.314,0.409 0.51,0.886 0.585,1.432h-1.341c-0.102,-0.398 -0.33,-0.75 -0.682,-1.057c-0.348,-0.311 -0.818,-0.466 -1.409,-0.466c-0.523,0 -0.982,0.136 -1.376,0.409c-0.39,0.269 -0.695,0.65 -0.915,1.142c-0.216,0.489 -0.324,1.063 -0.324,1.722c0,0.675 0.106,1.262 0.319,1.762c0.216,0.5 0.519,0.889 0.909,1.165c0.394,0.277 0.856,0.415 1.387,0.415c0.348,0 0.665,-0.06 0.949,-0.182c0.284,-0.121 0.525,-0.295 0.722,-0.522c0.197,-0.228 0.337,-0.501 0.42,-0.819h1.341c-0.075,0.515 -0.263,0.98 -0.562,1.393c-0.296,0.409 -0.688,0.735 -1.177,0.977c-0.485,0.239 -1.049,0.358 -1.693,0.358zM55.769,68.828v-5.16h1.341v8.729h-1.341v-1.477h-0.091c-0.205,0.443 -0.523,0.82 -0.955,1.131c-0.432,0.306 -0.978,0.46 -1.637,0.46c-0.546,0 -1.031,-0.119 -1.455,-0.358c-0.424,-0.243 -0.758,-0.606 -1,-1.091c-0.243,-0.489 -0.364,-1.105 -0.364,-1.847v-5.547h1.341v5.456c0,0.636 0.178,1.144 0.535,1.523c0.36,0.379 0.818,0.568 1.375,0.568c0.333,0 0.672,-0.085 1.017,-0.256c0.349,-0.17 0.641,-0.432 0.875,-0.784c0.239,-0.352 0.359,-0.801 0.359,-1.347zM59.566,72.397v-8.729h1.296v1.318h0.091c0.159,-0.432 0.447,-0.782 0.864,-1.051c0.417,-0.269 0.887,-0.404 1.409,-0.404c0.099,0 0.222,0.002 0.37,0.006c0.148,0.004 0.259,0.009 0.335,0.017v1.364c-0.045,-0.011 -0.149,-0.028 -0.312,-0.051c-0.16,-0.027 -0.328,-0.04 -0.506,-0.04c-0.425,0 -0.803,0.089 -1.137,0.267c-0.329,0.174 -0.591,0.417 -0.784,0.728c-0.19,0.307 -0.284,0.657 -0.284,1.051v5.524zM68.915,72.579c-0.841,0 -1.566,-0.186 -2.176,-0.557c-0.606,-0.375 -1.074,-0.898 -1.404,-1.568c-0.326,-0.675 -0.489,-1.459 -0.489,-2.353c0,-0.894 0.163,-1.683 0.489,-2.365c0.33,-0.685 0.788,-1.22 1.375,-1.602c0.591,-0.387 1.281,-0.58 2.069,-0.58c0.455,0 0.904,0.076 1.347,0.227c0.443,0.152 0.847,0.398 1.211,0.739c0.363,0.337 0.653,0.784 0.869,1.341c0.216,0.557 0.324,1.243 0.324,2.058v0.568h-6.729v-1.159h5.365c0,-0.493 -0.098,-0.932 -0.295,-1.319c-0.194,-0.386 -0.47,-0.691 -0.83,-0.915c-0.356,-0.223 -0.777,-0.335 -1.262,-0.335c-0.534,0 -0.996,0.133 -1.387,0.398c-0.386,0.261 -0.684,0.602 -0.892,1.023c-0.208,0.42 -0.313,0.871 -0.313,1.352v0.773c0,0.66 0.114,1.218 0.341,1.677c0.232,0.455 0.552,0.801 0.961,1.04c0.409,0.235 0.885,0.352 1.426,0.352c0.353,0 0.671,-0.049 0.955,-0.148c0.288,-0.102 0.536,-0.253 0.745,-0.454c0.208,-0.205 0.369,-0.459 0.483,-0.762l1.296,0.364c-0.137,0.44 -0.366,0.826 -0.688,1.159c-0.322,0.33 -0.72,0.588 -1.194,0.773c-0.473,0.182 -1.005,0.273 -1.597,0.273zM88.62,64.395h-1.41c-0.083,-0.405 -0.229,-0.761 -0.438,-1.068c-0.204,-0.307 -0.454,-0.565 -0.75,-0.773c-0.292,-0.212 -0.615,-0.372 -0.972,-0.478c-0.356,-0.106 -0.727,-0.159 -1.114,-0.159c-0.704,0 -1.343,0.178 -1.915,0.534c-0.568,0.357 -1.021,0.881 -1.358,1.575c-0.334,0.693 -0.5,1.544 -0.5,2.552c0,1.007 0.166,1.858 0.5,2.551c0.337,0.694 0.79,1.218 1.358,1.575c0.572,0.356 1.211,0.534 1.915,0.534c0.387,0 0.758,-0.053 1.114,-0.159c0.357,-0.106 0.68,-0.264 0.972,-0.472c0.296,-0.212 0.546,-0.472 0.75,-0.779c0.209,-0.31 0.355,-0.666 0.438,-1.068h1.41c-0.107,0.595 -0.3,1.127 -0.58,1.597c-0.281,0.47 -0.629,0.869 -1.046,1.199c-0.417,0.326 -0.885,0.574 -1.404,0.745c-0.515,0.17 -1.066,0.255 -1.654,0.255c-0.992,0 -1.875,-0.242 -2.648,-0.727c-0.773,-0.485 -1.381,-1.175 -1.824,-2.069c-0.444,-0.894 -0.665,-1.955 -0.665,-3.182c0,-1.228 0.221,-2.289 0.665,-3.183c0.443,-0.894 1.051,-1.584 1.824,-2.069c0.773,-0.485 1.656,-0.727 2.648,-0.727c0.588,0 1.139,0.085 1.654,0.255c0.519,0.171 0.987,0.421 1.404,0.751c0.417,0.325 0.765,0.723 1.046,1.193c0.28,0.466 0.473,0.999 0.58,1.597zM90.715,72.397v-8.729h1.296v1.318h0.091c0.159,-0.432 0.447,-0.782 0.864,-1.051c0.417,-0.269 0.886,-0.404 1.409,-0.404c0.099,0 0.222,0.002 0.37,0.006c0.147,0.004 0.259,0.009 0.335,0.017v1.364c-0.045,-0.011 -0.15,-0.028 -0.313,-0.051c-0.159,-0.027 -0.327,-0.04 -0.505,-0.04c-0.425,0 -0.804,0.089 -1.137,0.267c-0.33,0.174 -0.591,0.417 -0.784,0.728c-0.19,0.307 -0.285,0.657 -0.285,1.051v5.524zM100.064,72.579c-0.841,0 -1.566,-0.186 -2.176,-0.557c-0.607,-0.375 -1.075,-0.898 -1.404,-1.568c-0.326,-0.675 -0.489,-1.459 -0.489,-2.353c0,-0.894 0.163,-1.683 0.489,-2.365c0.329,-0.685 0.788,-1.22 1.375,-1.602c0.591,-0.387 1.281,-0.58 2.069,-0.58c0.455,0 0.904,0.076 1.347,0.227c0.443,0.152 0.847,0.398 1.21,0.739c0.364,0.337 0.654,0.784 0.87,1.341c0.216,0.557 0.324,1.243 0.324,2.058v0.568h-6.729v-1.159h5.365c0,-0.493 -0.099,-0.932 -0.296,-1.319c-0.193,-0.386 -0.469,-0.691 -0.829,-0.915c-0.357,-0.223 -0.777,-0.335 -1.262,-0.335c-0.534,0 -0.997,0.133 -1.387,0.398c-0.386,0.261 -0.684,0.602 -0.892,1.023c-0.209,0.42 -0.313,0.871 -0.313,1.352v0.773c0,0.66 0.114,1.218 0.341,1.677c0.231,0.455 0.552,0.801 0.961,1.04c0.409,0.235 0.884,0.352 1.426,0.352c0.353,0 0.671,-0.049 0.955,-0.148c0.288,-0.102 0.536,-0.253 0.745,-0.454c0.208,-0.205 0.369,-0.459 0.483,-0.762l1.295,0.364c-0.136,0.44 -0.365,0.826 -0.687,1.159c-0.322,0.33 -0.72,0.588 -1.194,0.773c-0.473,0.182 -1.006,0.273 -1.597,0.273zM109.015,72.579c-0.727,0 -1.369,-0.184 -1.926,-0.551c-0.557,-0.371 -0.993,-0.894 -1.307,-1.569c-0.315,-0.678 -0.472,-1.479 -0.472,-2.404c0,-0.917 0.157,-1.712 0.472,-2.387c0.314,-0.674 0.752,-1.195 1.313,-1.563c0.56,-0.367 1.208,-0.551 1.943,-0.551c0.569,0 1.018,0.095 1.347,0.284c0.334,0.186 0.587,0.398 0.762,0.637c0.178,0.235 0.316,0.428 0.415,0.579h0.113v-4.296h1.342v11.639h-1.296v-1.341h-0.159c-0.099,0.159 -0.239,0.36 -0.421,0.602c-0.182,0.239 -0.441,0.453 -0.779,0.643c-0.337,0.185 -0.786,0.278 -1.347,0.278zM109.197,71.374c0.538,0 0.993,-0.14 1.364,-0.42c0.372,-0.284 0.654,-0.677 0.847,-1.177c0.193,-0.504 0.29,-1.085 0.29,-1.745c0,-0.651 -0.095,-1.221 -0.284,-1.71c-0.19,-0.493 -0.47,-0.875 -0.841,-1.148c-0.372,-0.277 -0.83,-0.415 -1.376,-0.415c-0.568,0 -1.042,0.146 -1.42,0.438c-0.376,0.287 -0.658,0.68 -0.847,1.176c-0.186,0.493 -0.279,1.046 -0.279,1.659c0,0.622 0.095,1.186 0.284,1.694c0.194,0.504 0.478,0.906 0.853,1.205c0.379,0.295 0.849,0.443 1.409,0.443zM119.319,72.579c-0.841,0 -1.566,-0.186 -2.176,-0.557c-0.607,-0.375 -1.075,-0.898 -1.404,-1.568c-0.326,-0.675 -0.489,-1.459 -0.489,-2.353c0,-0.894 0.163,-1.683 0.489,-2.365c0.329,-0.685 0.788,-1.22 1.375,-1.602c0.591,-0.387 1.281,-0.58 2.069,-0.58c0.455,0 0.904,0.076 1.347,0.227c0.443,0.152 0.847,0.398 1.21,0.739c0.364,0.337 0.654,0.784 0.87,1.341c0.216,0.557 0.324,1.243 0.324,2.058v0.568h-6.729v-1.159h5.365c0,-0.493 -0.099,-0.932 -0.296,-1.319c-0.193,-0.386 -0.469,-0.691 -0.829,-0.915c-0.357,-0.223 -0.777,-0.335 -1.262,-0.335c-0.534,0 -0.997,0.133 -1.387,0.398c-0.386,0.261 -0.684,0.602 -0.892,1.023c-0.208,0.42 -0.313,0.871 -0.313,1.352v0.773c0,0.66 0.114,1.218 0.341,1.677c0.231,0.455 0.552,0.801 0.961,1.04c0.409,0.235 0.885,0.352 1.426,0.352c0.353,0 0.671,-0.049 0.955,-0.148c0.288,-0.102 0.536,-0.253 0.745,-0.454c0.208,-0.205 0.369,-0.459 0.483,-0.762l1.296,0.364c-0.137,0.44 -0.366,0.826 -0.688,1.159c-0.322,0.33 -0.72,0.588 -1.194,0.773c-0.473,0.182 -1.006,0.273 -1.597,0.273zM126.315,67.146v5.251h-1.341v-8.729h1.296v1.364h0.114c0.204,-0.444 0.515,-0.8 0.932,-1.069c0.417,-0.273 0.955,-0.409 1.614,-0.409c0.591,0 1.108,0.121 1.551,0.364c0.444,0.238 0.788,0.602 1.035,1.091c0.246,0.485 0.369,1.099 0.369,1.841v5.547h-1.341v-5.456c0,-0.686 -0.178,-1.22 -0.534,-1.602c-0.357,-0.387 -0.845,-0.58 -1.467,-0.58c-0.428,0 -0.81,0.093 -1.148,0.278c-0.333,0.186 -0.596,0.457 -0.79,0.813c-0.193,0.356 -0.29,0.788 -0.29,1.296zM138.133,63.668v1.136h-4.524v-1.136zM134.927,61.576h1.341v8.321c0,0.378 0.055,0.663 0.165,0.852c0.114,0.186 0.258,0.311 0.432,0.375c0.178,0.061 0.366,0.091 0.563,0.091c0.148,0 0.269,-0.007 0.364,-0.023c0.094,-0.019 0.17,-0.034 0.227,-0.045l0.273,1.205c-0.091,0.034 -0.218,0.068 -0.381,0.102c-0.163,0.038 -0.37,0.057 -0.62,0.057c-0.379,0 -0.75,-0.082 -1.114,-0.244c-0.359,-0.163 -0.659,-0.412 -0.898,-0.745c-0.234,-0.333 -0.352,-0.754 -0.352,-1.262zM140.15,72.397v-8.729h1.341v8.729zM140.832,62.213c-0.261,0 -0.487,-0.089 -0.676,-0.267c-0.186,-0.178 -0.279,-0.392 -0.279,-0.643c0,-0.25 0.093,-0.464 0.279,-0.642c0.189,-0.178 0.415,-0.267 0.676,-0.267c0.262,0 0.485,0.089 0.671,0.267c0.189,0.178 0.284,0.392 0.284,0.642c0,0.251 -0.095,0.465 -0.284,0.643c-0.186,0.178 -0.409,0.267 -0.671,0.267zM146.517,72.602c-0.553,0 -1.055,-0.104 -1.506,-0.313c-0.451,-0.212 -0.809,-0.517 -1.074,-0.915c-0.266,-0.401 -0.398,-0.886 -0.398,-1.455c0,-0.5 0.098,-0.905 0.295,-1.216c0.197,-0.314 0.461,-0.561 0.79,-0.739c0.33,-0.178 0.694,-0.31 1.091,-0.398c0.402,-0.09 0.806,-0.162 1.211,-0.216c0.53,-0.068 0.96,-0.119 1.29,-0.153c0.334,-0.038 0.576,-0.1 0.728,-0.188c0.155,-0.087 0.233,-0.238 0.233,-0.454v-0.046c0,-0.56 -0.154,-0.996 -0.461,-1.307c-0.303,-0.31 -0.763,-0.466 -1.381,-0.466c-0.64,0 -1.142,0.14 -1.506,0.421c-0.364,0.28 -0.619,0.579 -0.767,0.898l-1.273,-0.455c0.227,-0.53 0.53,-0.943 0.909,-1.239c0.383,-0.299 0.8,-0.508 1.25,-0.625c0.455,-0.121 0.902,-0.182 1.342,-0.182c0.28,0 0.602,0.034 0.966,0.102c0.367,0.065 0.722,0.199 1.063,0.404c0.344,0.204 0.631,0.513 0.858,0.926c0.227,0.413 0.341,0.966 0.341,1.66v5.751h-1.341v-1.182h-0.069c-0.091,0.19 -0.242,0.392 -0.454,0.608c-0.212,0.216 -0.495,0.4 -0.847,0.552c-0.352,0.151 -0.782,0.227 -1.29,0.227zM146.721,71.397c0.531,0 0.978,-0.104 1.342,-0.313c0.367,-0.208 0.644,-0.477 0.829,-0.807c0.19,-0.329 0.285,-0.676 0.285,-1.04v-1.227c-0.057,0.068 -0.182,0.13 -0.375,0.187c-0.19,0.053 -0.41,0.101 -0.66,0.142c-0.246,0.038 -0.487,0.072 -0.722,0.103c-0.231,0.026 -0.418,0.049 -0.562,0.068c-0.349,0.045 -0.675,0.119 -0.978,0.222c-0.299,0.098 -0.542,0.248 -0.727,0.449c-0.182,0.197 -0.273,0.466 -0.273,0.807c0,0.466 0.172,0.818 0.517,1.057c0.349,0.235 0.79,0.352 1.324,0.352zM154.307,60.758v11.639h-1.341v-11.639zM161.924,60.758l3.456,9.798h0.136l3.456,-9.798h1.477l-4.274,11.639h-1.455l-4.273,-11.639zM174.928,72.579c-0.841,0 -1.567,-0.186 -2.177,-0.557c-0.606,-0.375 -1.074,-0.898 -1.404,-1.568c-0.326,-0.675 -0.489,-1.459 -0.489,-2.353c0,-0.894 0.163,-1.683 0.489,-2.365c0.33,-0.685 0.788,-1.22 1.376,-1.602c0.591,-0.387 1.28,-0.58 2.068,-0.58c0.455,0 0.904,0.076 1.347,0.227c0.444,0.152 0.847,0.398 1.211,0.739c0.364,0.337 0.653,0.784 0.869,1.341c0.216,0.557 0.324,1.243 0.324,2.058v0.568h-6.729v-1.159h5.365c0,-0.493 -0.098,-0.932 -0.295,-1.319c-0.193,-0.386 -0.47,-0.691 -0.83,-0.915c-0.356,-0.223 -0.777,-0.335 -1.262,-0.335c-0.534,0 -0.996,0.133 -1.386,0.398c-0.387,0.261 -0.684,0.602 -0.893,1.023c-0.208,0.42 -0.312,0.871 -0.312,1.352v0.773c0,0.66 0.113,1.218 0.341,1.677c0.231,0.455 0.551,0.801 0.96,1.04c0.409,0.235 0.885,0.352 1.427,0.352c0.352,0 0.67,-0.049 0.954,-0.148c0.288,-0.102 0.537,-0.253 0.745,-0.454c0.208,-0.205 0.369,-0.459 0.483,-0.762l1.296,0.364c-0.137,0.44 -0.366,0.826 -0.688,1.159c-0.322,0.33 -0.72,0.588 -1.193,0.773c-0.474,0.182 -1.006,0.273 -1.597,0.273zM180.583,72.397v-8.729h1.295v1.318h0.091c0.159,-0.432 0.447,-0.782 0.864,-1.051c0.417,-0.269 0.887,-0.404 1.41,-0.404c0.098,0 0.221,0.002 0.369,0.006c0.148,0.004 0.26,0.009 0.335,0.017v1.364c-0.045,-0.011 -0.149,-0.028 -0.312,-0.051c-0.159,-0.027 -0.328,-0.04 -0.506,-0.04c-0.424,0 -0.803,0.089 -1.137,0.267c-0.329,0.174 -0.591,0.417 -0.784,0.728c-0.189,0.307 -0.284,0.657 -0.284,1.051v5.524zM186.537,72.397v-8.729h1.342v8.729zM187.219,62.213c-0.261,0 -0.487,-0.089 -0.676,-0.267c-0.186,-0.178 -0.279,-0.392 -0.279,-0.643c0,-0.25 0.093,-0.464 0.279,-0.642c0.189,-0.178 0.415,-0.267 0.676,-0.267c0.262,0 0.485,0.089 0.671,0.267c0.189,0.178 0.284,0.392 0.284,0.642c0,0.251 -0.095,0.465 -0.284,0.643c-0.186,0.178 -0.409,0.267 -0.671,0.267zM194.223,63.668v1.136h-4.706v-1.136zM190.926,72.397v-9.934c0,-0.5 0.118,-0.917 0.353,-1.25c0.234,-0.334 0.539,-0.584 0.915,-0.751c0.375,-0.166 0.771,-0.25 1.187,-0.25c0.33,0 0.599,0.027 0.807,0.08c0.209,0.053 0.364,0.102 0.466,0.148l-0.386,1.159c-0.068,-0.023 -0.163,-0.051 -0.284,-0.085c-0.118,-0.034 -0.273,-0.051 -0.466,-0.051c-0.444,0 -0.764,0.111 -0.961,0.335c-0.193,0.223 -0.29,0.551 -0.29,0.983v9.616zM196.102,72.397v-8.729h1.342v8.729zM196.784,62.213c-0.261,0 -0.487,-0.089 -0.676,-0.267c-0.186,-0.178 -0.279,-0.392 -0.279,-0.643c0,-0.25 0.093,-0.464 0.279,-0.642c0.189,-0.178 0.415,-0.267 0.676,-0.267c0.262,0 0.485,0.089 0.671,0.267c0.189,0.178 0.284,0.392 0.284,0.642c0,0.251 -0.095,0.465 -0.284,0.643c-0.186,0.178 -0.409,0.267 -0.671,0.267zM203.447,72.579c-0.819,0 -1.524,-0.193 -2.115,-0.58c-0.591,-0.386 -1.045,-0.918 -1.364,-1.597c-0.318,-0.678 -0.477,-1.453 -0.477,-2.324c0,-0.887 0.163,-1.669 0.489,-2.347c0.329,-0.682 0.788,-1.215 1.375,-1.597c0.591,-0.387 1.281,-0.58 2.069,-0.58c0.614,0 1.167,0.114 1.659,0.341c0.493,0.227 0.896,0.546 1.211,0.955c0.314,0.409 0.509,0.886 0.585,1.432h-1.341c-0.102,-0.398 -0.33,-0.75 -0.682,-1.057c-0.349,-0.311 -0.818,-0.466 -1.409,-0.466c-0.523,0 -0.982,0.136 -1.376,0.409c-0.39,0.269 -0.695,0.65 -0.915,1.142c-0.216,0.489 -0.324,1.063 -0.324,1.722c0,0.675 0.106,1.262 0.318,1.762c0.216,0.5 0.52,0.889 0.91,1.165c0.394,0.277 0.856,0.415 1.387,0.415c0.348,0 0.664,-0.06 0.949,-0.182c0.284,-0.121 0.524,-0.295 0.721,-0.522c0.197,-0.228 0.338,-0.501 0.421,-0.819h1.341c-0.076,0.515 -0.263,0.98 -0.562,1.393c-0.296,0.409 -0.688,0.735 -1.177,0.977c-0.485,0.239 -1.049,0.358 -1.693,0.358zM211.409,72.602c-0.553,0 -1.055,-0.104 -1.506,-0.313c-0.451,-0.212 -0.809,-0.517 -1.074,-0.915c-0.266,-0.401 -0.398,-0.886 -0.398,-1.455c0,-0.5 0.098,-0.905 0.295,-1.216c0.197,-0.314 0.461,-0.561 0.79,-0.739c0.33,-0.178 0.694,-0.31 1.092,-0.398c0.401,-0.09 0.805,-0.162 1.21,-0.216c0.53,-0.068 0.961,-0.119 1.29,-0.153c0.334,-0.038 0.576,-0.1 0.728,-0.188c0.155,-0.087 0.233,-0.238 0.233,-0.454v-0.046c0,-0.56 -0.154,-0.996 -0.461,-1.307c-0.303,-0.31 -0.763,-0.466 -1.381,-0.466c-0.64,0 -1.142,0.14 -1.506,0.421c-0.364,0.28 -0.619,0.579 -0.767,0.898l-1.273,-0.455c0.227,-0.53 0.53,-0.943 0.909,-1.239c0.383,-0.299 0.8,-0.508 1.251,-0.625c0.454,-0.121 0.901,-0.182 1.341,-0.182c0.28,0 0.602,0.034 0.966,0.102c0.367,0.065 0.722,0.199 1.063,0.404c0.345,0.204 0.631,0.513 0.858,0.926c0.227,0.413 0.341,0.966 0.341,1.66v5.751h-1.341v-1.182h-0.069c-0.09,0.19 -0.242,0.392 -0.454,0.608c-0.212,0.216 -0.495,0.4 -0.847,0.552c-0.352,0.151 -0.782,0.227 -1.29,0.227zM211.613,71.397c0.531,0 0.978,-0.104 1.342,-0.313c0.367,-0.208 0.644,-0.477 0.829,-0.807c0.19,-0.329 0.285,-0.676 0.285,-1.04v-1.227c-0.057,0.068 -0.182,0.13 -0.375,0.187c-0.19,0.053 -0.41,0.101 -0.66,0.142c-0.246,0.038 -0.487,0.072 -0.721,0.103c-0.232,0.026 -0.419,0.049 -0.563,0.068c-0.349,0.045 -0.675,0.119 -0.978,0.222c-0.299,0.098 -0.541,0.248 -0.727,0.449c-0.182,0.197 -0.273,0.466 -0.273,0.807c0,0.466 0.172,0.818 0.517,1.057c0.349,0.235 0.79,0.352 1.324,0.352zM221.654,63.668v1.136h-4.523v-1.136zM218.449,61.576h1.341v8.321c0,0.378 0.055,0.663 0.165,0.852c0.114,0.186 0.258,0.311 0.432,0.375c0.178,0.061 0.366,0.091 0.563,0.091c0.147,0 0.269,-0.007 0.363,-0.023c0.095,-0.019 0.171,-0.034 0.228,-0.045l0.273,1.205c-0.091,0.034 -0.218,0.068 -0.381,0.102c-0.163,0.038 -0.37,0.057 -0.62,0.057c-0.379,0 -0.75,-0.082 -1.114,-0.244c-0.36,-0.163 -0.659,-0.412 -0.898,-0.745c-0.234,-0.333 -0.352,-0.754 -0.352,-1.262zM223.672,72.397v-8.729h1.341v8.729zM224.354,62.213c-0.261,0 -0.487,-0.089 -0.676,-0.267c-0.186,-0.178 -0.279,-0.392 -0.279,-0.643c0,-0.25 0.093,-0.464 0.279,-0.642c0.189,-0.178 0.415,-0.267 0.676,-0.267c0.261,0 0.485,0.089 0.671,0.267c0.189,0.178 0.284,0.392 0.284,0.642c0,0.251 -0.095,0.465 -0.284,0.643c-0.186,0.178 -0.41,0.267 -0.671,0.267zM231.016,72.579c-0.788,0 -1.479,-0.187 -2.074,-0.563c-0.591,-0.375 -1.053,-0.899 -1.387,-1.574c-0.329,-0.674 -0.494,-1.462 -0.494,-2.364c0,-0.909 0.165,-1.703 0.494,-2.381c0.334,-0.679 0.796,-1.205 1.387,-1.58c0.595,-0.375 1.286,-0.563 2.074,-0.563c0.788,0 1.478,0.188 2.069,0.563c0.595,0.375 1.057,0.901 1.387,1.58c0.333,0.678 0.5,1.472 0.5,2.381c0,0.902 -0.167,1.69 -0.5,2.364c-0.33,0.675 -0.792,1.199 -1.387,1.574c-0.591,0.376 -1.281,0.563 -2.069,0.563zM231.016,71.374c0.599,0 1.091,-0.153 1.478,-0.46c0.386,-0.307 0.672,-0.71 0.858,-1.211c0.186,-0.5 0.279,-1.042 0.279,-1.625c0,-0.584 -0.093,-1.127 -0.279,-1.631c-0.186,-0.504 -0.472,-0.911 -0.858,-1.222c-0.387,-0.311 -0.879,-0.466 -1.478,-0.466c-0.598,0 -1.091,0.155 -1.477,0.466c-0.387,0.311 -0.673,0.718 -0.859,1.222c-0.185,0.504 -0.278,1.047 -0.278,1.631c0,0.583 0.093,1.125 0.278,1.625c0.186,0.501 0.472,0.904 0.859,1.211c0.386,0.307 0.879,0.46 1.477,0.46zM238.361,67.146v5.251h-1.342v-8.729h1.296v1.364h0.114c0.204,-0.444 0.515,-0.8 0.932,-1.069c0.417,-0.273 0.955,-0.409 1.614,-0.409c0.591,0 1.108,0.121 1.551,0.364c0.444,0.238 0.788,0.602 1.035,1.091c0.246,0.485 0.369,1.099 0.369,1.841v5.547h-1.341v-5.456c0,-0.686 -0.178,-1.22 -0.534,-1.602c-0.356,-0.387 -0.845,-0.58 -1.467,-0.58c-0.428,0 -0.81,0.093 -1.148,0.278c-0.333,0.186 -0.596,0.457 -0.79,0.813c-0.193,0.356 -0.289,0.788 -0.289,1.296z" fill="black"/>
</g>
</g></svg>