<svg viewBox="0 0 334.6267 112" fill="none" xmlns="http://www.w3.org/2000/svg" x="0" y="0"><g id="Group 1000013362">
<g id="Group 1000013360_2">
<g id="Group 1000013358_2">
<rect id="Rectangle 379_2" x="0.09500000000002728" y="-9.624300000000005" width="92.0212" height="112.029" rx="25" fill="#E8F2FF"/>
<rect id="Rectangle 378_2" x="8.185000000000002" y="-9.624300000000005" width="326.625" height="112.029" rx="25" fill="#E8F2FF"/>
</g>
</g>
<g id="Group 1000013359_2">
<path id="🎓 E-Learning (Moodle) Complete LMS Integration" d="M20.484,41.509h16.004v-16.004h-16.004zM42.137,40.389v-11.64h7.571v1.768h-5.462v3.16h5.069v1.767h-5.069v3.177h5.507v1.768zM57.059,33.722v1.694h-5.24v-1.694zM59.314,40.389v-11.64h2.108v9.872h5.127v1.768zM72.152,40.559c-0.875,0 -1.631,-0.182 -2.267,-0.545c-0.633,-0.368 -1.12,-0.887 -1.461,-1.557c-0.341,-0.675 -0.511,-1.469 -0.511,-2.382c0,-0.898 0.17,-1.686 0.511,-2.364c0.345,-0.682 0.826,-1.212 1.444,-1.591c0.617,-0.383 1.343,-0.574 2.176,-0.574c0.538,0 1.046,0.087 1.524,0.261c0.481,0.171 0.905,0.436 1.273,0.796c0.371,0.36 0.663,0.818 0.875,1.375c0.212,0.553 0.318,1.213 0.318,1.978v0.631h-7.155v-1.387h5.183c-0.004,-0.394 -0.089,-0.745 -0.256,-1.051c-0.166,-0.311 -0.399,-0.555 -0.699,-0.734c-0.295,-0.178 -0.64,-0.267 -1.034,-0.267c-0.421,0 -0.79,0.103 -1.108,0.307c-0.319,0.201 -0.567,0.466 -0.745,0.796c-0.174,0.326 -0.263,0.684 -0.267,1.074v1.211c0,0.507 0.093,0.943 0.278,1.307c0.186,0.36 0.446,0.636 0.779,0.829c0.333,0.19 0.724,0.285 1.171,0.285c0.299,0 0.57,-0.042 0.813,-0.125c0.242,-0.088 0.452,-0.214 0.63,-0.381c0.178,-0.167 0.313,-0.373 0.404,-0.62l1.921,0.216c-0.121,0.508 -0.352,0.951 -0.693,1.33c-0.338,0.375 -0.77,0.667 -1.296,0.875c-0.527,0.205 -1.129,0.307 -1.808,0.307zM80.287,40.565c-0.554,0 -1.052,-0.098 -1.495,-0.295c-0.44,-0.201 -0.788,-0.497 -1.046,-0.887c-0.254,-0.39 -0.381,-0.872 -0.381,-1.444c0,-0.492 0.091,-0.9 0.273,-1.222c0.182,-0.322 0.43,-0.579 0.745,-0.772c0.314,-0.194 0.668,-0.34 1.063,-0.438c0.397,-0.102 0.808,-0.176 1.233,-0.222c0.511,-0.053 0.926,-0.1 1.244,-0.142c0.319,-0.045 0.55,-0.114 0.694,-0.204c0.148,-0.095 0.221,-0.241 0.221,-0.438v-0.034c0,-0.428 -0.126,-0.76 -0.38,-0.995c-0.254,-0.235 -0.62,-0.352 -1.097,-0.352c-0.504,0 -0.904,0.11 -1.199,0.33c-0.292,0.219 -0.489,0.479 -0.591,0.778l-1.921,-0.273c0.151,-0.53 0.401,-0.973 0.75,-1.33c0.348,-0.359 0.775,-0.629 1.279,-0.807c0.503,-0.181 1.06,-0.272 1.67,-0.272c0.421,0 0.84,0.049 1.256,0.147c0.417,0.099 0.798,0.262 1.143,0.489c0.345,0.224 0.621,0.529 0.83,0.915c0.212,0.387 0.318,0.87 0.318,1.449v5.843h-1.978v-1.199h-0.068c-0.125,0.242 -0.301,0.469 -0.529,0.682c-0.223,0.208 -0.506,0.377 -0.847,0.505c-0.337,0.126 -0.733,0.188 -1.187,0.188zM80.821,39.053c0.413,0 0.771,-0.081 1.074,-0.244c0.303,-0.167 0.536,-0.387 0.699,-0.659c0.167,-0.273 0.25,-0.571 0.25,-0.893v-1.028c-0.064,0.053 -0.174,0.102 -0.329,0.147c-0.152,0.046 -0.323,0.086 -0.512,0.12c-0.189,0.034 -0.377,0.064 -0.563,0.091c-0.185,0.026 -0.346,0.049 -0.483,0.068c-0.307,0.042 -0.581,0.11 -0.824,0.205c-0.242,0.094 -0.434,0.227 -0.574,0.397c-0.14,0.167 -0.21,0.383 -0.21,0.648c0,0.379 0.138,0.665 0.415,0.858c0.276,0.194 0.629,0.29 1.057,0.29zM86.965,40.389v-8.73h1.994v1.455h0.091c0.159,-0.504 0.432,-0.892 0.819,-1.165c0.39,-0.276 0.835,-0.415 1.335,-0.415c0.114,0 0.241,0.006 0.381,0.017c0.144,0.008 0.263,0.021 0.358,0.04v1.893c-0.087,-0.031 -0.225,-0.057 -0.415,-0.08c-0.185,-0.026 -0.365,-0.04 -0.54,-0.04c-0.375,0 -0.712,0.082 -1.011,0.245c-0.296,0.159 -0.529,0.38 -0.699,0.665c-0.171,0.284 -0.256,0.612 -0.256,0.983v5.132zM95.367,35.274v5.115h-2.057v-8.73h1.966v1.484h0.103c0.201,-0.489 0.521,-0.877 0.96,-1.165c0.443,-0.288 0.991,-0.432 1.643,-0.432c0.602,0 1.127,0.128 1.574,0.386c0.451,0.258 0.799,0.631 1.046,1.12c0.25,0.488 0.373,1.081 0.369,1.779v5.558h-2.057v-5.24c0,-0.584 -0.152,-1.04 -0.455,-1.37c-0.299,-0.329 -0.714,-0.494 -1.245,-0.494c-0.36,0 -0.68,0.079 -0.96,0.238c-0.277,0.156 -0.495,0.381 -0.654,0.677c-0.155,0.295 -0.233,0.653 -0.233,1.074zM103.063,40.389v-8.73h2.057v8.73zM104.097,30.42c-0.326,0 -0.606,-0.108 -0.841,-0.324c-0.235,-0.219 -0.353,-0.483 -0.353,-0.79c0,-0.31 0.118,-0.574 0.353,-0.79c0.235,-0.219 0.515,-0.329 0.841,-0.329c0.33,0 0.61,0.11 0.841,0.329c0.235,0.216 0.352,0.48 0.352,0.79c0,0.307 -0.117,0.571 -0.352,0.79c-0.231,0.216 -0.511,0.324 -0.841,0.324zM109.293,35.274v5.115h-2.057v-8.73h1.966v1.484h0.102c0.201,-0.489 0.521,-0.877 0.961,-1.165c0.443,-0.288 0.99,-0.432 1.642,-0.432c0.603,0 1.127,0.128 1.574,0.386c0.451,0.258 0.8,0.631 1.046,1.12c0.25,0.488 0.373,1.081 0.37,1.779v5.558h-2.058v-5.24c0,-0.584 -0.151,-1.04 -0.454,-1.37c-0.3,-0.329 -0.715,-0.494 -1.245,-0.494c-0.36,0 -0.68,0.079 -0.961,0.238c-0.276,0.156 -0.494,0.381 -0.653,0.677c-0.155,0.295 -0.233,0.653 -0.233,1.074zM120.785,43.844c-0.739,0 -1.374,-0.1 -1.904,-0.301c-0.531,-0.197 -0.957,-0.462 -1.279,-0.796c-0.322,-0.333 -0.546,-0.702 -0.671,-1.108l1.853,-0.449c0.083,0.171 0.205,0.339 0.364,0.506c0.159,0.171 0.373,0.311 0.642,0.421c0.273,0.113 0.616,0.17 1.029,0.17c0.583,0 1.066,-0.142 1.449,-0.426c0.383,-0.281 0.574,-0.743 0.574,-1.387v-1.654h-0.102c-0.107,0.212 -0.262,0.43 -0.466,0.654c-0.201,0.223 -0.468,0.411 -0.802,0.562c-0.329,0.152 -0.744,0.228 -1.244,0.228c-0.671,0 -1.279,-0.157 -1.825,-0.472c-0.542,-0.318 -0.974,-0.792 -1.296,-1.421c-0.318,-0.632 -0.477,-1.424 -0.477,-2.375c0,-0.959 0.159,-1.768 0.477,-2.427c0.322,-0.663 0.756,-1.165 1.302,-1.506c0.545,-0.345 1.154,-0.517 1.824,-0.517c0.512,0 0.932,0.087 1.262,0.261c0.333,0.171 0.599,0.377 0.796,0.62c0.197,0.238 0.346,0.464 0.449,0.676h0.113v-1.444h2.029v8.872c0,0.746 -0.178,1.364 -0.534,1.853c-0.356,0.488 -0.843,0.854 -1.461,1.097c-0.617,0.242 -1.318,0.363 -2.102,0.363zM120.802,38.65c0.435,0 0.807,-0.106 1.113,-0.319c0.307,-0.212 0.54,-0.517 0.7,-0.915c0.159,-0.397 0.238,-0.875 0.238,-1.432c0,-0.549 -0.079,-1.03 -0.238,-1.443c-0.156,-0.413 -0.387,-0.733 -0.694,-0.961c-0.303,-0.231 -0.676,-0.346 -1.119,-0.346c-0.459,0 -0.842,0.119 -1.148,0.358c-0.307,0.238 -0.538,0.566 -0.694,0.983c-0.155,0.413 -0.233,0.883 -0.233,1.409c0,0.535 0.078,1.002 0.233,1.404c0.159,0.398 0.392,0.709 0.699,0.932c0.311,0.22 0.692,0.33 1.143,0.33zM131.472,34.569c0,-1.421 0.188,-2.726 0.563,-3.916c0.379,-1.193 0.941,-2.296 1.688,-3.307h1.938c-0.288,0.375 -0.557,0.835 -0.807,1.381c-0.251,0.542 -0.468,1.136 -0.654,1.784c-0.182,0.644 -0.326,1.313 -0.432,2.006c-0.102,0.694 -0.153,1.378 -0.153,2.052c0,0.898 0.089,1.807 0.267,2.728c0.182,0.921 0.426,1.775 0.733,2.563c0.311,0.785 0.659,1.427 1.046,1.927h-1.938c-0.747,-1.012 -1.309,-2.112 -1.688,-3.302c-0.375,-1.194 -0.563,-2.499 -0.563,-3.916zM137.35,28.749h2.58l3.456,8.434h0.136l3.455,-8.434h2.581v11.64h-2.024v-7.997h-0.108l-3.216,7.963h-1.512l-3.217,-7.98h-0.108v8.014h-2.023zM155.571,40.559c-0.853,0 -1.592,-0.187 -2.217,-0.562c-0.625,-0.375 -1.11,-0.9 -1.455,-1.575c-0.341,-0.674 -0.511,-1.462 -0.511,-2.364c0,-0.902 0.17,-1.692 0.511,-2.37c0.345,-0.678 0.83,-1.205 1.455,-1.58c0.625,-0.375 1.364,-0.562 2.217,-0.562c0.852,0 1.591,0.187 2.216,0.562c0.625,0.375 1.108,0.902 1.449,1.58c0.345,0.678 0.518,1.468 0.518,2.37c0,0.902 -0.173,1.69 -0.518,2.364c-0.341,0.675 -0.824,1.2 -1.449,1.575c-0.625,0.375 -1.364,0.562 -2.216,0.562zM155.582,38.911c0.462,0 0.849,-0.127 1.159,-0.381c0.311,-0.257 0.542,-0.602 0.694,-1.034c0.155,-0.432 0.233,-0.913 0.233,-1.444c0,-0.534 -0.078,-1.017 -0.233,-1.449c-0.152,-0.435 -0.383,-0.782 -0.694,-1.04c-0.31,-0.257 -0.697,-0.386 -1.159,-0.386c-0.474,0 -0.868,0.129 -1.182,0.386c-0.311,0.258 -0.544,0.605 -0.699,1.04c-0.152,0.432 -0.227,0.915 -0.227,1.449c0,0.531 0.075,1.012 0.227,1.444c0.155,0.432 0.388,0.777 0.699,1.034c0.314,0.254 0.708,0.381 1.182,0.381zM165.308,40.559c-0.853,0 -1.592,-0.187 -2.217,-0.562c-0.625,-0.375 -1.11,-0.9 -1.455,-1.575c-0.341,-0.674 -0.511,-1.462 -0.511,-2.364c0,-0.902 0.17,-1.692 0.511,-2.37c0.345,-0.678 0.83,-1.205 1.455,-1.58c0.625,-0.375 1.364,-0.562 2.217,-0.562c0.852,0 1.591,0.187 2.216,0.562c0.625,0.375 1.108,0.902 1.449,1.58c0.345,0.678 0.517,1.468 0.517,2.37c0,0.902 -0.172,1.69 -0.517,2.364c-0.341,0.675 -0.824,1.2 -1.449,1.575c-0.625,0.375 -1.364,0.562 -2.216,0.562zM165.319,38.911c0.462,0 0.849,-0.127 1.159,-0.381c0.311,-0.257 0.542,-0.602 0.694,-1.034c0.155,-0.432 0.233,-0.913 0.233,-1.444c0,-0.534 -0.078,-1.017 -0.233,-1.449c-0.152,-0.435 -0.383,-0.782 -0.694,-1.04c-0.31,-0.257 -0.697,-0.386 -1.159,-0.386c-0.474,0 -0.868,0.129 -1.182,0.386c-0.311,0.258 -0.544,0.605 -0.699,1.04c-0.152,0.432 -0.228,0.915 -0.228,1.449c0,0.531 0.076,1.012 0.228,1.444c0.155,0.432 0.388,0.777 0.699,1.034c0.314,0.254 0.708,0.381 1.182,0.381zM174.476,40.542c-0.686,0 -1.299,-0.176 -1.841,-0.528c-0.542,-0.353 -0.97,-0.864 -1.285,-1.535c-0.314,-0.67 -0.471,-1.485 -0.471,-2.444c0,-0.97 0.159,-1.788 0.477,-2.455c0.322,-0.67 0.756,-1.176 1.302,-1.517c0.545,-0.345 1.153,-0.517 1.824,-0.517c0.511,0 0.932,0.087 1.262,0.261c0.329,0.171 0.591,0.377 0.784,0.62c0.193,0.238 0.343,0.464 0.449,0.676h0.085v-4.354h2.063v11.64h-2.023v-1.376h-0.125c-0.106,0.213 -0.26,0.438 -0.461,0.677c-0.2,0.235 -0.466,0.436 -0.795,0.602c-0.33,0.167 -0.745,0.25 -1.245,0.25zM175.05,38.854c0.436,0 0.807,-0.117 1.114,-0.352c0.307,-0.239 0.54,-0.57 0.699,-0.995c0.159,-0.424 0.239,-0.918 0.239,-1.483c0,-0.564 -0.08,-1.055 -0.239,-1.472c-0.155,-0.417 -0.386,-0.741 -0.693,-0.972c-0.303,-0.231 -0.677,-0.346 -1.12,-0.346c-0.458,0 -0.841,0.119 -1.148,0.358c-0.307,0.238 -0.538,0.568 -0.693,0.989c-0.156,0.42 -0.233,0.901 -0.233,1.443c0,0.546 0.077,1.033 0.233,1.461c0.159,0.424 0.392,0.759 0.699,1.006c0.311,0.242 0.691,0.363 1.142,0.363zM183.375,28.749v11.64h-2.058v-11.64zM189.355,40.559c-0.875,0 -1.631,-0.182 -2.268,-0.545c-0.632,-0.368 -1.119,-0.887 -1.46,-1.557c-0.341,-0.675 -0.512,-1.469 -0.512,-2.382c0,-0.898 0.171,-1.686 0.512,-2.364c0.345,-0.682 0.826,-1.212 1.443,-1.591c0.618,-0.383 1.344,-0.574 2.177,-0.574c0.538,0 1.046,0.087 1.523,0.261c0.481,0.171 0.906,0.436 1.273,0.796c0.372,0.36 0.663,0.818 0.876,1.375c0.212,0.553 0.318,1.213 0.318,1.978v0.631h-7.155v-1.387h5.183c-0.004,-0.394 -0.089,-0.745 -0.256,-1.051c-0.167,-0.311 -0.4,-0.555 -0.699,-0.734c-0.296,-0.178 -0.64,-0.267 -1.034,-0.267c-0.421,0 -0.79,0.103 -1.109,0.307c-0.318,0.201 -0.566,0.466 -0.744,0.796c-0.175,0.326 -0.264,0.684 -0.267,1.074v1.211c0,0.507 0.092,0.943 0.278,1.307c0.186,0.36 0.445,0.636 0.779,0.829c0.333,0.19 0.723,0.285 1.171,0.285c0.299,0 0.57,-0.042 0.812,-0.125c0.243,-0.088 0.453,-0.214 0.631,-0.381c0.178,-0.167 0.313,-0.373 0.404,-0.62l1.921,0.216c-0.122,0.508 -0.353,0.951 -0.694,1.33c-0.337,0.375 -0.769,0.667 -1.296,0.875c-0.526,0.205 -1.129,0.307 -1.807,0.307zM198.649,35.643c0,1.417 -0.19,2.723 -0.569,3.916c-0.375,1.19 -0.935,2.29 -1.682,3.302h-1.938c0.292,-0.375 0.561,-0.833 0.807,-1.375c0.25,-0.542 0.466,-1.137 0.648,-1.785c0.186,-0.648 0.33,-1.318 0.432,-2.012c0.106,-0.693 0.159,-1.375 0.159,-2.046c0,-0.898 -0.091,-1.807 -0.273,-2.728c-0.178,-0.92 -0.422,-1.775 -0.733,-2.563c-0.307,-0.788 -0.653,-1.432 -1.04,-1.932h1.938c0.747,1.011 1.307,2.114 1.682,3.307c0.379,1.19 0.569,2.495 0.569,3.916zM31.26,64.395h-1.41c-0.083,-0.405 -0.229,-0.761 -0.437,-1.068c-0.205,-0.307 -0.455,-0.565 -0.751,-0.773c-0.291,-0.212 -0.615,-0.372 -0.972,-0.478c-0.356,-0.106 -0.727,-0.159 -1.113,-0.159c-0.705,0 -1.344,0.178 -1.916,0.534c-0.568,0.357 -1.021,0.881 -1.358,1.575c-0.333,0.693 -0.5,1.544 -0.5,2.552c0,1.007 0.167,1.858 0.5,2.551c0.337,0.694 0.79,1.218 1.358,1.575c0.572,0.356 1.211,0.534 1.916,0.534c0.386,0 0.757,-0.053 1.113,-0.159c0.357,-0.106 0.681,-0.264 0.972,-0.472c0.296,-0.212 0.546,-0.472 0.751,-0.779c0.208,-0.31 0.354,-0.666 0.437,-1.068h1.41c-0.107,0.595 -0.3,1.127 -0.58,1.597c-0.28,0.47 -0.629,0.869 -1.046,1.199c-0.417,0.326 -0.885,0.574 -1.404,0.745c-0.515,0.17 -1.066,0.255 -1.653,0.255c-0.993,0 -1.876,-0.242 -2.649,-0.727c-0.773,-0.485 -1.381,-1.175 -1.824,-2.069c-0.444,-0.894 -0.665,-1.955 -0.665,-3.182c0,-1.228 0.221,-2.289 0.665,-3.183c0.443,-0.894 1.051,-1.584 1.824,-2.069c0.773,-0.485 1.656,-0.727 2.649,-0.727c0.587,0 1.138,0.085 1.653,0.255c0.519,0.171 0.987,0.421 1.404,0.751c0.417,0.325 0.766,0.723 1.046,1.193c0.28,0.466 0.473,0.999 0.58,1.597zM36.902,72.579c-0.788,0 -1.48,-0.187 -2.075,-0.563c-0.591,-0.375 -1.053,-0.899 -1.386,-1.574c-0.33,-0.674 -0.495,-1.462 -0.495,-2.364c0,-0.909 0.165,-1.703 0.495,-2.381c0.333,-0.679 0.795,-1.205 1.386,-1.58c0.595,-0.375 1.287,-0.563 2.075,-0.563c0.788,0 1.477,0.188 2.068,0.563c0.595,0.375 1.058,0.901 1.387,1.58c0.334,0.678 0.5,1.472 0.5,2.381c0,0.902 -0.166,1.69 -0.5,2.364c-0.329,0.675 -0.792,1.199 -1.387,1.574c-0.591,0.376 -1.28,0.563 -2.068,0.563zM36.902,71.374c0.598,0 1.091,-0.153 1.477,-0.46c0.387,-0.307 0.673,-0.71 0.859,-1.211c0.185,-0.5 0.278,-1.042 0.278,-1.625c0,-0.584 -0.093,-1.127 -0.278,-1.631c-0.186,-0.504 -0.472,-0.911 -0.859,-1.222c-0.386,-0.311 -0.879,-0.466 -1.477,-0.466c-0.599,0 -1.092,0.155 -1.478,0.466c-0.386,0.311 -0.672,0.718 -0.858,1.222c-0.186,0.504 -0.279,1.047 -0.279,1.631c0,0.583 0.093,1.125 0.279,1.625c0.186,0.501 0.472,0.904 0.858,1.211c0.386,0.307 0.879,0.46 1.478,0.46zM42.905,72.397v-8.729h1.295v1.364h0.114c0.182,-0.466 0.476,-0.828 0.881,-1.086c0.405,-0.261 0.892,-0.392 1.461,-0.392c0.576,0 1.055,0.131 1.438,0.392c0.386,0.258 0.687,0.62 0.903,1.086h0.091c0.224,-0.451 0.559,-0.809 1.006,-1.074c0.447,-0.269 0.983,-0.404 1.608,-0.404c0.781,0 1.419,0.244 1.916,0.733c0.496,0.485 0.744,1.241 0.744,2.268v5.842h-1.341v-5.842c0,-0.644 -0.176,-1.105 -0.529,-1.381c-0.352,-0.277 -0.767,-0.415 -1.244,-0.415c-0.614,0 -1.09,0.186 -1.427,0.557c-0.337,0.367 -0.506,0.833 -0.506,1.398v5.683h-1.364v-5.979c0,-0.496 -0.161,-0.896 -0.483,-1.199c-0.322,-0.307 -0.737,-0.46 -1.244,-0.46c-0.349,0 -0.675,0.093 -0.978,0.278c-0.299,0.186 -0.542,0.444 -0.727,0.773c-0.182,0.326 -0.273,0.703 -0.273,1.131v5.456zM56.815,75.671v-12.003h1.295v1.386h0.16c0.098,-0.151 0.234,-0.344 0.409,-0.579c0.178,-0.239 0.432,-0.451 0.761,-0.637c0.334,-0.189 0.785,-0.284 1.353,-0.284c0.735,0 1.383,0.184 1.944,0.551c0.56,0.368 0.998,0.889 1.312,1.563c0.315,0.675 0.472,1.47 0.472,2.387c0,0.925 -0.157,1.726 -0.472,2.404c-0.314,0.675 -0.75,1.198 -1.307,1.569c-0.557,0.367 -1.199,0.551 -1.926,0.551c-0.561,0 -1.01,-0.093 -1.347,-0.278c-0.338,-0.19 -0.597,-0.404 -0.779,-0.643c-0.182,-0.242 -0.322,-0.443 -0.42,-0.602h-0.114v4.615zM58.133,68.032c0,0.66 0.097,1.241 0.29,1.745c0.193,0.5 0.475,0.893 0.847,1.177c0.371,0.28 0.826,0.42 1.364,0.42c0.561,0 1.028,-0.148 1.404,-0.443c0.378,-0.299 0.663,-0.701 0.852,-1.205c0.193,-0.508 0.29,-1.072 0.29,-1.694c0,-0.613 -0.095,-1.166 -0.284,-1.659c-0.186,-0.496 -0.468,-0.889 -0.847,-1.176c-0.375,-0.292 -0.847,-0.438 -1.415,-0.438c-0.546,0 -1.004,0.138 -1.376,0.415c-0.371,0.273 -0.651,0.655 -0.841,1.148c-0.189,0.489 -0.284,1.059 -0.284,1.71zM67.908,60.758v11.639h-1.341v-11.639zM74.025,72.579c-0.841,0 -1.567,-0.186 -2.177,-0.557c-0.606,-0.375 -1.074,-0.898 -1.403,-1.568c-0.326,-0.675 -0.489,-1.459 -0.489,-2.353c0,-0.894 0.163,-1.683 0.489,-2.365c0.329,-0.685 0.788,-1.22 1.375,-1.602c0.591,-0.387 1.281,-0.58 2.069,-0.58c0.454,0 0.903,0.076 1.347,0.227c0.443,0.152 0.846,0.398 1.21,0.739c0.364,0.337 0.654,0.784 0.87,1.341c0.216,0.557 0.324,1.243 0.324,2.058v0.568h-6.729v-1.159h5.365c0,-0.493 -0.099,-0.932 -0.296,-1.319c-0.193,-0.386 -0.47,-0.691 -0.83,-0.915c-0.356,-0.223 -0.776,-0.335 -1.261,-0.335c-0.535,0 -0.997,0.133 -1.387,0.398c-0.387,0.261 -0.684,0.602 -0.892,1.023c-0.209,0.42 -0.313,0.871 -0.313,1.352v0.773c0,0.66 0.114,1.218 0.341,1.677c0.231,0.455 0.551,0.801 0.961,1.04c0.409,0.235 0.884,0.352 1.426,0.352c0.352,0 0.671,-0.049 0.955,-0.148c0.288,-0.102 0.536,-0.253 0.744,-0.454c0.209,-0.205 0.37,-0.459 0.483,-0.762l1.296,0.364c-0.136,0.44 -0.365,0.826 -0.687,1.159c-0.322,0.33 -0.72,0.588 -1.194,0.773c-0.474,0.182 -1.006,0.273 -1.597,0.273zM83.476,63.668v1.136h-4.523v-1.136zM80.271,61.576h1.341v8.321c0,0.378 0.055,0.663 0.165,0.852c0.114,0.186 0.258,0.311 0.432,0.375c0.178,0.061 0.366,0.091 0.563,0.091c0.147,0 0.269,-0.007 0.363,-0.023c0.095,-0.019 0.171,-0.034 0.228,-0.045l0.273,1.205c-0.091,0.034 -0.218,0.068 -0.381,0.102c-0.163,0.038 -0.37,0.057 -0.62,0.057c-0.379,0 -0.75,-0.082 -1.114,-0.244c-0.36,-0.163 -0.659,-0.412 -0.898,-0.745c-0.235,-0.333 -0.352,-0.754 -0.352,-1.262zM89.06,72.579c-0.841,0 -1.566,-0.186 -2.176,-0.557c-0.607,-0.375 -1.075,-0.898 -1.404,-1.568c-0.326,-0.675 -0.489,-1.459 -0.489,-2.353c0,-0.894 0.163,-1.683 0.489,-2.365c0.329,-0.685 0.788,-1.22 1.375,-1.602c0.591,-0.387 1.281,-0.58 2.069,-0.58c0.455,0 0.904,0.076 1.347,0.227c0.443,0.152 0.847,0.398 1.21,0.739c0.364,0.337 0.654,0.784 0.87,1.341c0.216,0.557 0.324,1.243 0.324,2.058v0.568h-6.729v-1.159h5.365c0,-0.493 -0.099,-0.932 -0.296,-1.319c-0.193,-0.386 -0.469,-0.691 -0.829,-0.915c-0.357,-0.223 -0.777,-0.335 -1.262,-0.335c-0.534,0 -0.997,0.133 -1.387,0.398c-0.386,0.261 -0.684,0.602 -0.892,1.023c-0.209,0.42 -0.313,0.871 -0.313,1.352v0.773c0,0.66 0.114,1.218 0.341,1.677c0.231,0.455 0.552,0.801 0.961,1.04c0.409,0.235 0.884,0.352 1.426,0.352c0.353,0 0.671,-0.049 0.955,-0.148c0.288,-0.102 0.536,-0.253 0.745,-0.454c0.208,-0.205 0.369,-0.459 0.483,-0.762l1.295,0.364c-0.136,0.44 -0.365,0.826 -0.687,1.159c-0.322,0.33 -0.72,0.588 -1.194,0.773c-0.473,0.182 -1.006,0.273 -1.597,0.273zM99.398,72.397v-11.639h1.41v10.389h5.41v1.25zM108.401,60.758h1.682l3.955,9.661h0.137l3.955,-9.661h1.683v11.639h-1.319v-8.843h-0.114l-3.637,8.843h-1.273l-3.637,-8.843h-0.114v8.843h-1.318zM129.004,63.668c-0.068,-0.576 -0.345,-1.023 -0.83,-1.342c-0.485,-0.318 -1.08,-0.477 -1.784,-0.477c-0.516,0 -0.966,0.083 -1.353,0.25c-0.383,0.167 -0.682,0.396 -0.898,0.688c-0.212,0.292 -0.318,0.623 -0.318,0.994c0,0.311 0.074,0.578 0.221,0.802c0.152,0.219 0.345,0.403 0.58,0.551c0.235,0.144 0.481,0.263 0.739,0.358c0.258,0.091 0.494,0.165 0.71,0.222l1.183,0.318c0.303,0.08 0.64,0.189 1.011,0.33c0.375,0.14 0.733,0.331 1.074,0.574c0.345,0.238 0.629,0.545 0.853,0.92c0.223,0.375 0.335,0.836 0.335,1.381c0,0.629 -0.165,1.198 -0.494,1.705c-0.326,0.508 -0.804,0.912 -1.433,1.211c-0.625,0.299 -1.384,0.449 -2.279,0.449c-0.833,0 -1.555,-0.135 -2.165,-0.404c-0.606,-0.269 -1.083,-0.644 -1.432,-1.125c-0.345,-0.481 -0.54,-1.04 -0.585,-1.677h1.454c0.038,0.44 0.186,0.804 0.444,1.092c0.261,0.284 0.591,0.496 0.989,0.636c0.401,0.137 0.833,0.205 1.295,0.205c0.539,0 1.022,-0.087 1.45,-0.262c0.428,-0.178 0.767,-0.424 1.017,-0.738c0.25,-0.319 0.375,-0.69 0.375,-1.114c0,-0.387 -0.108,-0.701 -0.324,-0.944c-0.216,-0.242 -0.5,-0.439 -0.852,-0.591c-0.353,-0.151 -0.733,-0.284 -1.143,-0.398l-1.432,-0.409c-0.909,-0.261 -1.629,-0.635 -2.16,-1.12c-0.53,-0.485 -0.795,-1.119 -0.795,-1.903c0,-0.652 0.176,-1.22 0.528,-1.705c0.357,-0.489 0.834,-0.868 1.433,-1.137c0.602,-0.273 1.275,-0.409 2.017,-0.409c0.75,0 1.417,0.134 2.001,0.403c0.583,0.265 1.045,0.629 1.386,1.091c0.345,0.463 0.527,0.987 0.546,1.575zM138.755,60.758v11.639h-1.409v-11.639zM142.741,67.146v5.251h-1.342v-8.729h1.296v1.364h0.114c0.204,-0.444 0.515,-0.8 0.932,-1.069c0.417,-0.273 0.955,-0.409 1.614,-0.409c0.591,0 1.108,0.121 1.551,0.364c0.444,0.238 0.789,0.602 1.035,1.091c0.246,0.485 0.369,1.099 0.369,1.841v5.547h-1.341v-5.456c0,-0.686 -0.178,-1.22 -0.534,-1.602c-0.356,-0.387 -0.845,-0.58 -1.467,-0.58c-0.428,0 -0.81,0.093 -1.148,0.278c-0.333,0.186 -0.596,0.457 -0.79,0.813c-0.193,0.356 -0.289,0.788 -0.289,1.296zM154.558,63.668v1.136h-4.524v-1.136zM151.352,61.576h1.341v8.321c0,0.378 0.055,0.663 0.165,0.852c0.114,0.186 0.258,0.311 0.432,0.375c0.178,0.061 0.366,0.091 0.563,0.091c0.148,0 0.269,-0.007 0.364,-0.023c0.094,-0.019 0.17,-0.034 0.227,-0.045l0.273,1.205c-0.091,0.034 -0.218,0.068 -0.381,0.102c-0.163,0.038 -0.369,0.057 -0.62,0.057c-0.378,0 -0.75,-0.082 -1.113,-0.244c-0.36,-0.163 -0.66,-0.412 -0.898,-0.745c-0.235,-0.333 -0.353,-0.754 -0.353,-1.262zM160.141,72.579c-0.841,0 -1.566,-0.186 -2.176,-0.557c-0.606,-0.375 -1.074,-0.898 -1.404,-1.568c-0.326,-0.675 -0.489,-1.459 -0.489,-2.353c0,-0.894 0.163,-1.683 0.489,-2.365c0.33,-0.685 0.788,-1.22 1.375,-1.602c0.591,-0.387 1.281,-0.58 2.069,-0.58c0.455,0 0.904,0.076 1.347,0.227c0.443,0.152 0.847,0.398 1.211,0.739c0.363,0.337 0.653,0.784 0.869,1.341c0.216,0.557 0.324,1.243 0.324,2.058v0.568h-6.729v-1.159h5.365c0,-0.493 -0.098,-0.932 -0.295,-1.319c-0.194,-0.386 -0.47,-0.691 -0.83,-0.915c-0.356,-0.223 -0.777,-0.335 -1.262,-0.335c-0.534,0 -0.996,0.133 -1.387,0.398c-0.386,0.261 -0.684,0.602 -0.892,1.023c-0.208,0.42 -0.313,0.871 -0.313,1.352v0.773c0,0.66 0.114,1.218 0.341,1.677c0.232,0.455 0.552,0.801 0.961,1.04c0.409,0.235 0.885,0.352 1.426,0.352c0.353,0 0.671,-0.049 0.955,-0.148c0.288,-0.102 0.536,-0.253 0.745,-0.454c0.208,-0.205 0.369,-0.459 0.483,-0.762l1.296,0.364c-0.137,0.44 -0.366,0.826 -0.688,1.159c-0.322,0.33 -0.72,0.588 -1.194,0.773c-0.473,0.182 -1.005,0.273 -1.597,0.273zM169.32,75.853c-0.648,0 -1.205,-0.084 -1.671,-0.25c-0.466,-0.163 -0.854,-0.379 -1.165,-0.648c-0.307,-0.265 -0.551,-0.55 -0.733,-0.853l1.068,-0.75c0.122,0.159 0.275,0.341 0.461,0.546c0.185,0.208 0.439,0.388 0.761,0.54c0.326,0.155 0.752,0.233 1.279,0.233c0.705,0 1.286,-0.171 1.745,-0.512c0.458,-0.341 0.687,-0.875 0.687,-1.603v-1.773h-0.113c-0.099,0.159 -0.239,0.356 -0.421,0.591c-0.178,0.231 -0.435,0.438 -0.773,0.62c-0.333,0.178 -0.784,0.267 -1.352,0.267c-0.705,0 -1.338,-0.167 -1.899,-0.5c-0.557,-0.334 -0.998,-0.819 -1.324,-1.455c-0.322,-0.637 -0.483,-1.41 -0.483,-2.319c0,-0.894 0.157,-1.673 0.472,-2.336c0.314,-0.667 0.752,-1.182 1.313,-1.546c0.56,-0.367 1.208,-0.551 1.943,-0.551c0.569,0 1.02,0.095 1.353,0.284c0.337,0.186 0.595,0.398 0.773,0.637c0.182,0.235 0.322,0.428 0.421,0.579h0.136v-1.386h1.296v8.979c0,0.751 -0.171,1.361 -0.512,1.83c-0.337,0.474 -0.792,0.821 -1.364,1.04c-0.568,0.224 -1.201,0.336 -1.898,0.336zM169.275,71.056c0.538,0 0.992,-0.123 1.364,-0.369c0.371,-0.247 0.653,-0.601 0.846,-1.063c0.194,-0.462 0.29,-1.016 0.29,-1.66c0,-0.629 -0.095,-1.184 -0.284,-1.665c-0.189,-0.481 -0.47,-0.858 -0.841,-1.131c-0.371,-0.273 -0.83,-0.409 -1.375,-0.409c-0.569,0 -1.042,0.144 -1.421,0.432c-0.375,0.288 -0.658,0.674 -0.847,1.159c-0.186,0.485 -0.279,1.023 -0.279,1.614c0,0.606 0.095,1.143 0.285,1.609c0.193,0.462 0.477,0.826 0.852,1.091c0.379,0.261 0.849,0.392 1.41,0.392zM175.549,72.397v-8.729h1.296v1.318h0.091c0.159,-0.432 0.447,-0.782 0.863,-1.051c0.417,-0.269 0.887,-0.404 1.41,-0.404c0.098,0 0.222,0.002 0.369,0.006c0.148,0.004 0.26,0.009 0.336,0.017v1.364c-0.046,-0.011 -0.15,-0.028 -0.313,-0.051c-0.159,-0.027 -0.328,-0.04 -0.506,-0.04c-0.424,0 -0.803,0.089 -1.136,0.267c-0.33,0.174 -0.591,0.417 -0.785,0.728c-0.189,0.307 -0.284,0.657 -0.284,1.051v5.524zM184.072,72.602c-0.553,0 -1.055,-0.104 -1.506,-0.313c-0.451,-0.212 -0.809,-0.517 -1.074,-0.915c-0.265,-0.401 -0.398,-0.886 -0.398,-1.455c0,-0.5 0.099,-0.905 0.296,-1.216c0.197,-0.314 0.46,-0.561 0.79,-0.739c0.33,-0.178 0.693,-0.31 1.091,-0.398c0.402,-0.09 0.805,-0.162 1.211,-0.216c0.53,-0.068 0.96,-0.119 1.29,-0.153c0.333,-0.038 0.576,-0.1 0.727,-0.188c0.156,-0.087 0.233,-0.238 0.233,-0.454v-0.046c0,-0.56 -0.153,-0.996 -0.46,-1.307c-0.303,-0.31 -0.764,-0.466 -1.381,-0.466c-0.64,0 -1.142,0.14 -1.506,0.421c-0.364,0.28 -0.62,0.579 -0.767,0.898l-1.274,-0.455c0.228,-0.53 0.531,-0.943 0.91,-1.239c0.382,-0.299 0.799,-0.508 1.25,-0.625c0.455,-0.121 0.902,-0.182 1.341,-0.182c0.281,0 0.603,0.034 0.967,0.102c0.367,0.065 0.721,0.199 1.062,0.404c0.345,0.204 0.631,0.513 0.859,0.926c0.227,0.413 0.341,0.966 0.341,1.66v5.751h-1.342v-1.182h-0.068c-0.091,0.19 -0.242,0.392 -0.455,0.608c-0.212,0.216 -0.494,0.4 -0.846,0.552c-0.353,0.151 -0.783,0.227 -1.291,0.227zM184.277,71.397c0.53,0 0.978,-0.104 1.341,-0.313c0.368,-0.208 0.644,-0.477 0.83,-0.807c0.19,-0.329 0.284,-0.676 0.284,-1.04v-1.227c-0.057,0.068 -0.182,0.13 -0.375,0.187c-0.189,0.053 -0.409,0.101 -0.659,0.142c-0.246,0.038 -0.487,0.072 -0.722,0.103c-0.231,0.026 -0.419,0.049 -0.563,0.068c-0.348,0.045 -0.674,0.119 -0.977,0.222c-0.299,0.098 -0.542,0.248 -0.728,0.449c-0.181,0.197 -0.272,0.466 -0.272,0.807c0,0.466 0.172,0.818 0.517,1.057c0.348,0.235 0.79,0.352 1.324,0.352zM194.318,63.668v1.136h-4.524v-1.136zM191.113,61.576h1.341v8.321c0,0.378 0.055,0.663 0.165,0.852c0.113,0.186 0.257,0.311 0.432,0.375c0.178,0.061 0.365,0.091 0.562,0.091c0.148,0 0.269,-0.007 0.364,-0.023c0.095,-0.019 0.171,-0.034 0.227,-0.045l0.273,1.205c-0.091,0.034 -0.218,0.068 -0.381,0.102c-0.163,0.038 -0.369,0.057 -0.619,0.057c-0.379,0 -0.75,-0.082 -1.114,-0.244c-0.36,-0.163 -0.659,-0.412 -0.898,-0.745c-0.235,-0.333 -0.352,-0.754 -0.352,-1.262zM196.336,72.397v-8.729h1.341v8.729zM197.018,62.213c-0.262,0 -0.487,-0.089 -0.677,-0.267c-0.185,-0.178 -0.278,-0.392 -0.278,-0.643c0,-0.25 0.093,-0.464 0.278,-0.642c0.19,-0.178 0.415,-0.267 0.677,-0.267c0.261,0 0.485,0.089 0.67,0.267c0.19,0.178 0.284,0.392 0.284,0.642c0,0.251 -0.094,0.465 -0.284,0.643c-0.185,0.178 -0.409,0.267 -0.67,0.267zM203.68,72.579c-0.788,0 -1.48,-0.187 -2.075,-0.563c-0.591,-0.375 -1.053,-0.899 -1.386,-1.574c-0.33,-0.674 -0.495,-1.462 -0.495,-2.364c0,-0.909 0.165,-1.703 0.495,-2.381c0.333,-0.679 0.795,-1.205 1.386,-1.58c0.595,-0.375 1.287,-0.563 2.075,-0.563c0.788,0 1.478,0.188 2.069,0.563c0.594,0.375 1.057,0.901 1.386,1.58c0.334,0.678 0.5,1.472 0.5,2.381c0,0.902 -0.166,1.69 -0.5,2.364c-0.329,0.675 -0.792,1.199 -1.386,1.574c-0.591,0.376 -1.281,0.563 -2.069,0.563zM203.68,71.374c0.599,0 1.091,-0.153 1.478,-0.46c0.386,-0.307 0.672,-0.71 0.858,-1.211c0.185,-0.5 0.278,-1.042 0.278,-1.625c0,-0.584 -0.093,-1.127 -0.278,-1.631c-0.186,-0.504 -0.472,-0.911 -0.858,-1.222c-0.387,-0.311 -0.879,-0.466 -1.478,-0.466c-0.599,0 -1.091,0.155 -1.478,0.466c-0.386,0.311 -0.672,0.718 -0.858,1.222c-0.186,0.504 -0.278,1.047 -0.278,1.631c0,0.583 0.092,1.125 0.278,1.625c0.186,0.501 0.472,0.904 0.858,1.211c0.387,0.307 0.879,0.46 1.478,0.46zM211.024,67.146v5.251h-1.341v-8.729h1.296v1.364h0.113c0.205,-0.444 0.516,-0.8 0.932,-1.069c0.417,-0.273 0.955,-0.409 1.614,-0.409c0.592,0 1.109,0.121 1.552,0.364c0.443,0.238 0.788,0.602 1.034,1.091c0.247,0.485 0.37,1.099 0.37,1.841v5.547h-1.341v-5.456c0,-0.686 -0.179,-1.22 -0.535,-1.602c-0.356,-0.387 -0.845,-0.58 -1.466,-0.58c-0.428,0 -0.811,0.093 -1.148,0.278c-0.333,0.186 -0.597,0.457 -0.79,0.813c-0.193,0.356 -0.29,0.788 -0.29,1.296z" fill="black"/>
</g>
</g></svg>