<svg viewBox="0 0 334 112" fill="none" xmlns="http://www.w3.org/2000/svg" x="0" y="0"><g id="Group 1000013363_2">
<g id="Group 1000013360_7">
<g id="Group 1000013358_7">
<rect id="Rectangle 379_7" x="0.19000000000005457" y="-9.587999999999994" width="91.8489" height="112.029" rx="25" fill="#E8F2FF"/>
<rect id="Rectangle 378_7" x="8.264999999999986" y="-9.587999999999994" width="326.013" height="112.029" rx="25" fill="#E8F2FF"/>
</g>
</g>
<g id="Group 1000013359_7">
<path id="🏢 Hall Management Residential Management System" d="M20.432,41.546h16.004v-16.005h-16.004zM41.554,40.425v-11.639h2.108v4.927h5.394v-4.927h2.114v11.639h-2.114v-4.944h-5.394v4.944zM55.884,40.602c-0.553,0 -1.051,-0.099 -1.495,-0.296c-0.439,-0.201 -0.788,-0.496 -1.045,-0.887c-0.254,-0.39 -0.381,-0.871 -0.381,-1.443c0,-0.493 0.091,-0.9 0.273,-1.222c0.182,-0.322 0.43,-0.58 0.744,-0.773c0.315,-0.193 0.669,-0.339 1.063,-0.438c0.398,-0.102 0.809,-0.176 1.233,-0.221c0.512,-0.053 0.927,-0.101 1.245,-0.142c0.318,-0.046 0.549,-0.114 0.693,-0.205c0.148,-0.095 0.222,-0.241 0.222,-0.438v-0.034c0,-0.428 -0.127,-0.759 -0.381,-0.994c-0.254,-0.235 -0.619,-0.353 -1.097,-0.353c-0.504,0 -0.903,0.11 -1.199,0.33c-0.292,0.22 -0.489,0.479 -0.591,0.779l-1.921,-0.273c0.152,-0.531 0.402,-0.974 0.75,-1.33c0.349,-0.36 0.775,-0.629 1.279,-0.807c0.504,-0.182 1.061,-0.273 1.671,-0.273c0.42,0 0.839,0.049 1.256,0.148c0.417,0.098 0.797,0.261 1.142,0.489c0.345,0.223 0.622,0.528 0.83,0.915c0.212,0.386 0.318,0.869 0.318,1.449v5.842h-1.977v-1.199h-0.069c-0.125,0.243 -0.301,0.47 -0.528,0.682c-0.224,0.209 -0.506,0.377 -0.847,0.506c-0.337,0.125 -0.733,0.188 -1.188,0.188zM56.418,39.09c0.413,0 0.771,-0.082 1.075,-0.245c0.303,-0.166 0.536,-0.386 0.699,-0.659c0.166,-0.273 0.25,-0.57 0.25,-0.892v-1.029c-0.065,0.053 -0.175,0.102 -0.33,0.148c-0.152,0.045 -0.322,0.085 -0.512,0.119c-0.189,0.034 -0.376,0.065 -0.562,0.091c-0.186,0.027 -0.347,0.049 -0.483,0.068c-0.307,0.042 -0.582,0.11 -0.824,0.205c-0.243,0.095 -0.434,0.227 -0.574,0.398c-0.141,0.167 -0.211,0.383 -0.211,0.648c0,0.379 0.139,0.665 0.415,0.858c0.277,0.193 0.629,0.29 1.057,0.29zM64.619,28.786v11.639h-2.057v-11.639zM68.792,28.786v11.639h-2.057v-11.639zM74.969,28.786h2.58l3.455,8.434h0.137l3.455,-8.434h2.58v11.639h-2.023v-7.996h-0.108l-3.217,7.962h-1.511l-3.217,-7.979h-0.108v8.013h-2.023zM91.894,40.602c-0.554,0 -1.052,-0.099 -1.495,-0.296c-0.44,-0.201 -0.788,-0.496 -1.046,-0.887c-0.254,-0.39 -0.381,-0.871 -0.381,-1.443c0,-0.493 0.091,-0.9 0.273,-1.222c0.182,-0.322 0.43,-0.58 0.745,-0.773c0.314,-0.193 0.668,-0.339 1.062,-0.438c0.398,-0.102 0.809,-0.176 1.234,-0.221c0.511,-0.053 0.926,-0.101 1.244,-0.142c0.319,-0.046 0.55,-0.114 0.694,-0.205c0.148,-0.095 0.221,-0.241 0.221,-0.438v-0.034c0,-0.428 -0.127,-0.759 -0.38,-0.994c-0.254,-0.235 -0.62,-0.353 -1.097,-0.353c-0.504,0 -0.904,0.11 -1.199,0.33c-0.292,0.22 -0.489,0.479 -0.591,0.779l-1.921,-0.273c0.151,-0.531 0.401,-0.974 0.75,-1.33c0.348,-0.36 0.775,-0.629 1.278,-0.807c0.504,-0.182 1.061,-0.273 1.671,-0.273c0.421,0 0.84,0.049 1.256,0.148c0.417,0.098 0.798,0.261 1.143,0.489c0.345,0.223 0.621,0.528 0.829,0.915c0.213,0.386 0.319,0.869 0.319,1.449v5.842h-1.978v-1.199h-0.068c-0.125,0.243 -0.301,0.47 -0.529,0.682c-0.223,0.209 -0.506,0.377 -0.847,0.506c-0.337,0.125 -0.733,0.188 -1.187,0.188zM92.428,39.09c0.413,0 0.771,-0.082 1.074,-0.245c0.303,-0.166 0.536,-0.386 0.699,-0.659c0.167,-0.273 0.25,-0.57 0.25,-0.892v-1.029c-0.064,0.053 -0.174,0.102 -0.33,0.148c-0.151,0.045 -0.322,0.085 -0.511,0.119c-0.189,0.034 -0.377,0.065 -0.563,0.091c-0.185,0.027 -0.346,0.049 -0.483,0.068c-0.307,0.042 -0.581,0.11 -0.824,0.205c-0.242,0.095 -0.434,0.227 -0.574,0.398c-0.14,0.167 -0.21,0.383 -0.21,0.648c0,0.379 0.138,0.665 0.415,0.858c0.276,0.193 0.629,0.29 1.057,0.29zM100.629,35.31v5.115h-2.058v-8.729h1.967v1.483h0.102c0.201,-0.489 0.521,-0.877 0.961,-1.165c0.443,-0.288 0.99,-0.432 1.642,-0.432c0.603,0 1.127,0.129 1.574,0.387c0.451,0.257 0.8,0.63 1.046,1.119c0.25,0.489 0.373,1.082 0.37,1.779v5.558h-2.058v-5.24c0,-0.583 -0.151,-1.04 -0.454,-1.369c-0.3,-0.33 -0.715,-0.495 -1.245,-0.495c-0.36,0 -0.68,0.08 -0.961,0.239c-0.276,0.155 -0.494,0.381 -0.653,0.676c-0.155,0.296 -0.233,0.654 -0.233,1.074zM110.836,40.602c-0.553,0 -1.051,-0.099 -1.495,-0.296c-0.439,-0.201 -0.788,-0.496 -1.045,-0.887c-0.254,-0.39 -0.381,-0.871 -0.381,-1.443c0,-0.493 0.091,-0.9 0.273,-1.222c0.182,-0.322 0.43,-0.58 0.744,-0.773c0.315,-0.193 0.669,-0.339 1.063,-0.438c0.398,-0.102 0.809,-0.176 1.233,-0.221c0.512,-0.053 0.927,-0.101 1.245,-0.142c0.318,-0.046 0.549,-0.114 0.693,-0.205c0.148,-0.095 0.222,-0.241 0.222,-0.438v-0.034c0,-0.428 -0.127,-0.759 -0.381,-0.994c-0.254,-0.235 -0.619,-0.353 -1.097,-0.353c-0.504,0 -0.903,0.11 -1.199,0.33c-0.292,0.22 -0.489,0.479 -0.591,0.779l-1.921,-0.273c0.152,-0.531 0.402,-0.974 0.75,-1.33c0.349,-0.36 0.775,-0.629 1.279,-0.807c0.504,-0.182 1.061,-0.273 1.671,-0.273c0.42,0 0.839,0.049 1.256,0.148c0.417,0.098 0.797,0.261 1.142,0.489c0.345,0.223 0.622,0.528 0.83,0.915c0.212,0.386 0.318,0.869 0.318,1.449v5.842h-1.978v-1.199h-0.068c-0.125,0.243 -0.301,0.47 -0.528,0.682c-0.224,0.209 -0.506,0.377 -0.847,0.506c-0.337,0.125 -0.733,0.188 -1.188,0.188zM111.37,39.09c0.413,0 0.771,-0.082 1.074,-0.245c0.304,-0.166 0.537,-0.386 0.699,-0.659c0.167,-0.273 0.251,-0.57 0.251,-0.892v-1.029c-0.065,0.053 -0.175,0.102 -0.33,0.148c-0.152,0.045 -0.322,0.085 -0.512,0.119c-0.189,0.034 -0.377,0.065 -0.562,0.091c-0.186,0.027 -0.347,0.049 -0.483,0.068c-0.307,0.042 -0.582,0.11 -0.824,0.205c-0.243,0.095 -0.434,0.227 -0.574,0.398c-0.141,0.167 -0.211,0.383 -0.211,0.648c0,0.379 0.139,0.665 0.415,0.858c0.277,0.193 0.629,0.29 1.057,0.29zM121.31,43.881c-0.738,0 -1.373,-0.101 -1.903,-0.301c-0.531,-0.197 -0.957,-0.463 -1.279,-0.796c-0.322,-0.333 -0.546,-0.703 -0.671,-1.108l1.853,-0.449c0.083,0.17 0.204,0.339 0.364,0.506c0.159,0.17 0.373,0.31 0.642,0.42c0.273,0.114 0.616,0.171 1.029,0.171c0.583,0 1.066,-0.142 1.449,-0.427c0.382,-0.28 0.574,-0.742 0.574,-1.386v-1.654h-0.103c-0.106,0.212 -0.261,0.43 -0.466,0.653c-0.2,0.224 -0.467,0.411 -0.801,0.563c-0.33,0.152 -0.744,0.227 -1.245,0.227c-0.67,0 -1.278,-0.157 -1.824,-0.471c-0.542,-0.319 -0.974,-0.792 -1.296,-1.421c-0.318,-0.633 -0.477,-1.425 -0.477,-2.376c0,-0.958 0.159,-1.767 0.477,-2.427c0.322,-0.663 0.756,-1.165 1.302,-1.506c0.545,-0.344 1.154,-0.517 1.824,-0.517c0.512,0 0.932,0.087 1.262,0.262c0.333,0.17 0.598,0.377 0.795,0.619c0.198,0.239 0.347,0.464 0.449,0.676h0.114v-1.443h2.029v8.871c0,0.747 -0.178,1.364 -0.534,1.853c-0.356,0.489 -0.843,0.855 -1.461,1.097c-0.617,0.243 -1.318,0.364 -2.103,0.364zM121.327,38.686c0.436,0 0.807,-0.106 1.114,-0.318c0.307,-0.212 0.54,-0.517 0.699,-0.915c0.16,-0.398 0.239,-0.875 0.239,-1.432c0,-0.55 -0.079,-1.031 -0.239,-1.444c-0.155,-0.413 -0.386,-0.733 -0.693,-0.96c-0.303,-0.231 -0.676,-0.347 -1.12,-0.347c-0.458,0 -0.841,0.119 -1.148,0.358c-0.306,0.239 -0.538,0.567 -0.693,0.983c-0.155,0.413 -0.233,0.883 -0.233,1.41c0,0.534 0.078,1.002 0.233,1.404c0.159,0.397 0.392,0.708 0.699,0.932c0.311,0.219 0.692,0.329 1.142,0.329zM131.381,40.596c-0.875,0 -1.631,-0.182 -2.267,-0.546c-0.633,-0.367 -1.12,-0.886 -1.461,-1.557c-0.341,-0.674 -0.512,-1.468 -0.512,-2.381c0,-0.898 0.171,-1.686 0.512,-2.365c0.345,-0.682 0.826,-1.212 1.444,-1.591c0.617,-0.383 1.343,-0.574 2.176,-0.574c0.538,0 1.046,0.087 1.523,0.262c0.482,0.17 0.906,0.435 1.273,0.795c0.372,0.36 0.664,0.819 0.876,1.376c0.212,0.553 0.318,1.212 0.318,1.977v0.631h-7.155v-1.386h5.183c-0.004,-0.395 -0.089,-0.745 -0.256,-1.052c-0.167,-0.311 -0.4,-0.555 -0.699,-0.733c-0.295,-0.178 -0.64,-0.267 -1.034,-0.267c-0.421,0 -0.79,0.102 -1.109,0.307c-0.318,0.201 -0.566,0.466 -0.744,0.795c-0.174,0.326 -0.263,0.684 -0.267,1.075v1.21c0,0.508 0.093,0.944 0.278,1.307c0.186,0.36 0.445,0.637 0.779,0.83c0.333,0.189 0.724,0.284 1.171,0.284c0.299,0 0.57,-0.041 0.812,-0.125c0.243,-0.087 0.453,-0.214 0.631,-0.381c0.178,-0.166 0.313,-0.373 0.404,-0.619l1.921,0.216c-0.122,0.508 -0.353,0.951 -0.694,1.33c-0.337,0.375 -0.769,0.667 -1.295,0.875c-0.527,0.205 -1.13,0.307 -1.808,0.307zM137.003,40.425v-8.729h1.967v1.483h0.102c0.182,-0.5 0.483,-0.89 0.904,-1.171c0.42,-0.284 0.922,-0.426 1.506,-0.426c0.591,0 1.089,0.144 1.495,0.432c0.409,0.284 0.697,0.673 0.863,1.165h0.091c0.194,-0.485 0.519,-0.871 0.978,-1.159c0.462,-0.292 1.01,-0.438 1.642,-0.438c0.804,0 1.459,0.254 1.967,0.762c0.508,0.507 0.761,1.248 0.761,2.222v5.859h-2.063v-5.541c0,-0.542 -0.144,-0.938 -0.432,-1.188c-0.288,-0.254 -0.64,-0.38 -1.057,-0.38c-0.496,0 -0.884,0.155 -1.165,0.466c-0.276,0.306 -0.415,0.706 -0.415,1.199v5.444h-2.017v-5.626c0,-0.451 -0.137,-0.811 -0.409,-1.08c-0.269,-0.269 -0.622,-0.403 -1.057,-0.403c-0.296,0 -0.565,0.075 -0.808,0.227c-0.242,0.148 -0.435,0.358 -0.579,0.631c-0.144,0.269 -0.216,0.583 -0.216,0.943v5.308zM155.231,40.596c-0.875,0 -1.631,-0.182 -2.267,-0.546c-0.633,-0.367 -1.12,-0.886 -1.461,-1.557c-0.341,-0.674 -0.511,-1.468 -0.511,-2.381c0,-0.898 0.17,-1.686 0.511,-2.365c0.345,-0.682 0.826,-1.212 1.444,-1.591c0.617,-0.383 1.343,-0.574 2.176,-0.574c0.538,0 1.046,0.087 1.523,0.262c0.482,0.17 0.906,0.435 1.273,0.795c0.372,0.36 0.664,0.819 0.876,1.376c0.212,0.553 0.318,1.212 0.318,1.977v0.631h-7.155v-1.386h5.183c-0.004,-0.395 -0.089,-0.745 -0.256,-1.052c-0.167,-0.311 -0.4,-0.555 -0.699,-0.733c-0.295,-0.178 -0.64,-0.267 -1.034,-0.267c-0.421,0 -0.79,0.102 -1.109,0.307c-0.318,0.201 -0.566,0.466 -0.744,0.795c-0.174,0.326 -0.263,0.684 -0.267,1.075v1.21c0,0.508 0.093,0.944 0.278,1.307c0.186,0.36 0.445,0.637 0.779,0.83c0.333,0.189 0.724,0.284 1.171,0.284c0.299,0 0.57,-0.041 0.812,-0.125c0.243,-0.087 0.453,-0.214 0.631,-0.381c0.178,-0.166 0.313,-0.373 0.404,-0.619l1.921,0.216c-0.122,0.508 -0.353,0.951 -0.694,1.33c-0.337,0.375 -0.769,0.667 -1.295,0.875c-0.527,0.205 -1.13,0.307 -1.808,0.307zM162.911,35.31v5.115h-2.058v-8.729h1.967v1.483h0.102c0.201,-0.489 0.521,-0.877 0.961,-1.165c0.443,-0.288 0.99,-0.432 1.642,-0.432c0.603,0 1.127,0.129 1.574,0.387c0.451,0.257 0.8,0.63 1.046,1.119c0.25,0.489 0.373,1.082 0.37,1.779v5.558h-2.058v-5.24c0,-0.583 -0.151,-1.04 -0.454,-1.369c-0.3,-0.33 -0.715,-0.495 -1.245,-0.495c-0.36,0 -0.68,0.08 -0.961,0.239c-0.276,0.155 -0.494,0.381 -0.653,0.676c-0.155,0.296 -0.233,0.654 -0.233,1.074zM174.965,31.696v1.591h-5.018v-1.591zM171.186,29.604h2.057v8.196c0,0.276 0.042,0.488 0.125,0.636c0.087,0.144 0.201,0.243 0.341,0.296c0.14,0.053 0.296,0.079 0.466,0.079c0.129,0 0.246,-0.009 0.353,-0.028c0.109,-0.019 0.193,-0.036 0.25,-0.051l0.346,1.608c-0.11,0.038 -0.267,0.08 -0.471,0.125c-0.201,0.046 -0.448,0.072 -0.739,0.08c-0.516,0.015 -0.98,-0.063 -1.393,-0.233c-0.413,-0.175 -0.74,-0.444 -0.983,-0.807c-0.239,-0.364 -0.356,-0.819 -0.352,-1.364zM21.841,72.434v-11.64h3.933c0.909,0 1.656,0.156 2.239,0.466c0.584,0.307 1.016,0.73 1.296,1.268c0.28,0.538 0.421,1.15 0.421,1.835c0,0.686 -0.141,1.294 -0.421,1.825c-0.28,0.53 -0.71,0.947 -1.29,1.25c-0.58,0.299 -1.321,0.449 -2.222,0.449h-3.183v-1.273h3.137c0.622,0 1.122,-0.091 1.501,-0.273c0.382,-0.182 0.659,-0.439 0.829,-0.773c0.175,-0.337 0.262,-0.738 0.262,-1.205c0,-0.466 -0.087,-0.873 -0.262,-1.221c-0.174,-0.349 -0.452,-0.618 -0.835,-0.807c-0.383,-0.194 -0.889,-0.29 -1.518,-0.29h-2.477v10.389zM27.32,67.205l2.864,5.229h-1.637l-2.819,-5.229zM35.463,72.616c-0.842,0 -1.567,-0.186 -2.177,-0.557c-0.606,-0.375 -1.074,-0.898 -1.404,-1.569c-0.326,-0.674 -0.489,-1.459 -0.489,-2.353c0,-0.894 0.163,-1.682 0.489,-2.364c0.33,-0.686 0.788,-1.22 1.375,-1.603c0.592,-0.386 1.281,-0.579 2.069,-0.579c0.455,0 0.904,0.075 1.347,0.227c0.443,0.151 0.847,0.398 1.211,0.739c0.363,0.337 0.653,0.784 0.869,1.341c0.216,0.557 0.324,1.243 0.324,2.057v0.569h-6.729v-1.16h5.365c0,-0.492 -0.098,-0.932 -0.295,-1.318c-0.194,-0.387 -0.47,-0.692 -0.83,-0.915c-0.356,-0.224 -0.777,-0.336 -1.262,-0.336c-0.534,0 -0.996,0.133 -1.387,0.398c-0.386,0.262 -0.683,0.603 -0.892,1.023c-0.208,0.421 -0.312,0.872 -0.312,1.353v0.773c0,0.659 0.113,1.218 0.341,1.676c0.231,0.455 0.551,0.802 0.96,1.04c0.409,0.235 0.885,0.353 1.427,0.353c0.352,0 0.67,-0.049 0.954,-0.148c0.288,-0.102 0.537,-0.254 0.745,-0.455c0.208,-0.204 0.369,-0.458 0.483,-0.761l1.296,0.364c-0.137,0.439 -0.366,0.826 -0.688,1.159c-0.322,0.33 -0.72,0.587 -1.193,0.773c-0.474,0.182 -1.006,0.273 -1.597,0.273zM47.301,65.659l-1.205,0.341c-0.076,-0.201 -0.187,-0.396 -0.335,-0.585c-0.144,-0.193 -0.341,-0.352 -0.591,-0.478c-0.25,-0.125 -0.571,-0.187 -0.961,-0.187c-0.534,0 -0.979,0.123 -1.335,0.369c-0.353,0.243 -0.529,0.552 -0.529,0.927c0,0.333 0.121,0.596 0.364,0.79c0.242,0.193 0.621,0.354 1.136,0.483l1.296,0.318c0.781,0.19 1.362,0.479 1.745,0.87c0.383,0.386 0.574,0.884 0.574,1.494c0,0.5 -0.144,0.948 -0.432,1.342c-0.284,0.394 -0.682,0.704 -1.193,0.932c-0.512,0.227 -1.107,0.341 -1.785,0.341c-0.89,0 -1.627,-0.194 -2.211,-0.58c-0.583,-0.387 -0.953,-0.951 -1.108,-1.694l1.273,-0.318c0.121,0.47 0.351,0.822 0.688,1.057c0.341,0.235 0.786,0.353 1.335,0.353c0.625,0 1.122,-0.133 1.489,-0.398c0.372,-0.269 0.557,-0.591 0.557,-0.966c0,-0.304 -0.106,-0.557 -0.318,-0.762c-0.212,-0.208 -0.538,-0.364 -0.977,-0.466l-1.455,-0.341c-0.8,-0.19 -1.387,-0.483 -1.762,-0.881c-0.372,-0.402 -0.557,-0.904 -0.557,-1.506c0,-0.493 0.138,-0.928 0.415,-1.307c0.28,-0.379 0.661,-0.677 1.142,-0.892c0.485,-0.216 1.034,-0.324 1.648,-0.324c0.864,0 1.542,0.189 2.035,0.568c0.496,0.379 0.849,0.879 1.057,1.5zM49.479,72.434v-8.73h1.341v8.73zM50.161,62.249c-0.261,0 -0.487,-0.089 -0.676,-0.267c-0.186,-0.178 -0.279,-0.392 -0.279,-0.642c0,-0.25 0.093,-0.464 0.279,-0.642c0.189,-0.178 0.415,-0.267 0.676,-0.267c0.261,0 0.485,0.089 0.671,0.267c0.189,0.178 0.284,0.392 0.284,0.642c0,0.25 -0.095,0.464 -0.284,0.642c-0.186,0.178 -0.41,0.267 -0.671,0.267zM56.573,72.616c-0.727,0 -1.369,-0.184 -1.926,-0.552c-0.557,-0.371 -0.993,-0.894 -1.308,-1.568c-0.314,-0.678 -0.471,-1.48 -0.471,-2.404c0,-0.917 0.157,-1.713 0.471,-2.387c0.315,-0.675 0.753,-1.196 1.313,-1.563c0.561,-0.368 1.209,-0.551 1.944,-0.551c0.568,0 1.017,0.094 1.347,0.284c0.333,0.185 0.587,0.398 0.761,0.636c0.179,0.235 0.317,0.428 0.415,0.58h0.114v-4.297h1.341v11.64h-1.296v-1.341h-0.159c-0.098,0.159 -0.238,0.359 -0.42,0.602c-0.182,0.239 -0.442,0.453 -0.779,0.642c-0.337,0.186 -0.786,0.279 -1.347,0.279zM56.755,71.411c0.538,0 0.993,-0.14 1.364,-0.421c0.371,-0.284 0.654,-0.676 0.847,-1.176c0.193,-0.504 0.29,-1.086 0.29,-1.745c0,-0.652 -0.095,-1.222 -0.284,-1.711c-0.19,-0.492 -0.47,-0.875 -0.842,-1.148c-0.371,-0.276 -0.829,-0.415 -1.375,-0.415c-0.568,0 -1.042,0.146 -1.421,0.438c-0.375,0.288 -0.657,0.68 -0.847,1.176c-0.185,0.493 -0.278,1.046 -0.278,1.66c0,0.621 0.095,1.186 0.284,1.694c0.193,0.504 0.478,0.905 0.853,1.204c0.379,0.296 0.848,0.444 1.409,0.444zM66.877,72.616c-0.841,0 -1.567,-0.186 -2.177,-0.557c-0.606,-0.375 -1.074,-0.898 -1.403,-1.569c-0.326,-0.674 -0.489,-1.459 -0.489,-2.353c0,-0.894 0.163,-1.682 0.489,-2.364c0.329,-0.686 0.788,-1.22 1.375,-1.603c0.591,-0.386 1.281,-0.579 2.069,-0.579c0.454,0 0.903,0.075 1.347,0.227c0.443,0.151 0.846,0.398 1.21,0.739c0.364,0.337 0.654,0.784 0.87,1.341c0.216,0.557 0.324,1.243 0.324,2.057v0.569h-6.729v-1.16h5.365c0,-0.492 -0.099,-0.932 -0.296,-1.318c-0.193,-0.387 -0.47,-0.692 -0.83,-0.915c-0.356,-0.224 -0.776,-0.336 -1.261,-0.336c-0.535,0 -0.997,0.133 -1.387,0.398c-0.387,0.262 -0.684,0.603 -0.892,1.023c-0.209,0.421 -0.313,0.872 -0.313,1.353v0.773c0,0.659 0.114,1.218 0.341,1.676c0.231,0.455 0.551,0.802 0.961,1.04c0.409,0.235 0.884,0.353 1.426,0.353c0.352,0 0.671,-0.049 0.955,-0.148c0.288,-0.102 0.536,-0.254 0.744,-0.455c0.209,-0.204 0.37,-0.458 0.483,-0.761l1.296,0.364c-0.136,0.439 -0.365,0.826 -0.687,1.159c-0.322,0.33 -0.72,0.587 -1.194,0.773c-0.474,0.182 -1.006,0.273 -1.597,0.273zM73.873,67.182v5.252h-1.341v-8.73h1.296v1.364h0.113c0.205,-0.443 0.516,-0.799 0.933,-1.068c0.416,-0.273 0.954,-0.409 1.614,-0.409c0.591,0 1.108,0.121 1.551,0.363c0.443,0.239 0.788,0.603 1.034,1.091c0.247,0.485 0.37,1.099 0.37,1.842v5.547h-1.341v-5.456c0,-0.686 -0.178,-1.22 -0.535,-1.603c-0.356,-0.386 -0.845,-0.58 -1.466,-0.58c-0.428,0 -0.811,0.093 -1.148,0.279c-0.333,0.186 -0.597,0.456 -0.79,0.813c-0.193,0.356 -0.29,0.788 -0.29,1.295zM85.69,63.704v1.137h-4.524v-1.137zM82.485,61.613h1.341v8.32c0,0.379 0.055,0.663 0.165,0.853c0.114,0.185 0.258,0.31 0.432,0.375c0.178,0.06 0.366,0.091 0.563,0.091c0.147,0 0.269,-0.008 0.363,-0.023c0.095,-0.019 0.171,-0.034 0.228,-0.046l0.272,1.205c-0.091,0.034 -0.217,0.069 -0.38,0.103c-0.163,0.038 -0.37,0.056 -0.62,0.056c-0.379,0 -0.75,-0.081 -1.114,-0.244c-0.36,-0.163 -0.659,-0.411 -0.898,-0.744c-0.235,-0.334 -0.352,-0.754 -0.352,-1.262zM87.708,72.434v-8.73h1.341v8.73zM88.39,62.249c-0.262,0 -0.487,-0.089 -0.676,-0.267c-0.186,-0.178 -0.279,-0.392 -0.279,-0.642c0,-0.25 0.093,-0.464 0.279,-0.642c0.189,-0.178 0.414,-0.267 0.676,-0.267c0.261,0 0.485,0.089 0.67,0.267c0.19,0.178 0.285,0.392 0.285,0.642c0,0.25 -0.095,0.464 -0.285,0.642c-0.185,0.178 -0.409,0.267 -0.67,0.267zM94.075,72.638c-0.554,0 -1.056,-0.104 -1.507,-0.312c-0.45,-0.212 -0.808,-0.517 -1.074,-0.915c-0.265,-0.402 -0.397,-0.887 -0.397,-1.455c0,-0.5 0.098,-0.906 0.295,-1.216c0.197,-0.315 0.46,-0.561 0.79,-0.739c0.33,-0.178 0.693,-0.311 1.091,-0.398c0.402,-0.091 0.805,-0.163 1.211,-0.216c0.53,-0.068 0.96,-0.119 1.29,-0.153c0.333,-0.038 0.576,-0.101 0.727,-0.188c0.156,-0.087 0.233,-0.239 0.233,-0.455v-0.045c0,-0.561 -0.153,-0.997 -0.46,-1.307c-0.303,-0.311 -0.763,-0.466 -1.381,-0.466c-0.64,0 -1.142,0.14 -1.506,0.42c-0.364,0.281 -0.62,0.58 -0.767,0.898l-1.273,-0.454c0.227,-0.531 0.53,-0.944 0.909,-1.239c0.383,-0.3 0.799,-0.508 1.25,-0.626c0.455,-0.121 0.902,-0.181 1.341,-0.181c0.281,0 0.603,0.034 0.967,0.102c0.367,0.064 0.721,0.199 1.062,0.403c0.345,0.205 0.631,0.514 0.859,0.927c0.227,0.413 0.341,0.966 0.341,1.659v5.752h-1.342v-1.182h-0.068c-0.091,0.189 -0.242,0.392 -0.455,0.608c-0.212,0.216 -0.494,0.399 -0.846,0.551c-0.353,0.152 -0.783,0.227 -1.29,0.227zM94.279,71.434c0.531,0 0.978,-0.105 1.341,-0.313c0.368,-0.208 0.645,-0.477 0.83,-0.807c0.19,-0.33 0.284,-0.676 0.284,-1.04v-1.228c-0.056,0.068 -0.182,0.131 -0.375,0.188c-0.189,0.053 -0.409,0.1 -0.659,0.142c-0.246,0.038 -0.487,0.072 -0.722,0.102c-0.231,0.027 -0.418,0.049 -0.562,0.068c-0.349,0.046 -0.675,0.12 -0.978,0.222c-0.299,0.099 -0.542,0.248 -0.727,0.449c-0.182,0.197 -0.273,0.466 -0.273,0.807c0,0.466 0.172,0.818 0.517,1.057c0.349,0.235 0.79,0.353 1.324,0.353zM101.865,60.794v11.64h-1.341v-11.64zM109.005,60.794h1.682l3.955,9.662h0.137l3.955,-9.662h1.683v11.64h-1.319v-8.843h-0.113l-3.638,8.843h-1.273l-3.637,-8.843h-0.114v8.843h-1.318zM125.63,72.638c-0.553,0 -1.055,-0.104 -1.506,-0.312c-0.451,-0.212 -0.809,-0.517 -1.074,-0.915c-0.266,-0.402 -0.398,-0.887 -0.398,-1.455c0,-0.5 0.098,-0.906 0.295,-1.216c0.197,-0.315 0.461,-0.561 0.79,-0.739c0.33,-0.178 0.694,-0.311 1.091,-0.398c0.402,-0.091 0.806,-0.163 1.211,-0.216c0.53,-0.068 0.96,-0.119 1.29,-0.153c0.333,-0.038 0.576,-0.101 0.728,-0.188c0.155,-0.087 0.233,-0.239 0.233,-0.455v-0.045c0,-0.561 -0.154,-0.997 -0.461,-1.307c-0.303,-0.311 -0.763,-0.466 -1.381,-0.466c-0.64,0 -1.142,0.14 -1.506,0.42c-0.364,0.281 -0.619,0.58 -0.767,0.898l-1.273,-0.454c0.227,-0.531 0.53,-0.944 0.909,-1.239c0.383,-0.3 0.8,-0.508 1.25,-0.626c0.455,-0.121 0.902,-0.181 1.342,-0.181c0.28,0 0.602,0.034 0.966,0.102c0.367,0.064 0.722,0.199 1.063,0.403c0.344,0.205 0.63,0.514 0.858,0.927c0.227,0.413 0.341,0.966 0.341,1.659v5.752h-1.341v-1.182h-0.069c-0.091,0.189 -0.242,0.392 -0.454,0.608c-0.213,0.216 -0.495,0.399 -0.847,0.551c-0.353,0.152 -0.783,0.227 -1.29,0.227zM125.834,71.434c0.531,0 0.978,-0.105 1.342,-0.313c0.367,-0.208 0.644,-0.477 0.829,-0.807c0.19,-0.33 0.285,-0.676 0.285,-1.04v-1.228c-0.057,0.068 -0.182,0.131 -0.376,0.188c-0.189,0.053 -0.409,0.1 -0.659,0.142c-0.246,0.038 -0.487,0.072 -0.722,0.102c-0.231,0.027 -0.418,0.049 -0.562,0.068c-0.349,0.046 -0.675,0.12 -0.978,0.222c-0.299,0.099 -0.542,0.248 -0.727,0.449c-0.182,0.197 -0.273,0.466 -0.273,0.807c0,0.466 0.172,0.818 0.517,1.057c0.349,0.235 0.79,0.353 1.324,0.353zM133.42,67.182v5.252h-1.341v-8.73h1.296v1.364h0.113c0.205,-0.443 0.516,-0.799 0.932,-1.068c0.417,-0.273 0.955,-0.409 1.614,-0.409c0.592,0 1.109,0.121 1.552,0.363c0.443,0.239 0.788,0.603 1.034,1.091c0.247,0.485 0.37,1.099 0.37,1.842v5.547h-1.341v-5.456c0,-0.686 -0.179,-1.22 -0.535,-1.603c-0.356,-0.386 -0.845,-0.58 -1.466,-0.58c-0.428,0 -0.811,0.093 -1.148,0.279c-0.333,0.186 -0.597,0.456 -0.79,0.813c-0.193,0.356 -0.29,0.788 -0.29,1.295zM144.01,72.638c-0.554,0 -1.056,-0.104 -1.507,-0.312c-0.45,-0.212 -0.808,-0.517 -1.074,-0.915c-0.265,-0.402 -0.397,-0.887 -0.397,-1.455c0,-0.5 0.098,-0.906 0.295,-1.216c0.197,-0.315 0.46,-0.561 0.79,-0.739c0.33,-0.178 0.693,-0.311 1.091,-0.398c0.402,-0.091 0.805,-0.163 1.211,-0.216c0.53,-0.068 0.96,-0.119 1.29,-0.153c0.333,-0.038 0.576,-0.101 0.727,-0.188c0.156,-0.087 0.233,-0.239 0.233,-0.455v-0.045c0,-0.561 -0.153,-0.997 -0.46,-1.307c-0.303,-0.311 -0.763,-0.466 -1.381,-0.466c-0.64,0 -1.142,0.14 -1.506,0.42c-0.364,0.281 -0.62,0.58 -0.767,0.898l-1.273,-0.454c0.227,-0.531 0.53,-0.944 0.909,-1.239c0.383,-0.3 0.799,-0.508 1.25,-0.626c0.455,-0.121 0.902,-0.181 1.341,-0.181c0.281,0 0.603,0.034 0.967,0.102c0.367,0.064 0.721,0.199 1.062,0.403c0.345,0.205 0.631,0.514 0.859,0.927c0.227,0.413 0.341,0.966 0.341,1.659v5.752h-1.342v-1.182h-0.068c-0.091,0.189 -0.242,0.392 -0.455,0.608c-0.212,0.216 -0.494,0.399 -0.846,0.551c-0.353,0.152 -0.783,0.227 -1.29,0.227zM144.214,71.434c0.531,0 0.978,-0.105 1.341,-0.313c0.368,-0.208 0.645,-0.477 0.83,-0.807c0.19,-0.33 0.284,-0.676 0.284,-1.04v-1.228c-0.056,0.068 -0.182,0.131 -0.375,0.188c-0.189,0.053 -0.409,0.1 -0.659,0.142c-0.246,0.038 -0.487,0.072 -0.722,0.102c-0.231,0.027 -0.418,0.049 -0.562,0.068c-0.349,0.046 -0.675,0.12 -0.978,0.222c-0.299,0.099 -0.542,0.248 -0.727,0.449c-0.182,0.197 -0.273,0.466 -0.273,0.807c0,0.466 0.172,0.818 0.517,1.057c0.349,0.235 0.79,0.353 1.324,0.353zM153.982,75.889c-0.648,0 -1.205,-0.083 -1.671,-0.25c-0.466,-0.163 -0.854,-0.379 -1.165,-0.648c-0.307,-0.265 -0.551,-0.549 -0.733,-0.852l1.069,-0.75c0.121,0.159 0.274,0.341 0.46,0.545c0.186,0.209 0.44,0.389 0.762,0.54c0.325,0.155 0.752,0.233 1.278,0.233c0.705,0 1.287,-0.17 1.745,-0.511c0.459,-0.341 0.688,-0.876 0.688,-1.603v-1.773h-0.114c-0.098,0.159 -0.239,0.356 -0.42,0.591c-0.178,0.231 -0.436,0.437 -0.773,0.619c-0.334,0.178 -0.785,0.267 -1.353,0.267c-0.705,0 -1.337,-0.166 -1.898,-0.5c-0.557,-0.333 -0.999,-0.818 -1.324,-1.455c-0.322,-0.636 -0.483,-1.409 -0.483,-2.318c0,-0.895 0.157,-1.673 0.471,-2.336c0.315,-0.667 0.752,-1.182 1.313,-1.546c0.561,-0.368 1.209,-0.551 1.944,-0.551c0.568,0 1.019,0.094 1.352,0.284c0.338,0.185 0.595,0.398 0.773,0.636c0.182,0.235 0.322,0.428 0.421,0.58h0.136v-1.387h1.296v8.98c0,0.75 -0.17,1.36 -0.511,1.83c-0.338,0.473 -0.792,0.82 -1.364,1.04c-0.569,0.223 -1.201,0.335 -1.899,0.335zM153.937,71.093c0.538,0 0.993,-0.124 1.364,-0.37c0.371,-0.246 0.653,-0.6 0.847,-1.063c0.193,-0.462 0.29,-1.015 0.29,-1.659c0,-0.629 -0.095,-1.184 -0.285,-1.665c-0.189,-0.482 -0.469,-0.859 -0.841,-1.131c-0.371,-0.273 -0.83,-0.41 -1.375,-0.41c-0.568,0 -1.042,0.144 -1.421,0.432c-0.375,0.288 -0.657,0.675 -0.847,1.16c-0.185,0.485 -0.278,1.023 -0.278,1.614c0,0.606 0.094,1.142 0.284,1.608c0.193,0.462 0.477,0.826 0.852,1.091c0.379,0.262 0.849,0.393 1.41,0.393zM163.871,72.616c-0.841,0 -1.566,-0.186 -2.176,-0.557c-0.607,-0.375 -1.075,-0.898 -1.404,-1.569c-0.326,-0.674 -0.489,-1.459 -0.489,-2.353c0,-0.894 0.163,-1.682 0.489,-2.364c0.329,-0.686 0.788,-1.22 1.375,-1.603c0.591,-0.386 1.281,-0.579 2.069,-0.579c0.455,0 0.904,0.075 1.347,0.227c0.443,0.151 0.847,0.398 1.21,0.739c0.364,0.337 0.654,0.784 0.87,1.341c0.216,0.557 0.324,1.243 0.324,2.057v0.569h-6.729v-1.16h5.365c0,-0.492 -0.099,-0.932 -0.296,-1.318c-0.193,-0.387 -0.469,-0.692 -0.829,-0.915c-0.357,-0.224 -0.777,-0.336 -1.262,-0.336c-0.534,0 -0.997,0.133 -1.387,0.398c-0.386,0.262 -0.684,0.603 -0.892,1.023c-0.208,0.421 -0.313,0.872 -0.313,1.353v0.773c0,0.659 0.114,1.218 0.341,1.676c0.231,0.455 0.552,0.802 0.961,1.04c0.409,0.235 0.885,0.353 1.426,0.353c0.353,0 0.671,-0.049 0.955,-0.148c0.288,-0.102 0.536,-0.254 0.745,-0.455c0.208,-0.204 0.369,-0.458 0.483,-0.761l1.295,0.364c-0.136,0.439 -0.365,0.826 -0.687,1.159c-0.322,0.33 -0.72,0.587 -1.194,0.773c-0.473,0.182 -1.006,0.273 -1.597,0.273zM169.526,72.434v-8.73h1.296v1.364h0.114c0.182,-0.466 0.475,-0.828 0.881,-1.085c0.405,-0.262 0.892,-0.392 1.46,-0.392c0.576,0 1.055,0.13 1.438,0.392c0.387,0.257 0.688,0.619 0.904,1.085h0.091c0.223,-0.451 0.559,-0.809 1.006,-1.074c0.447,-0.269 0.983,-0.403 1.608,-0.403c0.78,0 1.419,0.244 1.915,0.733c0.497,0.485 0.745,1.241 0.745,2.267v5.843h-1.341v-5.843c0,-0.644 -0.177,-1.104 -0.529,-1.381c-0.352,-0.276 -0.767,-0.415 -1.245,-0.415c-0.613,0 -1.089,0.186 -1.426,0.557c-0.337,0.368 -0.506,0.834 -0.506,1.398v5.684h-1.364v-5.979c0,-0.496 -0.161,-0.896 -0.483,-1.199c-0.322,-0.307 -0.737,-0.461 -1.245,-0.461c-0.348,0 -0.674,0.093 -0.977,0.279c-0.3,0.186 -0.542,0.443 -0.728,0.773c-0.182,0.326 -0.273,0.703 -0.273,1.131v5.456zM187.096,72.616c-0.841,0 -1.567,-0.186 -2.177,-0.557c-0.606,-0.375 -1.074,-0.898 -1.403,-1.569c-0.326,-0.674 -0.489,-1.459 -0.489,-2.353c0,-0.894 0.163,-1.682 0.489,-2.364c0.329,-0.686 0.788,-1.22 1.375,-1.603c0.591,-0.386 1.281,-0.579 2.069,-0.579c0.454,0 0.903,0.075 1.347,0.227c0.443,0.151 0.847,0.398 1.21,0.739c0.364,0.337 0.654,0.784 0.87,1.341c0.216,0.557 0.324,1.243 0.324,2.057v0.569h-6.729v-1.16h5.365c0,-0.492 -0.099,-0.932 -0.296,-1.318c-0.193,-0.387 -0.47,-0.692 -0.83,-0.915c-0.356,-0.224 -0.776,-0.336 -1.261,-0.336c-0.534,0 -0.997,0.133 -1.387,0.398c-0.386,0.262 -0.684,0.603 -0.892,1.023c-0.209,0.421 -0.313,0.872 -0.313,1.353v0.773c0,0.659 0.114,1.218 0.341,1.676c0.231,0.455 0.551,0.802 0.961,1.04c0.409,0.235 0.884,0.353 1.426,0.353c0.353,0 0.671,-0.049 0.955,-0.148c0.288,-0.102 0.536,-0.254 0.744,-0.455c0.209,-0.204 0.37,-0.458 0.484,-0.761l1.295,0.364c-0.136,0.439 -0.365,0.826 -0.687,1.159c-0.322,0.33 -0.72,0.587 -1.194,0.773c-0.473,0.182 -1.006,0.273 -1.597,0.273zM194.092,67.182v5.252h-1.341v-8.73h1.296v1.364h0.114c0.204,-0.443 0.515,-0.799 0.932,-1.068c0.416,-0.273 0.954,-0.409 1.614,-0.409c0.591,0 1.108,0.121 1.551,0.363c0.443,0.239 0.788,0.603 1.035,1.091c0.246,0.485 0.369,1.099 0.369,1.842v5.547h-1.341v-5.456c0,-0.686 -0.178,-1.22 -0.535,-1.603c-0.356,-0.386 -0.844,-0.58 -1.466,-0.58c-0.428,0 -0.811,0.093 -1.148,0.279c-0.333,0.186 -0.597,0.456 -0.79,0.813c-0.193,0.356 -0.29,0.788 -0.29,1.295zM205.909,63.704v1.137h-4.524v-1.137zM202.704,61.613h1.341v8.32c0,0.379 0.055,0.663 0.165,0.853c0.114,0.185 0.258,0.31 0.432,0.375c0.178,0.06 0.366,0.091 0.563,0.091c0.147,0 0.269,-0.008 0.363,-0.023c0.095,-0.019 0.171,-0.034 0.228,-0.046l0.272,1.205c-0.09,0.034 -0.217,0.069 -0.38,0.103c-0.163,0.038 -0.37,0.056 -0.62,0.056c-0.379,0 -0.75,-0.081 -1.114,-0.244c-0.36,-0.163 -0.659,-0.411 -0.898,-0.744c-0.235,-0.334 -0.352,-0.754 -0.352,-1.262zM218.975,63.704c-0.068,-0.576 -0.345,-1.023 -0.829,-1.341c-0.485,-0.318 -1.08,-0.477 -1.785,-0.477c-0.515,0 -0.966,0.083 -1.353,0.25c-0.382,0.166 -0.682,0.396 -0.898,0.687c-0.212,0.292 -0.318,0.624 -0.318,0.995c0,0.311 0.074,0.578 0.222,0.801c0.151,0.22 0.345,0.404 0.579,0.552c0.235,0.143 0.482,0.263 0.739,0.358c0.258,0.09 0.495,0.164 0.711,0.221l1.182,0.318c0.303,0.08 0.64,0.19 1.011,0.33c0.376,0.14 0.734,0.332 1.075,0.574c0.344,0.239 0.629,0.546 0.852,0.921c0.224,0.375 0.335,0.835 0.335,1.381c0,0.629 -0.164,1.197 -0.494,1.705c-0.326,0.508 -0.803,0.911 -1.432,1.21c-0.625,0.3 -1.385,0.449 -2.279,0.449c-0.834,0 -1.556,-0.134 -2.166,-0.403c-0.606,-0.269 -1.083,-0.644 -1.432,-1.125c-0.345,-0.482 -0.54,-1.04 -0.585,-1.677h1.455c0.038,0.44 0.185,0.803 0.443,1.091c0.261,0.284 0.591,0.497 0.989,0.637c0.402,0.136 0.834,0.204 1.296,0.204c0.538,0 1.021,-0.087 1.449,-0.261c0.428,-0.178 0.767,-0.424 1.017,-0.739c0.25,-0.318 0.375,-0.69 0.375,-1.114c0,-0.386 -0.108,-0.701 -0.324,-0.943c-0.216,-0.243 -0.5,-0.44 -0.852,-0.591c-0.352,-0.152 -0.733,-0.285 -1.142,-0.398l-1.433,-0.409c-0.909,-0.262 -1.629,-0.635 -2.159,-1.12c-0.531,-0.485 -0.796,-1.12 -0.796,-1.904c0,-0.652 0.176,-1.22 0.529,-1.705c0.356,-0.489 0.833,-0.868 1.432,-1.137c0.602,-0.272 1.275,-0.409 2.017,-0.409c0.751,0 1.417,0.135 2.001,0.404c0.583,0.265 1.046,0.629 1.387,1.091c0.344,0.462 0.526,0.987 0.545,1.574zM223.498,75.707c-0.228,0 -0.43,-0.019 -0.608,-0.056c-0.178,-0.035 -0.302,-0.069 -0.37,-0.103l0.341,-1.182c0.326,0.083 0.614,0.114 0.864,0.091c0.25,-0.023 0.472,-0.134 0.665,-0.335c0.197,-0.197 0.377,-0.517 0.54,-0.961l0.25,-0.682l-3.228,-8.775h1.455l2.41,6.957h0.09l2.41,-6.957h1.455l-3.705,10.003c-0.167,0.451 -0.374,0.824 -0.62,1.119c-0.246,0.3 -0.532,0.521 -0.858,0.665c-0.322,0.144 -0.686,0.216 -1.091,0.216zM237.726,65.659l-1.205,0.341c-0.076,-0.201 -0.187,-0.396 -0.335,-0.585c-0.144,-0.193 -0.341,-0.352 -0.591,-0.478c-0.25,-0.125 -0.571,-0.187 -0.961,-0.187c-0.534,0 -0.979,0.123 -1.335,0.369c-0.353,0.243 -0.529,0.552 -0.529,0.927c0,0.333 0.121,0.596 0.364,0.79c0.242,0.193 0.621,0.354 1.136,0.483l1.296,0.318c0.781,0.19 1.362,0.479 1.745,0.87c0.383,0.386 0.574,0.884 0.574,1.494c0,0.5 -0.144,0.948 -0.432,1.342c-0.284,0.394 -0.682,0.704 -1.193,0.932c-0.512,0.227 -1.107,0.341 -1.785,0.341c-0.89,0 -1.627,-0.194 -2.211,-0.58c-0.583,-0.387 -0.953,-0.951 -1.108,-1.694l1.273,-0.318c0.121,0.47 0.351,0.822 0.688,1.057c0.341,0.235 0.786,0.353 1.335,0.353c0.626,0 1.122,-0.133 1.489,-0.398c0.372,-0.269 0.557,-0.591 0.557,-0.966c0,-0.304 -0.106,-0.557 -0.318,-0.762c-0.212,-0.208 -0.538,-0.364 -0.977,-0.466l-1.455,-0.341c-0.8,-0.19 -1.387,-0.483 -1.762,-0.881c-0.372,-0.402 -0.557,-0.904 -0.557,-1.506c0,-0.493 0.138,-0.928 0.415,-1.307c0.28,-0.379 0.661,-0.677 1.142,-0.892c0.485,-0.216 1.034,-0.324 1.648,-0.324c0.864,0 1.542,0.189 2.035,0.568c0.496,0.379 0.849,0.879 1.057,1.5zM243.701,63.704v1.137h-4.524v-1.137zM240.495,61.613h1.341v8.32c0,0.379 0.055,0.663 0.165,0.853c0.114,0.185 0.258,0.31 0.432,0.375c0.178,0.06 0.366,0.091 0.563,0.091c0.148,0 0.269,-0.008 0.364,-0.023c0.094,-0.019 0.17,-0.034 0.227,-0.046l0.273,1.205c-0.091,0.034 -0.218,0.069 -0.381,0.103c-0.163,0.038 -0.37,0.056 -0.62,0.056c-0.378,0 -0.75,-0.081 -1.114,-0.244c-0.359,-0.163 -0.659,-0.411 -0.897,-0.744c-0.235,-0.334 -0.353,-0.754 -0.353,-1.262zM249.284,72.616c-0.841,0 -1.566,-0.186 -2.176,-0.557c-0.607,-0.375 -1.074,-0.898 -1.404,-1.569c-0.326,-0.674 -0.489,-1.459 -0.489,-2.353c0,-0.894 0.163,-1.682 0.489,-2.364c0.33,-0.686 0.788,-1.22 1.375,-1.603c0.591,-0.386 1.281,-0.579 2.069,-0.579c0.455,0 0.904,0.075 1.347,0.227c0.443,0.151 0.847,0.398 1.21,0.739c0.364,0.337 0.654,0.784 0.87,1.341c0.216,0.557 0.324,1.243 0.324,2.057v0.569h-6.729v-1.16h5.365c0,-0.492 -0.099,-0.932 -0.296,-1.318c-0.193,-0.387 -0.469,-0.692 -0.829,-0.915c-0.356,-0.224 -0.777,-0.336 -1.262,-0.336c-0.534,0 -0.996,0.133 -1.387,0.398c-0.386,0.262 -0.684,0.603 -0.892,1.023c-0.208,0.421 -0.313,0.872 -0.313,1.353v0.773c0,0.659 0.114,1.218 0.341,1.676c0.232,0.455 0.552,0.802 0.961,1.04c0.409,0.235 0.885,0.353 1.426,0.353c0.353,0 0.671,-0.049 0.955,-0.148c0.288,-0.102 0.536,-0.254 0.745,-0.455c0.208,-0.204 0.369,-0.458 0.483,-0.761l1.296,0.364c-0.137,0.439 -0.366,0.826 -0.688,1.159c-0.322,0.33 -0.72,0.587 -1.194,0.773c-0.473,0.182 -1.006,0.273 -1.597,0.273zM254.939,72.434v-8.73h1.296v1.364h0.114c0.182,-0.466 0.475,-0.828 0.881,-1.085c0.405,-0.262 0.892,-0.392 1.46,-0.392c0.576,0 1.055,0.13 1.438,0.392c0.387,0.257 0.688,0.619 0.904,1.085h0.091c0.223,-0.451 0.559,-0.809 1.006,-1.074c0.447,-0.269 0.983,-0.403 1.608,-0.403c0.781,0 1.419,0.244 1.915,0.733c0.497,0.485 0.745,1.241 0.745,2.267v5.843h-1.341v-5.843c0,-0.644 -0.177,-1.104 -0.529,-1.381c-0.352,-0.276 -0.767,-0.415 -1.245,-0.415c-0.613,0 -1.089,0.186 -1.426,0.557c-0.337,0.368 -0.506,0.834 -0.506,1.398v5.684h-1.364v-5.979c0,-0.496 -0.161,-0.896 -0.483,-1.199c-0.322,-0.307 -0.737,-0.461 -1.245,-0.461c-0.348,0 -0.674,0.093 -0.977,0.279c-0.3,0.186 -0.542,0.443 -0.728,0.773c-0.182,0.326 -0.272,0.703 -0.272,1.131v5.456z" fill="black"/>
</g>
</g></svg>