<svg viewBox="0 0 334 112" fill="none" xmlns="http://www.w3.org/2000/svg" x="0" y="0"><g id="Group 1000013364_2">
<g id="Group 1000013360_8">
<g id="Group 1000013358_8">
<rect id="Rectangle 379_8" x="0.2899999999999636" y="-9.587999999999994" width="91.8489" height="112.029" rx="25" fill="#E8F2FF"/>
<rect id="Rectangle 378_8" x="8.3599999999999" y="-9.587999999999994" width="326.013" height="112.029" rx="25" fill="#E8F2FF"/>
</g>
</g>
<g id="Group 1000013359_8">
<path id="🌐 Study Abroad ERP International Education Platform" d="M20.62,41.546h16.01v-16.005h-16.01zM48.07,31.986c-0.05,-0.497 -0.28,-0.883 -0.67,-1.16c-0.39,-0.276 -0.9,-0.415 -1.52,-0.415c-0.44,0 -0.82,0.067 -1.14,0.199c-0.31,0.133 -0.55,0.313 -0.72,0.54c-0.16,0.228 -0.25,0.487 -0.25,0.779c0,0.242 0.05,0.453 0.16,0.631c0.12,0.178 0.27,0.329 0.46,0.454c0.2,0.122 0.41,0.224 0.64,0.307c0.24,0.084 0.48,0.154 0.71,0.211l1.1,0.272c0.44,0.103 0.86,0.241 1.26,0.415c0.41,0.174 0.78,0.394 1.1,0.659c0.33,0.266 0.58,0.586 0.77,0.961c0.19,0.375 0.29,0.815 0.29,1.318c0,0.682 -0.18,1.283 -0.53,1.802c-0.34,0.515 -0.85,0.919 -1.51,1.211c-0.65,0.288 -1.45,0.432 -2.38,0.432c-0.9,0 -1.69,-0.141 -2.36,-0.421c-0.66,-0.28 -1.18,-0.69 -1.55,-1.228c-0.38,-0.538 -0.58,-1.193 -0.61,-1.966h2.08c0.03,0.405 0.15,0.743 0.37,1.012c0.22,0.269 0.51,0.469 0.86,0.602c0.36,0.133 0.75,0.199 1.19,0.199c0.46,0 0.86,-0.068 1.21,-0.205c0.35,-0.14 0.62,-0.333 0.82,-0.579c0.19,-0.25 0.3,-0.542 0.3,-0.876c0,-0.303 -0.09,-0.553 -0.27,-0.75c-0.17,-0.201 -0.42,-0.367 -0.73,-0.5c-0.31,-0.136 -0.68,-0.258 -1.09,-0.364l-1.33,-0.341c-0.96,-0.246 -1.71,-0.619 -2.27,-1.119c-0.55,-0.504 -0.83,-1.173 -0.83,-2.006c0,-0.686 0.19,-1.287 0.56,-1.802c0.37,-0.515 0.88,-0.915 1.53,-1.199c0.64,-0.288 1.37,-0.432 2.18,-0.432c0.83,0 1.55,0.144 2.17,0.432c0.63,0.284 1.12,0.68 1.48,1.188c0.35,0.503 0.54,1.083 0.55,1.739zM56.41,31.696v1.591h-5.02v-1.591zM52.63,29.604h2.05v8.196c0,0.276 0.04,0.488 0.13,0.636c0.09,0.144 0.2,0.243 0.34,0.296c0.14,0.053 0.29,0.079 0.47,0.079c0.12,0 0.24,-0.009 0.35,-0.028c0.11,-0.019 0.19,-0.036 0.25,-0.051l0.34,1.608c-0.11,0.038 -0.26,0.08 -0.47,0.125c-0.2,0.046 -0.44,0.072 -0.74,0.08c-0.51,0.015 -0.98,-0.063 -1.39,-0.233c-0.41,-0.175 -0.74,-0.444 -0.98,-0.807c-0.24,-0.364 -0.36,-0.819 -0.35,-1.364zM63.69,36.754v-5.058h2.06v8.729h-2v-1.551h-0.09c-0.2,0.489 -0.52,0.888 -0.97,1.199c-0.45,0.311 -1,0.466 -1.65,0.466c-0.58,0 -1.08,-0.127 -1.52,-0.381c-0.44,-0.257 -0.78,-0.631 -1.02,-1.119c-0.25,-0.493 -0.37,-1.088 -0.37,-1.785v-5.558h2.05v5.24c0,0.553 0.15,0.993 0.46,1.318c0.3,0.326 0.7,0.489 1.19,0.489c0.3,0 0.6,-0.074 0.88,-0.222c0.29,-0.147 0.52,-0.367 0.7,-0.659c0.19,-0.295 0.28,-0.665 0.28,-1.108zM71.1,40.579c-0.68,0 -1.3,-0.176 -1.84,-0.529c-0.54,-0.352 -0.97,-0.864 -1.28,-1.534c-0.32,-0.671 -0.48,-1.485 -0.48,-2.444c0,-0.97 0.16,-1.788 0.48,-2.455c0.32,-0.671 0.76,-1.177 1.3,-1.518c0.55,-0.344 1.16,-0.517 1.83,-0.517c0.51,0 0.93,0.087 1.26,0.262c0.33,0.17 0.59,0.377 0.78,0.619c0.2,0.239 0.35,0.464 0.45,0.676h0.09v-4.353h2.06v11.639h-2.02v-1.375h-0.13c-0.1,0.212 -0.26,0.438 -0.46,0.676c-0.2,0.235 -0.46,0.436 -0.79,0.603c-0.33,0.166 -0.75,0.25 -1.25,0.25zM71.68,38.891c0.43,0 0.8,-0.118 1.11,-0.352c0.31,-0.239 0.54,-0.571 0.7,-0.995c0.16,-0.424 0.24,-0.919 0.24,-1.483c0,-0.565 -0.08,-1.056 -0.24,-1.472c-0.16,-0.417 -0.39,-0.741 -0.69,-0.972c-0.31,-0.231 -0.68,-0.347 -1.12,-0.347c-0.46,0 -0.84,0.119 -1.15,0.358c-0.31,0.239 -0.54,0.568 -0.7,0.989c-0.15,0.421 -0.23,0.902 -0.23,1.444c0,0.545 0.08,1.032 0.23,1.46c0.16,0.425 0.4,0.76 0.7,1.006c0.31,0.243 0.7,0.364 1.15,0.364zM79.22,43.699c-0.28,0 -0.54,-0.023 -0.78,-0.068c-0.23,-0.042 -0.42,-0.091 -0.56,-0.148l0.48,-1.603c0.3,0.087 0.56,0.129 0.8,0.125c0.23,-0.003 0.44,-0.077 0.62,-0.221c0.18,-0.14 0.33,-0.375 0.46,-0.705l0.18,-0.472l-3.17,-8.911h2.18l2.01,6.592h0.1l2.01,-6.592h2.19l-3.49,9.786c-0.17,0.463 -0.38,0.859 -0.65,1.188c-0.27,0.334 -0.6,0.588 -0.99,0.762c-0.39,0.178 -0.85,0.267 -1.39,0.267zM92.72,40.425h-2.25l4.1,-11.639h2.6l4.1,11.639h-2.25l-3.11,-9.252h-0.09zM92.79,35.862h6.14v1.693h-6.14zM102.81,40.425v-11.639h2.05v4.353h0.09c0.11,-0.212 0.26,-0.437 0.45,-0.676c0.19,-0.242 0.45,-0.449 0.78,-0.619c0.33,-0.175 0.75,-0.262 1.26,-0.262c0.68,0 1.29,0.173 1.83,0.517c0.54,0.341 0.98,0.847 1.29,1.518c0.33,0.667 0.49,1.485 0.49,2.455c0,0.959 -0.16,1.773 -0.47,2.444c-0.32,0.67 -0.75,1.182 -1.29,1.534c-0.54,0.353 -1.15,0.529 -1.84,0.529c-0.5,0 -0.92,-0.084 -1.24,-0.25c-0.33,-0.167 -0.6,-0.368 -0.8,-0.603c-0.2,-0.238 -0.35,-0.464 -0.46,-0.676h-0.12v1.375zM104.82,36.061c0,0.564 0.08,1.059 0.24,1.483c0.17,0.424 0.4,0.756 0.7,0.995c0.31,0.234 0.68,0.352 1.12,0.352c0.45,0 0.83,-0.121 1.14,-0.364c0.31,-0.246 0.54,-0.581 0.69,-1.006c0.16,-0.428 0.24,-0.915 0.24,-1.46c0,-0.542 -0.08,-1.023 -0.23,-1.444c-0.16,-0.421 -0.39,-0.75 -0.7,-0.989c-0.3,-0.239 -0.69,-0.358 -1.14,-0.358c-0.44,0 -0.82,0.116 -1.12,0.347c-0.31,0.231 -0.54,0.555 -0.7,0.972c-0.16,0.416 -0.24,0.907 -0.24,1.472zM112.8,40.425v-8.729h1.99v1.455h0.09c0.16,-0.504 0.43,-0.893 0.82,-1.165c0.39,-0.277 0.84,-0.415 1.34,-0.415c0.11,0 0.24,0.005 0.38,0.017c0.14,0.007 0.26,0.021 0.36,0.04v1.892c-0.09,-0.03 -0.23,-0.057 -0.42,-0.079c-0.19,-0.027 -0.37,-0.04 -0.54,-0.04c-0.37,0 -0.71,0.081 -1.01,0.244c-0.3,0.159 -0.53,0.381 -0.7,0.665c-0.17,0.284 -0.26,0.612 -0.26,0.983v5.132zM122.59,40.596c-0.85,0 -1.59,-0.188 -2.22,-0.563c-0.62,-0.375 -1.11,-0.9 -1.45,-1.574c-0.34,-0.674 -0.51,-1.463 -0.51,-2.364c0,-0.902 0.17,-1.692 0.51,-2.37c0.34,-0.678 0.83,-1.205 1.45,-1.58c0.63,-0.375 1.37,-0.563 2.22,-0.563c0.85,0 1.59,0.188 2.22,0.563c0.62,0.375 1.11,0.902 1.45,1.58c0.34,0.678 0.51,1.468 0.51,2.37c0,0.901 -0.17,1.69 -0.51,2.364c-0.34,0.674 -0.83,1.199 -1.45,1.574c-0.63,0.375 -1.37,0.563 -2.22,0.563zM122.6,38.948c0.46,0 0.85,-0.127 1.16,-0.381c0.31,-0.258 0.54,-0.602 0.69,-1.034c0.16,-0.432 0.24,-0.914 0.24,-1.444c0,-0.534 -0.08,-1.017 -0.24,-1.449c-0.15,-0.436 -0.38,-0.783 -0.69,-1.04c-0.31,-0.258 -0.7,-0.387 -1.16,-0.387c-0.47,0 -0.87,0.129 -1.18,0.387c-0.31,0.257 -0.54,0.604 -0.7,1.04c-0.15,0.432 -0.23,0.915 -0.23,1.449c0,0.53 0.08,1.012 0.23,1.444c0.16,0.432 0.39,0.776 0.7,1.034c0.31,0.254 0.71,0.381 1.18,0.381zM131.03,40.602c-0.55,0 -1.05,-0.099 -1.49,-0.296c-0.44,-0.201 -0.79,-0.496 -1.05,-0.887c-0.25,-0.39 -0.38,-0.871 -0.38,-1.443c0,-0.493 0.09,-0.9 0.27,-1.222c0.18,-0.322 0.43,-0.58 0.75,-0.773c0.31,-0.193 0.67,-0.339 1.06,-0.438c0.4,-0.102 0.81,-0.176 1.23,-0.221c0.52,-0.053 0.93,-0.101 1.25,-0.142c0.32,-0.046 0.55,-0.114 0.69,-0.205c0.15,-0.095 0.22,-0.241 0.22,-0.438v-0.034c0,-0.428 -0.12,-0.759 -0.38,-0.994c-0.25,-0.235 -0.62,-0.353 -1.09,-0.353c-0.51,0 -0.91,0.11 -1.2,0.33c-0.3,0.22 -0.49,0.479 -0.59,0.779l-1.93,-0.273c0.16,-0.531 0.41,-0.974 0.75,-1.33c0.35,-0.36 0.78,-0.629 1.28,-0.807c0.51,-0.182 1.06,-0.273 1.67,-0.273c0.42,0 0.84,0.049 1.26,0.148c0.42,0.098 0.8,0.261 1.14,0.489c0.35,0.223 0.62,0.528 0.83,0.915c0.21,0.386 0.32,0.869 0.32,1.449v5.842h-1.98v-1.199h-0.07c-0.12,0.243 -0.3,0.47 -0.52,0.682c-0.23,0.209 -0.51,0.377 -0.85,0.506c-0.34,0.125 -0.73,0.188 -1.19,0.188zM131.57,39.09c0.41,0 0.77,-0.082 1.07,-0.245c0.3,-0.166 0.54,-0.386 0.7,-0.659c0.17,-0.273 0.25,-0.57 0.25,-0.892v-1.029c-0.07,0.053 -0.18,0.102 -0.33,0.148c-0.15,0.045 -0.32,0.085 -0.51,0.119c-0.19,0.034 -0.38,0.065 -0.56,0.091c-0.19,0.027 -0.35,0.049 -0.49,0.068c-0.3,0.042 -0.58,0.11 -0.82,0.205c-0.24,0.095 -0.44,0.227 -0.58,0.398c-0.14,0.167 -0.21,0.383 -0.21,0.648c0,0.379 0.14,0.665 0.42,0.858c0.28,0.193 0.63,0.29 1.06,0.29zM140.95,40.579c-0.69,0 -1.3,-0.176 -1.84,-0.529c-0.54,-0.352 -0.97,-0.864 -1.29,-1.534c-0.31,-0.671 -0.47,-1.485 -0.47,-2.444c0,-0.97 0.16,-1.788 0.48,-2.455c0.32,-0.671 0.75,-1.177 1.3,-1.518c0.55,-0.344 1.15,-0.517 1.82,-0.517c0.52,0 0.94,0.087 1.27,0.262c0.33,0.17 0.59,0.377 0.78,0.619c0.19,0.239 0.34,0.464 0.45,0.676h0.08v-4.353h2.07v11.639h-2.03v-1.375h-0.12c-0.11,0.212 -0.26,0.438 -0.46,0.676c-0.2,0.235 -0.47,0.436 -0.8,0.603c-0.33,0.166 -0.74,0.25 -1.24,0.25zM141.52,38.891c0.44,0 0.81,-0.118 1.12,-0.352c0.3,-0.239 0.54,-0.571 0.7,-0.995c0.15,-0.424 0.23,-0.919 0.23,-1.483c0,-0.565 -0.08,-1.056 -0.23,-1.472c-0.16,-0.417 -0.39,-0.741 -0.7,-0.972c-0.3,-0.231 -0.67,-0.347 -1.12,-0.347c-0.46,0 -0.84,0.119 -1.15,0.358c-0.3,0.239 -0.53,0.568 -0.69,0.989c-0.15,0.421 -0.23,0.902 -0.23,1.444c0,0.545 0.08,1.032 0.23,1.46c0.16,0.425 0.39,0.76 0.7,1.006c0.31,0.243 0.69,0.364 1.14,0.364zM151.85,40.425v-11.639h7.57v1.767h-5.46v3.16h5.07v1.768h-5.07v3.177h5.51v1.767zM161.57,40.425v-11.639h4.37c0.89,0 1.64,0.155 2.25,0.466c0.61,0.311 1.07,0.746 1.38,1.307c0.31,0.557 0.47,1.207 0.47,1.95c0,0.746 -0.16,1.394 -0.48,1.943c-0.31,0.546 -0.78,0.968 -1.39,1.268c-0.61,0.295 -1.37,0.443 -2.26,0.443h-3.11v-1.751h2.82c0.53,0 0.96,-0.072 1.29,-0.216c0.33,-0.147 0.58,-0.361 0.74,-0.642c0.16,-0.284 0.24,-0.632 0.24,-1.045c0,-0.413 -0.08,-0.766 -0.24,-1.058c-0.17,-0.295 -0.41,-0.519 -0.75,-0.67c-0.33,-0.156 -0.76,-0.233 -1.29,-0.233h-1.93v9.877zM167.59,35.151l2.88,5.274h-2.36l-2.83,-5.274zM171.98,40.425v-11.639h4.37c0.89,0 1.64,0.167 2.25,0.5c0.61,0.334 1.07,0.792 1.38,1.375c0.31,0.58 0.47,1.239 0.47,1.978c0,0.747 -0.16,1.41 -0.47,1.989c-0.32,0.58 -0.78,1.037 -1.39,1.37c-0.62,0.33 -1.37,0.495 -2.27,0.495h-2.9v-1.734h2.61c0.53,0 0.95,-0.091 1.29,-0.273c0.33,-0.182 0.58,-0.432 0.74,-0.75c0.16,-0.318 0.24,-0.684 0.24,-1.097c0,-0.413 -0.08,-0.776 -0.24,-1.091c-0.16,-0.314 -0.41,-0.559 -0.75,-0.733c-0.33,-0.178 -0.76,-0.267 -1.29,-0.267h-1.93v9.877zM23.44,60.794v11.64h-1.41v-11.64zM27.43,67.182v5.252h-1.35v-8.73h1.3v1.364h0.11c0.21,-0.443 0.52,-0.799 0.94,-1.068c0.41,-0.273 0.95,-0.409 1.61,-0.409c0.59,0 1.11,0.121 1.55,0.363c0.45,0.239 0.79,0.603 1.04,1.091c0.24,0.485 0.37,1.099 0.37,1.842v5.547h-1.35v-5.456c0,-0.686 -0.17,-1.22 -0.53,-1.603c-0.36,-0.386 -0.84,-0.58 -1.47,-0.58c-0.42,0 -0.81,0.093 -1.14,0.279c-0.34,0.186 -0.6,0.456 -0.79,0.813c-0.2,0.356 -0.29,0.788 -0.29,1.295zM39.24,63.704v1.137h-4.52v-1.137zM36.04,61.613h1.34v8.32c0,0.379 0.05,0.663 0.16,0.853c0.12,0.185 0.26,0.31 0.44,0.375c0.17,0.06 0.36,0.091 0.56,0.091c0.15,0 0.27,-0.008 0.36,-0.023c0.1,-0.019 0.17,-0.034 0.23,-0.046l0.27,1.205c-0.09,0.034 -0.22,0.069 -0.38,0.103c-0.16,0.038 -0.37,0.056 -0.62,0.056c-0.38,0 -0.75,-0.081 -1.11,-0.244c-0.36,-0.163 -0.66,-0.411 -0.9,-0.744c-0.23,-0.334 -0.35,-0.754 -0.35,-1.262zM44.83,72.616c-0.84,0 -1.57,-0.186 -2.18,-0.557c-0.61,-0.375 -1.07,-0.898 -1.4,-1.569c-0.33,-0.674 -0.49,-1.459 -0.49,-2.353c0,-0.894 0.16,-1.682 0.49,-2.364c0.33,-0.686 0.78,-1.22 1.37,-1.603c0.59,-0.386 1.28,-0.579 2.07,-0.579c0.46,0 0.9,0.075 1.35,0.227c0.44,0.151 0.84,0.398 1.21,0.739c0.36,0.337 0.65,0.784 0.87,1.341c0.21,0.557 0.32,1.243 0.32,2.057v0.569h-6.73v-1.16h5.37c0,-0.492 -0.1,-0.932 -0.3,-1.318c-0.19,-0.387 -0.47,-0.692 -0.83,-0.915c-0.35,-0.224 -0.77,-0.336 -1.26,-0.336c-0.53,0 -1,0.133 -1.39,0.398c-0.38,0.262 -0.68,0.603 -0.89,1.023c-0.21,0.421 -0.31,0.872 -0.31,1.353v0.773c0,0.659 0.11,1.218 0.34,1.676c0.23,0.455 0.55,0.802 0.96,1.04c0.41,0.235 0.89,0.353 1.43,0.353c0.35,0 0.67,-0.049 0.95,-0.148c0.29,-0.102 0.54,-0.254 0.75,-0.455c0.2,-0.204 0.37,-0.458 0.48,-0.761l1.3,0.364c-0.14,0.439 -0.37,0.826 -0.69,1.159c-0.32,0.33 -0.72,0.587 -1.2,0.773c-0.47,0.182 -1,0.273 -1.59,0.273zM50.48,72.434v-8.73h1.3v1.319h0.09c0.16,-0.432 0.45,-0.783 0.86,-1.052c0.42,-0.269 0.89,-0.403 1.41,-0.403c0.1,0 0.22,0.002 0.37,0.006c0.15,0.003 0.26,0.009 0.34,0.017v1.364c-0.05,-0.012 -0.15,-0.029 -0.32,-0.052c-0.16,-0.026 -0.32,-0.039 -0.5,-0.039c-0.43,0 -0.8,0.089 -1.14,0.267c-0.33,0.174 -0.59,0.417 -0.78,0.727c-0.19,0.307 -0.29,0.658 -0.29,1.052v5.524zM57.78,67.182v5.252h-1.34v-8.73h1.29v1.364h0.12c0.2,-0.443 0.51,-0.799 0.93,-1.068c0.41,-0.273 0.95,-0.409 1.61,-0.409c0.59,0 1.11,0.121 1.55,0.363c0.45,0.239 0.79,0.603 1.04,1.091c0.24,0.485 0.37,1.099 0.37,1.842v5.547h-1.34v-5.456c0,-0.686 -0.18,-1.22 -0.54,-1.603c-0.35,-0.386 -0.84,-0.58 -1.46,-0.58c-0.43,0 -0.82,0.093 -1.15,0.279c-0.34,0.186 -0.6,0.456 -0.79,0.813c-0.2,0.356 -0.29,0.788 -0.29,1.295zM68.37,72.638c-0.56,0 -1.06,-0.104 -1.51,-0.312c-0.45,-0.212 -0.81,-0.517 -1.07,-0.915c-0.27,-0.402 -0.4,-0.887 -0.4,-1.455c0,-0.5 0.1,-0.906 0.29,-1.216c0.2,-0.315 0.47,-0.561 0.79,-0.739c0.33,-0.178 0.7,-0.311 1.1,-0.398c0.4,-0.091 0.8,-0.163 1.21,-0.216c0.53,-0.068 0.96,-0.119 1.29,-0.153c0.33,-0.038 0.57,-0.101 0.72,-0.188c0.16,-0.087 0.24,-0.239 0.24,-0.455v-0.045c0,-0.561 -0.16,-0.997 -0.46,-1.307c-0.31,-0.311 -0.77,-0.466 -1.38,-0.466c-0.64,0 -1.15,0.14 -1.51,0.42c-0.36,0.281 -0.62,0.58 -0.77,0.898l-1.27,-0.454c0.23,-0.531 0.53,-0.944 0.91,-1.239c0.38,-0.3 0.8,-0.508 1.25,-0.626c0.45,-0.121 0.9,-0.181 1.34,-0.181c0.28,0 0.6,0.034 0.97,0.102c0.36,0.064 0.72,0.199 1.06,0.403c0.34,0.205 0.63,0.514 0.86,0.927c0.22,0.413 0.34,0.966 0.34,1.659v5.752h-1.34v-1.182h-0.07c-0.09,0.189 -0.24,0.392 -0.46,0.608c-0.21,0.216 -0.49,0.399 -0.84,0.551c-0.35,0.152 -0.79,0.227 -1.29,0.227zM68.57,71.434c0.53,0 0.98,-0.105 1.34,-0.313c0.37,-0.208 0.65,-0.477 0.83,-0.807c0.19,-0.33 0.29,-0.676 0.29,-1.04v-1.228c-0.06,0.068 -0.18,0.131 -0.38,0.188c-0.19,0.053 -0.41,0.1 -0.66,0.142c-0.24,0.038 -0.48,0.072 -0.72,0.102c-0.23,0.027 -0.42,0.049 -0.56,0.068c-0.35,0.046 -0.68,0.12 -0.98,0.222c-0.3,0.099 -0.54,0.248 -0.73,0.449c-0.18,0.197 -0.27,0.466 -0.27,0.807c0,0.466 0.17,0.818 0.52,1.057c0.35,0.235 0.79,0.353 1.32,0.353zM78.61,63.704v1.137h-4.52v-1.137zM75.41,61.613h1.34v8.32c0,0.379 0.05,0.663 0.16,0.853c0.12,0.185 0.26,0.31 0.44,0.375c0.17,0.06 0.36,0.091 0.56,0.091c0.15,0 0.27,-0.008 0.36,-0.023c0.1,-0.019 0.17,-0.034 0.23,-0.046l0.27,1.205c-0.09,0.034 -0.22,0.069 -0.38,0.103c-0.16,0.038 -0.37,0.056 -0.62,0.056c-0.38,0 -0.75,-0.081 -1.11,-0.244c-0.36,-0.163 -0.66,-0.411 -0.9,-0.744c-0.24,-0.334 -0.35,-0.754 -0.35,-1.262zM80.63,72.434v-8.73h1.34v8.73zM81.31,62.249c-0.26,0 -0.48,-0.089 -0.67,-0.267c-0.19,-0.178 -0.28,-0.392 -0.28,-0.642c0,-0.25 0.09,-0.464 0.28,-0.642c0.19,-0.178 0.41,-0.267 0.67,-0.267c0.26,0 0.49,0.089 0.67,0.267c0.19,0.178 0.29,0.392 0.29,0.642c0,0.25 -0.1,0.464 -0.29,0.642c-0.18,0.178 -0.41,0.267 -0.67,0.267zM87.97,72.616c-0.78,0 -1.47,-0.188 -2.07,-0.563c-0.59,-0.375 -1.05,-0.9 -1.39,-1.574c-0.33,-0.675 -0.49,-1.463 -0.49,-2.365c0,-0.909 0.16,-1.703 0.49,-2.381c0.34,-0.678 0.8,-1.205 1.39,-1.58c0.6,-0.375 1.29,-0.562 2.07,-0.562c0.79,0 1.48,0.187 2.07,0.562c0.6,0.375 1.06,0.902 1.39,1.58c0.33,0.678 0.5,1.472 0.5,2.381c0,0.902 -0.17,1.69 -0.5,2.365c-0.33,0.674 -0.79,1.199 -1.39,1.574c-0.59,0.375 -1.28,0.563 -2.07,0.563zM87.97,71.411c0.6,0 1.1,-0.154 1.48,-0.461c0.39,-0.306 0.67,-0.71 0.86,-1.21c0.19,-0.5 0.28,-1.042 0.28,-1.626c0,-0.583 -0.09,-1.127 -0.28,-1.631c-0.19,-0.504 -0.47,-0.911 -0.86,-1.222c-0.38,-0.31 -0.88,-0.466 -1.48,-0.466c-0.59,0 -1.09,0.156 -1.47,0.466c-0.39,0.311 -0.68,0.718 -0.86,1.222c-0.19,0.504 -0.28,1.048 -0.28,1.631c0,0.584 0.09,1.126 0.28,1.626c0.18,0.5 0.47,0.904 0.86,1.21c0.38,0.307 0.88,0.461 1.47,0.461zM95.32,67.182v5.252h-1.34v-8.73h1.29v1.364h0.12c0.2,-0.443 0.51,-0.799 0.93,-1.068c0.42,-0.273 0.95,-0.409 1.61,-0.409c0.59,0 1.11,0.121 1.55,0.363c0.45,0.239 0.79,0.603 1.04,1.091c0.25,0.485 0.37,1.099 0.37,1.842v5.547h-1.34v-5.456c0,-0.686 -0.18,-1.22 -0.54,-1.603c-0.35,-0.386 -0.84,-0.58 -1.46,-0.58c-0.43,0 -0.81,0.093 -1.15,0.279c-0.33,0.186 -0.6,0.456 -0.79,0.813c-0.19,0.356 -0.29,0.788 -0.29,1.295zM105.91,72.638c-0.55,0 -1.06,-0.104 -1.51,-0.312c-0.45,-0.212 -0.81,-0.517 -1.07,-0.915c-0.27,-0.402 -0.4,-0.887 -0.4,-1.455c0,-0.5 0.1,-0.906 0.3,-1.216c0.19,-0.315 0.46,-0.561 0.79,-0.739c0.33,-0.178 0.69,-0.311 1.09,-0.398c0.4,-0.091 0.8,-0.163 1.21,-0.216c0.53,-0.068 0.96,-0.119 1.29,-0.153c0.33,-0.038 0.57,-0.101 0.73,-0.188c0.15,-0.087 0.23,-0.239 0.23,-0.455v-0.045c0,-0.561 -0.16,-0.997 -0.46,-1.307c-0.31,-0.311 -0.77,-0.466 -1.38,-0.466c-0.64,0 -1.15,0.14 -1.51,0.42c-0.36,0.281 -0.62,0.58 -0.77,0.898l-1.27,-0.454c0.23,-0.531 0.53,-0.944 0.91,-1.239c0.38,-0.3 0.8,-0.508 1.25,-0.626c0.45,-0.121 0.9,-0.181 1.34,-0.181c0.28,0 0.6,0.034 0.97,0.102c0.36,0.064 0.72,0.199 1.06,0.403c0.35,0.205 0.63,0.514 0.86,0.927c0.23,0.413 0.34,0.966 0.34,1.659v5.752h-1.34v-1.182h-0.07c-0.09,0.189 -0.24,0.392 -0.45,0.608c-0.22,0.216 -0.5,0.399 -0.85,0.551c-0.35,0.152 -0.78,0.227 -1.29,0.227zM106.11,71.434c0.53,0 0.98,-0.105 1.34,-0.313c0.37,-0.208 0.65,-0.477 0.83,-0.807c0.19,-0.33 0.29,-0.676 0.29,-1.04v-1.228c-0.06,0.068 -0.18,0.131 -0.38,0.188c-0.19,0.053 -0.41,0.1 -0.66,0.142c-0.24,0.038 -0.48,0.072 -0.72,0.102c-0.23,0.027 -0.42,0.049 -0.56,0.068c-0.35,0.046 -0.68,0.12 -0.98,0.222c-0.3,0.099 -0.54,0.248 -0.73,0.449c-0.18,0.197 -0.27,0.466 -0.27,0.807c0,0.466 0.17,0.818 0.52,1.057c0.35,0.235 0.79,0.353 1.32,0.353zM113.7,60.794v11.64h-1.34v-11.64zM120.84,72.434v-11.64h7.02v1.251h-5.61v3.933h5.25v1.25h-5.25v3.955h5.7v1.251zM133.52,72.616c-0.73,0 -1.37,-0.184 -1.93,-0.552c-0.56,-0.371 -0.99,-0.894 -1.31,-1.568c-0.31,-0.678 -0.47,-1.48 -0.47,-2.404c0,-0.917 0.16,-1.713 0.47,-2.387c0.32,-0.675 0.76,-1.196 1.32,-1.563c0.56,-0.368 1.21,-0.551 1.94,-0.551c0.57,0 1.02,0.094 1.35,0.284c0.33,0.185 0.58,0.398 0.76,0.636c0.18,0.235 0.32,0.428 0.41,0.58h0.12v-4.297h1.34v11.64h-1.3v-1.341h-0.16c-0.09,0.159 -0.23,0.359 -0.42,0.602c-0.18,0.239 -0.44,0.453 -0.78,0.642c-0.33,0.186 -0.78,0.279 -1.34,0.279zM133.7,71.411c0.54,0 0.99,-0.14 1.36,-0.421c0.38,-0.284 0.66,-0.676 0.85,-1.176c0.19,-0.504 0.29,-1.086 0.29,-1.745c0,-0.652 -0.09,-1.222 -0.28,-1.711c-0.19,-0.492 -0.47,-0.875 -0.84,-1.148c-0.38,-0.276 -0.83,-0.415 -1.38,-0.415c-0.57,0 -1.04,0.146 -1.42,0.438c-0.38,0.288 -0.66,0.68 -0.85,1.176c-0.18,0.493 -0.28,1.046 -0.28,1.66c0,0.621 0.1,1.186 0.29,1.694c0.19,0.504 0.48,0.905 0.85,1.204c0.38,0.296 0.85,0.444 1.41,0.444zM145.66,68.865v-5.161h1.34v8.73h-1.34v-1.478h-0.09c-0.2,0.443 -0.52,0.82 -0.95,1.131c-0.43,0.307 -0.98,0.46 -1.64,0.46c-0.54,0 -1.03,-0.119 -1.45,-0.358c-0.43,-0.242 -0.76,-0.606 -1,-1.091c-0.25,-0.489 -0.37,-1.104 -0.37,-1.847v-5.547h1.34v5.456c0,0.637 0.18,1.144 0.54,1.523c0.36,0.379 0.82,0.569 1.37,0.569c0.34,0 0.68,-0.086 1.02,-0.256c0.35,-0.171 0.64,-0.432 0.88,-0.784c0.23,-0.353 0.35,-0.802 0.35,-1.347zM153.01,72.616c-0.82,0 -1.53,-0.194 -2.12,-0.58c-0.59,-0.387 -1.04,-0.919 -1.36,-1.597c-0.32,-0.678 -0.48,-1.453 -0.48,-2.325c0,-0.886 0.16,-1.669 0.49,-2.347c0.33,-0.682 0.79,-1.214 1.38,-1.597c0.59,-0.386 1.28,-0.579 2.06,-0.579c0.62,0 1.17,0.113 1.66,0.341c0.5,0.227 0.9,0.545 1.21,0.954c0.32,0.41 0.51,0.887 0.59,1.433h-1.34c-0.1,-0.398 -0.33,-0.751 -0.68,-1.058c-0.35,-0.31 -0.82,-0.466 -1.41,-0.466c-0.53,0 -0.98,0.137 -1.38,0.41c-0.39,0.269 -0.69,0.649 -0.91,1.142c-0.22,0.489 -0.33,1.063 -0.33,1.722c0,0.674 0.11,1.262 0.32,1.762c0.22,0.5 0.52,0.888 0.91,1.165c0.39,0.276 0.86,0.415 1.39,0.415c0.35,0 0.66,-0.061 0.95,-0.182c0.28,-0.121 0.52,-0.296 0.72,-0.523c0.2,-0.227 0.34,-0.5 0.42,-0.818h1.34c-0.08,0.515 -0.26,0.979 -0.56,1.392c-0.3,0.409 -0.69,0.735 -1.18,0.978c-0.48,0.238 -1.05,0.358 -1.69,0.358zM160.97,72.638c-0.55,0 -1.06,-0.104 -1.51,-0.312c-0.45,-0.212 -0.81,-0.517 -1.07,-0.915c-0.27,-0.402 -0.4,-0.887 -0.4,-1.455c0,-0.5 0.1,-0.906 0.3,-1.216c0.19,-0.315 0.46,-0.561 0.79,-0.739c0.33,-0.178 0.69,-0.311 1.09,-0.398c0.4,-0.091 0.8,-0.163 1.21,-0.216c0.53,-0.068 0.96,-0.119 1.29,-0.153c0.33,-0.038 0.57,-0.101 0.73,-0.188c0.15,-0.087 0.23,-0.239 0.23,-0.455v-0.045c0,-0.561 -0.15,-0.997 -0.46,-1.307c-0.3,-0.311 -0.76,-0.466 -1.38,-0.466c-0.64,0 -1.14,0.14 -1.51,0.42c-0.36,0.281 -0.62,0.58 -0.77,0.898l-1.27,-0.454c0.23,-0.531 0.53,-0.944 0.91,-1.239c0.38,-0.3 0.8,-0.508 1.25,-0.626c0.46,-0.121 0.9,-0.181 1.34,-0.181c0.28,0 0.61,0.034 0.97,0.102c0.37,0.064 0.72,0.199 1.06,0.403c0.35,0.205 0.63,0.514 0.86,0.927c0.23,0.413 0.34,0.966 0.34,1.659v5.752h-1.34v-1.182h-0.07c-0.09,0.189 -0.24,0.392 -0.45,0.608c-0.22,0.216 -0.5,0.399 -0.85,0.551c-0.35,0.152 -0.78,0.227 -1.29,0.227zM161.17,71.434c0.53,0 0.98,-0.105 1.35,-0.313c0.36,-0.208 0.64,-0.477 0.83,-0.807c0.18,-0.33 0.28,-0.676 0.28,-1.04v-1.228c-0.06,0.068 -0.18,0.131 -0.38,0.188c-0.19,0.053 -0.4,0.1 -0.65,0.142c-0.25,0.038 -0.49,0.072 -0.73,0.102c-0.23,0.027 -0.42,0.049 -0.56,0.068c-0.35,0.046 -0.67,0.12 -0.98,0.222c-0.3,0.099 -0.54,0.248 -0.72,0.449c-0.19,0.197 -0.28,0.466 -0.28,0.807c0,0.466 0.18,0.818 0.52,1.057c0.35,0.235 0.79,0.353 1.32,0.353zM171.22,63.704v1.137h-4.53v-1.137zM168.01,61.613h1.34v8.32c0,0.379 0.06,0.663 0.17,0.853c0.11,0.185 0.25,0.31 0.43,0.375c0.18,0.06 0.36,0.091 0.56,0.091c0.15,0 0.27,-0.008 0.36,-0.023c0.1,-0.019 0.17,-0.034 0.23,-0.046l0.27,1.205c-0.09,0.034 -0.21,0.069 -0.38,0.103c-0.16,0.038 -0.37,0.056 -0.62,0.056c-0.37,0 -0.75,-0.081 -1.11,-0.244c-0.36,-0.163 -0.66,-0.411 -0.9,-0.744c-0.23,-0.334 -0.35,-0.754 -0.35,-1.262zM173.23,72.434v-8.73h1.34v8.73zM173.91,62.249c-0.26,0 -0.48,-0.089 -0.67,-0.267c-0.19,-0.178 -0.28,-0.392 -0.28,-0.642c0,-0.25 0.09,-0.464 0.28,-0.642c0.19,-0.178 0.41,-0.267 0.67,-0.267c0.27,0 0.49,0.089 0.68,0.267c0.18,0.178 0.28,0.392 0.28,0.642c0,0.25 -0.1,0.464 -0.28,0.642c-0.19,0.178 -0.41,0.267 -0.68,0.267zM180.58,72.616c-0.79,0 -1.48,-0.188 -2.08,-0.563c-0.59,-0.375 -1.05,-0.9 -1.38,-1.574c-0.33,-0.675 -0.5,-1.463 -0.5,-2.365c0,-0.909 0.17,-1.703 0.5,-2.381c0.33,-0.678 0.79,-1.205 1.38,-1.58c0.6,-0.375 1.29,-0.562 2.08,-0.562c0.79,0 1.47,0.187 2.07,0.562c0.59,0.375 1.05,0.902 1.38,1.58c0.34,0.678 0.5,1.472 0.5,2.381c0,0.902 -0.16,1.69 -0.5,2.365c-0.33,0.674 -0.79,1.199 -1.38,1.574c-0.6,0.375 -1.28,0.563 -2.07,0.563zM180.58,71.411c0.6,0 1.09,-0.154 1.47,-0.461c0.39,-0.306 0.68,-0.71 0.86,-1.21c0.19,-0.5 0.28,-1.042 0.28,-1.626c0,-0.583 -0.09,-1.127 -0.28,-1.631c-0.18,-0.504 -0.47,-0.911 -0.86,-1.222c-0.38,-0.31 -0.87,-0.466 -1.47,-0.466c-0.6,0 -1.09,0.156 -1.48,0.466c-0.39,0.311 -0.67,0.718 -0.86,1.222c-0.18,0.504 -0.28,1.048 -0.28,1.631c0,0.584 0.1,1.126 0.28,1.626c0.19,0.5 0.47,0.904 0.86,1.21c0.39,0.307 0.88,0.461 1.48,0.461zM187.92,67.182v5.252h-1.34v-8.73h1.3v1.364h0.11c0.2,-0.443 0.51,-0.799 0.93,-1.068c0.42,-0.273 0.96,-0.409 1.62,-0.409c0.59,0 1.1,0.121 1.55,0.363c0.44,0.239 0.79,0.603 1.03,1.091c0.25,0.485 0.37,1.099 0.37,1.842v5.547h-1.34v-5.456c0,-0.686 -0.18,-1.22 -0.53,-1.603c-0.36,-0.386 -0.85,-0.58 -1.47,-0.58c-0.43,0 -0.81,0.093 -1.15,0.279c-0.33,0.186 -0.6,0.456 -0.79,0.813c-0.19,0.356 -0.29,0.788 -0.29,1.295zM200.63,72.434v-11.64h3.93c0.91,0 1.66,0.165 2.24,0.495c0.58,0.326 1.01,0.767 1.29,1.324c0.28,0.557 0.42,1.178 0.42,1.864c0,0.686 -0.14,1.309 -0.42,1.87c-0.27,0.561 -0.7,1.008 -1.28,1.341c-0.58,0.33 -1.32,0.495 -2.23,0.495h-2.82v-1.251h2.78c0.62,0 1.12,-0.108 1.5,-0.324c0.38,-0.216 0.65,-0.507 0.83,-0.875c0.17,-0.371 0.26,-0.79 0.26,-1.256c0,-0.466 -0.09,-0.883 -0.26,-1.25c-0.18,-0.368 -0.45,-0.656 -0.83,-0.864c-0.39,-0.212 -0.89,-0.318 -1.53,-0.318h-2.48v10.389zM211.94,60.794v11.64h-1.34v-11.64zM216.97,72.638c-0.55,0 -1.06,-0.104 -1.51,-0.312c-0.45,-0.212 -0.81,-0.517 -1.07,-0.915c-0.27,-0.402 -0.4,-0.887 -0.4,-1.455c0,-0.5 0.1,-0.906 0.3,-1.216c0.19,-0.315 0.46,-0.561 0.79,-0.739c0.33,-0.178 0.69,-0.311 1.09,-0.398c0.4,-0.091 0.8,-0.163 1.21,-0.216c0.53,-0.068 0.96,-0.119 1.29,-0.153c0.33,-0.038 0.57,-0.101 0.73,-0.188c0.15,-0.087 0.23,-0.239 0.23,-0.455v-0.045c0,-0.561 -0.15,-0.997 -0.46,-1.307c-0.3,-0.311 -0.77,-0.466 -1.38,-0.466c-0.64,0 -1.15,0.14 -1.51,0.42c-0.36,0.281 -0.62,0.58 -0.77,0.898l-1.27,-0.454c0.23,-0.531 0.53,-0.944 0.91,-1.239c0.38,-0.3 0.8,-0.508 1.25,-0.626c0.46,-0.121 0.9,-0.181 1.34,-0.181c0.28,0 0.6,0.034 0.97,0.102c0.37,0.064 0.72,0.199 1.06,0.403c0.35,0.205 0.63,0.514 0.86,0.927c0.23,0.413 0.34,0.966 0.34,1.659v5.752h-1.34v-1.182h-0.07c-0.09,0.189 -0.24,0.392 -0.45,0.608c-0.22,0.216 -0.5,0.399 -0.85,0.551c-0.35,0.152 -0.78,0.227 -1.29,0.227zM217.17,71.434c0.53,0 0.98,-0.105 1.34,-0.313c0.37,-0.208 0.65,-0.477 0.83,-0.807c0.19,-0.33 0.29,-0.676 0.29,-1.04v-1.228c-0.06,0.068 -0.18,0.131 -0.38,0.188c-0.19,0.053 -0.41,0.1 -0.66,0.142c-0.24,0.038 -0.48,0.072 -0.72,0.102c-0.23,0.027 -0.42,0.049 -0.56,0.068c-0.35,0.046 -0.67,0.12 -0.98,0.222c-0.3,0.099 -0.54,0.248 -0.73,0.449c-0.18,0.197 -0.27,0.466 -0.27,0.807c0,0.466 0.17,0.818 0.52,1.057c0.35,0.235 0.79,0.353 1.32,0.353zM227.21,63.704v1.137h-4.52v-1.137zM224.01,61.613h1.34v8.32c0,0.379 0.06,0.663 0.17,0.853c0.11,0.185 0.25,0.31 0.43,0.375c0.18,0.06 0.36,0.091 0.56,0.091c0.15,0 0.27,-0.008 0.36,-0.023c0.1,-0.019 0.17,-0.034 0.23,-0.046l0.27,1.205c-0.09,0.034 -0.21,0.069 -0.38,0.103c-0.16,0.038 -0.37,0.056 -0.62,0.056c-0.38,0 -0.75,-0.081 -1.11,-0.244c-0.36,-0.163 -0.66,-0.411 -0.9,-0.744c-0.23,-0.334 -0.35,-0.754 -0.35,-1.262zM233.12,63.704v1.137h-4.71v-1.137zM229.82,72.434v-9.935c0,-0.5 0.12,-0.917 0.36,-1.25c0.23,-0.333 0.54,-0.583 0.91,-0.75c0.38,-0.167 0.77,-0.25 1.19,-0.25c0.33,0 0.6,0.026 0.81,0.079c0.2,0.053 0.36,0.103 0.46,0.148l-0.39,1.159c-0.06,-0.022 -0.16,-0.051 -0.28,-0.085c-0.12,-0.034 -0.27,-0.051 -0.47,-0.051c-0.44,0 -0.76,0.112 -0.96,0.335c-0.19,0.224 -0.29,0.552 -0.29,0.984v9.616zM238.19,72.616c-0.79,0 -1.48,-0.188 -2.08,-0.563c-0.59,-0.375 -1.05,-0.9 -1.39,-1.574c-0.32,-0.675 -0.49,-1.463 -0.49,-2.365c0,-0.909 0.17,-1.703 0.49,-2.381c0.34,-0.678 0.8,-1.205 1.39,-1.58c0.6,-0.375 1.29,-0.562 2.08,-0.562c0.78,0 1.47,0.187 2.06,0.562c0.6,0.375 1.06,0.902 1.39,1.58c0.33,0.678 0.5,1.472 0.5,2.381c0,0.902 -0.17,1.69 -0.5,2.365c-0.33,0.674 -0.79,1.199 -1.39,1.574c-0.59,0.375 -1.28,0.563 -2.06,0.563zM238.19,71.411c0.59,0 1.09,-0.154 1.47,-0.461c0.39,-0.306 0.68,-0.71 0.86,-1.21c0.19,-0.5 0.28,-1.042 0.28,-1.626c0,-0.583 -0.09,-1.127 -0.28,-1.631c-0.18,-0.504 -0.47,-0.911 -0.86,-1.222c-0.38,-0.31 -0.88,-0.466 -1.47,-0.466c-0.6,0 -1.1,0.156 -1.48,0.466c-0.39,0.311 -0.67,0.718 -0.86,1.222c-0.19,0.504 -0.28,1.048 -0.28,1.631c0,0.584 0.09,1.126 0.28,1.626c0.19,0.5 0.47,0.904 0.86,1.21c0.38,0.307 0.88,0.461 1.48,0.461zM244.19,72.434v-8.73h1.29v1.319h0.1c0.15,-0.432 0.44,-0.783 0.86,-1.052c0.42,-0.269 0.89,-0.403 1.41,-0.403c0.1,0 0.22,0.002 0.37,0.006c0.15,0.003 0.26,0.009 0.33,0.017v1.364c-0.04,-0.012 -0.15,-0.029 -0.31,-0.052c-0.16,-0.026 -0.33,-0.039 -0.5,-0.039c-0.43,0 -0.81,0.089 -1.14,0.267c-0.33,0.174 -0.59,0.417 -0.79,0.727c-0.19,0.307 -0.28,0.658 -0.28,1.052v5.524zM250.14,72.434v-8.73h1.3v1.364h0.11c0.19,-0.466 0.48,-0.828 0.88,-1.085c0.41,-0.262 0.9,-0.392 1.46,-0.392c0.58,0 1.06,0.13 1.44,0.392c0.39,0.257 0.69,0.619 0.91,1.085h0.09c0.22,-0.451 0.56,-0.809 1,-1.074c0.45,-0.269 0.99,-0.403 1.61,-0.403c0.78,0 1.42,0.244 1.92,0.733c0.49,0.485 0.74,1.241 0.74,2.267v5.843h-1.34v-5.843c0,-0.644 -0.18,-1.104 -0.53,-1.381c-0.35,-0.276 -0.77,-0.415 -1.24,-0.415c-0.62,0 -1.09,0.186 -1.43,0.557c-0.34,0.368 -0.51,0.834 -0.51,1.398v5.684h-1.36v-5.979c0,-0.496 -0.16,-0.896 -0.48,-1.199c-0.32,-0.307 -0.74,-0.461 -1.25,-0.461c-0.35,0 -0.67,0.093 -0.97,0.279c-0.3,0.186 -0.55,0.443 -0.73,0.773c-0.18,0.326 -0.28,0.703 -0.28,1.131v5.456z" fill="black"/>
</g>
</g></svg>