<svg viewBox="0 0 334 112" fill="none" xmlns="http://www.w3.org/2000/svg" x="0" y="0"><g id="Group 1000013361_3">
<g id="Group 1000013360_9">
<g id="Group 1000013358_9">
<rect id="Rectangle 379_9" y="-9.550999999999988" width="91.8489" height="112.029" rx="25" fill="#E8F2FF" x="0"/>
<rect id="Rectangle 378_9" x="8.07463" y="-9.550999999999988" width="326.013" height="112.029" rx="25" fill="#E8F2FF"/>
</g>
</g>
<g id="Group 1000013359_9">
<path id="📊 DSpace Repository Digital Asset Management" d="M20.3226,41.582h16.0042v-16.004h-16.0042zM45.3888,40.462h-3.9442v-11.64h4.0238c1.1556,0 2.1483,0.233 2.9781,0.7c0.8335,0.462 1.4738,1.127 1.9209,1.994c0.4471,0.868 0.6707,1.906 0.6707,3.115c0,1.212 -0.2255,2.254 -0.6764,3.126c-0.447,0.871 -1.093,1.54 -1.938,2.006c-0.8411,0.466 -1.8527,0.699 -3.0349,0.699zM43.5531,38.638h1.7334c0.8109,0 1.4872,-0.148 2.029,-0.444c0.5418,-0.299 0.9491,-0.744 1.2219,-1.335c0.2728,-0.595 0.4092,-1.338 0.4092,-2.228c0,-0.891 -0.1364,-1.629 -0.4092,-2.217c-0.2728,-0.591 -0.6763,-1.032 -1.2105,-1.324c-0.5305,-0.295 -1.1898,-0.443 -1.9778,-0.443h-1.796zM59.3669,32.022c-0.053,-0.496 -0.2765,-0.883 -0.6706,-1.159c-0.3902,-0.277 -0.8979,-0.415 -1.5231,-0.415c-0.4395,0 -0.8165,0.066 -1.131,0.199c-0.3145,0.132 -0.5551,0.312 -0.7218,0.54c-0.1667,0.227 -0.2519,0.487 -0.2557,0.778c0,0.243 0.0549,0.453 0.1648,0.631c0.1137,0.178 0.2671,0.33 0.4603,0.455c0.1933,0.121 0.4073,0.223 0.6423,0.307c0.2349,0.083 0.4717,0.153 0.7104,0.21l1.0912,0.273c0.4395,0.102 0.8619,0.24 1.2673,0.415c0.4092,0.174 0.7749,0.394 1.0969,0.659c0.3259,0.265 0.5835,0.585 0.773,0.96c0.1894,0.376 0.2841,0.815 0.2841,1.319c0,0.682 -0.1743,1.283 -0.5228,1.802c-0.3486,0.515 -0.8525,0.918 -1.5118,1.21c-0.6555,0.288 -1.4492,0.432 -2.3813,0.432c-0.9056,0 -1.6917,-0.14 -2.3586,-0.42c-0.663,-0.281 -1.1821,-0.69 -1.5572,-1.228c-0.3713,-0.538 -0.5721,-1.194 -0.6024,-1.967h2.0744c0.0303,0.406 0.1553,0.743 0.3751,1.012c0.2197,0.269 0.5058,0.47 0.8581,0.603c0.3562,0.132 0.754,0.198 1.1935,0.198c0.4585,0 0.8601,-0.068 1.2049,-0.204c0.3486,-0.14 0.6214,-0.334 0.8184,-0.58c0.197,-0.25 0.2974,-0.542 0.3012,-0.875c-0.0038,-0.303 -0.0928,-0.553 -0.2671,-0.75c-0.1743,-0.201 -0.4187,-0.368 -0.7331,-0.5c-0.3107,-0.137 -0.6745,-0.258 -1.0912,-0.364l-1.3243,-0.341c-0.9585,-0.246 -1.7163,-0.62 -2.2733,-1.12c-0.5532,-0.504 -0.8297,-1.172 -0.8297,-2.006c0,-0.686 0.1856,-1.286 0.5569,-1.802c0.3751,-0.515 0.8847,-0.915 1.5288,-1.199c0.6441,-0.288 1.3735,-0.432 2.1881,-0.432c0.826,0 1.5497,0.144 2.171,0.432c0.6252,0.284 1.1159,0.68 1.472,1.188c0.3562,0.504 0.5399,1.084 0.5513,1.739zM63.3438,43.735v-12.003h2.0233v1.444h0.1194c0.106,-0.212 0.2557,-0.438 0.4489,-0.676c0.1933,-0.243 0.4547,-0.449 0.7843,-0.62c0.3297,-0.174 0.7502,-0.261 1.2617,-0.261c0.6744,0 1.2826,0.172 1.8244,0.517c0.5456,0.341 0.9775,0.847 1.2958,1.517c0.322,0.667 0.483,1.486 0.483,2.455c0,0.959 -0.1572,1.774 -0.4717,2.444c-0.3144,0.671 -0.7426,1.182 -1.2844,1.535c-0.5418,0.352 -1.1556,0.528 -1.8414,0.528c-0.5001,0 -0.915,-0.083 -1.2446,-0.25c-0.3297,-0.166 -0.5949,-0.367 -0.7957,-0.602c-0.197,-0.239 -0.3505,-0.464 -0.4603,-0.676h-0.0853v4.648zM65.3614,36.097c0,0.565 0.0796,1.059 0.2387,1.483c0.1629,0.425 0.396,0.756 0.6991,0.995c0.3069,0.235 0.6782,0.352 1.1139,0.352c0.4547,0 0.8354,-0.121 1.1423,-0.363c0.3069,-0.247 0.5381,-0.582 0.6934,-1.006c0.1591,-0.428 0.2387,-0.915 0.2387,-1.461c0,-0.542 -0.0777,-1.023 -0.233,-1.443c-0.1554,-0.421 -0.3865,-0.751 -0.6934,-0.989c-0.3069,-0.239 -0.6896,-0.358 -1.148,-0.358c-0.4395,0 -0.8127,0.115 -1.1196,0.346c-0.3069,0.231 -0.5399,0.555 -0.6991,0.972c-0.1553,0.417 -0.233,0.908 -0.233,1.472zM75.8585,40.638c-0.5532,0 -1.0514,-0.098 -1.4947,-0.295c-0.4395,-0.201 -0.7881,-0.497 -1.0457,-0.887c-0.2539,-0.39 -0.3808,-0.871 -0.3808,-1.444c0,-0.492 0.0909,-0.899 0.2728,-1.222c0.1818,-0.322 0.43,-0.579 0.7445,-0.772c0.3145,-0.194 0.6687,-0.34 1.0628,-0.438c0.3978,-0.102 0.8089,-0.176 1.2332,-0.222c0.5115,-0.053 0.9264,-0.1 1.2447,-0.142c0.3183,-0.045 0.5494,-0.113 0.6934,-0.204c0.1477,-0.095 0.2216,-0.241 0.2216,-0.438v-0.034c0,-0.428 -0.1269,-0.76 -0.3808,-0.995c-0.2538,-0.235 -0.6195,-0.352 -1.0969,-0.352c-0.5039,0 -0.9036,0.11 -1.1991,0.33c-0.2918,0.219 -0.4888,0.479 -0.5911,0.778l-1.921,-0.273c0.1516,-0.53 0.4017,-0.973 0.7502,-1.33c0.3486,-0.359 0.7749,-0.628 1.2788,-0.807c0.5039,-0.181 1.0609,-0.272 1.6709,-0.272c0.4205,0 0.8392,0.049 1.256,0.147c0.4168,0.099 0.7975,0.262 1.1423,0.489c0.3448,0.224 0.6214,0.529 0.8298,0.915c0.2122,0.387 0.3183,0.87 0.3183,1.449v5.843h-1.9778v-1.199h-0.0682c-0.1251,0.242 -0.3012,0.47 -0.5286,0.682c-0.2235,0.208 -0.5058,0.377 -0.8468,0.506c-0.3372,0.125 -0.7331,0.187 -1.1878,0.187zM76.3927,39.126c0.413,0 0.7711,-0.081 1.0742,-0.244c0.3031,-0.167 0.5361,-0.387 0.699,-0.659c0.1667,-0.273 0.2501,-0.571 0.2501,-0.893v-1.028c-0.0644,0.053 -0.1743,0.102 -0.3296,0.147c-0.1516,0.046 -0.3221,0.086 -0.5115,0.12c-0.1895,0.034 -0.377,0.064 -0.5627,0.091c-0.1856,0.026 -0.3467,0.049 -0.4831,0.068c-0.3069,0.042 -0.5816,0.11 -0.8241,0.205c-0.2424,0.094 -0.4338,0.227 -0.574,0.397c-0.1402,0.167 -0.2103,0.383 -0.2103,0.648c0,0.379 0.1383,0.665 0.4149,0.858c0.2766,0.194 0.629,0.29 1.0571,0.29zM86.3442,40.632c-0.8714,0 -1.6197,-0.191 -2.2449,-0.574c-0.6214,-0.382 -1.1007,-0.911 -1.4379,-1.585c-0.3334,-0.678 -0.5001,-1.459 -0.5001,-2.342c0,-0.886 0.1705,-1.669 0.5115,-2.347c0.341,-0.682 0.8222,-1.212 1.4435,-1.591c0.6252,-0.383 1.364,-0.574 2.2165,-0.574c0.7086,0 1.3356,0.13 1.8812,0.392c0.5494,0.257 0.987,0.623 1.3129,1.097c0.3258,0.47 0.5115,1.019 0.5569,1.648h-1.9664c-0.0796,-0.421 -0.269,-0.771 -0.5683,-1.052c-0.2956,-0.284 -0.6915,-0.426 -1.1878,-0.426c-0.4206,0 -0.79,0.114 -1.1083,0.341c-0.3183,0.224 -0.5664,0.546 -0.7445,0.966c-0.1743,0.421 -0.2614,0.925 -0.2614,1.512c0,0.595 0.0871,1.106 0.2614,1.535c0.1743,0.424 0.4187,0.752 0.7331,0.983c0.3183,0.227 0.6915,0.341 1.1197,0.341c0.3031,0 0.574,-0.057 0.8127,-0.171c0.2425,-0.117 0.4452,-0.286 0.6081,-0.505c0.1629,-0.22 0.2747,-0.487 0.3353,-0.802h1.9664c-0.0492,0.618 -0.2311,1.165 -0.5456,1.643c-0.3145,0.473 -0.7426,0.845 -1.2844,1.114c-0.5418,0.265 -1.1783,0.397 -1.9096,0.397zM95.6378,40.632c-0.8752,0 -1.6311,-0.181 -2.2676,-0.545c-0.6327,-0.368 -1.1196,-0.887 -1.4606,-1.557c-0.341,-0.675 -0.5115,-1.469 -0.5115,-2.382c0,-0.898 0.1705,-1.686 0.5115,-2.364c0.3448,-0.682 0.826,-1.212 1.4435,-1.591c0.6176,-0.383 1.3432,-0.574 2.1768,-0.574c0.538,0 1.0457,0.087 1.5231,0.261c0.4812,0.171 0.9055,0.436 1.273,0.796c0.3714,0.36 0.6631,0.818 0.8753,1.375c0.2122,0.553 0.3182,1.213 0.3182,1.978v0.631h-7.1552v-1.387h5.1831c-0.0038,-0.394 -0.089,-0.744 -0.2557,-1.051c-0.1667,-0.311 -0.3997,-0.555 -0.6991,-0.734c-0.2955,-0.178 -0.6403,-0.267 -1.0343,-0.267c-0.4206,0 -0.79,0.103 -1.1083,0.307c-0.3182,0.201 -0.5664,0.466 -0.7445,0.796c-0.1743,0.326 -0.2633,0.684 -0.2671,1.074v1.211c0,0.507 0.0928,0.943 0.2785,1.307c0.1856,0.36 0.4452,0.636 0.7786,0.83c0.3334,0.189 0.7237,0.284 1.1708,0.284c0.2993,0 0.5702,-0.042 0.8127,-0.125c0.2425,-0.087 0.4527,-0.214 0.6308,-0.381c0.1781,-0.167 0.3126,-0.373 0.4035,-0.62l1.921,0.216c-0.1213,0.508 -0.3524,0.951 -0.6934,1.33c-0.3372,0.375 -0.7691,0.667 -1.2958,0.876c-0.5266,0.204 -1.1291,0.306 -1.8073,0.306zM105.321,40.462v-11.64h4.365c0.894,0 1.644,0.156 2.25,0.467c0.61,0.31 1.071,0.746 1.381,1.307c0.315,0.557 0.472,1.206 0.472,1.949c0,0.746 -0.159,1.394 -0.477,1.944c-0.315,0.545 -0.779,0.968 -1.393,1.267c-0.614,0.296 -1.368,0.443 -2.262,0.443h-3.109v-1.75h2.825c0.523,0 0.951,-0.072 1.284,-0.216c0.334,-0.148 0.58,-0.362 0.739,-0.642c0.163,-0.284 0.245,-0.633 0.245,-1.046c0,-0.413 -0.082,-0.765 -0.245,-1.057c-0.163,-0.296 -0.411,-0.519 -0.744,-0.671c-0.334,-0.155 -0.764,-0.233 -1.29,-0.233h-1.933v9.878zM111.334,35.188l2.881,5.274h-2.353l-2.83,-5.274zM119.378,40.632c-0.875,0 -1.631,-0.181 -2.267,-0.545c-0.633,-0.368 -1.12,-0.887 -1.461,-1.557c-0.341,-0.675 -0.511,-1.469 -0.511,-2.382c0,-0.898 0.17,-1.686 0.511,-2.364c0.345,-0.682 0.826,-1.212 1.444,-1.591c0.617,-0.383 1.343,-0.574 2.176,-0.574c0.538,0 1.046,0.087 1.524,0.261c0.481,0.171 0.905,0.436 1.273,0.796c0.371,0.36 0.663,0.818 0.875,1.375c0.212,0.553 0.318,1.213 0.318,1.978v0.631h-7.155v-1.387h5.183c-0.004,-0.394 -0.089,-0.744 -0.256,-1.051c-0.166,-0.311 -0.399,-0.555 -0.699,-0.734c-0.295,-0.178 -0.64,-0.267 -1.034,-0.267c-0.421,0 -0.79,0.103 -1.108,0.307c-0.319,0.201 -0.567,0.466 -0.745,0.796c-0.174,0.326 -0.263,0.684 -0.267,1.074v1.211c0,0.507 0.093,0.943 0.278,1.307c0.186,0.36 0.446,0.636 0.779,0.83c0.334,0.189 0.724,0.284 1.171,0.284c0.299,0 0.57,-0.042 0.813,-0.125c0.242,-0.087 0.452,-0.214 0.63,-0.381c0.179,-0.167 0.313,-0.373 0.404,-0.62l1.921,0.216c-0.121,0.508 -0.352,0.951 -0.693,1.33c-0.338,0.375 -0.77,0.667 -1.296,0.876c-0.527,0.204 -1.129,0.306 -1.808,0.306zM125.001,43.735v-12.003h2.023v1.444h0.119c0.106,-0.212 0.256,-0.438 0.449,-0.676c0.193,-0.243 0.455,-0.449 0.785,-0.62c0.329,-0.174 0.75,-0.261 1.261,-0.261c0.675,0 1.283,0.172 1.825,0.517c0.545,0.341 0.977,0.847 1.295,1.517c0.322,0.667 0.483,1.486 0.483,2.455c0,0.959 -0.157,1.774 -0.471,2.444c-0.315,0.671 -0.743,1.182 -1.285,1.535c-0.541,0.352 -1.155,0.528 -1.841,0.528c-0.5,0 -0.915,-0.083 -1.245,-0.25c-0.329,-0.166 -0.595,-0.367 -0.795,-0.602c-0.197,-0.239 -0.351,-0.464 -0.461,-0.676h-0.085v4.648zM127.018,36.097c0,0.565 0.08,1.059 0.239,1.483c0.163,0.425 0.396,0.756 0.699,0.995c0.307,0.235 0.678,0.352 1.114,0.352c0.455,0 0.835,-0.121 1.142,-0.363c0.307,-0.247 0.538,-0.582 0.694,-1.006c0.159,-0.428 0.238,-0.915 0.238,-1.461c0,-0.542 -0.077,-1.023 -0.233,-1.443c-0.155,-0.421 -0.386,-0.751 -0.693,-0.989c-0.307,-0.239 -0.69,-0.358 -1.148,-0.358c-0.44,0 -0.813,0.115 -1.12,0.346c-0.307,0.231 -0.54,0.555 -0.699,0.972c-0.155,0.417 -0.233,0.908 -0.233,1.472zM138.811,40.632c-0.852,0 -1.591,-0.187 -2.216,-0.562c-0.626,-0.375 -1.111,-0.9 -1.455,-1.575c-0.341,-0.674 -0.512,-1.462 -0.512,-2.364c0,-0.902 0.171,-1.692 0.512,-2.37c0.344,-0.678 0.829,-1.205 1.455,-1.58c0.625,-0.375 1.364,-0.562 2.216,-0.562c0.853,0 1.591,0.187 2.217,0.562c0.625,0.375 1.108,0.902 1.449,1.58c0.345,0.678 0.517,1.468 0.517,2.37c0,0.902 -0.172,1.69 -0.517,2.364c-0.341,0.675 -0.824,1.2 -1.449,1.575c-0.626,0.375 -1.364,0.562 -2.217,0.562zM138.822,38.984c0.463,0 0.849,-0.127 1.16,-0.381c0.311,-0.257 0.542,-0.602 0.693,-1.034c0.156,-0.432 0.233,-0.913 0.233,-1.443c0,-0.535 -0.077,-1.018 -0.233,-1.45c-0.151,-0.435 -0.382,-0.782 -0.693,-1.04c-0.311,-0.257 -0.697,-0.386 -1.16,-0.386c-0.473,0 -0.867,0.129 -1.182,0.386c-0.31,0.258 -0.543,0.605 -0.699,1.04c-0.151,0.432 -0.227,0.915 -0.227,1.45c0,0.53 0.076,1.011 0.227,1.443c0.156,0.432 0.389,0.777 0.699,1.034c0.315,0.254 0.709,0.381 1.182,0.381zM151.64,34.04l-1.876,0.204c-0.053,-0.189 -0.146,-0.367 -0.278,-0.534c-0.129,-0.167 -0.303,-0.301 -0.523,-0.403c-0.22,-0.103 -0.489,-0.154 -0.807,-0.154c-0.428,0 -0.788,0.093 -1.08,0.279c-0.288,0.185 -0.43,0.426 -0.426,0.721c-0.004,0.254 0.089,0.461 0.278,0.62c0.194,0.159 0.512,0.29 0.955,0.392l1.489,0.318c0.826,0.178 1.44,0.461 1.842,0.847c0.405,0.387 0.61,0.892 0.613,1.518c-0.003,0.549 -0.165,1.034 -0.483,1.455c-0.314,0.416 -0.752,0.742 -1.313,0.977c-0.56,0.235 -1.204,0.352 -1.932,0.352c-1.068,0 -1.928,-0.223 -2.58,-0.67c-0.652,-0.451 -1.04,-1.078 -1.165,-1.881l2.006,-0.194c0.091,0.394 0.284,0.692 0.58,0.893c0.295,0.2 0.68,0.301 1.153,0.301c0.489,0 0.881,-0.101 1.177,-0.301c0.299,-0.201 0.449,-0.449 0.449,-0.745c0,-0.25 -0.097,-0.456 -0.29,-0.619c-0.189,-0.163 -0.485,-0.288 -0.887,-0.375l-1.489,-0.313c-0.837,-0.174 -1.456,-0.468 -1.858,-0.881c-0.402,-0.417 -0.601,-0.943 -0.597,-1.58c-0.004,-0.538 0.142,-1.004 0.438,-1.398c0.299,-0.398 0.714,-0.705 1.244,-0.921c0.535,-0.219 1.15,-0.329 1.847,-0.329c1.023,0 1.829,0.218 2.416,0.653c0.591,0.436 0.957,1.025 1.097,1.768zM153.524,40.462v-8.73h2.057v8.73zM154.558,30.493c-0.326,0 -0.606,-0.108 -0.841,-0.324c-0.235,-0.219 -0.352,-0.483 -0.352,-0.79c0,-0.31 0.117,-0.574 0.352,-0.79c0.235,-0.219 0.515,-0.329 0.841,-0.329c0.33,0 0.61,0.11 0.841,0.329c0.235,0.216 0.353,0.48 0.353,0.79c0,0.307 -0.118,0.571 -0.353,0.79c-0.231,0.216 -0.511,0.324 -0.841,0.324zM162.056,31.732v1.592h-5.019v-1.592zM158.276,29.641h2.058v8.195c0,0.277 0.041,0.489 0.125,0.637c0.087,0.144 0.201,0.242 0.341,0.295c0.14,0.053 0.295,0.08 0.466,0.08c0.129,0 0.246,-0.01 0.352,-0.029c0.11,-0.019 0.193,-0.036 0.25,-0.051l0.347,1.609c-0.11,0.038 -0.267,0.079 -0.472,0.125c-0.201,0.045 -0.447,0.072 -0.739,0.079c-0.515,0.015 -0.979,-0.062 -1.392,-0.233c-0.413,-0.174 -0.741,-0.443 -0.983,-0.807c-0.239,-0.364 -0.356,-0.818 -0.353,-1.364zM167.491,40.632c-0.853,0 -1.592,-0.187 -2.217,-0.562c-0.625,-0.375 -1.11,-0.9 -1.455,-1.575c-0.341,-0.674 -0.511,-1.462 -0.511,-2.364c0,-0.902 0.17,-1.692 0.511,-2.37c0.345,-0.678 0.83,-1.205 1.455,-1.58c0.625,-0.375 1.364,-0.562 2.217,-0.562c0.852,0 1.591,0.187 2.216,0.562c0.625,0.375 1.108,0.902 1.449,1.58c0.345,0.678 0.517,1.468 0.517,2.37c0,0.902 -0.172,1.69 -0.517,2.364c-0.341,0.675 -0.824,1.2 -1.449,1.575c-0.625,0.375 -1.364,0.562 -2.216,0.562zM167.502,38.984c0.462,0 0.849,-0.127 1.159,-0.381c0.311,-0.257 0.542,-0.602 0.694,-1.034c0.155,-0.432 0.233,-0.913 0.233,-1.443c0,-0.535 -0.078,-1.018 -0.233,-1.45c-0.152,-0.435 -0.383,-0.782 -0.694,-1.04c-0.31,-0.257 -0.697,-0.386 -1.159,-0.386c-0.474,0 -0.868,0.129 -1.182,0.386c-0.311,0.258 -0.544,0.605 -0.699,1.04c-0.152,0.432 -0.228,0.915 -0.228,1.45c0,0.53 0.076,1.011 0.228,1.443c0.155,0.432 0.388,0.777 0.699,1.034c0.314,0.254 0.708,0.381 1.182,0.381zM173.42,40.462v-8.73h1.994v1.455h0.091c0.16,-0.504 0.432,-0.892 0.819,-1.165c0.39,-0.276 0.835,-0.415 1.335,-0.415c0.114,0 0.241,0.006 0.381,0.017c0.144,0.008 0.263,0.021 0.358,0.04v1.893c-0.087,-0.031 -0.225,-0.057 -0.415,-0.08c-0.185,-0.026 -0.365,-0.04 -0.54,-0.04c-0.375,0 -0.712,0.082 -1.011,0.245c-0.296,0.159 -0.529,0.38 -0.699,0.665c-0.171,0.284 -0.256,0.612 -0.256,0.983v5.132zM181.309,43.735c-0.28,0 -0.539,-0.022 -0.778,-0.068c-0.235,-0.041 -0.423,-0.091 -0.563,-0.147l0.478,-1.603c0.299,0.087 0.566,0.129 0.801,0.125c0.235,-0.004 0.441,-0.078 0.619,-0.222c0.182,-0.14 0.336,-0.375 0.461,-0.705l0.176,-0.471l-3.166,-8.912h2.183l2.012,6.593h0.091l2.017,-6.593h2.188l-3.495,9.787c-0.163,0.462 -0.379,0.858 -0.648,1.188c-0.269,0.333 -0.599,0.587 -0.989,0.761c-0.386,0.178 -0.848,0.267 -1.387,0.267zM25.3239,72.47h-3.5918v-11.639h3.7509c1.1291,0 2.0953,0.233 2.8985,0.699c0.8033,0.462 1.419,1.127 1.8471,1.995c0.4282,0.864 0.6422,1.898 0.6422,3.103c0,1.212 -0.2159,2.256 -0.6479,3.131c-0.4319,0.872 -1.0609,1.542 -1.8868,2.012c-0.826,0.466 -1.8301,0.699 -3.0122,0.699zM23.1415,71.22h2.0915c0.9624,0 1.7599,-0.186 2.3927,-0.557c0.6327,-0.371 1.1044,-0.9 1.4151,-1.586c0.3107,-0.685 0.466,-1.502 0.466,-2.449c0,-0.94 -0.1534,-1.749 -0.4603,-2.427c-0.3069,-0.682 -0.7654,-1.205 -1.3754,-1.569c-0.61,-0.367 -1.3697,-0.551 -2.279,-0.551h-2.2506zM33.0532,72.47v-8.729h1.3413v8.729zM33.7352,62.286c-0.2614,0 -0.4869,-0.089 -0.6763,-0.267c-0.1857,-0.178 -0.2785,-0.392 -0.2785,-0.643c0,-0.25 0.0928,-0.464 0.2785,-0.642c0.1894,-0.178 0.4149,-0.267 0.6763,-0.267c0.2614,0 0.485,0.089 0.6706,0.267c0.1895,0.178 0.2842,0.392 0.2842,0.642c0,0.251 -0.0947,0.465 -0.2842,0.643c-0.1856,0.178 -0.4092,0.267 -0.6706,0.267zM40.3747,75.926c-0.6479,0 -1.2048,-0.084 -1.6709,-0.25c-0.466,-0.163 -0.8543,-0.379 -1.165,-0.648c-0.3069,-0.265 -0.5513,-0.55 -0.7332,-0.853l1.0685,-0.75c0.1212,0.159 0.2747,0.341 0.4603,0.546c0.1857,0.208 0.4395,0.388 0.7616,0.54c0.3258,0.155 0.7521,0.233 1.2787,0.233c0.7048,0 1.2864,-0.171 1.7448,-0.512c0.4585,-0.341 0.6877,-0.875 0.6877,-1.603v-1.773h-0.1137c-0.0985,0.159 -0.2387,0.356 -0.4205,0.591c-0.1781,0.231 -0.4358,0.438 -0.773,0.62c-0.3334,0.178 -0.7843,0.267 -1.3526,0.267c-0.7047,0 -1.3375,-0.167 -1.8982,-0.5c-0.557,-0.334 -0.9984,-0.819 -1.3242,-1.455c-0.3221,-0.637 -0.4831,-1.41 -0.4831,-2.319c0,-0.894 0.1572,-1.673 0.4717,-2.336c0.3145,-0.667 0.7521,-1.182 1.3129,-1.546c0.5607,-0.367 1.2086,-0.551 1.9436,-0.551c0.5684,0 1.0193,0.095 1.3527,0.284c0.3372,0.186 0.5948,0.398 0.7729,0.637c0.1819,0.235 0.3221,0.428 0.4206,0.579h0.1364v-1.386h1.2958v8.979c0,0.751 -0.1705,1.361 -0.5115,1.83c-0.3372,0.474 -0.7919,0.821 -1.364,1.04c-0.5684,0.224 -1.2011,0.336 -1.8983,0.336zM40.3293,71.129c0.538,0 0.9927,-0.123 1.364,-0.369c0.3713,-0.247 0.6536,-0.601 0.8468,-1.063c0.1932,-0.462 0.2898,-1.016 0.2898,-1.66c0,-0.629 -0.0947,-1.184 -0.2841,-1.665c-0.1895,-0.481 -0.4699,-0.858 -0.8412,-1.131c-0.3713,-0.273 -0.8297,-0.409 -1.3753,-0.409c-0.5684,0 -1.042,0.144 -1.4209,0.432c-0.3751,0.288 -0.6573,0.674 -0.8468,1.159c-0.1856,0.485 -0.2784,1.023 -0.2784,1.614c0,0.607 0.0947,1.143 0.2841,1.609c0.1933,0.462 0.4774,0.826 0.8525,1.091c0.3789,0.261 0.8487,0.392 1.4095,0.392zM46.6037,72.47v-8.729h1.3412v8.729zM47.2856,62.286c-0.2614,0 -0.4868,-0.089 -0.6763,-0.267c-0.1856,-0.178 -0.2784,-0.392 -0.2784,-0.643c0,-0.25 0.0928,-0.464 0.2784,-0.642c0.1895,-0.178 0.4149,-0.267 0.6763,-0.267c0.2615,0 0.485,0.089 0.6707,0.267c0.1894,0.178 0.2841,0.392 0.2841,0.642c0,0.251 -0.0947,0.465 -0.2841,0.643c-0.1857,0.178 -0.4092,0.267 -0.6707,0.267zM54.198,63.741v1.136h-4.5239v-1.136zM50.9926,61.649h1.3412v8.321c0,0.379 0.055,0.663 0.1649,0.852c0.1136,0.186 0.2576,0.311 0.4319,0.375c0.1781,0.061 0.3656,0.091 0.5626,0.091c0.1478,0 0.2691,-0.007 0.3638,-0.023c0.0947,-0.018 0.1705,-0.034 0.2273,-0.045l0.2728,1.205c-0.0909,0.034 -0.2179,0.068 -0.3808,0.102c-0.1629,0.038 -0.3694,0.057 -0.6195,0.057c-0.3788,0 -0.7502,-0.081 -1.1139,-0.244c-0.3599,-0.163 -0.6592,-0.411 -0.8979,-0.745c-0.235,-0.333 -0.3524,-0.754 -0.3524,-1.262zM58.7844,72.675c-0.5532,0 -1.0552,-0.104 -1.5061,-0.313c-0.4508,-0.212 -0.8089,-0.517 -1.0741,-0.915c-0.2652,-0.401 -0.3978,-0.886 -0.3978,-1.455c0,-0.5 0.0985,-0.905 0.2955,-1.216c0.197,-0.314 0.4603,-0.561 0.79,-0.739c0.3296,-0.178 0.6933,-0.31 1.0912,-0.398c0.4016,-0.09 0.8051,-0.162 1.2105,-0.215c0.5304,-0.069 0.9605,-0.12 1.2901,-0.154c0.3334,-0.038 0.5759,-0.1 0.7275,-0.187c0.1553,-0.088 0.233,-0.239 0.233,-0.455v-0.046c0,-0.56 -0.1535,-0.996 -0.4604,-1.307c-0.3031,-0.31 -0.7634,-0.466 -1.381,-0.466c-0.6403,0 -1.1423,0.14 -1.5061,0.421c-0.3637,0.28 -0.6195,0.579 -0.7672,0.898l-1.2731,-0.455c0.2274,-0.53 0.5305,-0.943 0.9093,-1.239c0.3827,-0.299 0.7995,-0.508 1.2504,-0.625c0.4546,-0.121 0.9017,-0.182 1.3412,-0.182c0.2804,0 0.6025,0.034 0.9662,0.102c0.3675,0.065 0.7218,0.199 1.0628,0.404c0.3448,0.204 0.6308,0.513 0.8582,0.926c0.2273,0.413 0.341,0.966 0.341,1.66v5.751h-1.3413v-1.182h-0.0682c-0.0909,0.19 -0.2425,0.392 -0.4547,0.608c-0.2121,0.216 -0.4944,0.4 -0.8468,0.552c-0.3523,0.151 -0.7824,0.227 -1.2901,0.227zM58.989,71.47c0.5304,0 0.9775,-0.104 1.3413,-0.313c0.3675,-0.208 0.6441,-0.477 0.8297,-0.807c0.1895,-0.329 0.2842,-0.676 0.2842,-1.04v-1.227c-0.0568,0.068 -0.1819,0.131 -0.3751,0.187c-0.1894,0.053 -0.4092,0.101 -0.6593,0.142c-0.2462,0.038 -0.4868,0.072 -0.7217,0.103c-0.2312,0.026 -0.4187,0.049 -0.5627,0.068c-0.3486,0.045 -0.6744,0.119 -0.9775,0.222c-0.2993,0.098 -0.5418,0.248 -0.7275,0.449c-0.1819,0.197 -0.2728,0.466 -0.2728,0.807c0,0.466 0.1724,0.818 0.5172,1.057c0.3486,0.235 0.79,0.352 1.3242,0.352zM66.5748,60.831v11.639h-1.3413v-11.639zM74.1919,72.47h-1.4777l4.2739,-11.639h1.4549l4.2738,11.639h-1.4776l-3.4782,-9.798h-0.0909zM74.7375,67.924h5.9561v1.25h-5.9561zM90.5314,65.696l-1.2049,0.341c-0.0758,-0.201 -0.1875,-0.396 -0.3353,-0.586c-0.144,-0.193 -0.341,-0.352 -0.5911,-0.477c-0.25,-0.125 -0.5702,-0.188 -0.9604,-0.188c-0.5343,0 -0.9795,0.124 -1.3356,0.37c-0.3524,0.242 -0.5286,0.551 -0.5286,0.926c0,0.334 0.1213,0.597 0.3638,0.79c0.2425,0.193 0.6213,0.355 1.1366,0.483l1.2958,0.319c0.7805,0.189 1.3621,0.479 1.7448,0.869c0.3827,0.387 0.574,0.885 0.574,1.495c0,0.5 -0.144,0.947 -0.4319,1.341c-0.2842,0.394 -0.682,0.705 -1.1935,0.932c-0.5115,0.228 -1.1064,0.341 -1.7846,0.341c-0.8904,0 -1.6273,-0.193 -2.2108,-0.58c-0.5835,-0.386 -0.9529,-0.951 -1.1082,-1.693l1.273,-0.318c0.1213,0.469 0.3505,0.822 0.6877,1.057c0.341,0.235 0.7862,0.352 1.3356,0.352c0.6252,0 1.1215,-0.133 1.489,-0.398c0.3713,-0.269 0.557,-0.591 0.557,-0.966c0,-0.303 -0.1061,-0.557 -0.3183,-0.762c-0.2122,-0.208 -0.538,-0.363 -0.9775,-0.466l-1.4549,-0.341c-0.7995,-0.189 -1.3868,-0.483 -1.7619,-0.88c-0.3713,-0.402 -0.5569,-0.904 -0.5569,-1.507c0,-0.492 0.1383,-0.928 0.4149,-1.307c0.2803,-0.379 0.6611,-0.676 1.1423,-0.892c0.485,-0.216 1.0344,-0.324 1.6482,-0.324c0.8638,0 1.542,0.19 2.0346,0.568c0.4963,0.379 0.8487,0.879 1.0571,1.501zM98.893,65.696l-1.2049,0.341c-0.0758,-0.201 -0.1876,-0.396 -0.3353,-0.586c-0.144,-0.193 -0.341,-0.352 -0.5911,-0.477c-0.2501,-0.125 -0.5702,-0.188 -0.9605,-0.188c-0.5342,0 -0.9794,0.124 -1.3355,0.37c-0.3524,0.242 -0.5286,0.551 -0.5286,0.926c0,0.334 0.1213,0.597 0.3637,0.79c0.2425,0.193 0.6214,0.355 1.1367,0.483l1.2958,0.319c0.7805,0.189 1.3621,0.479 1.7448,0.869c0.3827,0.387 0.574,0.885 0.574,1.495c0,0.5 -0.144,0.947 -0.4319,1.341c-0.2842,0.394 -0.682,0.705 -1.1935,0.932c-0.5115,0.228 -1.1064,0.341 -1.7846,0.341c-0.8904,0 -1.6273,-0.193 -2.2108,-0.58c-0.5835,-0.386 -0.9529,-0.951 -1.1083,-1.693l1.2731,-0.318c0.1213,0.469 0.3505,0.822 0.6877,1.057c0.341,0.235 0.7862,0.352 1.3356,0.352c0.6251,0 1.1215,-0.133 1.489,-0.398c0.3713,-0.269 0.557,-0.591 0.557,-0.966c0,-0.303 -0.1061,-0.557 -0.3183,-0.762c-0.2122,-0.208 -0.538,-0.363 -0.9775,-0.466l-1.455,-0.341c-0.7994,-0.189 -1.3867,-0.483 -1.7618,-0.88c-0.3713,-0.402 -0.557,-0.904 -0.557,-1.507c0,-0.492 0.1383,-0.928 0.4149,-1.307c0.2804,-0.379 0.6612,-0.676 1.1424,-0.892c0.485,-0.216 1.0343,-0.324 1.6481,-0.324c0.8639,0 1.5421,0.19 2.0347,0.568c0.4963,0.379 0.8487,0.879 1.0571,1.501zM104.731,72.652c-0.841,0 -1.567,-0.185 -2.177,-0.557c-0.606,-0.375 -1.074,-0.898 -1.403,-1.568c-0.326,-0.675 -0.489,-1.459 -0.489,-2.353c0,-0.894 0.163,-1.683 0.489,-2.365c0.329,-0.685 0.788,-1.22 1.375,-1.602c0.591,-0.387 1.281,-0.58 2.069,-0.58c0.454,0 0.903,0.076 1.347,0.227c0.443,0.152 0.846,0.398 1.21,0.739c0.364,0.337 0.654,0.785 0.87,1.342c0.216,0.556 0.324,1.242 0.324,2.057v0.568h-6.729v-1.159h5.365c0,-0.493 -0.099,-0.932 -0.296,-1.319c-0.193,-0.386 -0.47,-0.691 -0.83,-0.915c-0.356,-0.223 -0.776,-0.335 -1.261,-0.335c-0.534,0 -0.997,0.133 -1.387,0.398c-0.386,0.261 -0.684,0.602 -0.892,1.023c-0.209,0.42 -0.313,0.871 -0.313,1.352v0.773c0,0.66 0.114,1.218 0.341,1.677c0.231,0.455 0.551,0.801 0.961,1.04c0.409,0.235 0.884,0.352 1.426,0.352c0.353,0 0.671,-0.049 0.955,-0.147c0.288,-0.103 0.536,-0.254 0.744,-0.455c0.209,-0.205 0.37,-0.459 0.484,-0.762l1.295,0.364c-0.136,0.44 -0.365,0.826 -0.687,1.159c-0.322,0.33 -0.72,0.588 -1.194,0.773c-0.473,0.182 -1.006,0.273 -1.597,0.273zM114.182,63.741v1.136h-4.523v-1.136zM110.977,61.649h1.341v8.321c0,0.379 0.055,0.663 0.165,0.852c0.114,0.186 0.258,0.311 0.432,0.375c0.178,0.061 0.366,0.091 0.563,0.091c0.148,0 0.269,-0.007 0.363,-0.023c0.095,-0.018 0.171,-0.034 0.228,-0.045l0.273,1.205c-0.091,0.034 -0.218,0.068 -0.381,0.102c-0.163,0.038 -0.37,0.057 -0.62,0.057c-0.379,0 -0.75,-0.081 -1.114,-0.244c-0.36,-0.163 -0.659,-0.411 -0.898,-0.745c-0.234,-0.333 -0.352,-0.754 -0.352,-1.262zM120.883,60.831h1.682l3.956,9.662h0.136l3.956,-9.662h1.682v11.639h-1.318v-8.843h-0.114l-3.637,8.843h-1.273l-3.638,-8.843h-0.113v8.843h-1.319zM137.508,72.675c-0.553,0 -1.055,-0.104 -1.506,-0.313c-0.451,-0.212 -0.809,-0.517 -1.074,-0.915c-0.265,-0.401 -0.398,-0.886 -0.398,-1.455c0,-0.5 0.099,-0.905 0.296,-1.216c0.197,-0.314 0.46,-0.561 0.79,-0.739c0.329,-0.178 0.693,-0.31 1.091,-0.398c0.401,-0.09 0.805,-0.162 1.21,-0.215c0.531,-0.069 0.961,-0.12 1.291,-0.154c0.333,-0.038 0.575,-0.1 0.727,-0.187c0.155,-0.088 0.233,-0.239 0.233,-0.455v-0.046c0,-0.56 -0.153,-0.996 -0.46,-1.307c-0.303,-0.31 -0.764,-0.466 -1.381,-0.466c-0.641,0 -1.143,0.14 -1.506,0.421c-0.364,0.28 -0.62,0.579 -0.768,0.898l-1.273,-0.455c0.228,-0.53 0.531,-0.943 0.91,-1.239c0.382,-0.299 0.799,-0.508 1.25,-0.625c0.455,-0.121 0.902,-0.182 1.341,-0.182c0.281,0 0.603,0.034 0.966,0.102c0.368,0.065 0.722,0.199 1.063,0.404c0.345,0.204 0.631,0.513 0.858,0.926c0.228,0.413 0.341,0.966 0.341,1.66v5.751h-1.341v-1.182h-0.068c-0.091,0.19 -0.243,0.392 -0.455,0.608c-0.212,0.216 -0.494,0.4 -0.847,0.552c-0.352,0.151 -0.782,0.227 -1.29,0.227zM137.713,71.47c0.53,0 0.977,-0.104 1.341,-0.313c0.368,-0.208 0.644,-0.477 0.83,-0.807c0.189,-0.329 0.284,-0.676 0.284,-1.04v-1.227c-0.057,0.068 -0.182,0.131 -0.375,0.187c-0.19,0.053 -0.409,0.101 -0.659,0.142c-0.247,0.038 -0.487,0.072 -0.722,0.103c-0.231,0.026 -0.419,0.049 -0.563,0.068c-0.348,0.045 -0.674,0.119 -0.977,0.222c-0.3,0.098 -0.542,0.248 -0.728,0.449c-0.182,0.197 -0.273,0.466 -0.273,0.807c0,0.466 0.173,0.818 0.518,1.057c0.348,0.235 0.79,0.352 1.324,0.352zM145.299,67.219v5.251h-1.342v-8.729h1.296v1.364h0.114c0.204,-0.444 0.515,-0.8 0.932,-1.069c0.417,-0.273 0.955,-0.409 1.614,-0.409c0.591,0 1.108,0.121 1.551,0.364c0.444,0.239 0.789,0.602 1.035,1.091c0.246,0.485 0.369,1.099 0.369,1.841v5.547h-1.341v-5.456c0,-0.685 -0.178,-1.22 -0.534,-1.602c-0.356,-0.387 -0.845,-0.58 -1.467,-0.58c-0.428,0 -0.81,0.093 -1.148,0.278c-0.333,0.186 -0.596,0.457 -0.79,0.813c-0.193,0.356 -0.289,0.788 -0.289,1.296zM155.888,72.675c-0.553,0 -1.055,-0.104 -1.506,-0.313c-0.451,-0.212 -0.809,-0.517 -1.074,-0.915c-0.265,-0.401 -0.398,-0.886 -0.398,-1.455c0,-0.5 0.098,-0.905 0.296,-1.216c0.197,-0.314 0.46,-0.561 0.789,-0.739c0.33,-0.178 0.694,-0.31 1.092,-0.398c0.401,-0.09 0.805,-0.162 1.21,-0.215c0.531,-0.069 0.961,-0.12 1.29,-0.154c0.334,-0.038 0.576,-0.1 0.728,-0.187c0.155,-0.088 0.233,-0.239 0.233,-0.455v-0.046c0,-0.56 -0.154,-0.996 -0.461,-1.307c-0.303,-0.31 -0.763,-0.466 -1.381,-0.466c-0.64,0 -1.142,0.14 -1.506,0.421c-0.363,0.28 -0.619,0.579 -0.767,0.898l-1.273,-0.455c0.227,-0.53 0.53,-0.943 0.909,-1.239c0.383,-0.299 0.8,-0.508 1.251,-0.625c0.454,-0.121 0.901,-0.182 1.341,-0.182c0.28,0 0.602,0.034 0.966,0.102c0.368,0.065 0.722,0.199 1.063,0.404c0.345,0.204 0.631,0.513 0.858,0.926c0.227,0.413 0.341,0.966 0.341,1.66v5.751h-1.341v-1.182h-0.068c-0.091,0.19 -0.243,0.392 -0.455,0.608c-0.212,0.216 -0.494,0.4 -0.847,0.552c-0.352,0.151 -0.782,0.227 -1.29,0.227zM156.093,71.47c0.53,0 0.977,-0.104 1.341,-0.313c0.367,-0.208 0.644,-0.477 0.83,-0.807c0.189,-0.329 0.284,-0.676 0.284,-1.04v-1.227c-0.057,0.068 -0.182,0.131 -0.375,0.187c-0.19,0.053 -0.409,0.101 -0.66,0.142c-0.246,0.038 -0.486,0.072 -0.721,0.103c-0.231,0.026 -0.419,0.049 -0.563,0.068c-0.349,0.045 -0.674,0.119 -0.977,0.222c-0.3,0.098 -0.542,0.248 -0.728,0.449c-0.182,0.197 -0.273,0.466 -0.273,0.807c0,0.466 0.173,0.818 0.517,1.057c0.349,0.235 0.79,0.352 1.325,0.352zM165.861,75.926c-0.648,0 -1.205,-0.084 -1.671,-0.25c-0.466,-0.163 -0.854,-0.379 -1.165,-0.648c-0.307,-0.265 -0.551,-0.55 -0.733,-0.853l1.068,-0.75c0.121,0.159 0.275,0.341 0.461,0.546c0.185,0.208 0.439,0.388 0.761,0.54c0.326,0.155 0.752,0.233 1.279,0.233c0.705,0 1.286,-0.171 1.745,-0.512c0.458,-0.341 0.687,-0.875 0.687,-1.603v-1.773h-0.113c-0.099,0.159 -0.239,0.356 -0.421,0.591c-0.178,0.231 -0.436,0.438 -0.773,0.62c-0.333,0.178 -0.784,0.267 -1.353,0.267c-0.704,0 -1.337,-0.167 -1.898,-0.5c-0.557,-0.334 -0.998,-0.819 -1.324,-1.455c-0.322,-0.637 -0.483,-1.41 -0.483,-2.319c0,-0.894 0.157,-1.673 0.472,-2.336c0.314,-0.667 0.752,-1.182 1.313,-1.546c0.56,-0.367 1.208,-0.551 1.943,-0.551c0.569,0 1.019,0.095 1.353,0.284c0.337,0.186 0.595,0.398 0.773,0.637c0.182,0.235 0.322,0.428 0.42,0.579h0.137v-1.386h1.296v8.979c0,0.751 -0.171,1.361 -0.512,1.83c-0.337,0.474 -0.792,0.821 -1.364,1.04c-0.568,0.224 -1.201,0.336 -1.898,0.336zM165.815,71.129c0.538,0 0.993,-0.123 1.364,-0.369c0.372,-0.247 0.654,-0.601 0.847,-1.063c0.193,-0.462 0.29,-1.016 0.29,-1.66c0,-0.629 -0.095,-1.184 -0.284,-1.665c-0.19,-0.481 -0.47,-0.858 -0.841,-1.131c-0.372,-0.273 -0.83,-0.409 -1.376,-0.409c-0.568,0 -1.042,0.144 -1.42,0.432c-0.376,0.288 -0.658,0.674 -0.847,1.159c-0.186,0.485 -0.279,1.023 -0.279,1.614c0,0.607 0.095,1.143 0.284,1.609c0.194,0.462 0.478,0.826 0.853,1.091c0.379,0.261 0.849,0.392 1.409,0.392zM175.75,72.652c-0.841,0 -1.567,-0.185 -2.177,-0.557c-0.606,-0.375 -1.074,-0.898 -1.404,-1.568c-0.326,-0.675 -0.488,-1.459 -0.488,-2.353c0,-0.894 0.162,-1.683 0.488,-2.365c0.33,-0.685 0.788,-1.22 1.376,-1.602c0.591,-0.387 1.28,-0.58 2.068,-0.58c0.455,0 0.904,0.076 1.347,0.227c0.444,0.152 0.847,0.398 1.211,0.739c0.364,0.337 0.653,0.785 0.869,1.342c0.216,0.556 0.324,1.242 0.324,2.057v0.568h-6.729v-1.159h5.365c0,-0.493 -0.098,-0.932 -0.295,-1.319c-0.193,-0.386 -0.47,-0.691 -0.83,-0.915c-0.356,-0.223 -0.777,-0.335 -1.262,-0.335c-0.534,0 -0.996,0.133 -1.386,0.398c-0.387,0.261 -0.684,0.602 -0.893,1.023c-0.208,0.42 -0.312,0.871 -0.312,1.352v0.773c0,0.66 0.113,1.218 0.341,1.677c0.231,0.455 0.551,0.801 0.96,1.04c0.409,0.235 0.885,0.352 1.427,0.352c0.352,0 0.67,-0.049 0.955,-0.147c0.288,-0.103 0.536,-0.254 0.744,-0.455c0.208,-0.205 0.37,-0.459 0.483,-0.762l1.296,0.364c-0.136,0.44 -0.366,0.826 -0.688,1.159c-0.322,0.33 -0.72,0.588 -1.193,0.773c-0.474,0.182 -1.006,0.273 -1.597,0.273zM181.405,72.47v-8.729h1.295v1.364h0.114c0.182,-0.466 0.476,-0.828 0.881,-1.086c0.405,-0.261 0.892,-0.392 1.461,-0.392c0.576,0 1.055,0.131 1.438,0.392c0.386,0.258 0.687,0.62 0.903,1.086h0.091c0.224,-0.451 0.559,-0.809 1.006,-1.074c0.447,-0.269 0.983,-0.404 1.608,-0.404c0.781,0 1.419,0.244 1.916,0.733c0.496,0.485 0.744,1.241 0.744,2.268v5.842h-1.341v-5.842c0,-0.644 -0.176,-1.105 -0.529,-1.381c-0.352,-0.277 -0.767,-0.415 -1.244,-0.415c-0.614,0 -1.09,0.186 -1.427,0.557c-0.337,0.367 -0.506,0.833 -0.506,1.398v5.683h-1.364v-5.979c0,-0.496 -0.161,-0.896 -0.483,-1.199c-0.322,-0.307 -0.737,-0.46 -1.244,-0.46c-0.349,0 -0.675,0.093 -0.978,0.278c-0.299,0.186 -0.542,0.444 -0.727,0.773c-0.182,0.326 -0.273,0.703 -0.273,1.131v5.456zM198.975,72.652c-0.841,0 -1.567,-0.185 -2.177,-0.557c-0.606,-0.375 -1.074,-0.898 -1.404,-1.568c-0.326,-0.675 -0.489,-1.459 -0.489,-2.353c0,-0.894 0.163,-1.683 0.489,-2.365c0.33,-0.685 0.788,-1.22 1.376,-1.602c0.591,-0.387 1.28,-0.58 2.068,-0.58c0.455,0 0.904,0.076 1.347,0.227c0.443,0.152 0.847,0.398 1.211,0.739c0.363,0.337 0.653,0.785 0.869,1.342c0.216,0.556 0.324,1.242 0.324,2.057v0.568h-6.729v-1.159h5.365c0,-0.493 -0.098,-0.932 -0.295,-1.319c-0.194,-0.386 -0.47,-0.691 -0.83,-0.915c-0.356,-0.223 -0.777,-0.335 -1.262,-0.335c-0.534,0 -0.996,0.133 -1.386,0.398c-0.387,0.261 -0.684,0.602 -0.893,1.023c-0.208,0.42 -0.312,0.871 -0.312,1.352v0.773c0,0.66 0.113,1.218 0.341,1.677c0.231,0.455 0.551,0.801 0.96,1.04c0.409,0.235 0.885,0.352 1.427,0.352c0.352,0 0.67,-0.049 0.954,-0.147c0.288,-0.103 0.537,-0.254 0.745,-0.455c0.208,-0.205 0.369,-0.459 0.483,-0.762l1.296,0.364c-0.137,0.44 -0.366,0.826 -0.688,1.159c-0.322,0.33 -0.72,0.588 -1.193,0.773c-0.474,0.182 -1.006,0.273 -1.597,0.273zM205.971,67.219v5.251h-1.341v-8.729h1.295v1.364h0.114c0.205,-0.444 0.515,-0.8 0.932,-1.069c0.417,-0.273 0.955,-0.409 1.614,-0.409c0.591,0 1.108,0.121 1.552,0.364c0.443,0.239 0.788,0.602 1.034,1.091c0.246,0.485 0.369,1.099 0.369,1.841v5.547h-1.341v-5.456c0,-0.685 -0.178,-1.22 -0.534,-1.602c-0.356,-0.387 -0.845,-0.58 -1.466,-0.58c-0.428,0 -0.811,0.093 -1.148,0.278c-0.334,0.186 -0.597,0.457 -0.79,0.813c-0.194,0.356 -0.29,0.788 -0.29,1.296zM217.788,63.741v1.136h-4.524v-1.136zM214.582,61.649h1.342v8.321c0,0.379 0.055,0.663 0.165,0.852c0.113,0.186 0.257,0.311 0.431,0.375c0.179,0.061 0.366,0.091 0.563,0.091c0.148,0 0.269,-0.007 0.364,-0.023c0.095,-0.018 0.17,-0.034 0.227,-0.045l0.273,1.205c-0.091,0.034 -0.218,0.068 -0.381,0.102c-0.163,0.038 -0.369,0.057 -0.619,0.057c-0.379,0 -0.751,-0.081 -1.114,-0.244c-0.36,-0.163 -0.659,-0.411 -0.898,-0.745c-0.235,-0.333 -0.353,-0.754 -0.353,-1.262z" fill="black"/>
</g>
</g></svg>