<svg viewBox="0 0 334 112" fill="none" xmlns="http://www.w3.org/2000/svg" x="0" y="0"><g id="Group 1000013363_3">
<g id="Group 1000013360_11">
<g id="Group 1000013358_11">
<rect id="Rectangle 379_11" x="0.19000000000005457" y="-9.550999999999988" width="91.8489" height="112.029" rx="25" fill="#E8F2FF"/>
<rect id="Rectangle 378_11" x="8.264999999999986" y="-9.550999999999988" width="326.013" height="112.029" rx="25" fill="#E8F2FF"/>
</g>
</g>
<g id="Group 1000013359_11">
<path id="👥 HR Management Complete HRMS Solution" d="M20.432,41.582h16.004v-16.004h-16.004zM41.554,40.462v-11.64h2.108v4.928h5.394v-4.928h2.114v11.64h-2.114v-4.945h-5.394v4.945zM53.463,40.462v-11.64h4.365c0.894,0 1.644,0.156 2.25,0.467c0.61,0.31 1.071,0.746 1.381,1.307c0.315,0.557 0.472,1.206 0.472,1.949c0,0.746 -0.159,1.394 -0.477,1.944c-0.315,0.545 -0.779,0.968 -1.393,1.267c-0.613,0.296 -1.367,0.443 -2.262,0.443h-3.108v-1.75h2.824c0.523,0 0.951,-0.072 1.285,-0.216c0.333,-0.148 0.579,-0.362 0.739,-0.642c0.162,-0.284 0.244,-0.633 0.244,-1.046c0,-0.413 -0.082,-0.765 -0.244,-1.057c-0.163,-0.296 -0.412,-0.519 -0.745,-0.671c-0.333,-0.155 -0.763,-0.233 -1.29,-0.233h-1.932v9.878zM59.476,35.188l2.881,5.274h-2.352l-2.831,-5.274zM67.842,28.822h2.58l3.456,8.435h0.136l3.455,-8.435h2.581v11.64h-2.024v-7.997h-0.108l-3.216,7.963h-1.512l-3.217,-7.98h-0.108v8.014h-2.023zM84.767,40.638c-0.553,0 -1.052,-0.098 -1.495,-0.295c-0.439,-0.201 -0.788,-0.497 -1.046,-0.887c-0.254,-0.39 -0.38,-0.871 -0.38,-1.444c0,-0.492 0.09,-0.899 0.272,-1.222c0.182,-0.322 0.43,-0.579 0.745,-0.772c0.314,-0.194 0.669,-0.34 1.063,-0.438c0.397,-0.102 0.809,-0.176 1.233,-0.222c0.511,-0.053 0.926,-0.1 1.245,-0.142c0.318,-0.045 0.549,-0.113 0.693,-0.204c0.148,-0.095 0.222,-0.241 0.222,-0.438v-0.034c0,-0.428 -0.127,-0.76 -0.381,-0.995c-0.254,-0.235 -0.62,-0.352 -1.097,-0.352c-0.504,0 -0.904,0.11 -1.199,0.33c-0.292,0.219 -0.489,0.479 -0.591,0.778l-1.921,-0.273c0.151,-0.53 0.401,-0.973 0.75,-1.33c0.348,-0.359 0.775,-0.628 1.279,-0.807c0.504,-0.181 1.06,-0.272 1.671,-0.272c0.42,0 0.839,0.049 1.256,0.147c0.416,0.099 0.797,0.262 1.142,0.489c0.345,0.224 0.621,0.529 0.83,0.915c0.212,0.387 0.318,0.87 0.318,1.449v5.843h-1.978v-1.199h-0.068c-0.125,0.242 -0.301,0.47 -0.529,0.682c-0.223,0.208 -0.505,0.377 -0.846,0.506c-0.338,0.125 -0.734,0.187 -1.188,0.187zM85.301,39.126c0.413,0 0.771,-0.081 1.074,-0.244c0.303,-0.167 0.536,-0.387 0.699,-0.659c0.167,-0.273 0.25,-0.571 0.25,-0.893v-1.028c-0.064,0.053 -0.174,0.102 -0.329,0.147c-0.152,0.046 -0.322,0.086 -0.512,0.12c-0.189,0.034 -0.377,0.064 -0.563,0.091c-0.185,0.026 -0.346,0.049 -0.483,0.068c-0.307,0.042 -0.581,0.11 -0.824,0.205c-0.242,0.094 -0.434,0.227 -0.574,0.397c-0.14,0.167 -0.21,0.383 -0.21,0.648c0,0.379 0.138,0.665 0.415,0.858c0.276,0.194 0.629,0.29 1.057,0.29zM93.502,35.347v5.115h-2.057v-8.73h1.966v1.484h0.102c0.201,-0.489 0.521,-0.877 0.961,-1.165c0.443,-0.288 0.991,-0.432 1.642,-0.432c0.603,0 1.127,0.128 1.575,0.386c0.45,0.258 0.799,0.631 1.045,1.12c0.25,0.489 0.374,1.081 0.37,1.779v5.558h-2.058v-5.24c0,-0.584 -0.151,-1.04 -0.454,-1.37c-0.3,-0.329 -0.715,-0.494 -1.245,-0.494c-0.36,0 -0.68,0.079 -0.96,0.238c-0.277,0.156 -0.495,0.381 -0.654,0.677c-0.155,0.295 -0.233,0.653 -0.233,1.074zM103.709,40.638c-0.553,0 -1.051,-0.098 -1.495,-0.295c-0.439,-0.201 -0.788,-0.497 -1.045,-0.887c-0.254,-0.39 -0.381,-0.871 -0.381,-1.444c0,-0.492 0.091,-0.899 0.273,-1.222c0.182,-0.322 0.43,-0.579 0.744,-0.772c0.315,-0.194 0.669,-0.34 1.063,-0.438c0.398,-0.102 0.809,-0.176 1.233,-0.222c0.512,-0.053 0.927,-0.1 1.245,-0.142c0.318,-0.045 0.549,-0.113 0.693,-0.204c0.148,-0.095 0.222,-0.241 0.222,-0.438v-0.034c0,-0.428 -0.127,-0.76 -0.381,-0.995c-0.254,-0.235 -0.619,-0.352 -1.097,-0.352c-0.504,0 -0.903,0.11 -1.199,0.33c-0.292,0.219 -0.489,0.479 -0.591,0.778l-1.921,-0.273c0.152,-0.53 0.402,-0.973 0.75,-1.33c0.349,-0.359 0.775,-0.628 1.279,-0.807c0.504,-0.181 1.061,-0.272 1.671,-0.272c0.421,0 0.839,0.049 1.256,0.147c0.417,0.099 0.798,0.262 1.142,0.489c0.345,0.224 0.622,0.529 0.83,0.915c0.212,0.387 0.318,0.87 0.318,1.449v5.843h-1.977v-1.199h-0.069c-0.125,0.242 -0.301,0.47 -0.528,0.682c-0.224,0.208 -0.506,0.377 -0.847,0.506c-0.337,0.125 -0.733,0.187 -1.188,0.187zM104.243,39.126c0.413,0 0.771,-0.081 1.075,-0.244c0.303,-0.167 0.536,-0.387 0.699,-0.659c0.166,-0.273 0.25,-0.571 0.25,-0.893v-1.028c-0.065,0.053 -0.175,0.102 -0.33,0.147c-0.151,0.046 -0.322,0.086 -0.511,0.12c-0.19,0.034 -0.377,0.064 -0.563,0.091c-0.186,0.026 -0.347,0.049 -0.483,0.068c-0.307,0.042 -0.582,0.11 -0.824,0.205c-0.243,0.094 -0.434,0.227 -0.574,0.397c-0.14,0.167 -0.211,0.383 -0.211,0.648c0,0.379 0.139,0.665 0.415,0.858c0.277,0.194 0.629,0.29 1.057,0.29zM114.184,43.917c-0.739,0 -1.374,-0.1 -1.904,-0.301c-0.531,-0.197 -0.957,-0.462 -1.279,-0.796c-0.322,-0.333 -0.546,-0.702 -0.671,-1.108l1.853,-0.449c0.083,0.171 0.205,0.339 0.364,0.506c0.159,0.171 0.373,0.311 0.642,0.421c0.273,0.113 0.616,0.17 1.029,0.17c0.583,0 1.066,-0.142 1.449,-0.426c0.383,-0.28 0.574,-0.743 0.574,-1.387v-1.654h-0.102c-0.106,0.212 -0.262,0.43 -0.466,0.654c-0.201,0.223 -0.468,0.411 -0.802,0.563c-0.329,0.151 -0.744,0.227 -1.244,0.227c-0.671,0 -1.279,-0.157 -1.825,-0.472c-0.542,-0.318 -0.974,-0.792 -1.296,-1.421c-0.318,-0.632 -0.477,-1.424 -0.477,-2.375c0,-0.959 0.159,-1.768 0.477,-2.427c0.322,-0.663 0.756,-1.165 1.302,-1.506c0.546,-0.345 1.154,-0.517 1.824,-0.517c0.512,0 0.932,0.087 1.262,0.261c0.333,0.171 0.599,0.377 0.796,0.62c0.197,0.238 0.346,0.464 0.449,0.676h0.113v-1.444h2.029v8.872c0,0.746 -0.178,1.364 -0.534,1.853c-0.356,0.489 -0.843,0.854 -1.461,1.097c-0.617,0.242 -1.318,0.363 -2.102,0.363zM114.201,38.723c0.435,0 0.807,-0.106 1.114,-0.318c0.306,-0.213 0.539,-0.518 0.699,-0.915c0.159,-0.398 0.238,-0.876 0.238,-1.433c0,-0.549 -0.079,-1.03 -0.238,-1.443c-0.156,-0.413 -0.387,-0.733 -0.694,-0.961c-0.303,-0.231 -0.676,-0.346 -1.119,-0.346c-0.459,0 -0.842,0.119 -1.148,0.358c-0.307,0.238 -0.538,0.566 -0.694,0.983c-0.155,0.413 -0.233,0.883 -0.233,1.409c0,0.535 0.078,1.002 0.233,1.404c0.159,0.398 0.392,0.709 0.699,0.932c0.311,0.22 0.692,0.33 1.143,0.33zM124.254,40.632c-0.875,0 -1.631,-0.181 -2.267,-0.545c-0.633,-0.368 -1.12,-0.887 -1.461,-1.557c-0.341,-0.675 -0.511,-1.469 -0.511,-2.382c0,-0.898 0.17,-1.686 0.511,-2.364c0.345,-0.682 0.826,-1.212 1.444,-1.591c0.617,-0.383 1.343,-0.574 2.176,-0.574c0.538,0 1.046,0.087 1.524,0.261c0.481,0.171 0.905,0.436 1.273,0.796c0.371,0.36 0.663,0.818 0.875,1.375c0.212,0.553 0.318,1.213 0.318,1.978v0.631h-7.155v-1.387h5.183c-0.004,-0.394 -0.089,-0.744 -0.256,-1.051c-0.166,-0.311 -0.4,-0.555 -0.699,-0.734c-0.295,-0.178 -0.64,-0.267 -1.034,-0.267c-0.421,0 -0.79,0.103 -1.108,0.307c-0.319,0.201 -0.567,0.466 -0.745,0.796c-0.174,0.326 -0.263,0.684 -0.267,1.074v1.211c0,0.507 0.093,0.943 0.278,1.307c0.186,0.36 0.446,0.636 0.779,0.83c0.333,0.189 0.724,0.284 1.171,0.284c0.299,0 0.57,-0.042 0.813,-0.125c0.242,-0.087 0.452,-0.214 0.63,-0.381c0.178,-0.167 0.313,-0.373 0.404,-0.62l1.921,0.216c-0.121,0.508 -0.353,0.951 -0.694,1.33c-0.337,0.375 -0.769,0.667 -1.295,0.876c-0.527,0.204 -1.129,0.306 -1.808,0.306zM129.877,40.462v-8.73h1.966v1.484h0.102c0.182,-0.5 0.483,-0.891 0.904,-1.171c0.421,-0.284 0.923,-0.426 1.506,-0.426c0.591,0 1.089,0.144 1.495,0.432c0.409,0.284 0.697,0.672 0.864,1.165h0.091c0.193,-0.485 0.519,-0.872 0.977,-1.16c0.462,-0.291 1.01,-0.437 1.643,-0.437c0.803,0 1.458,0.254 1.966,0.761c0.508,0.508 0.762,1.249 0.762,2.222v5.86h-2.064v-5.541c0,-0.542 -0.143,-0.938 -0.431,-1.188c-0.288,-0.254 -0.641,-0.381 -1.058,-0.381c-0.496,0 -0.884,0.155 -1.165,0.466c-0.276,0.307 -0.414,0.707 -0.414,1.199v5.445h-2.018v-5.627c0,-0.45 -0.136,-0.81 -0.409,-1.079c-0.269,-0.269 -0.622,-0.404 -1.057,-0.404c-0.296,0 -0.565,0.076 -0.807,0.227c-0.243,0.148 -0.436,0.358 -0.58,0.631c-0.144,0.269 -0.216,0.584 -0.216,0.944v5.308zM148.104,40.632c-0.875,0 -1.631,-0.181 -2.267,-0.545c-0.633,-0.368 -1.12,-0.887 -1.461,-1.557c-0.341,-0.675 -0.511,-1.469 -0.511,-2.382c0,-0.898 0.17,-1.686 0.511,-2.364c0.345,-0.682 0.826,-1.212 1.444,-1.591c0.617,-0.383 1.343,-0.574 2.176,-0.574c0.538,0 1.046,0.087 1.524,0.261c0.481,0.171 0.905,0.436 1.273,0.796c0.371,0.36 0.663,0.818 0.875,1.375c0.212,0.553 0.318,1.213 0.318,1.978v0.631h-7.155v-1.387h5.183c-0.004,-0.394 -0.089,-0.744 -0.256,-1.051c-0.166,-0.311 -0.399,-0.555 -0.699,-0.734c-0.295,-0.178 -0.64,-0.267 -1.034,-0.267c-0.421,0 -0.79,0.103 -1.108,0.307c-0.319,0.201 -0.567,0.466 -0.745,0.796c-0.174,0.326 -0.263,0.684 -0.267,1.074v1.211c0,0.507 0.093,0.943 0.278,1.307c0.186,0.36 0.446,0.636 0.779,0.83c0.333,0.189 0.724,0.284 1.171,0.284c0.299,0 0.57,-0.042 0.813,-0.125c0.242,-0.087 0.452,-0.214 0.63,-0.381c0.178,-0.167 0.313,-0.373 0.404,-0.62l1.921,0.216c-0.121,0.508 -0.353,0.951 -0.694,1.33c-0.337,0.375 -0.769,0.667 -1.295,0.876c-0.527,0.204 -1.129,0.306 -1.808,0.306zM155.784,35.347v5.115h-2.057v-8.73h1.966v1.484h0.102c0.201,-0.489 0.521,-0.877 0.961,-1.165c0.443,-0.288 0.991,-0.432 1.642,-0.432c0.603,0 1.127,0.128 1.575,0.386c0.45,0.258 0.799,0.631 1.045,1.12c0.25,0.489 0.373,1.081 0.37,1.779v5.558h-2.058v-5.24c0,-0.584 -0.151,-1.04 -0.454,-1.37c-0.3,-0.329 -0.715,-0.494 -1.245,-0.494c-0.36,0 -0.68,0.079 -0.96,0.238c-0.277,0.156 -0.495,0.381 -0.654,0.677c-0.155,0.295 -0.233,0.653 -0.233,1.074zM167.838,31.732v1.592h-5.018v-1.592zM164.059,29.641h2.057v8.195c0,0.277 0.042,0.489 0.125,0.637c0.087,0.144 0.201,0.242 0.341,0.295c0.14,0.053 0.296,0.08 0.466,0.08c0.129,0 0.247,-0.01 0.353,-0.029c0.11,-0.019 0.193,-0.036 0.25,-0.051l0.346,1.609c-0.109,0.038 -0.267,0.079 -0.471,0.125c-0.201,0.045 -0.447,0.072 -0.739,0.079c-0.515,0.015 -0.98,-0.062 -1.393,-0.233c-0.413,-0.174 -0.74,-0.443 -0.983,-0.807c-0.238,-0.364 -0.356,-0.818 -0.352,-1.364zM31.207,64.468h-1.409c-0.084,-0.405 -0.229,-0.761 -0.438,-1.068c-0.204,-0.307 -0.455,-0.565 -0.75,-0.773c-0.292,-0.212 -0.616,-0.371 -0.972,-0.478c-0.356,-0.106 -0.727,-0.159 -1.114,-0.159c-0.705,0 -1.343,0.178 -1.915,0.535c-0.568,0.356 -1.021,0.88 -1.358,1.574c-0.334,0.693 -0.501,1.544 -0.501,2.552c0,1.007 0.167,1.858 0.501,2.551c0.337,0.694 0.79,1.219 1.358,1.575c0.572,0.356 1.21,0.534 1.915,0.534c0.387,0 0.758,-0.053 1.114,-0.159c0.356,-0.106 0.68,-0.264 0.972,-0.472c0.295,-0.212 0.546,-0.472 0.75,-0.779c0.209,-0.31 0.354,-0.666 0.438,-1.068h1.409c-0.106,0.595 -0.299,1.127 -0.579,1.597c-0.281,0.47 -0.629,0.87 -1.046,1.199c-0.417,0.326 -0.885,0.574 -1.404,0.745c-0.515,0.17 -1.067,0.255 -1.654,0.255c-0.993,0 -1.875,-0.242 -2.648,-0.727c-0.773,-0.485 -1.381,-1.175 -1.825,-2.069c-0.443,-0.894 -0.665,-1.955 -0.665,-3.182c0,-1.228 0.222,-2.289 0.665,-3.183c0.444,-0.894 1.052,-1.584 1.825,-2.069c0.773,-0.485 1.655,-0.727 2.648,-0.727c0.587,0 1.139,0.085 1.654,0.256c0.519,0.17 0.987,0.42 1.404,0.75c0.417,0.326 0.765,0.723 1.046,1.193c0.28,0.466 0.473,0.999 0.579,1.597zM36.849,72.652c-0.788,0 -1.479,-0.187 -2.074,-0.562c-0.591,-0.376 -1.053,-0.9 -1.387,-1.575c-0.329,-0.674 -0.494,-1.462 -0.494,-2.364c0,-0.909 0.165,-1.703 0.494,-2.381c0.334,-0.679 0.796,-1.205 1.387,-1.58c0.595,-0.375 1.286,-0.563 2.074,-0.563c0.788,0 1.478,0.188 2.069,0.563c0.595,0.375 1.057,0.901 1.387,1.58c0.333,0.678 0.5,1.472 0.5,2.381c0,0.902 -0.167,1.69 -0.5,2.364c-0.33,0.675 -0.792,1.199 -1.387,1.575c-0.591,0.375 -1.281,0.562 -2.069,0.562zM36.849,71.447c0.599,0 1.092,-0.153 1.478,-0.46c0.386,-0.307 0.672,-0.71 0.858,-1.211c0.186,-0.5 0.279,-1.042 0.279,-1.625c0,-0.583 -0.093,-1.127 -0.279,-1.631c-0.186,-0.504 -0.472,-0.911 -0.858,-1.222c-0.386,-0.311 -0.879,-0.466 -1.478,-0.466c-0.598,0 -1.091,0.155 -1.477,0.466c-0.387,0.311 -0.673,0.718 -0.859,1.222c-0.185,0.504 -0.278,1.048 -0.278,1.631c0,0.583 0.093,1.125 0.278,1.625c0.186,0.501 0.472,0.904 0.859,1.211c0.386,0.307 0.879,0.46 1.477,0.46zM42.852,72.47v-8.729h1.296v1.364h0.114c0.182,-0.466 0.475,-0.828 0.881,-1.086c0.405,-0.261 0.892,-0.392 1.46,-0.392c0.576,0 1.055,0.131 1.438,0.392c0.387,0.258 0.688,0.62 0.904,1.086h0.091c0.223,-0.451 0.559,-0.809 1.006,-1.074c0.447,-0.269 0.983,-0.404 1.608,-0.404c0.781,0 1.419,0.244 1.915,0.733c0.497,0.485 0.745,1.241 0.745,2.268v5.842h-1.341v-5.842c0,-0.644 -0.177,-1.105 -0.529,-1.381c-0.352,-0.277 -0.767,-0.415 -1.245,-0.415c-0.613,0 -1.089,0.186 -1.426,0.557c-0.337,0.367 -0.506,0.833 -0.506,1.398v5.683h-1.364v-5.979c0,-0.496 -0.161,-0.896 -0.483,-1.199c-0.322,-0.307 -0.737,-0.46 -1.245,-0.46c-0.348,0 -0.674,0.093 -0.977,0.278c-0.299,0.186 -0.542,0.444 -0.728,0.773c-0.181,0.326 -0.272,0.703 -0.272,1.131v5.456zM56.762,75.744v-12.003h1.296v1.386h0.159c0.099,-0.151 0.235,-0.344 0.409,-0.579c0.178,-0.239 0.432,-0.451 0.762,-0.637c0.333,-0.189 0.784,-0.284 1.353,-0.284c0.735,0 1.382,0.184 1.943,0.551c0.561,0.368 0.999,0.889 1.313,1.563c0.315,0.675 0.472,1.47 0.472,2.387c0,0.925 -0.157,1.726 -0.472,2.404c-0.314,0.675 -0.75,1.198 -1.307,1.569c-0.557,0.367 -1.199,0.551 -1.927,0.551c-0.56,0 -1.009,-0.093 -1.347,-0.278c-0.337,-0.19 -0.596,-0.404 -0.778,-0.643c-0.182,-0.242 -0.322,-0.443 -0.421,-0.602h-0.114v4.615zM58.081,68.106c0,0.659 0.096,1.24 0.29,1.744c0.193,0.5 0.475,0.893 0.846,1.177c0.372,0.28 0.826,0.42 1.364,0.42c0.561,0 1.029,-0.147 1.404,-0.443c0.379,-0.299 0.663,-0.701 0.853,-1.205c0.193,-0.508 0.29,-1.072 0.29,-1.693c0,-0.614 -0.095,-1.167 -0.285,-1.66c-0.185,-0.496 -0.468,-0.888 -0.846,-1.176c-0.376,-0.292 -0.847,-0.438 -1.416,-0.438c-0.545,0 -1.004,0.138 -1.375,0.415c-0.371,0.273 -0.652,0.655 -0.841,1.148c-0.19,0.489 -0.284,1.059 -0.284,1.711zM67.856,60.831v11.639h-1.341v-11.639zM73.973,72.652c-0.841,0 -1.567,-0.185 -2.177,-0.557c-0.606,-0.375 -1.074,-0.898 -1.404,-1.568c-0.326,-0.675 -0.489,-1.459 -0.489,-2.353c0,-0.894 0.163,-1.683 0.489,-2.365c0.33,-0.685 0.788,-1.22 1.376,-1.602c0.591,-0.387 1.28,-0.58 2.068,-0.58c0.455,0 0.904,0.076 1.347,0.227c0.444,0.152 0.847,0.398 1.211,0.739c0.364,0.337 0.653,0.785 0.869,1.342c0.216,0.556 0.324,1.242 0.324,2.057v0.568h-6.729v-1.159h5.365c0,-0.493 -0.098,-0.932 -0.295,-1.319c-0.193,-0.386 -0.47,-0.691 -0.83,-0.915c-0.356,-0.223 -0.777,-0.335 -1.262,-0.335c-0.534,0 -0.996,0.133 -1.386,0.398c-0.387,0.261 -0.684,0.602 -0.893,1.023c-0.208,0.42 -0.312,0.871 -0.312,1.352v0.773c0,0.66 0.113,1.218 0.341,1.677c0.231,0.455 0.551,0.801 0.96,1.04c0.409,0.235 0.885,0.352 1.427,0.352c0.352,0 0.67,-0.049 0.954,-0.147c0.288,-0.103 0.537,-0.254 0.745,-0.455c0.208,-0.205 0.369,-0.459 0.483,-0.762l1.296,0.364c-0.137,0.44 -0.366,0.826 -0.688,1.159c-0.322,0.33 -0.72,0.588 -1.193,0.773c-0.474,0.182 -1.006,0.273 -1.597,0.273zM83.424,63.741v1.136h-4.524v-1.136zM80.219,61.649h1.341v8.321c0,0.379 0.055,0.663 0.165,0.852c0.113,0.186 0.257,0.311 0.432,0.375c0.178,0.061 0.365,0.091 0.562,0.091c0.148,0 0.269,-0.007 0.364,-0.023c0.095,-0.018 0.171,-0.034 0.227,-0.045l0.273,1.205c-0.091,0.034 -0.218,0.068 -0.381,0.102c-0.163,0.038 -0.369,0.057 -0.619,0.057c-0.379,0 -0.75,-0.081 -1.114,-0.244c-0.36,-0.163 -0.659,-0.411 -0.898,-0.745c-0.235,-0.333 -0.352,-0.754 -0.352,-1.262zM89.008,72.652c-0.841,0 -1.567,-0.185 -2.177,-0.557c-0.606,-0.375 -1.074,-0.898 -1.404,-1.568c-0.325,-0.675 -0.488,-1.459 -0.488,-2.353c0,-0.894 0.163,-1.683 0.488,-2.365c0.33,-0.685 0.788,-1.22 1.376,-1.602c0.591,-0.387 1.28,-0.58 2.068,-0.58c0.455,0 0.904,0.076 1.347,0.227c0.444,0.152 0.847,0.398 1.211,0.739c0.364,0.337 0.654,0.785 0.87,1.342c0.215,0.556 0.323,1.242 0.323,2.057v0.568h-6.729v-1.159h5.365c0,-0.493 -0.098,-0.932 -0.295,-1.319c-0.193,-0.386 -0.47,-0.691 -0.83,-0.915c-0.356,-0.223 -0.777,-0.335 -1.262,-0.335c-0.534,0 -0.996,0.133 -1.386,0.398c-0.387,0.261 -0.684,0.602 -0.893,1.023c-0.208,0.42 -0.312,0.871 -0.312,1.352v0.773c0,0.66 0.114,1.218 0.341,1.677c0.231,0.455 0.551,0.801 0.96,1.04c0.41,0.235 0.885,0.352 1.427,0.352c0.352,0 0.671,-0.049 0.955,-0.147c0.288,-0.103 0.536,-0.254 0.744,-0.455c0.209,-0.205 0.37,-0.459 0.483,-0.762l1.296,0.364c-0.136,0.44 -0.366,0.826 -0.688,1.159c-0.322,0.33 -0.719,0.588 -1.193,0.773c-0.474,0.182 -1.006,0.273 -1.597,0.273zM99.346,72.47v-11.639h1.409v5.183h6.206v-5.183h1.41v11.639h-1.41v-5.206h-6.206v5.206zM111.193,72.47v-11.639h3.933c0.909,0 1.655,0.155 2.239,0.466c0.583,0.307 1.015,0.729 1.296,1.267c0.28,0.538 0.42,1.15 0.42,1.836c0,0.686 -0.14,1.294 -0.42,1.824c-0.281,0.531 -0.711,0.948 -1.291,1.251c-0.579,0.299 -1.32,0.449 -2.222,0.449h-3.182v-1.273h3.137c0.621,0 1.121,-0.091 1.5,-0.273c0.383,-0.182 0.659,-0.44 0.83,-0.773c0.174,-0.337 0.261,-0.739 0.261,-1.205c0,-0.466 -0.087,-0.873 -0.261,-1.222c-0.174,-0.348 -0.453,-0.617 -0.835,-0.807c-0.383,-0.193 -0.889,-0.29 -1.518,-0.29h-2.478v10.389zM116.671,67.242l2.865,5.228h-1.637l-2.819,-5.228zM121.43,60.831h1.682l3.956,9.662h0.136l3.956,-9.662h1.682v11.639h-1.319v-8.843h-0.113l-3.638,8.843h-1.273l-3.637,-8.843h-0.114v8.843h-1.318zM142.033,63.741c-0.068,-0.576 -0.345,-1.023 -0.83,-1.342c-0.485,-0.318 -1.079,-0.477 -1.784,-0.477c-0.515,0 -0.966,0.083 -1.353,0.25c-0.382,0.167 -0.682,0.396 -0.898,0.688c-0.212,0.292 -0.318,0.623 -0.318,0.994c0,0.311 0.074,0.578 0.222,0.802c0.151,0.22 0.344,0.403 0.579,0.551c0.235,0.144 0.482,0.263 0.739,0.358c0.258,0.091 0.495,0.165 0.711,0.222l1.182,0.318c0.303,0.08 0.64,0.189 1.011,0.33c0.375,0.14 0.734,0.331 1.075,0.574c0.344,0.238 0.628,0.545 0.852,0.92c0.224,0.375 0.335,0.836 0.335,1.381c0,0.629 -0.164,1.198 -0.494,1.705c-0.326,0.508 -0.803,0.912 -1.432,1.211c-0.625,0.299 -1.385,0.449 -2.279,0.449c-0.834,0 -1.556,-0.135 -2.166,-0.404c-0.606,-0.269 -1.083,-0.644 -1.432,-1.125c-0.345,-0.481 -0.54,-1.04 -0.585,-1.676h1.455c0.038,0.439 0.185,0.803 0.443,1.091c0.261,0.284 0.591,0.496 0.989,0.636c0.401,0.137 0.833,0.205 1.296,0.205c0.538,0 1.021,-0.087 1.449,-0.262c0.428,-0.178 0.767,-0.424 1.017,-0.738c0.25,-0.319 0.375,-0.69 0.375,-1.114c0,-0.387 -0.108,-0.701 -0.324,-0.944c-0.216,-0.242 -0.5,-0.439 -0.852,-0.591c-0.352,-0.151 -0.733,-0.284 -1.142,-0.398l-1.433,-0.409c-0.909,-0.261 -1.629,-0.635 -2.159,-1.119c-0.531,-0.485 -0.796,-1.12 -0.796,-1.904c0,-0.652 0.176,-1.22 0.529,-1.705c0.356,-0.489 0.833,-0.868 1.432,-1.137c0.602,-0.273 1.275,-0.409 2.017,-0.409c0.751,0 1.417,0.134 2.001,0.403c0.583,0.265 1.046,0.629 1.387,1.091c0.344,0.463 0.526,0.987 0.545,1.575zM156.74,63.741c-0.068,-0.576 -0.345,-1.023 -0.83,-1.342c-0.485,-0.318 -1.079,-0.477 -1.784,-0.477c-0.515,0 -0.966,0.083 -1.353,0.25c-0.382,0.167 -0.682,0.396 -0.898,0.688c-0.212,0.292 -0.318,0.623 -0.318,0.994c0,0.311 0.074,0.578 0.222,0.802c0.151,0.22 0.344,0.403 0.579,0.551c0.235,0.144 0.482,0.263 0.739,0.358c0.258,0.091 0.495,0.165 0.711,0.222l1.182,0.318c0.303,0.08 0.64,0.189 1.011,0.33c0.375,0.14 0.733,0.331 1.074,0.574c0.345,0.238 0.629,0.545 0.853,0.92c0.224,0.375 0.335,0.836 0.335,1.381c0,0.629 -0.165,1.198 -0.494,1.705c-0.326,0.508 -0.803,0.912 -1.432,1.211c-0.626,0.299 -1.385,0.449 -2.279,0.449c-0.834,0 -1.556,-0.135 -2.166,-0.404c-0.606,-0.269 -1.083,-0.644 -1.432,-1.125c-0.345,-0.481 -0.54,-1.04 -0.585,-1.676h1.455c0.038,0.439 0.185,0.803 0.443,1.091c0.261,0.284 0.591,0.496 0.989,0.636c0.401,0.137 0.833,0.205 1.296,0.205c0.538,0 1.021,-0.087 1.449,-0.262c0.428,-0.178 0.767,-0.424 1.017,-0.738c0.25,-0.319 0.375,-0.69 0.375,-1.114c0,-0.387 -0.108,-0.701 -0.324,-0.944c-0.216,-0.242 -0.5,-0.439 -0.852,-0.591c-0.352,-0.151 -0.733,-0.284 -1.142,-0.398l-1.433,-0.409c-0.909,-0.261 -1.629,-0.635 -2.159,-1.119c-0.531,-0.485 -0.796,-1.12 -0.796,-1.904c0,-0.652 0.176,-1.22 0.529,-1.705c0.356,-0.489 0.833,-0.868 1.432,-1.137c0.602,-0.273 1.275,-0.409 2.017,-0.409c0.751,0 1.417,0.134 2.001,0.403c0.583,0.265 1.046,0.629 1.387,1.091c0.344,0.463 0.526,0.987 0.545,1.575zM163.945,72.652c-0.788,0 -1.479,-0.187 -2.074,-0.562c-0.591,-0.376 -1.054,-0.9 -1.387,-1.575c-0.33,-0.674 -0.494,-1.462 -0.494,-2.364c0,-0.909 0.164,-1.703 0.494,-2.381c0.333,-0.679 0.796,-1.205 1.387,-1.58c0.595,-0.375 1.286,-0.563 2.074,-0.563c0.788,0 1.478,0.188 2.069,0.563c0.595,0.375 1.057,0.901 1.387,1.58c0.333,0.678 0.5,1.472 0.5,2.381c0,0.902 -0.167,1.69 -0.5,2.364c-0.33,0.675 -0.792,1.199 -1.387,1.575c-0.591,0.375 -1.281,0.562 -2.069,0.562zM163.945,71.447c0.599,0 1.091,-0.153 1.478,-0.46c0.386,-0.307 0.672,-0.71 0.858,-1.211c0.186,-0.5 0.279,-1.042 0.279,-1.625c0,-0.583 -0.093,-1.127 -0.279,-1.631c-0.186,-0.504 -0.472,-0.911 -0.858,-1.222c-0.387,-0.311 -0.879,-0.466 -1.478,-0.466c-0.598,0 -1.091,0.155 -1.477,0.466c-0.387,0.311 -0.673,0.718 -0.859,1.222c-0.185,0.504 -0.278,1.048 -0.278,1.631c0,0.583 0.093,1.125 0.278,1.625c0.186,0.501 0.472,0.904 0.859,1.211c0.386,0.307 0.879,0.46 1.477,0.46zM171.289,60.831v11.639h-1.341v-11.639zM179.248,68.901v-5.16h1.341v8.729h-1.341v-1.477h-0.091c-0.205,0.443 -0.523,0.82 -0.955,1.131c-0.432,0.307 -0.978,0.46 -1.637,0.46c-0.546,0 -1.031,-0.119 -1.455,-0.358c-0.424,-0.243 -0.758,-0.606 -1,-1.091c-0.243,-0.489 -0.364,-1.105 -0.364,-1.847v-5.547h1.341v5.456c0,0.636 0.178,1.144 0.535,1.523c0.36,0.379 0.818,0.568 1.375,0.568c0.333,0 0.672,-0.085 1.017,-0.256c0.349,-0.17 0.641,-0.431 0.875,-0.784c0.239,-0.352 0.359,-0.801 0.359,-1.347zM186.842,63.741v1.136h-4.524v-1.136zM183.636,61.649h1.342v8.321c0,0.379 0.055,0.663 0.165,0.852c0.113,0.186 0.257,0.311 0.431,0.375c0.179,0.061 0.366,0.091 0.563,0.091c0.148,0 0.269,-0.007 0.364,-0.023c0.095,-0.018 0.17,-0.034 0.227,-0.045l0.273,1.205c-0.091,0.034 -0.218,0.068 -0.381,0.102c-0.163,0.038 -0.369,0.057 -0.619,0.057c-0.379,0 -0.75,-0.081 -1.114,-0.244c-0.36,-0.163 -0.659,-0.411 -0.898,-0.745c-0.235,-0.333 -0.353,-0.754 -0.353,-1.262zM188.859,72.47v-8.729h1.342v8.729zM189.541,62.286c-0.261,0 -0.486,-0.089 -0.676,-0.267c-0.186,-0.178 -0.278,-0.392 -0.278,-0.643c0,-0.25 0.092,-0.464 0.278,-0.642c0.19,-0.178 0.415,-0.267 0.676,-0.267c0.262,0 0.485,0.089 0.671,0.267c0.189,0.178 0.284,0.392 0.284,0.642c0,0.251 -0.095,0.465 -0.284,0.643c-0.186,0.178 -0.409,0.267 -0.671,0.267zM196.204,72.652c-0.788,0 -1.48,-0.187 -2.075,-0.562c-0.591,-0.376 -1.053,-0.9 -1.386,-1.575c-0.33,-0.674 -0.495,-1.462 -0.495,-2.364c0,-0.909 0.165,-1.703 0.495,-2.381c0.333,-0.679 0.795,-1.205 1.386,-1.58c0.595,-0.375 1.287,-0.563 2.075,-0.563c0.788,0 1.477,0.188 2.068,0.563c0.595,0.375 1.057,0.901 1.387,1.58c0.334,0.678 0.5,1.472 0.5,2.381c0,0.902 -0.166,1.69 -0.5,2.364c-0.33,0.675 -0.792,1.199 -1.387,1.575c-0.591,0.375 -1.28,0.562 -2.068,0.562zM196.204,71.447c0.598,0 1.091,-0.153 1.477,-0.46c0.387,-0.307 0.673,-0.71 0.859,-1.211c0.185,-0.5 0.278,-1.042 0.278,-1.625c0,-0.583 -0.093,-1.127 -0.278,-1.631c-0.186,-0.504 -0.472,-0.911 -0.859,-1.222c-0.386,-0.311 -0.879,-0.466 -1.477,-0.466c-0.599,0 -1.092,0.155 -1.478,0.466c-0.386,0.311 -0.673,0.718 -0.858,1.222c-0.186,0.504 -0.279,1.048 -0.279,1.631c0,0.583 0.093,1.125 0.279,1.625c0.185,0.501 0.472,0.904 0.858,1.211c0.386,0.307 0.879,0.46 1.478,0.46zM203.548,67.219v5.251h-1.341v-8.729h1.295v1.364h0.114c0.205,-0.444 0.515,-0.8 0.932,-1.069c0.417,-0.273 0.955,-0.409 1.614,-0.409c0.591,0 1.108,0.121 1.552,0.364c0.443,0.239 0.788,0.602 1.034,1.091c0.246,0.485 0.37,1.099 0.37,1.841v5.547h-1.342v-5.456c0,-0.685 -0.178,-1.22 -0.534,-1.602c-0.356,-0.387 -0.845,-0.58 -1.466,-0.58c-0.428,0 -0.811,0.093 -1.148,0.278c-0.334,0.186 -0.597,0.457 -0.79,0.813c-0.193,0.356 -0.29,0.788 -0.29,1.296z" fill="black"/>
</g>
</g></svg>