<svg viewBox="0 0 334 112" fill="none" xmlns="http://www.w3.org/2000/svg" x="0" y="0"><g id="Group 1000013362_3">
<g id="Group 1000013360_10">
<g id="Group 1000013358_10">
<rect id="Rectangle 379_10" x="0.09500000000002728" y="-9.550999999999988" width="91.8489" height="112.029" rx="25" fill="#E8F2FF"/>
<rect id="Rectangle 378_10" x="8.170000000000016" y="-9.550999999999988" width="326.013" height="112.029" rx="25" fill="#E8F2FF"/>
</g>
</g>
<g id="Group 1000013359_10">
<path id="📖 Electronic Journals Journal Management System" d="M20.229,41.582h16.005v-16.004h-16.005zM41.351,40.462v-11.64h7.571v1.768h-5.462v3.16h5.069v1.767h-5.069v3.177h5.507v1.768zM53.039,28.822v11.64h-2.057v-11.64zM59.019,40.632c-0.875,0 -1.631,-0.181 -2.267,-0.545c-0.633,-0.368 -1.12,-0.887 -1.461,-1.557c-0.341,-0.675 -0.511,-1.469 -0.511,-2.382c0,-0.898 0.17,-1.686 0.511,-2.364c0.345,-0.682 0.826,-1.212 1.444,-1.591c0.617,-0.383 1.343,-0.574 2.176,-0.574c0.538,0 1.046,0.087 1.523,0.261c0.482,0.171 0.906,0.436 1.274,0.796c0.371,0.36 0.663,0.818 0.875,1.375c0.212,0.553 0.318,1.213 0.318,1.978v0.631h-7.155v-1.387h5.183c-0.004,-0.394 -0.089,-0.744 -0.256,-1.051c-0.167,-0.311 -0.4,-0.555 -0.699,-0.734c-0.295,-0.178 -0.64,-0.267 -1.034,-0.267c-0.421,0 -0.79,0.103 -1.108,0.307c-0.319,0.201 -0.567,0.466 -0.745,0.796c-0.174,0.326 -0.263,0.684 -0.267,1.074v1.211c0,0.507 0.093,0.943 0.278,1.307c0.186,0.36 0.446,0.636 0.779,0.83c0.333,0.189 0.724,0.284 1.171,0.284c0.299,0 0.57,-0.042 0.812,-0.125c0.243,-0.087 0.453,-0.214 0.631,-0.381c0.178,-0.167 0.313,-0.373 0.404,-0.62l1.921,0.216c-0.121,0.508 -0.353,0.951 -0.694,1.33c-0.337,0.375 -0.769,0.667 -1.295,0.876c-0.527,0.204 -1.129,0.306 -1.808,0.306zM68.449,40.632c-0.871,0 -1.619,-0.191 -2.245,-0.574c-0.621,-0.382 -1.1,-0.911 -1.437,-1.585c-0.334,-0.678 -0.501,-1.459 -0.501,-2.342c0,-0.886 0.171,-1.669 0.512,-2.347c0.341,-0.682 0.822,-1.212 1.444,-1.591c0.625,-0.383 1.364,-0.574 2.216,-0.574c0.709,0 1.336,0.13 1.881,0.392c0.55,0.257 0.987,0.623 1.313,1.097c0.326,0.47 0.512,1.019 0.557,1.648h-1.966c-0.08,-0.421 -0.269,-0.771 -0.569,-1.052c-0.295,-0.284 -0.691,-0.426 -1.188,-0.426c-0.42,0 -0.79,0.114 -1.108,0.341c-0.318,0.224 -0.566,0.546 -0.744,0.966c-0.175,0.421 -0.262,0.925 -0.262,1.512c0,0.595 0.087,1.106 0.262,1.535c0.174,0.424 0.418,0.752 0.733,0.983c0.318,0.227 0.691,0.341 1.119,0.341c0.304,0 0.574,-0.057 0.813,-0.171c0.243,-0.117 0.445,-0.286 0.608,-0.505c0.163,-0.22 0.275,-0.487 0.336,-0.802h1.966c-0.049,0.618 -0.231,1.165 -0.546,1.643c-0.314,0.473 -0.742,0.845 -1.284,1.114c-0.542,0.265 -1.178,0.397 -1.91,0.397zM78.237,31.732v1.592h-5.018v-1.592zM74.458,29.641h2.057v8.195c0,0.277 0.042,0.489 0.125,0.637c0.088,0.144 0.201,0.242 0.341,0.295c0.141,0.053 0.296,0.08 0.466,0.08c0.129,0 0.247,-0.01 0.353,-0.029c0.11,-0.019 0.193,-0.036 0.25,-0.051l0.347,1.609c-0.11,0.038 -0.268,0.079 -0.472,0.125c-0.201,0.045 -0.447,0.072 -0.739,0.079c-0.515,0.015 -0.979,-0.062 -1.392,-0.233c-0.413,-0.174 -0.741,-0.443 -0.984,-0.807c-0.238,-0.364 -0.356,-0.818 -0.352,-1.364zM79.958,40.462v-8.73h1.995v1.455h0.091c0.159,-0.504 0.432,-0.892 0.818,-1.165c0.391,-0.276 0.836,-0.415 1.336,-0.415c0.113,0 0.24,0.006 0.381,0.017c0.144,0.008 0.263,0.021 0.358,0.04v1.893c-0.087,-0.031 -0.226,-0.057 -0.415,-0.08c-0.186,-0.026 -0.366,-0.04 -0.54,-0.04c-0.375,0 -0.712,0.082 -1.012,0.245c-0.295,0.159 -0.528,0.38 -0.699,0.665c-0.17,0.284 -0.256,0.612 -0.256,0.983v5.132zM89.752,40.632c-0.853,0 -1.591,-0.187 -2.217,-0.562c-0.625,-0.375 -1.11,-0.9 -1.455,-1.575c-0.341,-0.674 -0.511,-1.462 -0.511,-2.364c0,-0.902 0.17,-1.692 0.511,-2.37c0.345,-0.678 0.83,-1.205 1.455,-1.58c0.626,-0.375 1.364,-0.562 2.217,-0.562c0.852,0 1.591,0.187 2.216,0.562c0.625,0.375 1.109,0.902 1.45,1.58c0.344,0.678 0.517,1.468 0.517,2.37c0,0.902 -0.173,1.69 -0.517,2.364c-0.341,0.675 -0.825,1.2 -1.45,1.575c-0.625,0.375 -1.364,0.562 -2.216,0.562zM89.763,38.984c0.462,0 0.849,-0.127 1.16,-0.381c0.31,-0.257 0.541,-0.602 0.693,-1.034c0.155,-0.432 0.233,-0.913 0.233,-1.443c0,-0.535 -0.078,-1.018 -0.233,-1.45c-0.152,-0.435 -0.383,-0.782 -0.693,-1.04c-0.311,-0.257 -0.698,-0.386 -1.16,-0.386c-0.473,0 -0.867,0.129 -1.182,0.386c-0.311,0.258 -0.544,0.605 -0.699,1.04c-0.152,0.432 -0.227,0.915 -0.227,1.45c0,0.53 0.075,1.011 0.227,1.443c0.155,0.432 0.388,0.777 0.699,1.034c0.315,0.254 0.709,0.381 1.182,0.381zM97.738,35.347v5.115h-2.057v-8.73h1.966v1.484h0.103c0.2,-0.489 0.521,-0.877 0.96,-1.165c0.443,-0.288 0.991,-0.432 1.643,-0.432c0.602,0 1.127,0.128 1.574,0.386c0.451,0.258 0.799,0.631 1.046,1.12c0.25,0.489 0.373,1.081 0.369,1.779v5.558h-2.057v-5.24c0,-0.584 -0.152,-1.04 -0.455,-1.37c-0.299,-0.329 -0.714,-0.494 -1.245,-0.494c-0.36,0 -0.68,0.079 -0.96,0.238c-0.277,0.156 -0.495,0.381 -0.654,0.677c-0.155,0.295 -0.233,0.653 -0.233,1.074zM105.434,40.462v-8.73h2.057v8.73zM106.468,30.493c-0.326,0 -0.606,-0.108 -0.841,-0.324c-0.235,-0.219 -0.353,-0.483 -0.353,-0.79c0,-0.31 0.118,-0.574 0.353,-0.79c0.235,-0.219 0.515,-0.329 0.841,-0.329c0.33,0 0.61,0.11 0.841,0.329c0.235,0.216 0.352,0.48 0.352,0.79c0,0.307 -0.117,0.571 -0.352,0.79c-0.231,0.216 -0.511,0.324 -0.841,0.324zM113.414,40.632c-0.871,0 -1.619,-0.191 -2.245,-0.574c-0.621,-0.382 -1.1,-0.911 -1.437,-1.585c-0.334,-0.678 -0.501,-1.459 -0.501,-2.342c0,-0.886 0.171,-1.669 0.512,-2.347c0.341,-0.682 0.822,-1.212 1.443,-1.591c0.626,-0.383 1.364,-0.574 2.217,-0.574c0.708,0 1.336,0.13 1.881,0.392c0.55,0.257 0.987,0.623 1.313,1.097c0.326,0.47 0.511,1.019 0.557,1.648h-1.966c-0.08,-0.421 -0.27,-0.771 -0.569,-1.052c-0.295,-0.284 -0.691,-0.426 -1.188,-0.426c-0.42,0 -0.79,0.114 -1.108,0.341c-0.318,0.224 -0.566,0.546 -0.744,0.966c-0.175,0.421 -0.262,0.925 -0.262,1.512c0,0.595 0.087,1.106 0.262,1.535c0.174,0.424 0.418,0.752 0.733,0.983c0.318,0.227 0.691,0.341 1.119,0.341c0.303,0 0.574,-0.057 0.813,-0.171c0.243,-0.117 0.445,-0.286 0.608,-0.505c0.163,-0.22 0.275,-0.487 0.336,-0.802h1.966c-0.049,0.618 -0.231,1.165 -0.546,1.643c-0.314,0.473 -0.742,0.845 -1.284,1.114c-0.542,0.265 -1.178,0.397 -1.91,0.397zM127.496,28.822h2.092v8.184c-0.004,0.751 -0.163,1.397 -0.478,1.938c-0.314,0.538 -0.754,0.953 -1.318,1.245c-0.561,0.288 -1.215,0.432 -1.961,0.432c-0.682,0 -1.296,-0.121 -1.841,-0.364c-0.542,-0.246 -0.972,-0.61 -1.291,-1.091c-0.318,-0.481 -0.477,-1.08 -0.477,-1.796h2.097c0.004,0.315 0.072,0.586 0.205,0.813c0.136,0.227 0.324,0.402 0.562,0.523c0.239,0.121 0.514,0.182 0.824,0.182c0.338,0 0.624,-0.07 0.859,-0.211c0.235,-0.144 0.413,-0.356 0.534,-0.636c0.125,-0.281 0.189,-0.625 0.193,-1.035zM135.592,40.632c-0.852,0 -1.591,-0.187 -2.216,-0.562c-0.626,-0.375 -1.111,-0.9 -1.455,-1.575c-0.341,-0.674 -0.512,-1.462 -0.512,-2.364c0,-0.902 0.171,-1.692 0.512,-2.37c0.344,-0.678 0.829,-1.205 1.455,-1.58c0.625,-0.375 1.364,-0.562 2.216,-0.562c0.853,0 1.591,0.187 2.216,0.562c0.626,0.375 1.109,0.902 1.45,1.58c0.345,0.678 0.517,1.468 0.517,2.37c0,0.902 -0.172,1.69 -0.517,2.364c-0.341,0.675 -0.824,1.2 -1.45,1.575c-0.625,0.375 -1.363,0.562 -2.216,0.562zM135.603,38.984c0.463,0 0.849,-0.127 1.16,-0.381c0.31,-0.257 0.542,-0.602 0.693,-1.034c0.155,-0.432 0.233,-0.913 0.233,-1.443c0,-0.535 -0.078,-1.018 -0.233,-1.45c-0.151,-0.435 -0.383,-0.782 -0.693,-1.04c-0.311,-0.257 -0.697,-0.386 -1.16,-0.386c-0.473,0 -0.867,0.129 -1.182,0.386c-0.31,0.258 -0.543,0.605 -0.699,1.04c-0.151,0.432 -0.227,0.915 -0.227,1.45c0,0.53 0.076,1.011 0.227,1.443c0.156,0.432 0.389,0.777 0.699,1.034c0.315,0.254 0.709,0.381 1.182,0.381zM147.085,36.79v-5.058h2.057v8.73h-1.994v-1.552h-0.091c-0.197,0.489 -0.521,0.889 -0.972,1.2c-0.447,0.31 -0.999,0.466 -1.654,0.466c-0.572,0 -1.078,-0.127 -1.517,-0.381c-0.436,-0.258 -0.777,-0.631 -1.023,-1.12c-0.247,-0.492 -0.37,-1.087 -0.37,-1.784v-5.559h2.057v5.24c0,0.554 0.152,0.993 0.455,1.319c0.303,0.326 0.701,0.489 1.194,0.489c0.303,0 0.596,-0.074 0.881,-0.222c0.284,-0.148 0.517,-0.368 0.699,-0.659c0.185,-0.296 0.278,-0.665 0.278,-1.109zM151.258,40.462v-8.73h1.995v1.455h0.091c0.159,-0.504 0.432,-0.892 0.818,-1.165c0.39,-0.276 0.836,-0.415 1.336,-0.415c0.113,0 0.24,0.006 0.381,0.017c0.144,0.008 0.263,0.021 0.358,0.04v1.893c-0.088,-0.031 -0.226,-0.057 -0.415,-0.08c-0.186,-0.026 -0.366,-0.04 -0.54,-0.04c-0.375,0 -0.712,0.082 -1.012,0.245c-0.295,0.159 -0.528,0.38 -0.699,0.665c-0.17,0.284 -0.256,0.612 -0.256,0.983v5.132zM159.661,35.347v5.115h-2.058v-8.73h1.967v1.484h0.102c0.201,-0.489 0.521,-0.877 0.961,-1.165c0.443,-0.288 0.99,-0.432 1.642,-0.432c0.603,0 1.127,0.128 1.574,0.386c0.451,0.258 0.8,0.631 1.046,1.12c0.25,0.489 0.373,1.081 0.37,1.779v5.558h-2.058v-5.24c0,-0.584 -0.151,-1.04 -0.454,-1.37c-0.3,-0.329 -0.715,-0.494 -1.245,-0.494c-0.36,0 -0.68,0.079 -0.961,0.238c-0.276,0.156 -0.494,0.381 -0.653,0.677c-0.155,0.295 -0.233,0.653 -0.233,1.074zM169.868,40.638c-0.553,0 -1.051,-0.098 -1.495,-0.295c-0.439,-0.201 -0.788,-0.497 -1.045,-0.887c-0.254,-0.39 -0.381,-0.871 -0.381,-1.444c0,-0.492 0.091,-0.899 0.273,-1.222c0.182,-0.322 0.43,-0.579 0.744,-0.772c0.315,-0.194 0.669,-0.34 1.063,-0.438c0.398,-0.102 0.809,-0.176 1.233,-0.222c0.512,-0.053 0.927,-0.1 1.245,-0.142c0.318,-0.045 0.549,-0.113 0.693,-0.204c0.148,-0.095 0.222,-0.241 0.222,-0.438v-0.034c0,-0.428 -0.127,-0.76 -0.381,-0.995c-0.254,-0.235 -0.619,-0.352 -1.097,-0.352c-0.504,0 -0.903,0.11 -1.199,0.33c-0.292,0.219 -0.489,0.479 -0.591,0.778l-1.921,-0.273c0.152,-0.53 0.402,-0.973 0.75,-1.33c0.349,-0.359 0.775,-0.628 1.279,-0.807c0.504,-0.181 1.061,-0.272 1.671,-0.272c0.42,0 0.839,0.049 1.256,0.147c0.417,0.099 0.797,0.262 1.142,0.489c0.345,0.224 0.622,0.529 0.83,0.915c0.212,0.387 0.318,0.87 0.318,1.449v5.843h-1.978v-1.199h-0.068c-0.125,0.242 -0.301,0.47 -0.528,0.682c-0.224,0.208 -0.506,0.377 -0.847,0.506c-0.337,0.125 -0.733,0.187 -1.188,0.187zM170.402,39.126c0.413,0 0.771,-0.081 1.074,-0.244c0.304,-0.167 0.537,-0.387 0.699,-0.659c0.167,-0.273 0.251,-0.571 0.251,-0.893v-1.028c-0.065,0.053 -0.175,0.102 -0.33,0.147c-0.152,0.046 -0.322,0.086 -0.512,0.12c-0.189,0.034 -0.377,0.064 -0.562,0.091c-0.186,0.026 -0.347,0.049 -0.483,0.068c-0.307,0.042 -0.582,0.11 -0.824,0.205c-0.243,0.094 -0.434,0.227 -0.574,0.397c-0.141,0.167 -0.211,0.383 -0.211,0.648c0,0.379 0.139,0.665 0.415,0.858c0.277,0.194 0.629,0.29 1.057,0.29zM178.603,28.822v11.64h-2.057v-11.64zM187.618,34.04l-1.875,0.204c-0.053,-0.189 -0.146,-0.367 -0.279,-0.534c-0.128,-0.167 -0.303,-0.301 -0.522,-0.403c-0.22,-0.103 -0.489,-0.154 -0.807,-0.154c-0.429,0 -0.788,0.093 -1.08,0.279c-0.288,0.185 -0.43,0.426 -0.426,0.721c-0.004,0.254 0.089,0.461 0.278,0.62c0.193,0.159 0.511,0.29 0.955,0.392l1.489,0.318c0.826,0.178 1.44,0.461 1.841,0.847c0.406,0.387 0.61,0.892 0.614,1.518c-0.004,0.549 -0.165,1.034 -0.483,1.455c-0.315,0.416 -0.752,0.742 -1.313,0.977c-0.561,0.235 -1.205,0.352 -1.932,0.352c-1.069,0 -1.929,-0.223 -2.58,-0.67c-0.652,-0.451 -1.041,-1.078 -1.166,-1.881l2.007,-0.194c0.091,0.394 0.284,0.692 0.579,0.893c0.296,0.2 0.68,0.301 1.154,0.301c0.489,0 0.881,-0.101 1.177,-0.301c0.299,-0.201 0.449,-0.449 0.449,-0.745c0,-0.25 -0.097,-0.456 -0.29,-0.619c-0.19,-0.163 -0.485,-0.288 -0.887,-0.375l-1.489,-0.313c-0.837,-0.174 -1.457,-0.468 -1.858,-0.881c-0.402,-0.417 -0.601,-0.943 -0.597,-1.58c-0.004,-0.538 0.142,-1.004 0.437,-1.398c0.3,-0.398 0.715,-0.705 1.245,-0.921c0.534,-0.219 1.15,-0.329 1.847,-0.329c1.023,0 1.828,0.218 2.416,0.653c0.591,0.436 0.956,1.025 1.096,1.768zM26.094,60.831h1.41v8.32c0,0.743 -0.136,1.374 -0.409,1.893c-0.273,0.519 -0.658,0.913 -1.154,1.182c-0.496,0.269 -1.082,0.403 -1.756,0.403c-0.637,0 -1.203,-0.115 -1.699,-0.346c-0.497,-0.235 -0.887,-0.569 -1.171,-1.001c-0.284,-0.431 -0.426,-0.945 -0.426,-1.54h1.386c0,0.33 0.082,0.618 0.245,0.864c0.166,0.243 0.394,0.432 0.682,0.569c0.288,0.136 0.615,0.204 0.983,0.204c0.405,0 0.75,-0.085 1.034,-0.256c0.284,-0.17 0.5,-0.42 0.648,-0.75c0.152,-0.333 0.227,-0.741 0.227,-1.222zM33.693,72.652c-0.788,0 -1.479,-0.187 -2.074,-0.562c-0.591,-0.376 -1.054,-0.9 -1.387,-1.575c-0.33,-0.674 -0.495,-1.462 -0.495,-2.364c0,-0.909 0.165,-1.703 0.495,-2.381c0.333,-0.679 0.796,-1.205 1.387,-1.58c0.595,-0.375 1.286,-0.563 2.074,-0.563c0.788,0 1.478,0.188 2.069,0.563c0.595,0.375 1.057,0.901 1.387,1.58c0.333,0.678 0.5,1.472 0.5,2.381c0,0.902 -0.167,1.69 -0.5,2.364c-0.33,0.675 -0.792,1.199 -1.387,1.575c-0.591,0.375 -1.281,0.562 -2.069,0.562zM33.693,71.447c0.599,0 1.091,-0.153 1.478,-0.46c0.386,-0.307 0.672,-0.71 0.858,-1.211c0.186,-0.5 0.278,-1.042 0.278,-1.625c0,-0.583 -0.092,-1.127 -0.278,-1.631c-0.186,-0.504 -0.472,-0.911 -0.858,-1.222c-0.387,-0.311 -0.879,-0.466 -1.478,-0.466c-0.599,0 -1.091,0.155 -1.478,0.466c-0.386,0.311 -0.672,0.718 -0.858,1.222c-0.185,0.504 -0.278,1.048 -0.278,1.631c0,0.583 0.093,1.125 0.278,1.625c0.186,0.501 0.472,0.904 0.858,1.211c0.387,0.307 0.879,0.46 1.478,0.46zM45.198,68.901v-5.16h1.341v8.729h-1.341v-1.477h-0.091c-0.205,0.443 -0.523,0.82 -0.955,1.131c-0.432,0.307 -0.978,0.46 -1.637,0.46c-0.546,0 -1.031,-0.119 -1.455,-0.358c-0.424,-0.243 -0.758,-0.606 -1,-1.091c-0.243,-0.489 -0.364,-1.105 -0.364,-1.847v-5.547h1.341v5.456c0,0.636 0.178,1.144 0.535,1.523c0.36,0.379 0.818,0.568 1.375,0.568c0.333,0 0.672,-0.085 1.017,-0.256c0.349,-0.17 0.641,-0.431 0.875,-0.784c0.239,-0.352 0.359,-0.801 0.359,-1.347zM48.995,72.47v-8.729h1.296v1.318h0.091c0.159,-0.432 0.447,-0.782 0.864,-1.051c0.417,-0.269 0.887,-0.404 1.409,-0.404c0.099,0 0.222,0.002 0.37,0.006c0.148,0.004 0.259,0.01 0.335,0.017v1.364c-0.045,-0.011 -0.149,-0.028 -0.312,-0.051c-0.16,-0.027 -0.328,-0.04 -0.506,-0.04c-0.425,0 -0.803,0.089 -1.137,0.267c-0.33,0.175 -0.591,0.417 -0.784,0.728c-0.19,0.307 -0.284,0.657 -0.284,1.051v5.524zM56.291,67.219v5.251h-1.341v-8.729h1.296v1.364h0.114c0.204,-0.444 0.515,-0.8 0.932,-1.069c0.416,-0.273 0.954,-0.409 1.614,-0.409c0.591,0 1.108,0.121 1.551,0.364c0.444,0.239 0.788,0.602 1.035,1.091c0.246,0.485 0.369,1.099 0.369,1.841v5.547h-1.341v-5.456c0,-0.685 -0.178,-1.22 -0.535,-1.602c-0.356,-0.387 -0.844,-0.58 -1.466,-0.58c-0.428,0 -0.811,0.093 -1.148,0.278c-0.333,0.186 -0.597,0.457 -0.79,0.813c-0.193,0.356 -0.29,0.788 -0.29,1.296zM66.881,72.675c-0.553,0 -1.055,-0.104 -1.506,-0.313c-0.451,-0.212 -0.809,-0.517 -1.074,-0.915c-0.266,-0.401 -0.398,-0.886 -0.398,-1.455c0,-0.5 0.098,-0.905 0.295,-1.216c0.197,-0.314 0.461,-0.561 0.79,-0.739c0.33,-0.178 0.694,-0.31 1.091,-0.398c0.402,-0.09 0.806,-0.162 1.211,-0.215c0.53,-0.069 0.96,-0.12 1.29,-0.154c0.334,-0.038 0.576,-0.1 0.728,-0.187c0.155,-0.088 0.233,-0.239 0.233,-0.455v-0.046c0,-0.56 -0.154,-0.996 -0.461,-1.307c-0.303,-0.31 -0.763,-0.466 -1.381,-0.466c-0.64,0 -1.142,0.14 -1.506,0.421c-0.364,0.28 -0.619,0.579 -0.767,0.898l-1.273,-0.455c0.227,-0.53 0.53,-0.943 0.909,-1.239c0.383,-0.299 0.8,-0.508 1.25,-0.625c0.455,-0.121 0.902,-0.182 1.342,-0.182c0.28,0 0.602,0.034 0.966,0.102c0.367,0.065 0.722,0.199 1.063,0.404c0.344,0.204 0.63,0.513 0.858,0.926c0.227,0.413 0.341,0.966 0.341,1.66v5.751h-1.341v-1.182h-0.069c-0.091,0.19 -0.242,0.392 -0.454,0.608c-0.212,0.216 -0.495,0.4 -0.847,0.552c-0.352,0.151 -0.783,0.227 -1.29,0.227zM67.085,71.47c0.531,0 0.978,-0.104 1.342,-0.313c0.367,-0.208 0.644,-0.477 0.829,-0.807c0.19,-0.329 0.285,-0.676 0.285,-1.04v-1.227c-0.057,0.068 -0.182,0.131 -0.376,0.187c-0.189,0.053 -0.409,0.101 -0.659,0.142c-0.246,0.038 -0.487,0.072 -0.722,0.103c-0.231,0.026 -0.418,0.049 -0.562,0.068c-0.349,0.045 -0.675,0.119 -0.978,0.222c-0.299,0.098 -0.542,0.248 -0.727,0.449c-0.182,0.197 -0.273,0.466 -0.273,0.807c0,0.466 0.172,0.818 0.517,1.057c0.349,0.235 0.79,0.352 1.324,0.352zM74.671,60.831v11.639h-1.341v-11.639zM81.811,60.831h1.682l3.956,9.662h0.136l3.956,-9.662h1.682v11.639h-1.319v-8.843h-0.113l-3.638,8.843h-1.273l-3.637,-8.843h-0.114v8.843h-1.318zM98.436,72.675c-0.553,0 -1.055,-0.104 -1.506,-0.313c-0.451,-0.212 -0.809,-0.517 -1.074,-0.915c-0.266,-0.401 -0.398,-0.886 -0.398,-1.455c0,-0.5 0.098,-0.905 0.295,-1.216c0.197,-0.314 0.461,-0.561 0.79,-0.739c0.33,-0.178 0.694,-0.31 1.092,-0.398c0.401,-0.09 0.805,-0.162 1.21,-0.215c0.531,-0.069 0.961,-0.12 1.29,-0.154c0.334,-0.038 0.576,-0.1 0.728,-0.187c0.155,-0.088 0.233,-0.239 0.233,-0.455v-0.046c0,-0.56 -0.154,-0.996 -0.461,-1.307c-0.303,-0.31 -0.763,-0.466 -1.381,-0.466c-0.64,0 -1.142,0.14 -1.506,0.421c-0.363,0.28 -0.619,0.579 -0.767,0.898l-1.273,-0.455c0.227,-0.53 0.53,-0.943 0.909,-1.239c0.383,-0.299 0.8,-0.508 1.251,-0.625c0.454,-0.121 0.901,-0.182 1.341,-0.182c0.28,0 0.602,0.034 0.966,0.102c0.368,0.065 0.722,0.199 1.063,0.404c0.345,0.204 0.631,0.513 0.858,0.926c0.227,0.413 0.341,0.966 0.341,1.66v5.751h-1.341v-1.182h-0.068c-0.091,0.19 -0.243,0.392 -0.455,0.608c-0.212,0.216 -0.495,0.4 -0.847,0.552c-0.352,0.151 -0.782,0.227 -1.29,0.227zM98.641,71.47c0.53,0 0.977,-0.104 1.341,-0.313c0.367,-0.208 0.644,-0.477 0.83,-0.807c0.189,-0.329 0.284,-0.676 0.284,-1.04v-1.227c-0.057,0.068 -0.182,0.131 -0.375,0.187c-0.19,0.053 -0.41,0.101 -0.66,0.142c-0.246,0.038 -0.487,0.072 -0.721,0.103c-0.232,0.026 -0.419,0.049 -0.563,0.068c-0.349,0.045 -0.674,0.119 -0.978,0.222c-0.299,0.098 -0.541,0.248 -0.727,0.449c-0.182,0.197 -0.273,0.466 -0.273,0.807c0,0.466 0.173,0.818 0.517,1.057c0.349,0.235 0.79,0.352 1.325,0.352zM106.226,67.219v5.251h-1.341v-8.729h1.296v1.364h0.114c0.204,-0.444 0.515,-0.8 0.932,-1.069c0.416,-0.273 0.954,-0.409 1.614,-0.409c0.591,0 1.108,0.121 1.551,0.364c0.444,0.239 0.788,0.602 1.035,1.091c0.246,0.485 0.369,1.099 0.369,1.841v5.547h-1.341v-5.456c0,-0.685 -0.178,-1.22 -0.535,-1.602c-0.356,-0.387 -0.844,-0.58 -1.466,-0.58c-0.428,0 -0.811,0.093 -1.148,0.278c-0.333,0.186 -0.597,0.457 -0.79,0.813c-0.193,0.356 -0.29,0.788 -0.29,1.296zM116.816,72.675c-0.553,0 -1.055,-0.104 -1.506,-0.313c-0.451,-0.212 -0.809,-0.517 -1.074,-0.915c-0.266,-0.401 -0.398,-0.886 -0.398,-1.455c0,-0.5 0.098,-0.905 0.295,-1.216c0.197,-0.314 0.461,-0.561 0.79,-0.739c0.33,-0.178 0.694,-0.31 1.091,-0.398c0.402,-0.09 0.806,-0.162 1.211,-0.215c0.53,-0.069 0.96,-0.12 1.29,-0.154c0.334,-0.038 0.576,-0.1 0.728,-0.187c0.155,-0.088 0.233,-0.239 0.233,-0.455v-0.046c0,-0.56 -0.154,-0.996 -0.461,-1.307c-0.303,-0.31 -0.763,-0.466 -1.381,-0.466c-0.64,0 -1.142,0.14 -1.506,0.421c-0.364,0.28 -0.619,0.579 -0.767,0.898l-1.273,-0.455c0.227,-0.53 0.53,-0.943 0.909,-1.239c0.383,-0.299 0.8,-0.508 1.25,-0.625c0.455,-0.121 0.902,-0.182 1.342,-0.182c0.28,0 0.602,0.034 0.966,0.102c0.367,0.065 0.722,0.199 1.063,0.404c0.344,0.204 0.63,0.513 0.858,0.926c0.227,0.413 0.341,0.966 0.341,1.66v5.751h-1.341v-1.182h-0.069c-0.091,0.19 -0.242,0.392 -0.454,0.608c-0.212,0.216 -0.495,0.4 -0.847,0.552c-0.352,0.151 -0.783,0.227 -1.29,0.227zM117.02,71.47c0.531,0 0.978,-0.104 1.342,-0.313c0.367,-0.208 0.644,-0.477 0.829,-0.807c0.19,-0.329 0.285,-0.676 0.285,-1.04v-1.227c-0.057,0.068 -0.182,0.131 -0.376,0.187c-0.189,0.053 -0.409,0.101 -0.659,0.142c-0.246,0.038 -0.487,0.072 -0.722,0.103c-0.231,0.026 -0.418,0.049 -0.562,0.068c-0.349,0.045 -0.675,0.119 -0.978,0.222c-0.299,0.098 -0.542,0.248 -0.727,0.449c-0.182,0.197 -0.273,0.466 -0.273,0.807c0,0.466 0.172,0.818 0.517,1.057c0.349,0.235 0.79,0.352 1.324,0.352zM126.789,75.926c-0.648,0 -1.205,-0.084 -1.671,-0.25c-0.466,-0.163 -0.855,-0.379 -1.165,-0.648c-0.307,-0.265 -0.552,-0.55 -0.734,-0.853l1.069,-0.75c0.121,0.159 0.275,0.341 0.46,0.546c0.186,0.208 0.44,0.388 0.762,0.54c0.326,0.155 0.752,0.233 1.279,0.233c0.704,0 1.286,-0.171 1.744,-0.512c0.459,-0.341 0.688,-0.875 0.688,-1.603v-1.773h-0.114c-0.098,0.159 -0.238,0.356 -0.42,0.591c-0.178,0.231 -0.436,0.438 -0.773,0.62c-0.334,0.178 -0.784,0.267 -1.353,0.267c-0.705,0 -1.337,-0.167 -1.898,-0.5c-0.557,-0.334 -0.998,-0.819 -1.324,-1.455c-0.322,-0.637 -0.483,-1.41 -0.483,-2.319c0,-0.894 0.157,-1.673 0.471,-2.336c0.315,-0.667 0.753,-1.182 1.313,-1.546c0.561,-0.367 1.209,-0.551 1.944,-0.551c0.568,0 1.019,0.095 1.353,0.284c0.337,0.186 0.594,0.398 0.773,0.637c0.181,0.235 0.322,0.428 0.42,0.579h0.136v-1.386h1.296v8.979c0,0.751 -0.17,1.361 -0.511,1.83c-0.337,0.474 -0.792,0.821 -1.364,1.04c-0.569,0.224 -1.201,0.336 -1.898,0.336zM126.743,71.129c0.538,0 0.993,-0.123 1.364,-0.369c0.371,-0.247 0.654,-0.601 0.847,-1.063c0.193,-0.462 0.29,-1.016 0.29,-1.66c0,-0.629 -0.095,-1.184 -0.284,-1.665c-0.19,-0.481 -0.47,-0.858 -0.842,-1.131c-0.371,-0.273 -0.829,-0.409 -1.375,-0.409c-0.568,0 -1.042,0.144 -1.421,0.432c-0.375,0.288 -0.657,0.674 -0.847,1.159c-0.185,0.485 -0.278,1.023 -0.278,1.614c0,0.607 0.095,1.143 0.284,1.609c0.193,0.462 0.478,0.826 0.853,1.091c0.379,0.261 0.848,0.392 1.409,0.392zM136.678,72.652c-0.842,0 -1.567,-0.185 -2.177,-0.557c-0.606,-0.375 -1.074,-0.898 -1.404,-1.568c-0.326,-0.675 -0.489,-1.459 -0.489,-2.353c0,-0.894 0.163,-1.683 0.489,-2.365c0.33,-0.685 0.788,-1.22 1.375,-1.602c0.591,-0.387 1.281,-0.58 2.069,-0.58c0.455,0 0.904,0.076 1.347,0.227c0.443,0.152 0.847,0.398 1.211,0.739c0.363,0.337 0.653,0.785 0.869,1.342c0.216,0.556 0.324,1.242 0.324,2.057v0.568h-6.729v-1.159h5.365c0,-0.493 -0.098,-0.932 -0.295,-1.319c-0.194,-0.386 -0.47,-0.691 -0.83,-0.915c-0.356,-0.223 -0.777,-0.335 -1.262,-0.335c-0.534,0 -0.996,0.133 -1.387,0.398c-0.386,0.261 -0.683,0.602 -0.892,1.023c-0.208,0.42 -0.312,0.871 -0.312,1.352v0.773c0,0.66 0.113,1.218 0.341,1.677c0.231,0.455 0.551,0.801 0.96,1.04c0.409,0.235 0.885,0.352 1.427,0.352c0.352,0 0.67,-0.049 0.954,-0.147c0.288,-0.103 0.536,-0.254 0.745,-0.455c0.208,-0.205 0.369,-0.459 0.483,-0.762l1.296,0.364c-0.137,0.44 -0.366,0.826 -0.688,1.159c-0.322,0.33 -0.72,0.588 -1.193,0.773c-0.474,0.182 -1.006,0.273 -1.597,0.273zM142.332,72.47v-8.729h1.296v1.364h0.114c0.182,-0.466 0.475,-0.828 0.881,-1.086c0.405,-0.261 0.892,-0.392 1.46,-0.392c0.576,0 1.056,0.131 1.438,0.392c0.387,0.258 0.688,0.62 0.904,1.086h0.091c0.223,-0.451 0.559,-0.809 1.006,-1.074c0.447,-0.269 0.983,-0.404 1.608,-0.404c0.781,0 1.419,0.244 1.915,0.733c0.497,0.485 0.745,1.241 0.745,2.268v5.842h-1.341v-5.842c0,-0.644 -0.176,-1.105 -0.529,-1.381c-0.352,-0.277 -0.767,-0.415 -1.244,-0.415c-0.614,0 -1.09,0.186 -1.427,0.557c-0.337,0.367 -0.506,0.833 -0.506,1.398v5.683h-1.364v-5.979c0,-0.496 -0.161,-0.896 -0.483,-1.199c-0.322,-0.307 -0.737,-0.46 -1.245,-0.46c-0.348,0 -0.674,0.093 -0.977,0.278c-0.299,0.186 -0.542,0.444 -0.728,0.773c-0.181,0.326 -0.272,0.703 -0.272,1.131v5.456zM159.902,72.652c-0.841,0 -1.566,-0.185 -2.176,-0.557c-0.607,-0.375 -1.074,-0.898 -1.404,-1.568c-0.326,-0.675 -0.489,-1.459 -0.489,-2.353c0,-0.894 0.163,-1.683 0.489,-2.365c0.33,-0.685 0.788,-1.22 1.375,-1.602c0.591,-0.387 1.281,-0.58 2.069,-0.58c0.455,0 0.904,0.076 1.347,0.227c0.443,0.152 0.847,0.398 1.21,0.739c0.364,0.337 0.654,0.785 0.87,1.342c0.216,0.556 0.324,1.242 0.324,2.057v0.568h-6.729v-1.159h5.365c0,-0.493 -0.099,-0.932 -0.296,-1.319c-0.193,-0.386 -0.469,-0.691 -0.829,-0.915c-0.356,-0.223 -0.777,-0.335 -1.262,-0.335c-0.534,0 -0.997,0.133 -1.387,0.398c-0.386,0.261 -0.684,0.602 -0.892,1.023c-0.208,0.42 -0.313,0.871 -0.313,1.352v0.773c0,0.66 0.114,1.218 0.341,1.677c0.232,0.455 0.552,0.801 0.961,1.04c0.409,0.235 0.885,0.352 1.426,0.352c0.353,0 0.671,-0.049 0.955,-0.147c0.288,-0.103 0.536,-0.254 0.745,-0.455c0.208,-0.205 0.369,-0.459 0.483,-0.762l1.296,0.364c-0.137,0.44 -0.366,0.826 -0.688,1.159c-0.322,0.33 -0.72,0.588 -1.194,0.773c-0.473,0.182 -1.006,0.273 -1.597,0.273zM166.899,67.219v5.251h-1.342v-8.729h1.296v1.364h0.114c0.204,-0.444 0.515,-0.8 0.932,-1.069c0.417,-0.273 0.955,-0.409 1.614,-0.409c0.591,0 1.108,0.121 1.551,0.364c0.444,0.239 0.788,0.602 1.035,1.091c0.246,0.485 0.369,1.099 0.369,1.841v5.547h-1.341v-5.456c0,-0.685 -0.178,-1.22 -0.534,-1.602c-0.356,-0.387 -0.845,-0.58 -1.467,-0.58c-0.428,0 -0.81,0.093 -1.148,0.278c-0.333,0.186 -0.596,0.457 -0.79,0.813c-0.193,0.356 -0.289,0.788 -0.289,1.296zM178.716,63.741v1.136h-4.524v-1.136zM175.51,61.649h1.341v8.321c0,0.379 0.055,0.663 0.165,0.852c0.114,0.186 0.258,0.311 0.432,0.375c0.178,0.061 0.366,0.091 0.563,0.091c0.148,0 0.269,-0.007 0.364,-0.023c0.094,-0.018 0.17,-0.034 0.227,-0.045l0.273,1.205c-0.091,0.034 -0.218,0.068 -0.381,0.102c-0.163,0.038 -0.37,0.057 -0.62,0.057c-0.378,0 -0.75,-0.081 -1.114,-0.244c-0.359,-0.163 -0.659,-0.411 -0.897,-0.745c-0.235,-0.333 -0.353,-0.754 -0.353,-1.262zM191.781,63.741c-0.068,-0.576 -0.344,-1.023 -0.829,-1.342c-0.485,-0.318 -1.08,-0.477 -1.785,-0.477c-0.515,0 -0.966,0.083 -1.352,0.25c-0.383,0.167 -0.682,0.396 -0.898,0.688c-0.213,0.292 -0.319,0.623 -0.319,0.994c0,0.311 0.074,0.578 0.222,0.802c0.152,0.22 0.345,0.403 0.58,0.551c0.235,0.144 0.481,0.263 0.738,0.358c0.258,0.091 0.495,0.165 0.711,0.222l1.182,0.318c0.303,0.08 0.64,0.189 1.012,0.33c0.375,0.14 0.733,0.331 1.074,0.574c0.345,0.238 0.629,0.545 0.852,0.92c0.224,0.375 0.336,0.836 0.336,1.381c0,0.629 -0.165,1.198 -0.495,1.705c-0.326,0.508 -0.803,0.912 -1.432,1.211c-0.625,0.299 -1.385,0.449 -2.279,0.449c-0.834,0 -1.555,-0.135 -2.165,-0.404c-0.607,-0.269 -1.084,-0.644 -1.433,-1.125c-0.344,-0.481 -0.539,-1.04 -0.585,-1.676h1.455c0.038,0.439 0.186,0.803 0.443,1.091c0.262,0.284 0.591,0.496 0.989,0.636c0.402,0.137 0.834,0.205 1.296,0.205c0.538,0 1.021,-0.087 1.449,-0.262c0.428,-0.178 0.767,-0.424 1.018,-0.738c0.25,-0.319 0.375,-0.69 0.375,-1.114c0,-0.387 -0.108,-0.701 -0.324,-0.944c-0.216,-0.242 -0.5,-0.439 -0.853,-0.591c-0.352,-0.151 -0.733,-0.284 -1.142,-0.398l-1.432,-0.409c-0.91,-0.261 -1.63,-0.635 -2.16,-1.119c-0.53,-0.485 -0.796,-1.12 -0.796,-1.904c0,-0.652 0.176,-1.22 0.529,-1.705c0.356,-0.489 0.833,-0.868 1.432,-1.137c0.602,-0.273 1.275,-0.409 2.018,-0.409c0.75,0 1.417,0.134 2,0.403c0.584,0.265 1.046,0.629 1.387,1.091c0.345,0.463 0.527,0.987 0.545,1.575zM196.304,75.744c-0.227,0 -0.43,-0.019 -0.608,-0.057c-0.178,-0.034 -0.301,-0.068 -0.37,-0.102l0.341,-1.182c0.326,0.083 0.614,0.113 0.864,0.091c0.25,-0.023 0.472,-0.135 0.665,-0.336c0.197,-0.197 0.377,-0.517 0.54,-0.96l0.25,-0.682l-3.228,-8.775h1.455l2.41,6.956h0.091l2.409,-6.956h1.455l-3.705,10.002c-0.167,0.451 -0.373,0.824 -0.62,1.12c-0.246,0.299 -0.532,0.521 -0.858,0.665c-0.322,0.144 -0.686,0.216 -1.091,0.216zM210.532,65.696l-1.205,0.341c-0.075,-0.201 -0.187,-0.396 -0.335,-0.586c-0.144,-0.193 -0.341,-0.352 -0.591,-0.477c-0.25,-0.125 -0.57,-0.188 -0.961,-0.188c-0.534,0 -0.979,0.124 -1.335,0.37c-0.353,0.242 -0.529,0.551 -0.529,0.926c0,0.334 0.122,0.597 0.364,0.79c0.243,0.193 0.621,0.355 1.137,0.483l1.295,0.319c0.781,0.189 1.363,0.479 1.745,0.869c0.383,0.387 0.574,0.885 0.574,1.495c0,0.5 -0.144,0.947 -0.432,1.341c-0.284,0.394 -0.682,0.705 -1.193,0.932c-0.512,0.228 -1.106,0.341 -1.785,0.341c-0.89,0 -1.627,-0.193 -2.211,-0.58c-0.583,-0.386 -0.952,-0.951 -1.108,-1.693l1.273,-0.318c0.122,0.469 0.351,0.822 0.688,1.057c0.341,0.235 0.786,0.352 1.336,0.352c0.625,0 1.121,-0.133 1.489,-0.398c0.371,-0.269 0.557,-0.591 0.557,-0.966c0,-0.303 -0.107,-0.557 -0.319,-0.762c-0.212,-0.208 -0.538,-0.363 -0.977,-0.466l-1.455,-0.341c-0.8,-0.189 -1.387,-0.483 -1.762,-0.88c-0.371,-0.402 -0.557,-0.904 -0.557,-1.507c0,-0.492 0.138,-0.928 0.415,-1.307c0.28,-0.379 0.661,-0.676 1.142,-0.892c0.485,-0.216 1.035,-0.324 1.648,-0.324c0.864,0 1.542,0.19 2.035,0.568c0.496,0.379 0.849,0.879 1.057,1.501zM216.507,63.741v1.136h-4.524v-1.136zM213.301,61.649h1.342v8.321c0,0.379 0.055,0.663 0.164,0.852c0.114,0.186 0.258,0.311 0.432,0.375c0.178,0.061 0.366,0.091 0.563,0.091c0.148,0 0.269,-0.007 0.364,-0.023c0.094,-0.018 0.17,-0.034 0.227,-0.045l0.273,1.205c-0.091,0.034 -0.218,0.068 -0.381,0.102c-0.163,0.038 -0.369,0.057 -0.619,0.057c-0.379,0 -0.751,-0.081 -1.114,-0.244c-0.36,-0.163 -0.66,-0.411 -0.898,-0.745c-0.235,-0.333 -0.353,-0.754 -0.353,-1.262zM222.091,72.652c-0.842,0 -1.567,-0.185 -2.177,-0.557c-0.606,-0.375 -1.074,-0.898 -1.404,-1.568c-0.326,-0.675 -0.489,-1.459 -0.489,-2.353c0,-0.894 0.163,-1.683 0.489,-2.365c0.33,-0.685 0.788,-1.22 1.375,-1.602c0.592,-0.387 1.281,-0.58 2.069,-0.58c0.455,0 0.904,0.076 1.347,0.227c0.443,0.152 0.847,0.398 1.211,0.739c0.363,0.337 0.653,0.785 0.869,1.342c0.216,0.556 0.324,1.242 0.324,2.057v0.568h-6.729v-1.159h5.365c0,-0.493 -0.098,-0.932 -0.295,-1.319c-0.194,-0.386 -0.47,-0.691 -0.83,-0.915c-0.356,-0.223 -0.777,-0.335 -1.262,-0.335c-0.534,0 -0.996,0.133 -1.387,0.398c-0.386,0.261 -0.683,0.602 -0.892,1.023c-0.208,0.42 -0.312,0.871 -0.312,1.352v0.773c0,0.66 0.113,1.218 0.341,1.677c0.231,0.455 0.551,0.801 0.96,1.04c0.409,0.235 0.885,0.352 1.427,0.352c0.352,0 0.67,-0.049 0.954,-0.147c0.288,-0.103 0.537,-0.254 0.745,-0.455c0.208,-0.205 0.369,-0.459 0.483,-0.762l1.296,0.364c-0.137,0.44 -0.366,0.826 -0.688,1.159c-0.322,0.33 -0.72,0.588 -1.193,0.773c-0.474,0.182 -1.006,0.273 -1.597,0.273zM227.745,72.47v-8.729h1.296v1.364h0.114c0.182,-0.466 0.475,-0.828 0.881,-1.086c0.405,-0.261 0.892,-0.392 1.46,-0.392c0.576,0 1.056,0.131 1.438,0.392c0.387,0.258 0.688,0.62 0.904,1.086h0.091c0.223,-0.451 0.559,-0.809 1.006,-1.074c0.447,-0.269 0.983,-0.404 1.608,-0.404c0.781,0 1.419,0.244 1.916,0.733c0.496,0.485 0.744,1.241 0.744,2.268v5.842h-1.341v-5.842c0,-0.644 -0.176,-1.105 -0.529,-1.381c-0.352,-0.277 -0.767,-0.415 -1.244,-0.415c-0.614,0 -1.09,0.186 -1.427,0.557c-0.337,0.367 -0.506,0.833 -0.506,1.398v5.683h-1.364v-5.979c0,-0.496 -0.161,-0.896 -0.483,-1.199c-0.322,-0.307 -0.737,-0.46 -1.244,-0.46c-0.349,0 -0.675,0.093 -0.978,0.278c-0.299,0.186 -0.542,0.444 -0.727,0.773c-0.182,0.326 -0.273,0.703 -0.273,1.131v5.456z" fill="black"/>
</g>
</g></svg>