<svg viewBox="0 0 30 30" fill="none" xmlns="http://www.w3.org/2000/svg" xmlns:xlink="http://www.w3.org/1999/xlink" x="0" y="0"><defs><filter id="filter5_d_900_4284" x="-2" y="0" width="34" height="34" filterUnits="userSpaceOnUse" color-interpolation-filters="sRGB">
<feFlood flood-opacity="0" result="BackgroundImageFix"/>
<feColorMatrix in="SourceAlpha" type="matrix" values="0 0 0 0 0 0 0 0 0 0 0 0 0 0 0 0 0 0 127 0" result="hardAlpha"/>
<feOffset dy="2"/>
<feGaussianBlur stdDeviation="1"/>
<feComposite in2="hardAlpha" operator="out"/>
<feColorMatrix type="matrix" values="0 0 0 0 0 0 0 0 0 0 0 0 0 0 0 0 0 0 0.25 0"/>
<feBlend mode="normal" in2="BackgroundImageFix" result="effect1_dropShadow_900_4284"/>
<feBlend mode="normal" in="SourceGraphic" in2="effect1_dropShadow_900_4284" result="shape"/>
</filter></defs><g id="Group 1000012865">
<g id="Ellipse 11" filter="url(#filter5_d_900_4284)">
<circle cx="15" cy="15" r="15" transform="rotate(-180, 15, 15)" fill="white"/>
<circle cx="15" cy="15" r="14.75" transform="rotate(-180, 15, 15)" stroke="#E5E5E5" stroke-width="0.5"/>
</g>
<path id="←" d="M19.52,12c0.39,0.74 0.79,1.38 1.21,1.93c0.4,0.56 0.83,1.02 1.27,1.39v0.36c-0.87,0.76 -1.7,1.87 -2.48,3.32h-0.51c0.2,-0.65 0.41,-1.25 0.62,-1.78c0.2,-0.51 0.42,-0.97 0.65,-1.38v-0.68c-0.23,-0.41 -0.45,-0.88 -0.65,-1.41c-0.21,-0.51 -0.42,-1.1 -0.62,-1.75zM20.33,14.98v1.04h-11.33v-1.04z" fill="#288594"/>
</g></svg>