<svg viewBox="0 0 13.5 13.5" fill="none" xmlns="http://www.w3.org/2000/svg" xmlns:xlink="http://www.w3.org/1999/xlink" x="0" y="0"><path id="Vector_7" d="M6.7496,3.75c-0.593,0 -1.173,0.18 -1.666,0.51c-0.494,0.33 -0.878,0.79 -1.105,1.34c-0.227,0.55 -0.287,1.15 -0.171,1.74c0.116,0.58 0.401,1.11 0.821,1.53c0.42,0.42 0.954,0.71 1.536,0.82c0.582,0.12 1.185,0.06 1.733,-0.17c0.549,-0.23 1.017,-0.61 1.347,-1.1c0.329,-0.5 0.505,-1.08 0.505,-1.67c0,-0.8 -0.317,-1.56 -0.879,-2.12c-0.563,-0.56 -1.325,-0.88 -2.121,-0.88zM6.7496,8.25c-0.296,0 -0.586,-0.09 -0.833,-0.25c-0.247,-0.17 -0.439,-0.4 -0.552,-0.68c-0.114,-0.27 -0.144,-0.57 -0.086,-0.86c0.058,-0.29 0.201,-0.56 0.411,-0.77c0.209,-0.21 0.477,-0.35 0.768,-0.41c0.291,-0.06 0.592,-0.03 0.866,0.08c0.274,0.12 0.509,0.31 0.674,0.56c0.164,0.24 0.252,0.53 0.252,0.83c0,0.4 -0.158,0.78 -0.439,1.06c-0.281,0.28 -0.663,0.44 -1.061,0.44zM9.7496,0h-6c-0.994,0 -1.947,0.4 -2.65,1.1c-0.703,0.7 -1.098,1.66 -1.1,2.65v6c0.002,0.99 0.397,1.95 1.1,2.65c0.703,0.7 1.656,1.1 2.65,1.1h6c0.995,0 1.948,-0.4 2.651,-1.1c0.703,-0.7 1.098,-1.66 1.099,-2.65v-6c-0.001,-0.99 -0.396,-1.95 -1.099,-2.65c-0.703,-0.7 -1.656,-1.1 -2.651,-1.1zM11.9996,9.75c0,0.6 -0.237,1.17 -0.659,1.59c-0.422,0.42 -0.994,0.66 -1.591,0.66h-6c-0.596,0 -1.169,-0.24 -1.591,-0.66c-0.422,-0.42 -0.659,-0.99 -0.659,-1.59v-6c0,-0.6 0.237,-1.17 0.659,-1.59c0.422,-0.42 0.995,-0.66 1.591,-0.66h6c0.597,0 1.169,0.24 1.591,0.66c0.422,0.42 0.659,0.99 0.659,1.59zM10.9996,3.5c0,0.2 -0.058,0.39 -0.168,0.56c-0.11,0.16 -0.266,0.29 -0.449,0.36c-0.183,0.08 -0.384,0.1 -0.578,0.06c-0.194,-0.04 -0.372,-0.13 -0.512,-0.27c-0.14,-0.14 -0.235,-0.32 -0.273,-0.51c-0.039,-0.2 -0.019,-0.4 0.056,-0.58c0.076,-0.19 0.204,-0.34 0.369,-0.45c0.164,-0.11 0.358,-0.17 0.555,-0.17c0.266,0 0.52,0.11 0.707,0.29c0.188,0.19 0.293,0.44 0.293,0.71z" fill="currentColor"/></svg>