<svg viewBox="0 0 48 48" fill="none" xmlns="http://www.w3.org/2000/svg" xmlns:xlink="http://www.w3.org/1999/xlink" x="0" y="0"><g id="__TECH-Device-Lap-Education.svg">
<path id="Vector_35" d="M8,9.9994h32v22h2v-24h-36v24h2z" fill="currentColor"/>
<path id="Vector_36" d="M44,33.9994h-14l-2,2h14v2h-36v-2h14l-2,-2h-14v6h40z" fill="currentColor"/>
<path id="Vector_37" d="M16.86,26.6394l2.16,2h9.98l2.16,-2l0.5,-6.88l6.36,-2.26l-14,-5l-14,5l6.36,2.26l0.5,6.88zM29.2,25.6994l-1,0.92h-8.42l-1,-0.92l-0.38,-5.18l4.92,1.74l0.66,0.24l0.66,-0.24l4.92,-1.74l-0.38,5.18zM24,14.6194l8.06,2.88l-8.06,2.88l-8.06,-2.88z" fill="currentColor"/>
<path id="Vector_38" d="M12.82,19.4994v8.72h-0.02l-0.98,2h4l-1,-2v-8z" fill="currentColor"/>
</g></svg>