<svg viewBox="0 0 48 48" fill="none" xmlns="http://www.w3.org/2000/svg" xmlns:xlink="http://www.w3.org/1999/xlink" x="0" y="0"><g id="__ESS-LightBulb-02_0.svg">
<path id="Vector_14" d="M28.24,37.6595h-8.46v2h8.46z" fill="currentColor"/>
<path id="Vector_15" d="M27.38,41.9595h-6.76v2h6.76z" fill="currentColor"/>
<path id="Vector_16" d="M18.98,30.8795v4.44h10.02v-4.44c0,-3.42 5,-4.62 5.02,-10.32c0,-5.7 -4.48,-10.32 -10.02,-10.32c-5.54,0 -10.02,4.62 -10.02,10.32c0,5.7 5.02,6.9 5,10.32zM24,12.2595c2.1,0 4.08,0.84 5.58,2.34c1.58,1.58 2.44,3.7 2.44,5.98c0,2.44 -1.14,3.74 -2.48,5.22c-1.18,1.34 -2.54,2.84 -2.54,5.1v2.44h-6.02v-2.44c0,-2.26 -1.34,-3.78 -2.54,-5.1c-1.32,-1.48 -2.48,-2.76 -2.48,-5.2c0,-4.58 3.6,-8.32 8.02,-8.32z" fill="currentColor"/>
<path id="Vector_17" d="M25,3.9995h-2v4.12h2z" fill="currentColor"/>
<path id="Vector_18" d="M16.732,5.6795l-1.732,1l2.06,3.57l1.732,-1z" fill="currentColor"/>
<path id="Vector_19" d="M10.423,11.2695l-1,1.73l3.568,2.06l1,-1.73z" fill="currentColor"/>
<path id="Vector_20" d="M35.021,25.4495l-1,1.73l3.568,2.06l1,-1.73z" fill="currentColor"/>
<path id="Vector_21" d="M11.86,19.2595h-4.12v2h4.12z" fill="currentColor"/>
<path id="Vector_22" d="M40.26,19.2595h-4.12v2h4.12z" fill="currentColor"/>
<path id="Vector_23" d="M12.994,25.4695l-3.568,2.06l1,1.73l3.568,-2.05z" fill="currentColor"/>
<path id="Vector_24" d="M37.582,11.2595l-3.568,2.06l0.999,1.73l3.569,-2.06z" fill="currentColor"/>
<path id="Vector_25" d="M31.267,5.6795l-2.06,3.57l1.732,1l2.06,-3.57z" fill="currentColor"/>
</g></svg>