<svg viewBox="0 0 15.75 15.75" fill="none" xmlns="http://www.w3.org/2000/svg" xmlns:xlink="http://www.w3.org/1999/xlink" x="0" y="0"><path id="Vector_4" d="M14.625,-0.005h-13.504c-0.618,0 -1.121,0.51 -1.121,1.14v13.48c0,0.63 0.503,1.14 1.121,1.14h13.504c0.619,0 1.125,-0.51 1.125,-1.14v-13.48c0,-0.63 -0.506,-1.14 -1.125,-1.14zM4.76,13.495h-2.334v-7.51h2.338v7.51zM3.593,4.955c-0.749,0 -1.354,-0.61 -1.354,-1.35c0,-0.75 0.605,-1.35 1.354,-1.35c0.745,0 1.353,0.6 1.353,1.35c0,0.75 -0.604,1.35 -1.353,1.35zM13.511,13.495h-2.335v-3.65c0,-0.87 -0.017,-1.99 -1.213,-1.99c-1.216,0 -1.402,0.94 -1.402,1.93v3.71h-2.335v-7.51h2.24v1.03h0.031c0.313,-0.6 1.076,-1.22 2.212,-1.22c2.362,0 2.802,1.56 2.802,3.58z" fill="currentColor"/></svg>