<svg viewBox="0 0 14 13.9997" fill="none" xmlns="http://www.w3.org/2000/svg" xmlns:xlink="http://www.w3.org/1999/xlink" x="0" y="0"><path id="Vector_8" d="M3.1336,14h-2.902v-9.35h2.902zM1.6806,3.38c-0.928,0 -1.681,-0.77 -1.681,-1.7c0,-0.44 0.177,-0.87 0.493,-1.19c0.315,-0.31 0.742,-0.49 1.188,-0.49c0.446,0 0.874,0.18 1.189,0.49c0.315,0.32 0.492,0.75 0.492,1.19c0,0.93 -0.753,1.7 -1.681,1.7zM13.9966,14h-2.896v-4.55c0,-1.08 -0.022,-2.48 -1.509,-2.48c-1.509,0 -1.74,1.18 -1.74,2.4v4.63h-2.9v-9.35h2.784v1.28h0.041c0.387,-0.74 1.334,-1.51 2.746,-1.51c2.937,0 3.477,1.93 3.477,4.45v5.13z" fill="currentColor"/></svg>