<svg viewBox="0 0 48 48" fill="none" xmlns="http://www.w3.org/2000/svg" xmlns:xlink="http://www.w3.org/1999/xlink" x="0" y="0"><g id="__ESS-People-User.svg">
<path id="Vector_8" d="M24,24c5.52,0 10,-4.48 10,-10c0,-5.52 -4.48,-10 -10,-10c-5.52,0 -10,4.48 -10,10c0,5.52 4.48,10 10,10zM16,14c0,-2.14 0.84,-4.14 2.34,-5.66c1.52,-1.52 3.52,-2.34 5.66,-2.34c4.42,0 8,3.6 8,8c0,2.14 -0.84,4.14 -2.34,5.66c-1.52,1.52 -3.52,2.34 -5.66,2.34c-4.42,0 -8,-3.6 -8,-8z" fill="currentColor"/>
<path id="Vector_9" d="M38,28h2v-3.16l-4.42,-4.42l-1.4,1.42l3.82,3.82z" fill="currentColor"/>
<path id="Vector_10" d="M8,24.84v3.16h2v-2.34l3.82,-3.82l-1.42,-1.42z" fill="currentColor"/>
<path id="Vector_11" d="M11.72,42h-3.72v2h32v-2h-3.72l1.72,-12h-28zM34.26,42h-20.52l-1.42,-10h23.38l-1.42,10z" fill="currentColor"/>
</g></svg>