<svg viewBox="0 0 48 48" fill="none" xmlns="http://www.w3.org/2000/svg" xmlns:xlink="http://www.w3.org/1999/xlink" x="0" y="0"><g id="__ESS-People-02_1.svg">
<path id="Vector_26" d="M16,5.9995c-4.14,0 -7.5,3.36 -7.5,7.5c0,4.14 3.36,7.5 7.5,7.5c4.14,0 7.5,-3.36 7.5,-7.5c0,-4.14 -3.36,-7.5 -7.5,-7.5zM21.5,13.4995c0,1.46 -0.58,2.86 -1.6,3.88c-1.04,1.04 -2.42,1.62 -3.88,1.62c-3.04,0 -5.5,-2.46 -5.5,-5.5c0,-1.46 0.58,-2.84 1.6,-3.88c1.04,-1.04 2.42,-1.62 3.88,-1.62c3.04,0 5.5,2.46 5.5,5.5z" fill="currentColor"/>
<path id="Vector_27" d="M28,33.9595v-8.18l-3.82,-3.82l-1.42,1.42l3.24,3.24v5.36h-20.02c0,-1.98 0,-4.38 0,-5.36l3.24,-3.24l-1.42,-1.42l-3.82,3.82v8.18h24z" fill="currentColor"/>
<path id="Vector_28" d="M40.18,29.9995l-1.42,1.42l3.24,3.24v5.36h-20.02v-4h-2v6h24v-8.18l-3.82,-3.82z" fill="currentColor"/>
<path id="Vector_29" d="M32,27.0395c-0.7,0 -1.38,-0.14 -2,-0.4v2.08c0.64,0.18 1.3,0.3 2,0.3c4.14,0 7.5,-3.36 7.5,-7.5c0,-4.14 -3.36,-7.5 -7.5,-7.5c-3.62,0 -6.62,2.56 -7.34,5.96h2.08c0.26,-0.88 0.7,-1.68 1.36,-2.36c1.04,-1.04 2.42,-1.62 3.88,-1.62c3.04,0 5.5,2.46 5.5,5.5c0,1.46 -0.58,2.84 -1.6,3.88c-1.04,1.04 -2.42,1.62 -3.88,1.62z" fill="currentColor"/>
</g></svg>