<svg viewBox="0 0 48 48" fill="none" xmlns="http://www.w3.org/2000/svg" xmlns:xlink="http://www.w3.org/1999/xlink" x="0" y="0"><g id="ICON-Purple_EDU-Podium.svg">
<path id="Vector_4" d="M44.12,26l-6,-16h-22.78v-0.74c0,-0.42 0.16,-0.8 0.46,-1.08l2.72,-2.72c0.36,-0.36 0.86,-0.52 1.34,-0.42l2.76,0.46l0.34,-1.98l-2.76,-0.46c-1.12,-0.18 -2.28,0.18 -3.08,0.98l-2.72,2.72c-0.66,0.66 -1.04,1.56 -1.04,2.5v0.74h-3.22l-6,16h18.88v12.04c-4.5,0.16 -8,1.42 -8,2.96c0,1.66 4.02,3 9,3c4.98,0 9,-1.34 9,-3c0,-1.54 -3.5,-2.8 -8,-2.96v-12.04h19.12zM24,42c-3,0 -5.2,-0.52 -6.34,-1c1.14,-0.48 3.34,-1 6.34,-1c3,0 5.2,0.52 6.34,1c-1.14,0.48 -3.34,1 -6.34,1zM11.52,12h1.84v2.38h2v-2.38h21.4l4.5,12h-34.24z" fill="currentColor"/>
<path id="Vector_5" d="M18.12,14l-2,8h16l-2,-8zM18.68,20l1,-4h8.88l1,4z" fill="currentColor"/>
</g></svg>