<svg viewBox="0 0 5.333 9.325" fill="none" xmlns="http://www.w3.org/2000/svg" xmlns:xlink="http://www.w3.org/1999/xlink" x="0" y="0"><path id="Vector_12" d="M0.1932,0.194c0.13,-0.12 0.3,-0.19 0.47,-0.19c0.18,0 0.35,0.07 0.47,0.19l4,4c0.13,0.13 0.2,0.3 0.2,0.47c0,0.18 -0.07,0.35 -0.2,0.47l-4,4c-0.12,0.13 -0.29,0.19 -0.46,0.19c-0.18,0 -0.35,-0.07 -0.47,-0.19c-0.12,-0.13 -0.19,-0.3 -0.2,-0.47c0,-0.17 0.07,-0.34 0.19,-0.47l2.86,-2.86l-2.86,-2.86c-0.12,-0.13 -0.19,-0.3 -0.19,-0.47c0,-0.18 0.07,-0.35 0.19,-0.48z" fill="currentColor"/></svg>