<svg viewBox="0 0 25 25" fill="none" xmlns="http://www.w3.org/2000/svg" xmlns:xlink="http://www.w3.org/1999/xlink" x="0" y="0"><defs><filter id="filter10_d_291_75" x="-1" y="0" width="27" height="27" filterUnits="userSpaceOnUse" color-interpolation-filters="sRGB">
<feFlood flood-opacity="0" result="BackgroundImageFix"/>
<feColorMatrix in="SourceAlpha" type="matrix" values="0 0 0 0 0 0 0 0 0 0 0 0 0 0 0 0 0 0 127 0" result="hardAlpha"/>
<feOffset dy="1"/>
<feGaussianBlur stdDeviation="0.5"/>
<feComposite in2="hardAlpha" operator="out"/>
<feColorMatrix type="matrix" values="0 0 0 0 0 0 0 0 0 0 0 0 0 0 0 0 0 0 0.25 0"/>
<feBlend mode="normal" in2="BackgroundImageFix" result="effect1_dropShadow_291_75"/>
<feBlend mode="normal" in="SourceGraphic" in2="effect1_dropShadow_291_75" result="shape"/>
</filter></defs><g id="Group 22863">
<g id="Ellipse 14_3" filter="url(#filter10_d_291_75)">
<circle cx="12.5" cy="12.5" r="12.5" fill="white"/>
<circle cx="12.5" cy="12.5" r="12.375" stroke="white" stroke-width="0.25"/>
</g>
<path id="Vector_14" d="M12.5,4.39c-4.478,0 -8.109,3.63 -8.109,8.11c0,3.8 2.618,6.99 6.15,7.87v-5.39h-1.672v-2.48h1.672v-1.07c0,-2.76 1.249,-4.04 3.958,-4.04c0.514,0 1.4,0.11 1.763,0.21v2.24c-0.191,-0.02 -0.524,-0.03 -0.937,-0.03c-1.329,0 -1.843,0.51 -1.843,1.81v0.88h2.649l-0.455,2.48h-2.194v5.57c4.015,-0.49 7.126,-3.9 7.126,-8.05c0,-4.48 -3.63,-8.11 -8.108,-8.11z" fill="#2A75D4"/>
</g></svg>