<svg viewBox="0 0 16 15.9993" fill="none" xmlns="http://www.w3.org/2000/svg" xmlns:xlink="http://www.w3.org/1999/xlink" x="0" y="0"><path id="Vector_13" fill-rule="evenodd" clip-rule="evenodd" d="M1.885,0.51c0.175,-0.17 0.385,-0.31 0.616,-0.4c0.232,-0.08 0.479,-0.12 0.726,-0.11c0.247,0.02 0.487,0.09 0.706,0.2c0.218,0.12 0.41,0.28 0.562,0.47l1.795,2.31c0.329,0.42 0.445,0.97 0.315,1.49l-0.547,2.19c-0.028,0.12 -0.027,0.24 0.004,0.35c0.032,0.11 0.091,0.21 0.174,0.3l2.457,2.45c0.083,0.09 0.186,0.15 0.299,0.18c0.112,0.03 0.231,0.03 0.345,0l2.189,-0.55c0.257,-0.06 0.524,-0.06 0.783,-0.01c0.259,0.05 0.502,0.17 0.711,0.33l2.306,1.79c0.829,0.65 0.905,1.87 0.163,2.61l-1.034,1.04c-0.74,0.74 -1.846,1.06 -2.877,0.7c-2.639,-0.93 -5.035,-2.44 -7.01,-4.42c-1.981,-1.97 -3.491,-4.37 -4.42,-7.01c-0.362,-1.03 -0.037,-2.14 0.703,-2.88z" fill="currentColor"/></svg>