<svg viewBox="0 0 875 94" fill="none" xmlns="http://www.w3.org/2000/svg" x="0" y="0"><defs><linearGradient id="paint0_linear_859_2189" x1="191.122" y1="21.3552" x2="697.342" y2="21.3552" gradientUnits="userSpaceOnUse">
<stop stop-color="#2A75D4"/>
<stop offset="1" stop-color="#23A7A6"/>
</linearGradient></defs><g id="Group 1000013357">
<path id="Heading 3 → Driven by passion, focus" d="M140.772,39.9601c-2.767,0 -5.334,-0.4501 -7.702,-1.3503c-2.334,-0.9003 -4.367,-2.1673 -6.101,-3.801c-1.701,-1.6338 -3.034,-3.551 -4.001,-5.7516c-0.934,-2.2005 -1.401,-4.6012 -1.401,-7.2019c0,-2.6006 0.467,-5.0013 1.401,-7.2018c0.967,-2.2006 2.317,-4.1178 4.051,-5.75155c1.734,-1.63377 3.767,-2.90077 6.101,-3.801c2.334,-0.90024 4.868,-1.35036 7.602,-1.35036c2.768,0 5.302,0.45012 7.602,1.35036c2.334,0.90023 4.351,2.16723 6.052,3.801c1.734,1.63375 3.084,3.55095 4.051,5.75155c0.967,2.1672 1.45,4.5678 1.45,7.2018c0,2.6007 -0.483,5.018 -1.45,7.252c-0.967,2.2005 -2.317,4.1177 -4.051,5.7515c-1.701,1.6004 -3.718,2.8507 -6.052,3.751c-2.3,0.9002 -4.818,1.3503 -7.552,1.3503zM140.722,33.0583c1.567,0 3.001,-0.2667 4.301,-0.8002c1.334,-0.5335 2.501,-1.3004 3.501,-2.3006c1.001,-1.0003 1.768,-2.1839 2.301,-3.551c0.567,-1.367 0.85,-2.884 0.85,-4.5512c0,-1.6671 -0.283,-3.1841 -0.85,-4.5511c-0.533,-1.3671 -1.3,-2.5507 -2.301,-3.551c-0.967,-1.0002 -2.117,-1.7671 -3.451,-2.3006c-1.333,-0.5335 -2.784,-0.8002 -4.351,-0.8002c-1.567,0 -3.017,0.2667 -4.351,0.8002c-1.3,0.5335 -2.45,1.3004 -3.451,2.3006c-1,1.0003 -1.783,2.1839 -2.35,3.551c-0.534,1.367 -0.801,2.884 -0.801,4.5511c0,1.6338 0.267,3.1509 0.801,4.5512c0.567,1.3671 1.333,2.5507 2.3,3.551c1.001,1.0002 2.168,1.7671 3.501,2.3006c1.334,0.5335 2.784,0.8002 4.351,0.8002zM176.769,39.7601c-2.234,0 -4.234,-0.4335 -6.001,-1.3004c-1.734,-0.8669 -3.084,-2.1839 -4.051,-3.951c-0.967,-1.8005 -1.451,-4.0844 -1.451,-6.8518v-15.204h7.802v14.0537c0,2.2339 0.467,3.8843 1.401,4.9513c0.967,1.0336 2.317,1.5504 4.051,1.5504c1.2,0 2.267,-0.2501 3.201,-0.7502c0.933,-0.5335 1.667,-1.3337 2.2,-2.4006c0.534,-1.1003 0.8,-2.4674 0.8,-4.1011v-13.3035h7.802v26.907h-7.401v-7.4019l1.35,2.1506c-0.9,1.8671 -2.234,3.2842 -4.001,4.2511c-1.734,0.9336 -3.634,1.4004 -5.702,1.4004zM199.752,39.3599v-26.907h7.451v7.602l-1.05,-2.2006c0.8,-1.9005 2.084,-3.3342 3.851,-4.3011c1.767,-1.0003 3.918,-1.5004 6.452,-1.5004v7.2019c-0.333,-0.0334 -0.634,-0.05 -0.9,-0.05c-0.267,-0.0334 -0.55,-0.0501 -0.851,-0.0501c-2.133,0 -3.867,0.6169 -5.201,1.8505c-1.3,1.2003 -1.95,3.0842 -1.95,5.6515v12.7033zM236.004,39.3599v-35.00915h8.103v35.00915zM268.219,12.0528c2.134,0 4.035,0.4334 5.702,1.3003c1.7,0.8336 3.034,2.1339 4.001,3.901c0.967,1.7338 1.45,3.9677 1.45,6.7018v15.404h-7.802v-14.2037c0,-2.1672 -0.483,-3.7676 -1.45,-4.8012c-0.934,-1.0336 -2.268,-1.5505 -4.001,-1.5505c-1.234,0 -2.351,0.2668 -3.351,0.8003c-0.967,0.5001 -1.734,1.2836 -2.301,2.3506c-0.533,1.0669 -0.8,2.4339 -0.8,4.1011v13.3034h-7.802v-26.907h7.452v7.4519l-1.401,-2.2506c0.967,-1.8004 2.351,-3.1841 4.152,-4.151c1.8,-0.967 3.851,-1.4504 6.151,-1.4504zM297.447,39.7601c-3.167,0 -5.635,-0.8003 -7.402,-2.4007c-1.767,-1.6337 -2.651,-4.051 -2.651,-7.2519v-23.60618h7.803v23.50618c0,1.1336 0.3,2.0172 0.9,2.6507c0.6,0.6001 1.417,0.9002 2.45,0.9002c1.234,0 2.284,-0.3334 3.151,-1.0002l2.101,5.5014c-0.8,0.5668 -1.767,1.0003 -2.901,1.3003c-1.1,0.2668 -2.251,0.4002 -3.451,0.4002zM283.243,19.0546v-6.0016h18.655v6.0016zM320.702,39.7601c-3.068,0 -5.769,-0.6002 -8.102,-1.8005c-2.301,-1.2003 -4.085,-2.8341 -5.352,-4.9013c-1.267,-2.1006 -1.9,-4.4845 -1.9,-7.1519c0,-2.7007 0.616,-5.0847 1.85,-7.1519c1.267,-2.1005 2.984,-3.7343 5.151,-4.9013c2.168,-1.2003 4.618,-1.8004 7.352,-1.8004c2.634,0 5.002,0.5668 7.102,1.7004c2.134,1.1003 3.818,2.7007 5.052,4.8013c1.233,2.0672 1.85,4.5512 1.85,7.4519c0,0.3001 -0.017,0.6502 -0.05,1.0503c-0.033,0.3668 -0.067,0.7169 -0.1,1.0503h-21.856v-4.5512h17.755l-3.001,1.3504c0,-1.4004 -0.283,-2.6174 -0.85,-3.651c-0.567,-1.0336 -1.35,-1.8338 -2.351,-2.4006c-1,-0.6002 -2.167,-0.9003 -3.501,-0.9003c-1.333,0 -2.517,0.3001 -3.551,0.9003c-1,0.5668 -1.783,1.3837 -2.35,2.4506c-0.567,1.0336 -0.85,2.2673 -0.85,3.701v1.2003c0,1.467 0.316,2.7674 0.95,3.901c0.667,1.1003 1.584,1.9505 2.751,2.5507c1.2,0.5668 2.6,0.8502 4.201,0.8502c1.433,0 2.684,-0.2167 3.751,-0.6502c1.1,-0.4334 2.1,-1.0836 3,-1.9505l4.152,4.5012c-1.234,1.4004 -2.784,2.484 -4.652,3.2509c-1.867,0.7335 -4.017,1.1003 -6.451,1.1003zM351.553,49.4626c-2.534,0 -4.985,-0.3167 -7.352,-0.9502c-2.334,-0.6002 -4.285,-1.5171 -5.852,-2.7508l3.101,-5.6014c1.134,0.9335 2.567,1.6671 4.301,2.2005c1.767,0.5669 3.501,0.8503 5.202,0.8503c2.767,0 4.768,-0.6169 6.001,-1.8505c1.267,-1.2337 1.901,-3.0675 1.901,-5.5015v-4.051l0.5,-6.7518l-0.1,-6.8018v-5.8015h7.402v22.4059c0,5.0013 -1.301,8.6856 -3.901,11.0529c-2.601,2.3673 -6.335,3.5509 -11.203,3.5509zM350.352,38.0596c-2.5,0 -4.767,-0.5335 -6.801,-1.6004c-2.001,-1.1003 -3.618,-2.6174 -4.852,-4.5512c-1.2,-1.9672 -1.8,-4.2511 -1.8,-6.8518c0,-2.634 0.6,-4.918 1.8,-6.8518c1.234,-1.9672 2.851,-3.4843 4.852,-4.5512c2.034,-1.067 4.301,-1.6004 6.801,-1.6004c2.268,0 4.268,0.4668 6.002,1.4003c1.734,0.9003 3.084,2.3173 4.051,4.2512c0.967,1.9005 1.45,4.3511 1.45,7.3519c0,2.9674 -0.483,5.4181 -1.45,7.3519c-0.967,1.9005 -2.317,3.3176 -4.051,4.2511c-1.734,0.9336 -3.734,1.4004 -6.002,1.4004zM351.903,31.6579c1.367,0 2.584,-0.2667 3.651,-0.8002c1.067,-0.5668 1.9,-1.3503 2.5,-2.3506c0.601,-1.0003 0.901,-2.1506 0.901,-3.4509c0,-1.3337 -0.3,-2.484 -0.901,-3.4509c-0.6,-1.0003 -1.433,-1.7671 -2.5,-2.3006c-1.067,-0.5668 -2.284,-0.8502 -3.651,-0.8502c-1.367,0 -2.584,0.2834 -3.651,0.8502c-1.067,0.5335 -1.917,1.3003 -2.551,2.3006c-0.6,0.9669 -0.9,2.1172 -0.9,3.4509c0,1.3003 0.3,2.4506 0.9,3.4509c0.634,1.0003 1.484,1.7838 2.551,2.3506c1.067,0.5335 2.284,0.8002 3.651,0.8002zM373.918,39.3599v-26.907h7.452v7.602l-1.05,-2.2006c0.8,-1.9005 2.084,-3.3342 3.851,-4.3011c1.767,-1.0003 3.918,-1.5004 6.452,-1.5004v7.2019c-0.334,-0.0334 -0.634,-0.05 -0.9,-0.05c-0.267,-0.0334 -0.551,-0.0501 -0.851,-0.0501c-2.134,0 -3.867,0.6169 -5.201,1.8505c-1.3,1.2003 -1.951,3.0842 -1.951,5.6515v12.7033zM410.008,39.3599v-5.2513l-0.5,-1.1503v-9.4025c0,-1.6671 -0.517,-2.9675 -1.551,-3.901c-1,-0.9336 -2.55,-1.4004 -4.651,-1.4004c-1.434,0 -2.851,0.2334 -4.251,0.7002c-1.367,0.4334 -2.534,1.0336 -3.501,1.8005l-2.801,-5.4515c1.467,-1.0336 3.235,-1.8338 5.302,-2.4006c2.067,-0.5668 4.168,-0.8502 6.301,-0.8502c4.102,0 7.286,0.9669 9.553,2.9007c2.267,1.9339 3.401,4.9513 3.401,9.0524v15.354zM401.806,39.7601c-2.101,0 -3.901,-0.3501 -5.402,-1.0503c-1.5,-0.7335 -2.65,-1.7171 -3.451,-2.9508c-0.8,-1.2337 -1.2,-2.6174 -1.2,-4.1511c0,-1.6004 0.384,-3.0008 1.15,-4.2011c0.801,-1.2003 2.051,-2.1339 3.751,-2.8007c1.701,-0.7002 3.918,-1.0503 6.652,-1.0503h7.152v4.5512h-6.302c-1.833,0 -3.1,0.3001 -3.801,0.9002c-0.666,0.6002 -1,1.3504 -1,2.2506c0,1.0003 0.384,1.8005 1.15,2.4007c0.801,0.5668 1.884,0.8502 3.251,0.8502c1.301,0 2.468,-0.3001 3.501,-0.9003c1.034,-0.6335 1.784,-1.5504 2.251,-2.7507l1.2,3.601c-0.567,1.7338 -1.6,3.0508 -3.101,3.951c-1.5,0.9002 -3.434,1.3504 -5.801,1.3504zM435.374,39.7601c-3.168,0 -5.635,-0.8003 -7.402,-2.4007c-1.767,-1.6337 -2.651,-4.051 -2.651,-7.2519v-23.60618h7.802v23.50618c0,1.1336 0.3,2.0172 0.901,2.6507c0.6,0.6001 1.417,0.9002 2.45,0.9002c1.234,0 2.284,-0.3334 3.151,-1.0002l2.101,5.5014c-0.801,0.5668 -1.767,1.0003 -2.901,1.3003c-1.1,0.2668 -2.251,0.4002 -3.451,0.4002zM421.17,19.0546v-6.0016h18.655v6.0016zM458.629,39.7601c-3.068,0 -5.769,-0.6002 -8.103,-1.8005c-2.3,-1.2003 -4.084,-2.8341 -5.351,-4.9013c-1.267,-2.1006 -1.901,-4.4845 -1.901,-7.1519c0,-2.7007 0.617,-5.0847 1.851,-7.1519c1.267,-2.1005 2.984,-3.7343 5.151,-4.9013c2.168,-1.2003 4.618,-1.8004 7.352,-1.8004c2.634,0 5.002,0.5668 7.102,1.7004c2.134,1.1003 3.818,2.7007 5.051,4.8013c1.234,2.0672 1.851,4.5512 1.851,7.4519c0,0.3001 -0.017,0.6502 -0.05,1.0503c-0.033,0.3668 -0.067,0.7169 -0.1,1.0503h-21.856v-4.5512h17.755l-3.001,1.3504c0,-1.4004 -0.283,-2.6174 -0.85,-3.651c-0.567,-1.0336 -1.351,-1.8338 -2.351,-2.4006c-1,-0.6002 -2.167,-0.9003 -3.501,-0.9003c-1.333,0 -2.517,0.3001 -3.551,0.9003c-1,0.5668 -1.783,1.3837 -2.35,2.4506c-0.567,1.0336 -0.85,2.2673 -0.85,3.701v1.2003c0,1.467 0.316,2.7674 0.95,3.901c0.667,1.1003 1.584,1.9505 2.75,2.5507c1.201,0.5668 2.601,0.8502 4.202,0.8502c1.433,0 2.684,-0.2167 3.751,-0.6502c1.1,-0.4334 2.1,-1.0836 3,-1.9505l4.151,4.5012c-1.233,1.4004 -2.784,2.484 -4.651,3.2509c-1.867,0.7335 -4.018,1.1003 -6.451,1.1003zM488.379,39.7601c-2.534,0 -4.818,-0.5669 -6.851,-1.7005c-2.034,-1.167 -3.651,-2.7841 -4.852,-4.8513c-1.167,-2.0672 -1.75,-4.5011 -1.75,-7.3019c0,-2.8341 0.583,-5.2847 1.75,-7.3519c1.201,-2.0672 2.818,-3.6676 4.852,-4.8013c2.033,-1.1336 4.317,-1.7004 6.851,-1.7004c2.268,0 4.251,0.5001 5.952,1.5004c1.7,1.0002 3.017,2.5173 3.951,4.5512c0.933,2.0338 1.4,4.6345 1.4,7.802c0,3.1342 -0.45,5.7349 -1.35,7.8021c-0.9,2.0338 -2.201,3.5509 -3.901,4.5512c-1.667,1.0002 -3.684,1.5004 -6.052,1.5004zM489.73,33.3584c1.267,0 2.417,-0.3001 3.451,-0.9003c1.033,-0.6001 1.85,-1.4503 2.45,-2.5506c0.634,-1.1337 0.95,-2.4673 0.95,-4.0011c0,-1.5671 -0.316,-2.9007 -0.95,-4.001c-0.6,-1.1003 -1.417,-1.9505 -2.45,-2.5507c-1.034,-0.6002 -2.184,-0.9002 -3.451,-0.9002c-1.301,0 -2.468,0.3 -3.501,0.9002c-1.034,0.6002 -1.867,1.4504 -2.501,2.5507c-0.6,1.1003 -0.9,2.4339 -0.9,4.001c0,1.5338 0.3,2.8674 0.9,4.0011c0.634,1.1003 1.467,1.9505 2.501,2.5506c1.033,0.6002 2.2,0.9003 3.501,0.9003zM496.782,39.3599v-5.5014l0.15,-8.0021l-0.501,-7.9521v-15.6541h7.802v37.1097zM537.672,39.9601c-2.801,0 -5.485,-0.3668 -8.053,-1.1003c-2.567,-0.7669 -4.634,-1.7504 -6.201,-2.9508l2.751,-6.1016c1.5,1.067 3.267,1.9506 5.301,2.6507c2.067,0.6669 4.151,1.0003 6.252,1.0003c1.6,0 2.884,-0.15 3.851,-0.4501c1,-0.3334 1.733,-0.7836 2.2,-1.3504c0.467,-0.5668 0.7,-1.217 0.7,-1.9505c0,-0.9336 -0.366,-1.6671 -1.1,-2.2006c-0.733,-0.5668 -1.7,-1.0169 -2.901,-1.3503c-1.2,-0.3668 -2.534,-0.7002 -4.001,-1.0003c-1.433,-0.3334 -2.884,-0.7335 -4.351,-1.2003c-1.434,-0.4668 -2.751,-1.0669 -3.951,-1.8005c-1.2,-0.7335 -2.184,-1.7004 -2.951,-2.9007c-0.733,-1.2003 -1.1,-2.7341 -1.1,-4.6012c0,-2.0006 0.533,-3.8177 1.6,-5.45148c1.101,-1.6671 2.734,-2.98411 4.902,-3.95103c2.2,-1.00027 4.951,-1.5004 8.252,-1.5004c2.2,0 4.368,0.26674 6.502,0.80021c2.133,0.50013 4.017,1.267 5.651,2.30061l-2.501,6.15159c-1.633,-0.9336 -3.267,-1.6171 -4.901,-2.0505c-1.634,-0.4668 -3.234,-0.7002 -4.801,-0.7002c-1.567,0 -2.851,0.1834 -3.851,0.5501c-1,0.3668 -1.717,0.8503 -2.151,1.4504c-0.433,0.5668 -0.65,1.2337 -0.65,2.0006c0,0.9002 0.367,1.6337 1.1,2.2005c0.734,0.5335 1.701,0.967 2.901,1.3004c1.2,0.3334 2.517,0.6668 3.951,1.0002c1.467,0.3335 2.918,0.7169 4.351,1.1503c1.467,0.4335 2.801,1.017 4.001,1.7505c1.201,0.7335 2.168,1.7004 2.901,2.9008c0.767,1.2003 1.15,2.7173 1.15,4.5512c0,1.9671 -0.55,3.7676 -1.65,5.4014c-1.1,1.6337 -2.751,2.9507 -4.951,3.951c-2.168,1.0003 -4.918,1.5004 -8.252,1.5004zM570.315,39.7601c-2.868,0 -5.418,-0.6002 -7.652,-1.8005c-2.201,-1.2003 -3.951,-2.8341 -5.251,-4.9013c-1.267,-2.1006 -1.901,-4.4845 -1.901,-7.1519c0,-2.7007 0.634,-5.0847 1.901,-7.1519c1.3,-2.1005 3.05,-3.7343 5.251,-4.9013c2.234,-1.2003 4.784,-1.8004 7.652,-1.8004c2.834,0 5.368,0.6001 7.602,1.8004c2.234,1.167 3.984,2.7841 5.251,4.8513c1.267,2.0672 1.901,4.4679 1.901,7.2019c0,2.6674 -0.634,5.0513 -1.901,7.1519c-1.267,2.0672 -3.017,3.701 -5.251,4.9013c-2.234,1.2003 -4.768,1.8005 -7.602,1.8005zM570.315,33.3584c1.3,0 2.467,-0.3001 3.501,-0.9003c1.033,-0.6001 1.85,-1.4503 2.45,-2.5506c0.601,-1.1337 0.901,-2.4673 0.901,-4.0011c0,-1.5671 -0.3,-2.9007 -0.901,-4.001c-0.6,-1.1003 -1.417,-1.9505 -2.45,-2.5507c-1.034,-0.6002 -2.201,-0.9002 -3.501,-0.9002c-1.3,0 -2.467,0.3 -3.501,0.9002c-1.034,0.6002 -1.867,1.4504 -2.501,2.5507c-0.6,1.1003 -0.9,2.4339 -0.9,4.001c0,1.5338 0.3,2.8674 0.9,4.0011c0.634,1.1003 1.467,1.9505 2.501,2.5506c1.034,0.6002 2.201,0.9003 3.501,0.9003zM590.284,39.3599v-37.1097h7.802v37.1097zM616.68,39.7601c-2.234,0 -4.235,-0.4335 -6.002,-1.3004c-1.734,-0.8669 -3.084,-2.1839 -4.051,-3.951c-0.967,-1.8005 -1.45,-4.0844 -1.45,-6.8518v-15.204h7.802v14.0537c0,2.2339 0.467,3.8843 1.4,4.9513c0.967,1.0336 2.317,1.5504 4.051,1.5504c1.201,0 2.268,-0.2501 3.201,-0.7502c0.934,-0.5335 1.667,-1.3337 2.201,-2.4006c0.533,-1.1003 0.8,-2.4674 0.8,-4.1011v-13.3035h7.802v26.907h-7.402v-7.4019l1.35,2.1506c-0.9,1.8671 -2.234,3.2842 -4.001,4.2511c-1.733,0.9336 -3.634,1.4004 -5.701,1.4004zM650.665,39.7601c-3.168,0 -5.635,-0.8003 -7.402,-2.4007c-1.767,-1.6337 -2.651,-4.051 -2.651,-7.2519v-23.60618h7.802v23.50618c0,1.1336 0.3,2.0172 0.901,2.6507c0.6,0.6001 1.417,0.9002 2.45,0.9002c1.234,0 2.284,-0.3334 3.151,-1.0002l2.101,5.5014c-0.801,0.5668 -1.768,1.0003 -2.901,1.3003c-1.1,0.2668 -2.251,0.4002 -3.451,0.4002zM636.461,19.0546v-6.0016h18.655v6.0016zM661.396,39.3599v-26.907h7.802v26.907zM665.297,8.70189c-1.433,0 -2.6,-0.41677 -3.501,-1.25032c-0.9,-0.83356 -1.35,-1.86716 -1.35,-3.10082c0,-1.23366 0.45,-2.26726 1.35,-3.10081c0.901,-0.83356 2.068,-1.25033 3.501,-1.25033c1.434,0 2.601,0.40011 3.501,1.20031c0.9,0.76687 1.351,1.76714 1.351,3.00079c0,1.30034 -0.451,2.38396 -1.351,3.25086c-0.867,0.83355 -2.034,1.25032 -3.501,1.25032zM689.243,39.7601c-2.868,0 -5.418,-0.6002 -7.652,-1.8005c-2.201,-1.2003 -3.951,-2.8341 -5.252,-4.9013c-1.267,-2.1006 -1.9,-4.4845 -1.9,-7.1519c0,-2.7007 0.633,-5.0847 1.9,-7.1519c1.301,-2.1005 3.051,-3.7343 5.252,-4.9013c2.234,-1.2003 4.784,-1.8004 7.652,-1.8004c2.834,0 5.368,0.6001 7.602,1.8004c2.234,1.167 3.984,2.7841 5.251,4.8513c1.267,2.0672 1.9,4.4679 1.9,7.2019c0,2.6674 -0.633,5.0513 -1.9,7.1519c-1.267,2.0672 -3.017,3.701 -5.251,4.9013c-2.234,1.2003 -4.768,1.8005 -7.602,1.8005zM689.243,33.3584c1.3,0 2.467,-0.3001 3.501,-0.9003c1.033,-0.6001 1.85,-1.4503 2.45,-2.5506c0.6,-1.1337 0.9,-2.4673 0.9,-4.0011c0,-1.5671 -0.3,-2.9007 -0.9,-4.001c-0.6,-1.1003 -1.417,-1.9505 -2.45,-2.5507c-1.034,-0.6002 -2.201,-0.9002 -3.501,-0.9002c-1.301,0 -2.468,0.3 -3.501,0.9002c-1.034,0.6002 -1.867,1.4504 -2.501,2.5507c-0.6,1.1003 -0.9,2.4339 -0.9,4.001c0,1.5338 0.3,2.8674 0.9,4.0011c0.634,1.1003 1.467,1.9505 2.501,2.5506c1.033,0.6002 2.2,0.9003 3.501,0.9003zM725.566,12.0528c2.134,0 4.034,0.4334 5.704,1.3003c1.7,0.8336 3.03,2.1339 4,3.901c0.97,1.7338 1.45,3.9677 1.45,6.7018v15.404h-7.8v-14.2037c0,-2.1672 -0.49,-3.7676 -1.45,-4.8012c-0.937,-1.0336 -2.271,-1.5505 -4.005,-1.5505c-1.233,0 -2.35,0.2668 -3.351,0.8003c-0.967,0.5001 -1.733,1.2836 -2.3,2.3506c-0.534,1.0669 -0.8,2.4339 -0.8,4.1011v13.3034h-7.802v-26.907h7.451v7.4519l-1.4,-2.2506c0.967,-1.8004 2.351,-3.1841 4.151,-4.151c1.801,-0.967 3.851,-1.4504 6.152,-1.4504zM752.84,39.7601c-2.3,0 -4.51,-0.2668 -6.65,-0.8003c-2.1,-0.5668 -3.77,-1.267 -5,-2.1005l2.6,-5.6015c1.23,0.7669 2.68,1.4004 4.35,1.9005c1.7,0.4668 3.37,0.7002 5,0.7002c1.8,0 3.07,-0.2167 3.8,-0.6502c0.77,-0.4334 1.15,-1.0336 1.15,-1.8004c0,-0.6335 -0.3,-1.1003 -0.9,-1.4004c-0.56,-0.3334 -1.33,-0.5835 -2.3,-0.7502c-0.96,-0.1667 -2.03,-0.3334 -3.2,-0.5001c-1.13,-0.1667 -2.28,-0.3835 -3.45,-0.6502c-1.16,-0.3001 -2.23,-0.7335 -3.2,-1.3003c-0.97,-0.5669 -1.75,-1.3337 -2.35,-2.3007c-0.57,-0.9669 -0.85,-2.2172 -0.85,-3.7509c0,-1.7005 0.48,-3.2009 1.45,-4.5012c1,-1.3004 2.43,-2.3173 4.3,-3.0508c1.87,-0.7669 4.1,-1.1503 6.7,-1.1503c1.84,0 3.7,0.2 5.61,0.6001c1.9,0.4001 3.48,0.9836 4.75,1.7505l-2.6,5.5515c-1.3,-0.7669 -2.62,-1.2837 -3.96,-1.5505c-1.3,-0.3 -2.56,-0.4501 -3.8,-0.4501c-1.73,0 -3,0.2334 -3.8,0.7002c-0.8,0.4668 -1.2,1.067 -1.2,1.8005c0,0.6668 0.29,1.167 0.85,1.5004c0.6,0.3334 1.39,0.6001 2.35,0.8002c0.97,0.2 2.02,0.3834 3.15,0.5501c1.17,0.1334 2.34,0.3501 3.5,0.6502c1.17,0.3001 2.22,0.7335 3.16,1.3003c0.96,0.5335 1.75,1.2837 2.35,2.2506c0.6,0.9336 0.9,2.1673 0.9,3.701c0,1.6671 -0.5,3.1508 -1.5,4.4512c-1,1.267 -2.45,2.2672 -4.35,3.0008c-1.87,0.7335 -4.16,1.1003 -6.86,1.1003z" fill="url(#paint0_linear_859_2189)"/>
<path id="Seamlessly integrate with third-party and open-source solutions" d="M199.881,65.6396c-0.068,-0.5759 -0.344,-1.023 -0.829,-1.3413c-0.485,-0.3182 -1.08,-0.4774 -1.785,-0.4774c-0.515,0 -0.966,0.0834 -1.353,0.2501c-0.382,0.1667 -0.682,0.3959 -0.898,0.6877c-0.212,0.2917 -0.318,0.6232 -0.318,0.9945c0,0.3107 0.074,0.5778 0.222,0.8014c0.151,0.2197 0.345,0.4035 0.579,0.5513c0.235,0.144 0.482,0.2633 0.739,0.358c0.258,0.091 0.495,0.1648 0.711,0.2217l1.182,0.3182c0.303,0.0796 0.64,0.1895 1.011,0.3297c0.376,0.1402 0.734,0.3315 1.075,0.574c0.344,0.2387 0.629,0.5456 0.852,0.9207c0.224,0.3751 0.335,0.8354 0.335,1.381c0,0.629 -0.164,1.1973 -0.494,1.705c-0.326,0.5077 -0.803,0.9112 -1.432,1.2106c-0.625,0.2993 -1.385,0.4489 -2.279,0.4489c-0.834,0 -1.556,-0.1345 -2.166,-0.4035c-0.606,-0.269 -1.083,-0.6441 -1.432,-1.1253c-0.345,-0.4812 -0.54,-1.04 -0.585,-1.6765h1.455c0.038,0.4395 0.185,0.8032 0.443,1.0912c0.262,0.2841 0.591,0.4963 0.989,0.6365c0.402,0.1364 0.834,0.2046 1.296,0.2046c0.538,0 1.021,-0.0872 1.449,-0.2614c0.428,-0.1781 0.767,-0.4244 1.017,-0.7389c0.25,-0.3182 0.375,-0.6896 0.375,-1.1139c0,-0.3865 -0.108,-0.701 -0.323,-0.9434c-0.216,-0.2425 -0.501,-0.4395 -0.853,-0.5911c-0.352,-0.1516 -0.733,-0.2842 -1.142,-0.3978l-1.433,-0.4092c-0.909,-0.2615 -1.629,-0.6347 -2.159,-1.1196c-0.531,-0.485 -0.796,-1.1197 -0.796,-1.904c0,-0.6516 0.176,-1.22 0.529,-1.7049c0.356,-0.4888 0.833,-0.8677 1.432,-1.1367c0.602,-0.2728 1.275,-0.4092 2.017,-0.4092c0.751,0 1.418,0.1345 2.001,0.4035c0.583,0.2652 1.046,0.629 1.387,1.0912c0.345,0.4622 0.526,0.987 0.545,1.5743zM207.2,74.551c-0.841,0 -1.567,-0.1856 -2.177,-0.557c-0.606,-0.3751 -1.074,-0.8979 -1.403,-1.5685c-0.326,-0.6745 -0.489,-1.4588 -0.489,-2.3529c0,-0.8942 0.163,-1.6823 0.489,-2.3643c0.329,-0.6858 0.788,-1.22 1.375,-1.6027c0.591,-0.3865 1.281,-0.5797 2.069,-0.5797c0.454,0 0.903,0.0758 1.347,0.2273c0.443,0.1516 0.846,0.3979 1.21,0.7389c0.364,0.3372 0.654,0.7843 0.87,1.3412c0.216,0.557 0.324,1.2428 0.324,2.0574v0.5683h-6.729v-1.1594h5.365c0,-0.4925 -0.099,-0.932 -0.296,-1.3185c-0.193,-0.3865 -0.47,-0.6915 -0.83,-0.915c-0.356,-0.2236 -0.776,-0.3353 -1.261,-0.3353c-0.535,0 -0.997,0.1326 -1.387,0.3978c-0.387,0.2614 -0.684,0.6024 -0.892,1.023c-0.209,0.4206 -0.313,0.8714 -0.313,1.3526v0.773c0,0.6592 0.114,1.2181 0.341,1.6765c0.231,0.4547 0.551,0.8014 0.96,1.0401c0.41,0.2349 0.885,0.3523 1.427,0.3523c0.352,0 0.671,-0.0492 0.955,-0.1477c0.288,-0.1023 0.536,-0.2539 0.744,-0.4547c0.209,-0.2046 0.37,-0.4584 0.483,-0.7615l1.296,0.3637c-0.136,0.4395 -0.365,0.826 -0.687,1.1594c-0.323,0.3296 -0.72,0.5873 -1.194,0.7729c-0.474,0.1819 -1.006,0.2728 -1.597,0.2728zM215.424,74.5737c-0.553,0 -1.055,-0.1041 -1.506,-0.3125c-0.451,-0.2122 -0.809,-0.5172 -1.074,-0.9151c-0.266,-0.4016 -0.398,-0.8865 -0.398,-1.4549c0,-0.5001 0.098,-0.9055 0.295,-1.2162c0.197,-0.3145 0.461,-0.5608 0.79,-0.7388c0.33,-0.1781 0.694,-0.3107 1.091,-0.3979c0.402,-0.0909 0.806,-0.1629 1.211,-0.2159c0.53,-0.0682 0.96,-0.1194 1.29,-0.1535c0.333,-0.0379 0.576,-0.1004 0.728,-0.1875c0.155,-0.0872 0.233,-0.2387 0.233,-0.4547v-0.0455c0,-0.5607 -0.154,-0.9964 -0.461,-1.3071c-0.303,-0.3107 -0.763,-0.4661 -1.381,-0.4661c-0.64,0 -1.142,0.1402 -1.506,0.4206c-0.364,0.2804 -0.619,0.5797 -0.767,0.898l-1.273,-0.4547c0.227,-0.5304 0.53,-0.9434 0.909,-1.239c0.383,-0.2993 0.8,-0.5077 1.25,-0.6251c0.455,-0.1213 0.902,-0.1819 1.342,-0.1819c0.28,0 0.602,0.0341 0.966,0.1023c0.367,0.0644 0.722,0.1989 1.063,0.4035c0.344,0.2046 0.63,0.5134 0.858,0.9264c0.227,0.413 0.341,0.9662 0.341,1.6595v5.7515h-1.341v-1.1821h-0.069c-0.091,0.1895 -0.242,0.3922 -0.454,0.6081c-0.212,0.216 -0.495,0.3998 -0.847,0.5513c-0.352,0.1516 -0.783,0.2273 -1.29,0.2273zM215.628,73.3689c0.531,0 0.978,-0.1042 1.342,-0.3126c0.367,-0.2084 0.644,-0.4774 0.829,-0.807c0.19,-0.3297 0.285,-0.6763 0.285,-1.0401v-1.2276c-0.057,0.0682 -0.182,0.1307 -0.376,0.1876c-0.189,0.053 -0.409,0.1004 -0.659,0.1421c-0.246,0.0379 -0.487,0.072 -0.722,0.1023c-0.231,0.0265 -0.418,0.0492 -0.562,0.0682c-0.349,0.0454 -0.675,0.1193 -0.978,0.2216c-0.299,0.0985 -0.542,0.2482 -0.727,0.449c-0.182,0.197 -0.273,0.466 -0.273,0.807c0,0.4661 0.172,0.8184 0.517,1.0571c0.349,0.2349 0.79,0.3524 1.324,0.3524zM221.873,74.3691v-8.7295h1.296v1.364h0.113c0.182,-0.4661 0.476,-0.8279 0.881,-1.0855c0.406,-0.2615 0.893,-0.3922 1.461,-0.3922c0.576,0 1.055,0.1307 1.438,0.3922c0.386,0.2576 0.687,0.6194 0.903,1.0855h0.091c0.224,-0.4509 0.559,-0.809 1.006,-1.0742c0.447,-0.269 0.984,-0.4035 1.609,-0.4035c0.78,0 1.419,0.2444 1.915,0.7332c0.496,0.4849 0.744,1.2408 0.744,2.2676v5.8424h-1.341v-5.8424c0,-0.6441 -0.176,-1.1045 -0.528,-1.381c-0.353,-0.2766 -0.768,-0.4149 -1.245,-0.4149c-0.614,0 -1.089,0.1856 -1.427,0.5569c-0.337,0.3676 -0.505,0.8336 -0.505,1.3981v5.6833h-1.364v-5.9788c0,-0.4963 -0.161,-0.8961 -0.483,-1.1992c-0.322,-0.3069 -0.737,-0.4603 -1.245,-0.4603c-0.349,0 -0.674,0.0928 -0.978,0.2785c-0.299,0.1856 -0.541,0.4433 -0.727,0.7729c-0.182,0.3258 -0.273,0.7028 -0.273,1.131v5.4559zM237.124,62.7297v11.6394h-1.341v-11.6394zM243.241,74.551c-0.841,0 -1.567,-0.1856 -2.177,-0.557c-0.606,-0.3751 -1.074,-0.8979 -1.404,-1.5685c-0.326,-0.6745 -0.489,-1.4588 -0.489,-2.3529c0,-0.8942 0.163,-1.6823 0.489,-2.3643c0.33,-0.6858 0.788,-1.22 1.376,-1.6027c0.591,-0.3865 1.28,-0.5797 2.068,-0.5797c0.455,0 0.904,0.0758 1.347,0.2273c0.444,0.1516 0.847,0.3979 1.211,0.7389c0.364,0.3372 0.653,0.7843 0.869,1.3412c0.216,0.557 0.324,1.2428 0.324,2.0574v0.5683h-6.729v-1.1594h5.365c0,-0.4925 -0.098,-0.932 -0.295,-1.3185c-0.193,-0.3865 -0.47,-0.6915 -0.83,-0.915c-0.356,-0.2236 -0.777,-0.3353 -1.262,-0.3353c-0.534,0 -0.996,0.1326 -1.386,0.3978c-0.387,0.2614 -0.684,0.6024 -0.893,1.023c-0.208,0.4206 -0.312,0.8714 -0.312,1.3526v0.773c0,0.6592 0.113,1.2181 0.341,1.6765c0.231,0.4547 0.551,0.8014 0.96,1.0401c0.409,0.2349 0.885,0.3523 1.427,0.3523c0.352,0 0.67,-0.0492 0.955,-0.1477c0.287,-0.1023 0.536,-0.2539 0.744,-0.4547c0.208,-0.2046 0.369,-0.4584 0.483,-0.7615l1.296,0.3637c-0.136,0.4395 -0.366,0.826 -0.688,1.1594c-0.322,0.3296 -0.72,0.5873 -1.193,0.7729c-0.474,0.1819 -1.006,0.2728 -1.597,0.2728zM255.079,67.5946l-1.205,0.341c-0.076,-0.2008 -0.187,-0.3959 -0.335,-0.5853c-0.144,-0.1933 -0.341,-0.3524 -0.591,-0.4774c-0.25,-0.1251 -0.57,-0.1876 -0.961,-0.1876c-0.534,0 -0.979,0.1231 -1.335,0.3694c-0.353,0.2425 -0.529,0.5513 -0.529,0.9264c0,0.3334 0.121,0.5968 0.364,0.79c0.242,0.1932 0.621,0.3542 1.137,0.4831l1.295,0.3182c0.781,0.1895 1.363,0.4793 1.745,0.8696c0.383,0.3864 0.574,0.8847 0.574,1.4947c0,0.5001 -0.144,0.9472 -0.432,1.3413c-0.284,0.394 -0.682,0.7047 -1.193,0.932c-0.512,0.2273 -1.107,0.341 -1.785,0.341c-0.89,0 -1.627,-0.1932 -2.211,-0.5797c-0.583,-0.3865 -0.952,-0.951 -1.108,-1.6936l1.273,-0.3183c0.121,0.4698 0.351,0.8222 0.688,1.0571c0.341,0.2349 0.786,0.3524 1.335,0.3524c0.626,0 1.122,-0.1326 1.49,-0.3978c0.371,-0.2691 0.556,-0.5911 0.556,-0.9662c0,-0.3031 -0.106,-0.557 -0.318,-0.7616c-0.212,-0.2084 -0.538,-0.3637 -0.977,-0.466l-1.455,-0.341c-0.8,-0.1894 -1.387,-0.4831 -1.762,-0.8809c-0.371,-0.4016 -0.557,-0.9037 -0.557,-1.5061c0,-0.4926 0.138,-0.9283 0.415,-1.3072c0.28,-0.3788 0.661,-0.6763 1.142,-0.8922c0.485,-0.216 1.035,-0.324 1.648,-0.324c0.864,0 1.542,0.1895 2.035,0.5683c0.496,0.3789 0.849,0.8791 1.057,1.5004zM263.441,67.5946l-1.205,0.341c-0.076,-0.2008 -0.188,-0.3959 -0.336,-0.5853c-0.144,-0.1933 -0.341,-0.3524 -0.591,-0.4774c-0.25,-0.1251 -0.57,-0.1876 -0.96,-0.1876c-0.534,0 -0.98,0.1231 -1.336,0.3694c-0.352,0.2425 -0.528,0.5513 -0.528,0.9264c0,0.3334 0.121,0.5968 0.364,0.79c0.242,0.1932 0.621,0.3542 1.136,0.4831l1.296,0.3182c0.78,0.1895 1.362,0.4793 1.745,0.8696c0.382,0.3864 0.574,0.8847 0.574,1.4947c0,0.5001 -0.144,0.9472 -0.432,1.3413c-0.284,0.394 -0.682,0.7047 -1.194,0.932c-0.511,0.2273 -1.106,0.341 -1.784,0.341c-0.891,0 -1.628,-0.1932 -2.211,-0.5797c-0.584,-0.3865 -0.953,-0.951 -1.108,-1.6936l1.273,-0.3183c0.121,0.4698 0.35,0.8222 0.687,1.0571c0.341,0.2349 0.787,0.3524 1.336,0.3524c0.625,0 1.122,-0.1326 1.489,-0.3978c0.371,-0.2691 0.557,-0.5911 0.557,-0.9662c0,-0.3031 -0.106,-0.557 -0.318,-0.7616c-0.212,-0.2084 -0.538,-0.3637 -0.978,-0.466l-1.455,-0.341c-0.799,-0.1894 -1.386,-0.4831 -1.762,-0.8809c-0.371,-0.4016 -0.556,-0.9037 -0.556,-1.5061c0,-0.4926 0.138,-0.9283 0.414,-1.3072c0.281,-0.3788 0.662,-0.6763 1.143,-0.8922c0.485,-0.216 1.034,-0.324 1.648,-0.324c0.864,0 1.542,0.1895 2.035,0.5683c0.496,0.3789 0.848,0.8791 1.057,1.5004zM266.96,62.7297v11.6394h-1.341v-11.6394zM270.281,77.6427c-0.228,0 -0.431,-0.0189 -0.609,-0.0568c-0.178,-0.0341 -0.301,-0.0682 -0.369,-0.1023l0.341,-1.1821c0.326,0.0833 0.614,0.1136 0.864,0.0909c0.25,-0.0227 0.472,-0.1345 0.665,-0.3353c0.197,-0.197 0.377,-0.5172 0.54,-0.9605l0.25,-0.682l-3.228,-8.775h1.455l2.409,6.9564h0.091l2.41,-6.9564h1.455l-3.706,10.0026c-0.166,0.4509 -0.373,0.8241 -0.619,1.1196c-0.246,0.2993 -0.532,0.521 -0.858,0.665c-0.322,0.1439 -0.686,0.2159 -1.091,0.2159zM282.826,74.3691v-8.7295h1.342v8.7295zM283.508,64.1847c-0.261,0 -0.486,-0.0891 -0.676,-0.2672c-0.186,-0.178 -0.278,-0.3921 -0.278,-0.6422c0,-0.25 0.092,-0.4641 0.278,-0.6422c0.19,-0.1781 0.415,-0.2671 0.676,-0.2671c0.262,0 0.485,0.089 0.671,0.2671c0.189,0.1781 0.284,0.3922 0.284,0.6422c0,0.2501 -0.095,0.4642 -0.284,0.6422c-0.186,0.1781 -0.409,0.2672 -0.671,0.2672zM287.966,69.1178v5.2513h-1.342v-8.7295h1.296v1.364h0.114c0.204,-0.4433 0.515,-0.7995 0.932,-1.0685c0.417,-0.2728 0.955,-0.4092 1.614,-0.4092c0.591,0 1.108,0.1213 1.551,0.3637c0.444,0.2387 0.788,0.6025 1.035,1.0912c0.246,0.485 0.369,1.0988 0.369,1.8414v5.5469h-1.341v-5.4559c0,-0.6858 -0.178,-1.2201 -0.534,-1.6027c-0.356,-0.3865 -0.845,-0.5797 -1.467,-0.5797c-0.428,0 -0.81,0.0928 -1.148,0.2785c-0.333,0.1856 -0.596,0.4565 -0.79,0.8127c-0.193,0.3561 -0.289,0.7881 -0.289,1.2958zM299.783,65.6396v1.1366h-4.524v-1.1366zM296.577,63.5481h1.341v8.3204c0,0.3789 0.055,0.663 0.165,0.8525c0.114,0.1856 0.258,0.3107 0.432,0.3751c0.178,0.0606 0.366,0.0909 0.563,0.0909c0.148,0 0.269,-0.0076 0.364,-0.0227c0.094,-0.019 0.17,-0.0341 0.227,-0.0455l0.273,1.2049c-0.091,0.0341 -0.218,0.0682 -0.381,0.1023c-0.163,0.0379 -0.369,0.0568 -0.62,0.0568c-0.378,0 -0.75,-0.0814 -1.113,-0.2444c-0.36,-0.1629 -0.66,-0.4111 -0.898,-0.7445c-0.235,-0.3334 -0.353,-0.754 -0.353,-1.2617zM305.366,74.551c-0.841,0 -1.566,-0.1856 -2.176,-0.557c-0.607,-0.3751 -1.074,-0.8979 -1.404,-1.5685c-0.326,-0.6745 -0.489,-1.4588 -0.489,-2.3529c0,-0.8942 0.163,-1.6823 0.489,-2.3643c0.33,-0.6858 0.788,-1.22 1.375,-1.6027c0.591,-0.3865 1.281,-0.5797 2.069,-0.5797c0.455,0 0.904,0.0758 1.347,0.2273c0.443,0.1516 0.847,0.3979 1.211,0.7389c0.363,0.3372 0.653,0.7843 0.869,1.3412c0.216,0.557 0.324,1.2428 0.324,2.0574v0.5683h-6.729v-1.1594h5.365c0,-0.4925 -0.098,-0.932 -0.296,-1.3185c-0.193,-0.3865 -0.469,-0.6915 -0.829,-0.915c-0.356,-0.2236 -0.777,-0.3353 -1.262,-0.3353c-0.534,0 -0.996,0.1326 -1.387,0.3978c-0.386,0.2614 -0.684,0.6024 -0.892,1.023c-0.208,0.4206 -0.313,0.8714 -0.313,1.3526v0.773c0,0.6592 0.114,1.2181 0.341,1.6765c0.232,0.4547 0.552,0.8014 0.961,1.0401c0.409,0.2349 0.885,0.3523 1.426,0.3523c0.353,0 0.671,-0.0492 0.955,-0.1477c0.288,-0.1023 0.536,-0.2539 0.745,-0.4547c0.208,-0.2046 0.369,-0.4584 0.483,-0.7615l1.296,0.3637c-0.137,0.4395 -0.366,0.826 -0.688,1.1594c-0.322,0.3296 -0.72,0.5873 -1.194,0.7729c-0.473,0.1819 -1.006,0.2728 -1.597,0.2728zM314.545,77.8246c-0.648,0 -1.205,-0.0834 -1.671,-0.2501c-0.466,-0.1629 -0.854,-0.3789 -1.165,-0.6479c-0.307,-0.2652 -0.551,-0.5494 -0.733,-0.8525l1.068,-0.7502c0.122,0.1592 0.275,0.341 0.461,0.5456c0.185,0.2084 0.439,0.3884 0.761,0.54c0.326,0.1553 0.752,0.233 1.279,0.233c0.705,0 1.286,-0.1705 1.745,-0.5115c0.458,-0.341 0.687,-0.8753 0.687,-1.6027v-1.7732h-0.113c-0.099,0.1591 -0.239,0.3561 -0.421,0.591c-0.178,0.2312 -0.436,0.4377 -0.773,0.6195c-0.333,0.1781 -0.784,0.2671 -1.352,0.2671c-0.705,0 -1.338,-0.1667 -1.899,-0.5001c-0.557,-0.3334 -0.998,-0.8184 -1.324,-1.4549c-0.322,-0.6365 -0.483,-1.4095 -0.483,-2.3188c0,-0.8942 0.157,-1.6728 0.472,-2.3358c0.314,-0.6669 0.752,-1.1822 1.313,-1.5459c0.56,-0.3675 1.208,-0.5513 1.943,-0.5513c0.569,0 1.02,0.0947 1.353,0.2842c0.337,0.1856 0.595,0.3978 0.773,0.6365c0.182,0.2349 0.322,0.4282 0.42,0.5797h0.137v-1.3867h1.296v8.9796c0,0.7502 -0.171,1.3602 -0.512,1.83c-0.337,0.4736 -0.792,0.8203 -1.364,1.0401c-0.568,0.2235 -1.201,0.3353 -1.898,0.3353zM314.5,73.0279c0.538,0 0.992,-0.1232 1.363,-0.3694c0.372,-0.2463 0.654,-0.6006 0.847,-1.0628c0.194,-0.4623 0.29,-1.0154 0.29,-1.6595c0,-0.629 -0.095,-1.1841 -0.284,-1.6652c-0.189,-0.4812 -0.47,-0.8582 -0.841,-1.131c-0.371,-0.2728 -0.83,-0.4092 -1.375,-0.4092c-0.569,0 -1.042,0.144 -1.421,0.4319c-0.375,0.288 -0.658,0.6744 -0.847,1.1594c-0.186,0.485 -0.279,1.023 -0.279,1.6141c0,0.6062 0.095,1.1423 0.285,1.6083c0.193,0.4623 0.477,0.826 0.852,1.0912c0.379,0.2615 0.849,0.3922 1.41,0.3922zM320.774,74.3691v-8.7295h1.296v1.3185h0.091c0.159,-0.4319 0.447,-0.7824 0.863,-1.0514c0.417,-0.269 0.887,-0.4035 1.41,-0.4035c0.098,0 0.222,0.0019 0.369,0.0057c0.148,0.0038 0.26,0.0094 0.336,0.017v1.364c-0.046,-0.0114 -0.15,-0.0284 -0.313,-0.0511c-0.159,-0.0266 -0.328,-0.0398 -0.506,-0.0398c-0.424,0 -0.803,0.089 -1.136,0.2671c-0.33,0.1743 -0.591,0.4168 -0.785,0.7275c-0.189,0.3069 -0.284,0.6573 -0.284,1.0514v5.5241zM329.297,74.5737c-0.553,0 -1.055,-0.1041 -1.506,-0.3125c-0.451,-0.2122 -0.809,-0.5172 -1.074,-0.9151c-0.265,-0.4016 -0.398,-0.8865 -0.398,-1.4549c0,-0.5001 0.099,-0.9055 0.296,-1.2162c0.197,-0.3145 0.46,-0.5608 0.79,-0.7388c0.33,-0.1781 0.693,-0.3107 1.091,-0.3979c0.402,-0.0909 0.805,-0.1629 1.211,-0.2159c0.53,-0.0682 0.96,-0.1194 1.29,-0.1535c0.333,-0.0379 0.576,-0.1004 0.727,-0.1875c0.156,-0.0872 0.233,-0.2387 0.233,-0.4547v-0.0455c0,-0.5607 -0.153,-0.9964 -0.46,-1.3071c-0.303,-0.3107 -0.764,-0.4661 -1.381,-0.4661c-0.64,0 -1.143,0.1402 -1.506,0.4206c-0.364,0.2804 -0.62,0.5797 -0.768,0.898l-1.273,-0.4547c0.228,-0.5304 0.531,-0.9434 0.91,-1.239c0.382,-0.2993 0.799,-0.5077 1.25,-0.6251c0.455,-0.1213 0.902,-0.1819 1.341,-0.1819c0.281,0 0.603,0.0341 0.967,0.1023c0.367,0.0644 0.721,0.1989 1.062,0.4035c0.345,0.2046 0.631,0.5134 0.858,0.9264c0.228,0.413 0.341,0.9662 0.341,1.6595v5.7515h-1.341v-1.1821h-0.068c-0.091,0.1895 -0.242,0.3922 -0.455,0.6081c-0.212,0.216 -0.494,0.3998 -0.846,0.5513c-0.353,0.1516 -0.783,0.2273 -1.291,0.2273zM329.502,73.3689c0.53,0 0.978,-0.1042 1.341,-0.3126c0.368,-0.2084 0.644,-0.4774 0.83,-0.807c0.189,-0.3297 0.284,-0.6763 0.284,-1.0401v-1.2276c-0.057,0.0682 -0.182,0.1307 -0.375,0.1876c-0.189,0.053 -0.409,0.1004 -0.659,0.1421c-0.246,0.0379 -0.487,0.072 -0.722,0.1023c-0.231,0.0265 -0.419,0.0492 -0.563,0.0682c-0.348,0.0454 -0.674,0.1193 -0.977,0.2216c-0.299,0.0985 -0.542,0.2482 -0.728,0.449c-0.181,0.197 -0.272,0.466 -0.272,0.807c0,0.4661 0.172,0.8184 0.517,1.0571c0.348,0.2349 0.79,0.3524 1.324,0.3524zM339.543,65.6396v1.1366h-4.524v-1.1366zM336.338,63.5481h1.341v8.3204c0,0.3789 0.055,0.663 0.165,0.8525c0.113,0.1856 0.257,0.3107 0.432,0.3751c0.178,0.0606 0.365,0.0909 0.562,0.0909c0.148,0 0.269,-0.0076 0.364,-0.0227c0.095,-0.019 0.171,-0.0341 0.227,-0.0455l0.273,1.2049c-0.091,0.0341 -0.218,0.0682 -0.381,0.1023c-0.163,0.0379 -0.369,0.0568 -0.619,0.0568c-0.379,0 -0.75,-0.0814 -1.114,-0.2444c-0.36,-0.1629 -0.659,-0.4111 -0.898,-0.7445c-0.235,-0.3334 -0.352,-0.754 -0.352,-1.2617zM345.127,74.551c-0.841,0 -1.567,-0.1856 -2.177,-0.557c-0.606,-0.3751 -1.074,-0.8979 -1.404,-1.5685c-0.325,-0.6745 -0.488,-1.4588 -0.488,-2.3529c0,-0.8942 0.163,-1.6823 0.488,-2.3643c0.33,-0.6858 0.788,-1.22 1.376,-1.6027c0.591,-0.3865 1.28,-0.5797 2.068,-0.5797c0.455,0 0.904,0.0758 1.347,0.2273c0.444,0.1516 0.847,0.3979 1.211,0.7389c0.364,0.3372 0.654,0.7843 0.87,1.3412c0.215,0.557 0.323,1.2428 0.323,2.0574v0.5683h-6.729v-1.1594h5.365c0,-0.4925 -0.098,-0.932 -0.295,-1.3185c-0.193,-0.3865 -0.47,-0.6915 -0.83,-0.915c-0.356,-0.2236 -0.777,-0.3353 -1.262,-0.3353c-0.534,0 -0.996,0.1326 -1.386,0.3978c-0.387,0.2614 -0.684,0.6024 -0.893,1.023c-0.208,0.4206 -0.312,0.8714 -0.312,1.3526v0.773c0,0.6592 0.114,1.2181 0.341,1.6765c0.231,0.4547 0.551,0.8014 0.96,1.0401c0.41,0.2349 0.885,0.3523 1.427,0.3523c0.352,0 0.67,-0.0492 0.955,-0.1477c0.288,-0.1023 0.536,-0.2539 0.744,-0.4547c0.209,-0.2046 0.37,-0.4584 0.483,-0.7615l1.296,0.3637c-0.136,0.4395 -0.366,0.826 -0.688,1.1594c-0.322,0.3296 -0.72,0.5873 -1.193,0.7729c-0.474,0.1819 -1.006,0.2728 -1.597,0.2728zM357.261,74.3691l-2.66,-8.7295h1.409l1.887,6.6836h0.091l1.864,-6.6836h1.433l1.841,6.6608h0.091l1.887,-6.6608h1.409l-2.66,8.7295h-1.318l-1.91,-6.7063h-0.136l-1.91,6.7063zM368.286,74.3691v-8.7295h1.342v8.7295zM368.968,64.1847c-0.261,0 -0.487,-0.0891 -0.676,-0.2672c-0.186,-0.178 -0.278,-0.3921 -0.278,-0.6422c0,-0.25 0.092,-0.4641 0.278,-0.6422c0.189,-0.1781 0.415,-0.2671 0.676,-0.2671c0.262,0 0.485,0.089 0.671,0.2671c0.189,0.1781 0.284,0.3922 0.284,0.6422c0,0.2501 -0.095,0.4642 -0.284,0.6422c-0.186,0.1781 -0.409,0.2672 -0.671,0.2672zM375.881,65.6396v1.1366h-4.524v-1.1366zM372.675,63.5481h1.342v8.3204c0,0.3789 0.054,0.663 0.164,0.8525c0.114,0.1856 0.258,0.3107 0.432,0.3751c0.178,0.0606 0.366,0.0909 0.563,0.0909c0.148,0 0.269,-0.0076 0.364,-0.0227c0.094,-0.019 0.17,-0.0341 0.227,-0.0455l0.273,1.2049c-0.091,0.0341 -0.218,0.0682 -0.381,0.1023c-0.163,0.0379 -0.369,0.0568 -0.619,0.0568c-0.379,0 -0.751,-0.0814 -1.114,-0.2444c-0.36,-0.1629 -0.66,-0.4111 -0.898,-0.7445c-0.235,-0.3334 -0.353,-0.754 -0.353,-1.2617zM379.427,69.1178v5.2513h-1.341v-11.6394h1.341v4.2739h0.114c0.204,-0.4509 0.511,-0.809 0.92,-1.0742c0.413,-0.269 0.963,-0.4035 1.649,-0.4035c0.594,0 1.115,0.1194 1.563,0.3581c0.447,0.2349 0.793,0.5967 1.04,1.0855c0.25,0.485 0.375,1.1025 0.375,1.8527v5.5469h-1.342v-5.4559c0,-0.6934 -0.18,-1.2295 -0.54,-1.6084c-0.356,-0.3827 -0.85,-0.574 -1.483,-0.574c-0.439,0 -0.833,0.0928 -1.182,0.2785c-0.345,0.1856 -0.618,0.4565 -0.818,0.8127c-0.197,0.3561 -0.296,0.7881 -0.296,1.2958zM395.839,65.6396v1.1366h-4.524v-1.1366zM392.634,63.5481h1.341v8.3204c0,0.3789 0.055,0.663 0.165,0.8525c0.113,0.1856 0.257,0.3107 0.432,0.3751c0.178,0.0606 0.365,0.0909 0.562,0.0909c0.148,0 0.269,-0.0076 0.364,-0.0227c0.095,-0.019 0.171,-0.0341 0.227,-0.0455l0.273,1.2049c-0.091,0.0341 -0.218,0.0682 -0.381,0.1023c-0.163,0.0379 -0.369,0.0568 -0.619,0.0568c-0.379,0 -0.75,-0.0814 -1.114,-0.2444c-0.36,-0.1629 -0.659,-0.4111 -0.898,-0.7445c-0.235,-0.3334 -0.352,-0.754 -0.352,-1.2617zM399.385,69.1178v5.2513h-1.341v-11.6394h1.341v4.2739h0.114c0.205,-0.4509 0.512,-0.809 0.921,-1.0742c0.413,-0.269 0.962,-0.4035 1.648,-0.4035c0.595,0 1.116,0.1194 1.563,0.3581c0.447,0.2349 0.794,0.5967 1.04,1.0855c0.25,0.485 0.375,1.1025 0.375,1.8527v5.5469h-1.341v-5.4559c0,-0.6934 -0.18,-1.2295 -0.54,-1.6084c-0.356,-0.3827 -0.851,-0.574 -1.484,-0.574c-0.439,0 -0.833,0.0928 -1.182,0.2785c-0.344,0.1856 -0.617,0.4565 -0.818,0.8127c-0.197,0.3561 -0.296,0.7881 -0.296,1.2958zM407.5,74.3691v-8.7295h1.341v8.7295zM408.182,64.1847c-0.262,0 -0.487,-0.0891 -0.677,-0.2672c-0.185,-0.178 -0.278,-0.3921 -0.278,-0.6422c0,-0.25 0.093,-0.4641 0.278,-0.6422c0.19,-0.1781 0.415,-0.2671 0.677,-0.2671c0.261,0 0.485,0.089 0.67,0.2671c0.19,0.1781 0.285,0.3922 0.285,0.6422c0,0.2501 -0.095,0.4642 -0.285,0.6422c-0.185,0.1781 -0.409,0.2672 -0.67,0.2672zM411.298,74.3691v-8.7295h1.295v1.3185h0.091c0.16,-0.4319 0.447,-0.7824 0.864,-1.0514c0.417,-0.269 0.887,-0.4035 1.41,-0.4035c0.098,0 0.221,0.0019 0.369,0.0057c0.148,0.0038 0.26,0.0094 0.335,0.017v1.364c-0.045,-0.0114 -0.149,-0.0284 -0.312,-0.0511c-0.159,-0.0266 -0.328,-0.0398 -0.506,-0.0398c-0.424,0 -0.803,0.089 -1.137,0.2671c-0.329,0.1743 -0.591,0.4168 -0.784,0.7275c-0.189,0.3069 -0.284,0.6573 -0.284,1.0514v5.5241zM420.283,74.551c-0.727,0 -1.37,-0.1837 -1.927,-0.5513c-0.557,-0.3713 -0.992,-0.8941 -1.307,-1.5686c-0.314,-0.6782 -0.472,-1.4795 -0.472,-2.404c0,-0.9169 0.158,-1.7126 0.472,-2.387c0.315,-0.6744 0.752,-1.1954 1.313,-1.5629c0.561,-0.3675 1.209,-0.5513 1.944,-0.5513c0.568,0 1.017,0.0947 1.347,0.2842c0.333,0.1856 0.587,0.3978 0.761,0.6365c0.178,0.2349 0.317,0.4282 0.415,0.5797h0.114v-4.2966h1.341v11.6394h-1.296v-1.3412h-0.159c-0.098,0.1591 -0.239,0.3599 -0.42,0.6024c-0.182,0.2387 -0.442,0.4528 -0.779,0.6422c-0.337,0.1857 -0.786,0.2785 -1.347,0.2785zM420.465,73.3461c0.538,0 0.993,-0.1401 1.364,-0.4205c0.371,-0.2842 0.653,-0.6763 0.847,-1.1765c0.193,-0.5039 0.289,-1.0855 0.289,-1.7447c0,-0.6517 -0.094,-1.2219 -0.284,-1.7107c-0.189,-0.4926 -0.469,-0.8752 -0.841,-1.148c-0.371,-0.2766 -0.83,-0.4149 -1.375,-0.4149c-0.568,0 -1.042,0.1458 -1.421,0.4376c-0.375,0.2879 -0.657,0.6801 -0.847,1.1764c-0.185,0.4926 -0.278,1.0458 -0.278,1.6596c0,0.6213 0.094,1.1859 0.284,1.6936c0.193,0.5039 0.477,0.9055 0.852,1.2049c0.379,0.2955 0.849,0.4432 1.41,0.4432zM431.928,68.754v1.2504h-5.092v-1.2504zM434.288,77.6427v-12.0031h1.296v1.3867h0.159c0.099,-0.1515 0.235,-0.3448 0.409,-0.5797c0.178,-0.2387 0.432,-0.4509 0.762,-0.6365c0.333,-0.1895 0.784,-0.2842 1.352,-0.2842c0.735,0 1.383,0.1838 1.944,0.5513c0.561,0.3675 0.998,0.8885 1.313,1.5629c0.314,0.6744 0.472,1.4701 0.472,2.387c0,0.9245 -0.158,1.7258 -0.472,2.404c-0.315,0.6745 -0.75,1.1973 -1.307,1.5686c-0.557,0.3676 -1.199,0.5513 -1.927,0.5513c-0.561,0 -1.01,-0.0928 -1.347,-0.2785c-0.337,-0.1894 -0.597,-0.4035 -0.778,-0.6422c-0.182,-0.2425 -0.322,-0.4433 -0.421,-0.6024h-0.114v4.6148zM435.607,70.0044c0,0.6592 0.096,1.2408 0.289,1.7447c0.194,0.5002 0.476,0.8923 0.847,1.1765c0.372,0.2804 0.826,0.4205 1.364,0.4205c0.561,0 1.029,-0.1477 1.404,-0.4432c0.379,-0.2994 0.663,-0.701 0.853,-1.2049c0.193,-0.5077 0.289,-1.0723 0.289,-1.6936c0,-0.6138 -0.094,-1.167 -0.284,-1.6596c-0.185,-0.4963 -0.468,-0.8885 -0.847,-1.1764c-0.375,-0.2918 -0.846,-0.4376 -1.415,-0.4376c-0.545,0 -1.004,0.1383 -1.375,0.4149c-0.371,0.2728 -0.652,0.6554 -0.841,1.148c-0.19,0.4888 -0.284,1.059 -0.284,1.7107zM446.609,74.5737c-0.553,0 -1.055,-0.1041 -1.506,-0.3125c-0.45,-0.2122 -0.809,-0.5172 -1.074,-0.9151c-0.265,-0.4016 -0.398,-0.8865 -0.398,-1.4549c0,-0.5001 0.099,-0.9055 0.296,-1.2162c0.197,-0.3145 0.46,-0.5608 0.79,-0.7388c0.33,-0.1781 0.693,-0.3107 1.091,-0.3979c0.402,-0.0909 0.805,-0.1629 1.211,-0.2159c0.53,-0.0682 0.96,-0.1194 1.29,-0.1535c0.333,-0.0379 0.576,-0.1004 0.727,-0.1875c0.156,-0.0872 0.233,-0.2387 0.233,-0.4547v-0.0455c0,-0.5607 -0.153,-0.9964 -0.46,-1.3071c-0.303,-0.3107 -0.764,-0.4661 -1.381,-0.4661c-0.64,0 -1.142,0.1402 -1.506,0.4206c-0.364,0.2804 -0.62,0.5797 -0.767,0.898l-1.273,-0.4547c0.227,-0.5304 0.53,-0.9434 0.909,-1.239c0.383,-0.2993 0.799,-0.5077 1.25,-0.6251c0.455,-0.1213 0.902,-0.1819 1.341,-0.1819c0.281,0 0.603,0.0341 0.967,0.1023c0.367,0.0644 0.721,0.1989 1.062,0.4035c0.345,0.2046 0.631,0.5134 0.859,0.9264c0.227,0.413 0.341,0.9662 0.341,1.6595v5.7515h-1.342v-1.1821h-0.068c-0.091,0.1895 -0.242,0.3922 -0.455,0.6081c-0.212,0.216 -0.494,0.3998 -0.846,0.5513c-0.353,0.1516 -0.783,0.2273 -1.291,0.2273zM446.814,73.3689c0.531,0 0.978,-0.1042 1.341,-0.3126c0.368,-0.2084 0.644,-0.4774 0.83,-0.807c0.19,-0.3297 0.284,-0.6763 0.284,-1.0401v-1.2276c-0.057,0.0682 -0.182,0.1307 -0.375,0.1876c-0.189,0.053 -0.409,0.1004 -0.659,0.1421c-0.246,0.0379 -0.487,0.072 -0.722,0.1023c-0.231,0.0265 -0.419,0.0492 -0.563,0.0682c-0.348,0.0454 -0.674,0.1193 -0.977,0.2216c-0.299,0.0985 -0.542,0.2482 -0.728,0.449c-0.181,0.197 -0.272,0.466 -0.272,0.807c0,0.4661 0.172,0.8184 0.517,1.0571c0.348,0.2349 0.79,0.3524 1.324,0.3524zM453.059,74.3691v-8.7295h1.295v1.3185h0.091c0.159,-0.4319 0.447,-0.7824 0.864,-1.0514c0.417,-0.269 0.887,-0.4035 1.41,-0.4035c0.098,0 0.221,0.0019 0.369,0.0057c0.148,0.0038 0.26,0.0094 0.335,0.017v1.364c-0.045,-0.0114 -0.149,-0.0284 -0.312,-0.0511c-0.159,-0.0266 -0.328,-0.0398 -0.506,-0.0398c-0.424,0 -0.803,0.089 -1.137,0.2671c-0.329,0.1743 -0.591,0.4168 -0.784,0.7275c-0.189,0.3069 -0.284,0.6573 -0.284,1.0514v5.5241zM463.357,65.6396v1.1366h-4.524v-1.1366zM460.151,63.5481h1.342v8.3204c0,0.3789 0.055,0.663 0.164,0.8525c0.114,0.1856 0.258,0.3107 0.432,0.3751c0.178,0.0606 0.366,0.0909 0.563,0.0909c0.148,0 0.269,-0.0076 0.364,-0.0227c0.095,-0.019 0.17,-0.0341 0.227,-0.0455l0.273,1.2049c-0.091,0.0341 -0.218,0.0682 -0.381,0.1023c-0.163,0.0379 -0.369,0.0568 -0.619,0.0568c-0.379,0 -0.751,-0.0814 -1.114,-0.2444c-0.36,-0.1629 -0.66,-0.4111 -0.898,-0.7445c-0.235,-0.3334 -0.353,-0.754 -0.353,-1.2617zM466.238,77.6427c-0.227,0 -0.43,-0.0189 -0.608,-0.0568c-0.178,-0.0341 -0.301,-0.0682 -0.369,-0.1023l0.341,-1.1821c0.326,0.0833 0.613,0.1136 0.864,0.0909c0.25,-0.0227 0.471,-0.1345 0.665,-0.3353c0.197,-0.197 0.377,-0.5172 0.539,-0.9605l0.25,-0.682l-3.228,-8.775h1.455l2.41,6.9564h0.091l2.41,-6.9564h1.455l-3.706,10.0026c-0.167,0.4509 -0.373,0.8241 -0.619,1.1196c-0.247,0.2993 -0.533,0.521 -0.859,0.665c-0.322,0.1439 -0.685,0.2159 -1.091,0.2159zM481.353,74.5737c-0.553,0 -1.055,-0.1041 -1.506,-0.3125c-0.451,-0.2122 -0.809,-0.5172 -1.074,-0.9151c-0.265,-0.4016 -0.398,-0.8865 -0.398,-1.4549c0,-0.5001 0.098,-0.9055 0.295,-1.2162c0.197,-0.3145 0.461,-0.5608 0.79,-0.7388c0.33,-0.1781 0.694,-0.3107 1.092,-0.3979c0.401,-0.0909 0.805,-0.1629 1.21,-0.2159c0.531,-0.0682 0.961,-0.1194 1.29,-0.1535c0.334,-0.0379 0.576,-0.1004 0.728,-0.1875c0.155,-0.0872 0.233,-0.2387 0.233,-0.4547v-0.0455c0,-0.5607 -0.154,-0.9964 -0.461,-1.3071c-0.303,-0.3107 -0.763,-0.4661 -1.381,-0.4661c-0.64,0 -1.142,0.1402 -1.506,0.4206c-0.363,0.2804 -0.619,0.5797 -0.767,0.898l-1.273,-0.4547c0.227,-0.5304 0.53,-0.9434 0.909,-1.239c0.383,-0.2993 0.8,-0.5077 1.251,-0.6251c0.454,-0.1213 0.901,-0.1819 1.341,-0.1819c0.28,0 0.602,0.0341 0.966,0.1023c0.368,0.0644 0.722,0.1989 1.063,0.4035c0.345,0.2046 0.631,0.5134 0.858,0.9264c0.227,0.413 0.341,0.9662 0.341,1.6595v5.7515h-1.341v-1.1821h-0.068c-0.091,0.1895 -0.243,0.3922 -0.455,0.6081c-0.212,0.216 -0.495,0.3998 -0.847,0.5513c-0.352,0.1516 -0.782,0.2273 -1.29,0.2273zM481.558,73.3689c0.53,0 0.977,-0.1042 1.341,-0.3126c0.367,-0.2084 0.644,-0.4774 0.83,-0.807c0.189,-0.3297 0.284,-0.6763 0.284,-1.0401v-1.2276c-0.057,0.0682 -0.182,0.1307 -0.375,0.1876c-0.19,0.053 -0.41,0.1004 -0.66,0.1421c-0.246,0.0379 -0.486,0.072 -0.721,0.1023c-0.231,0.0265 -0.419,0.0492 -0.563,0.0682c-0.349,0.0454 -0.674,0.1193 -0.978,0.2216c-0.299,0.0985 -0.541,0.2482 -0.727,0.449c-0.182,0.197 -0.273,0.466 -0.273,0.807c0,0.4661 0.173,0.8184 0.517,1.0571c0.349,0.2349 0.79,0.3524 1.325,0.3524zM489.143,69.1178v5.2513h-1.341v-8.7295h1.296v1.364h0.114c0.204,-0.4433 0.515,-0.7995 0.932,-1.0685c0.416,-0.2728 0.954,-0.4092 1.614,-0.4092c0.591,0 1.108,0.1213 1.551,0.3637c0.444,0.2387 0.788,0.6025 1.035,1.0912c0.246,0.485 0.369,1.0988 0.369,1.8414v5.5469h-1.341v-5.4559c0,-0.6858 -0.178,-1.2201 -0.534,-1.6027c-0.357,-0.3865 -0.845,-0.5797 -1.467,-0.5797c-0.428,0 -0.811,0.0928 -1.148,0.2785c-0.333,0.1856 -0.597,0.4565 -0.79,0.8127c-0.193,0.3561 -0.29,0.7881 -0.29,1.2958zM500.46,74.551c-0.727,0 -1.369,-0.1837 -1.926,-0.5513c-0.557,-0.3713 -0.993,-0.8941 -1.308,-1.5686c-0.314,-0.6782 -0.471,-1.4795 -0.471,-2.404c0,-0.9169 0.157,-1.7126 0.471,-2.387c0.315,-0.6744 0.753,-1.1954 1.313,-1.5629c0.561,-0.3675 1.209,-0.5513 1.944,-0.5513c0.568,0 1.017,0.0947 1.347,0.2842c0.333,0.1856 0.587,0.3978 0.762,0.6365c0.178,0.2349 0.316,0.4282 0.414,0.5797h0.114v-4.2966h1.341v11.6394h-1.295v-1.3412h-0.16c-0.098,0.1591 -0.238,0.3599 -0.42,0.6024c-0.182,0.2387 -0.442,0.4528 -0.779,0.6422c-0.337,0.1857 -0.786,0.2785 -1.347,0.2785zM500.642,73.3461c0.538,0 0.993,-0.1401 1.364,-0.4205c0.371,-0.2842 0.654,-0.6763 0.847,-1.1765c0.193,-0.5039 0.29,-1.0855 0.29,-1.7447c0,-0.6517 -0.095,-1.2219 -0.284,-1.7107c-0.19,-0.4926 -0.47,-0.8752 -0.841,-1.148c-0.372,-0.2766 -0.83,-0.4149 -1.376,-0.4149c-0.568,0 -1.042,0.1458 -1.421,0.4376c-0.375,0.2879 -0.657,0.6801 -0.846,1.1764c-0.186,0.4926 -0.279,1.0458 -0.279,1.6596c0,0.6213 0.095,1.1859 0.284,1.6936c0.193,0.5039 0.478,0.9055 0.853,1.2049c0.379,0.2955 0.848,0.4432 1.409,0.4432zM515.152,74.551c-0.788,0 -1.48,-0.1875 -2.075,-0.5626c-0.591,-0.3751 -1.053,-0.8999 -1.386,-1.5743c-0.33,-0.6744 -0.495,-1.4625 -0.495,-2.3643c0,-0.9093 0.165,-1.7031 0.495,-2.3813c0.333,-0.6782 0.795,-1.2048 1.386,-1.5799c0.595,-0.3751 1.287,-0.5627 2.075,-0.5627c0.788,0 1.477,0.1876 2.068,0.5627c0.595,0.3751 1.057,0.9017 1.387,1.5799c0.334,0.6782 0.5,1.472 0.5,2.3813c0,0.9018 -0.166,1.6899 -0.5,2.3643c-0.33,0.6744 -0.792,1.1992 -1.387,1.5743c-0.591,0.3751 -1.28,0.5626 -2.068,0.5626zM515.152,73.3461c0.598,0 1.091,-0.1534 1.477,-0.4603c0.387,-0.3069 0.673,-0.7104 0.858,-1.2105c0.186,-0.5002 0.279,-1.042 0.279,-1.6255c0,-0.5835 -0.093,-1.1272 -0.279,-1.6311c-0.185,-0.5039 -0.471,-0.9112 -0.858,-1.2219c-0.386,-0.3107 -0.879,-0.466 -1.477,-0.466c-0.599,0 -1.092,0.1553 -1.478,0.466c-0.386,0.3107 -0.673,0.718 -0.858,1.2219c-0.186,0.5039 -0.279,1.0476 -0.279,1.6311c0,0.5835 0.093,1.1253 0.279,1.6255c0.185,0.5001 0.472,0.9036 0.858,1.2105c0.386,0.3069 0.879,0.4603 1.478,0.4603zM521.155,77.6427v-12.0031h1.295v1.3867h0.16c0.098,-0.1515 0.234,-0.3448 0.409,-0.5797c0.178,-0.2387 0.432,-0.4509 0.761,-0.6365c0.334,-0.1895 0.785,-0.2842 1.353,-0.2842c0.735,0 1.383,0.1838 1.944,0.5513c0.56,0.3675 0.998,0.8885 1.312,1.5629c0.315,0.6744 0.472,1.4701 0.472,2.387c0,0.9245 -0.157,1.7258 -0.472,2.404c-0.314,0.6745 -0.75,1.1973 -1.307,1.5686c-0.557,0.3676 -1.199,0.5513 -1.926,0.5513c-0.561,0 -1.01,-0.0928 -1.347,-0.2785c-0.337,-0.1894 -0.597,-0.4035 -0.779,-0.6422c-0.182,-0.2425 -0.322,-0.4433 -0.42,-0.6024h-0.114v4.6148zM522.473,70.0044c0,0.6592 0.097,1.2408 0.29,1.7447c0.193,0.5002 0.476,0.8923 0.847,1.1765c0.371,0.2804 0.826,0.4205 1.364,0.4205c0.561,0 1.029,-0.1477 1.404,-0.4432c0.378,-0.2994 0.663,-0.701 0.852,-1.2049c0.193,-0.5077 0.29,-1.0723 0.29,-1.6936c0,-0.6138 -0.095,-1.167 -0.284,-1.6596c-0.186,-0.4963 -0.468,-0.8885 -0.847,-1.1764c-0.375,-0.2918 -0.847,-0.4376 -1.415,-0.4376c-0.546,0 -1.004,0.1383 -1.376,0.4149c-0.371,0.2728 -0.651,0.6554 -0.841,1.148c-0.189,0.4888 -0.284,1.059 -0.284,1.7107zM534.567,74.551c-0.841,0 -1.566,-0.1856 -2.176,-0.557c-0.607,-0.3751 -1.075,-0.8979 -1.404,-1.5685c-0.326,-0.6745 -0.489,-1.4588 -0.489,-2.3529c0,-0.8942 0.163,-1.6823 0.489,-2.3643c0.329,-0.6858 0.788,-1.22 1.375,-1.6027c0.591,-0.3865 1.281,-0.5797 2.069,-0.5797c0.455,0 0.904,0.0758 1.347,0.2273c0.443,0.1516 0.847,0.3979 1.21,0.7389c0.364,0.3372 0.654,0.7843 0.87,1.3412c0.216,0.557 0.324,1.2428 0.324,2.0574v0.5683h-6.729v-1.1594h5.365c0,-0.4925 -0.099,-0.932 -0.296,-1.3185c-0.193,-0.3865 -0.47,-0.6915 -0.829,-0.915c-0.357,-0.2236 -0.777,-0.3353 -1.262,-0.3353c-0.534,0 -0.997,0.1326 -1.387,0.3978c-0.386,0.2614 -0.684,0.6024 -0.892,1.023c-0.209,0.4206 -0.313,0.8714 -0.313,1.3526v0.773c0,0.6592 0.114,1.2181 0.341,1.6765c0.231,0.4547 0.552,0.8014 0.961,1.0401c0.409,0.2349 0.884,0.3523 1.426,0.3523c0.353,0 0.671,-0.0492 0.955,-0.1477c0.288,-0.1023 0.536,-0.2539 0.745,-0.4547c0.208,-0.2046 0.369,-0.4584 0.483,-0.7615l1.295,0.3637c-0.136,0.4395 -0.365,0.826 -0.687,1.1594c-0.322,0.3296 -0.72,0.5873 -1.194,0.7729c-0.473,0.1819 -1.006,0.2728 -1.597,0.2728zM541.563,69.1178v5.2513h-1.341v-8.7295h1.296v1.364h0.114c0.204,-0.4433 0.515,-0.7995 0.932,-1.0685c0.416,-0.2728 0.954,-0.4092 1.614,-0.4092c0.591,0 1.108,0.1213 1.551,0.3637c0.444,0.2387 0.788,0.6025 1.035,1.0912c0.246,0.485 0.369,1.0988 0.369,1.8414v5.5469h-1.341v-5.4559c0,-0.6858 -0.178,-1.2201 -0.534,-1.6027c-0.357,-0.3865 -0.845,-0.5797 -1.467,-0.5797c-0.428,0 -0.811,0.0928 -1.148,0.2785c-0.333,0.1856 -0.597,0.4565 -0.79,0.8127c-0.193,0.3561 -0.29,0.7881 -0.29,1.2958zM554.585,68.754v1.2504h-5.092v-1.2504zM563.129,67.5946l-1.205,0.341c-0.076,-0.2008 -0.188,-0.3959 -0.335,-0.5853c-0.144,-0.1933 -0.341,-0.3524 -0.592,-0.4774c-0.25,-0.1251 -0.57,-0.1876 -0.96,-0.1876c-0.534,0 -0.979,0.1231 -1.336,0.3694c-0.352,0.2425 -0.528,0.5513 -0.528,0.9264c0,0.3334 0.121,0.5968 0.364,0.79c0.242,0.1932 0.621,0.3542 1.136,0.4831l1.296,0.3182c0.781,0.1895 1.362,0.4793 1.745,0.8696c0.383,0.3864 0.574,0.8847 0.574,1.4947c0,0.5001 -0.144,0.9472 -0.432,1.3413c-0.284,0.394 -0.682,0.7047 -1.194,0.932c-0.511,0.2273 -1.106,0.341 -1.784,0.341c-0.891,0 -1.627,-0.1932 -2.211,-0.5797c-0.583,-0.3865 -0.953,-0.951 -1.108,-1.6936l1.273,-0.3183c0.121,0.4698 0.35,0.8222 0.688,1.0571c0.341,0.2349 0.786,0.3524 1.335,0.3524c0.625,0 1.122,-0.1326 1.489,-0.3978c0.371,-0.2691 0.557,-0.5911 0.557,-0.9662c0,-0.3031 -0.106,-0.557 -0.318,-0.7616c-0.212,-0.2084 -0.538,-0.3637 -0.978,-0.466l-1.455,-0.341c-0.799,-0.1894 -1.386,-0.4831 -1.761,-0.8809c-0.372,-0.4016 -0.557,-0.9037 -0.557,-1.5061c0,-0.4926 0.138,-0.9283 0.415,-1.3072c0.28,-0.3788 0.661,-0.6763 1.142,-0.8922c0.485,-0.216 1.034,-0.324 1.648,-0.324c0.864,0 1.542,0.1895 2.035,0.5683c0.496,0.3789 0.848,0.8791 1.057,1.5004zM568.853,74.551c-0.788,0 -1.479,-0.1875 -2.074,-0.5626c-0.591,-0.3751 -1.053,-0.8999 -1.387,-1.5743c-0.33,-0.6744 -0.494,-1.4625 -0.494,-2.3643c0,-0.9093 0.164,-1.7031 0.494,-2.3813c0.334,-0.6782 0.796,-1.2048 1.387,-1.5799c0.595,-0.3751 1.286,-0.5627 2.074,-0.5627c0.788,0 1.478,0.1876 2.069,0.5627c0.595,0.3751 1.057,0.9017 1.387,1.5799c0.333,0.6782 0.5,1.472 0.5,2.3813c0,0.9018 -0.167,1.6899 -0.5,2.3643c-0.33,0.6744 -0.792,1.1992 -1.387,1.5743c-0.591,0.3751 -1.281,0.5626 -2.069,0.5626zM568.853,73.3461c0.599,0 1.091,-0.1534 1.478,-0.4603c0.386,-0.3069 0.672,-0.7104 0.858,-1.2105c0.186,-0.5002 0.279,-1.042 0.279,-1.6255c0,-0.5835 -0.093,-1.1272 -0.279,-1.6311c-0.186,-0.5039 -0.472,-0.9112 -0.858,-1.2219c-0.387,-0.3107 -0.879,-0.466 -1.478,-0.466c-0.598,0 -1.091,0.1553 -1.477,0.466c-0.387,0.3107 -0.673,0.718 -0.859,1.2219c-0.185,0.5039 -0.278,1.0476 -0.278,1.6311c0,0.5835 0.093,1.1253 0.278,1.6255c0.186,0.5001 0.472,0.9036 0.859,1.2105c0.386,0.3069 0.879,0.4603 1.477,0.4603zM580.358,70.8v-5.1604h1.341v8.7295h-1.341v-1.4776h-0.091c-0.205,0.4433 -0.523,0.8203 -0.955,1.131c-0.432,0.3069 -0.978,0.4603 -1.637,0.4603c-0.545,0 -1.03,-0.1193 -1.455,-0.358c-0.424,-0.2425 -0.758,-0.6063 -1,-1.0912c-0.243,-0.4888 -0.364,-1.1045 -0.364,-1.8471v-5.5469h1.342v5.456c0,0.6365 0.178,1.1442 0.534,1.5231c0.36,0.3789 0.818,0.5683 1.375,0.5683c0.334,0 0.673,-0.0852 1.017,-0.2557c0.349,-0.1705 0.641,-0.432 0.876,-0.7843c0.238,-0.3524 0.358,-0.8014 0.358,-1.347zM584.156,74.3691v-8.7295h1.295v1.3185h0.091c0.159,-0.4319 0.447,-0.7824 0.864,-1.0514c0.417,-0.269 0.887,-0.4035 1.41,-0.4035c0.098,0 0.221,0.0019 0.369,0.0057c0.148,0.0038 0.26,0.0094 0.335,0.017v1.364c-0.045,-0.0114 -0.149,-0.0284 -0.312,-0.0511c-0.159,-0.0266 -0.328,-0.0398 -0.506,-0.0398c-0.424,0 -0.803,0.089 -1.137,0.2671c-0.329,0.1743 -0.591,0.4168 -0.784,0.7275c-0.189,0.3069 -0.284,0.6573 -0.284,1.0514v5.5241zM593.391,74.551c-0.818,0 -1.523,-0.1932 -2.114,-0.5797c-0.591,-0.3865 -1.046,-0.9188 -1.364,-1.597c-0.319,-0.6782 -0.478,-1.453 -0.478,-2.3245c0,-0.8866 0.163,-1.669 0.489,-2.3472c0.33,-0.682 0.788,-1.2143 1.375,-1.597c0.592,-0.3865 1.281,-0.5797 2.069,-0.5797c0.614,0 1.167,0.1137 1.66,0.341c0.492,0.2273 0.896,0.5456 1.21,0.9548c0.315,0.4092 0.51,0.8866 0.586,1.4322h-1.342c-0.102,-0.3978 -0.329,-0.7502 -0.682,-1.0571c-0.348,-0.3107 -0.818,-0.466 -1.409,-0.466c-0.523,0 -0.981,0.1364 -1.375,0.4092c-0.391,0.269 -0.696,0.6498 -0.915,1.1423c-0.216,0.4888 -0.324,1.0628 -0.324,1.7221c0,0.6744 0.106,1.2617 0.318,1.7618c0.216,0.5001 0.519,0.8885 0.909,1.1651c0.394,0.2766 0.857,0.4148 1.387,0.4148c0.349,0 0.665,-0.0606 0.949,-0.1818c0.284,-0.1213 0.525,-0.2955 0.722,-0.5229c0.197,-0.2273 0.337,-0.5001 0.42,-0.8184h1.342c-0.076,0.5153 -0.264,0.9794 -0.563,1.3924c-0.296,0.4092 -0.688,0.7351 -1.176,0.9776c-0.485,0.2387 -1.05,0.358 -1.694,0.358zM602.444,74.551c-0.841,0 -1.566,-0.1856 -2.176,-0.557c-0.606,-0.3751 -1.074,-0.8979 -1.404,-1.5685c-0.326,-0.6745 -0.489,-1.4588 -0.489,-2.3529c0,-0.8942 0.163,-1.6823 0.489,-2.3643c0.33,-0.6858 0.788,-1.22 1.375,-1.6027c0.591,-0.3865 1.281,-0.5797 2.069,-0.5797c0.455,0 0.904,0.0758 1.347,0.2273c0.443,0.1516 0.847,0.3979 1.211,0.7389c0.363,0.3372 0.653,0.7843 0.869,1.3412c0.216,0.557 0.324,1.2428 0.324,2.0574v0.5683h-6.729v-1.1594h5.365c0,-0.4925 -0.098,-0.932 -0.295,-1.3185c-0.194,-0.3865 -0.47,-0.6915 -0.83,-0.915c-0.356,-0.2236 -0.777,-0.3353 -1.262,-0.3353c-0.534,0 -0.996,0.1326 -1.387,0.3978c-0.386,0.2614 -0.684,0.6024 -0.892,1.023c-0.208,0.4206 -0.313,0.8714 -0.313,1.3526v0.773c0,0.6592 0.114,1.2181 0.341,1.6765c0.232,0.4547 0.552,0.8014 0.961,1.0401c0.409,0.2349 0.885,0.3523 1.426,0.3523c0.353,0 0.671,-0.0492 0.955,-0.1477c0.288,-0.1023 0.536,-0.2539 0.745,-0.4547c0.208,-0.2046 0.369,-0.4584 0.483,-0.7615l1.296,0.3637c-0.137,0.4395 -0.366,0.826 -0.688,1.1594c-0.322,0.3296 -0.72,0.5873 -1.194,0.7729c-0.473,0.1819 -1.005,0.2728 -1.597,0.2728zM618.784,67.5946l-1.205,0.341c-0.076,-0.2008 -0.187,-0.3959 -0.335,-0.5853c-0.144,-0.1933 -0.341,-0.3524 -0.591,-0.4774c-0.25,-0.1251 -0.57,-0.1876 -0.961,-0.1876c-0.534,0 -0.979,0.1231 -1.335,0.3694c-0.353,0.2425 -0.529,0.5513 -0.529,0.9264c0,0.3334 0.121,0.5968 0.364,0.79c0.242,0.1932 0.621,0.3542 1.137,0.4831l1.295,0.3182c0.781,0.1895 1.362,0.4793 1.745,0.8696c0.383,0.3864 0.574,0.8847 0.574,1.4947c0,0.5001 -0.144,0.9472 -0.432,1.3413c-0.284,0.394 -0.682,0.7047 -1.193,0.932c-0.512,0.2273 -1.107,0.341 -1.785,0.341c-0.89,0 -1.627,-0.1932 -2.211,-0.5797c-0.583,-0.3865 -0.953,-0.951 -1.108,-1.6936l1.273,-0.3183c0.121,0.4698 0.351,0.8222 0.688,1.0571c0.341,0.2349 0.786,0.3524 1.335,0.3524c0.626,0 1.122,-0.1326 1.489,-0.3978c0.372,-0.2691 0.557,-0.5911 0.557,-0.9662c0,-0.3031 -0.106,-0.557 -0.318,-0.7616c-0.212,-0.2084 -0.538,-0.3637 -0.977,-0.466l-1.455,-0.341c-0.8,-0.1894 -1.387,-0.4831 -1.762,-0.8809c-0.371,-0.4016 -0.557,-0.9037 -0.557,-1.5061c0,-0.4926 0.138,-0.9283 0.415,-1.3072c0.28,-0.3788 0.661,-0.6763 1.142,-0.8922c0.485,-0.216 1.034,-0.324 1.648,-0.324c0.864,0 1.542,0.1895 2.035,0.5683c0.496,0.3789 0.849,0.8791 1.057,1.5004zM624.508,74.551c-0.788,0 -1.479,-0.1875 -2.074,-0.5626c-0.591,-0.3751 -1.053,-0.8999 -1.387,-1.5743c-0.329,-0.6744 -0.494,-1.4625 -0.494,-2.3643c0,-0.9093 0.165,-1.7031 0.494,-2.3813c0.334,-0.6782 0.796,-1.2048 1.387,-1.5799c0.595,-0.3751 1.286,-0.5627 2.074,-0.5627c0.789,0 1.478,0.1876 2.069,0.5627c0.595,0.3751 1.057,0.9017 1.387,1.5799c0.333,0.6782 0.5,1.472 0.5,2.3813c0,0.9018 -0.167,1.6899 -0.5,2.3643c-0.33,0.6744 -0.792,1.1992 -1.387,1.5743c-0.591,0.3751 -1.28,0.5626 -2.069,0.5626zM624.508,73.3461c0.599,0 1.092,-0.1534 1.478,-0.4603c0.387,-0.3069 0.673,-0.7104 0.858,-1.2105c0.186,-0.5002 0.279,-1.042 0.279,-1.6255c0,-0.5835 -0.093,-1.1272 -0.279,-1.6311c-0.185,-0.5039 -0.471,-0.9112 -0.858,-1.2219c-0.386,-0.3107 -0.879,-0.466 -1.478,-0.466c-0.598,0 -1.091,0.1553 -1.477,0.466c-0.387,0.3107 -0.673,0.718 -0.858,1.2219c-0.186,0.5039 -0.279,1.0476 -0.279,1.6311c0,0.5835 0.093,1.1253 0.279,1.6255c0.185,0.5001 0.471,0.9036 0.858,1.2105c0.386,0.3069 0.879,0.4603 1.477,0.4603zM631.853,62.7297v11.6394h-1.342v-11.6394zM639.811,70.8v-5.1604h1.341v8.7295h-1.341v-1.4776h-0.091c-0.205,0.4433 -0.523,0.8203 -0.955,1.131c-0.432,0.3069 -0.977,0.4603 -1.637,0.4603c-0.545,0 -1.03,-0.1193 -1.455,-0.358c-0.424,-0.2425 -0.757,-0.6063 -1,-1.0912c-0.242,-0.4888 -0.364,-1.1045 -0.364,-1.8471v-5.5469h1.342v5.456c0,0.6365 0.178,1.1442 0.534,1.5231c0.36,0.3789 0.818,0.5683 1.375,0.5683c0.334,0 0.673,-0.0852 1.018,-0.2557c0.348,-0.1705 0.64,-0.432 0.875,-0.7843c0.238,-0.3524 0.358,-0.8014 0.358,-1.347zM647.405,65.6396v1.1366h-4.524v-1.1366zM644.2,63.5481h1.341v8.3204c0,0.3789 0.055,0.663 0.165,0.8525c0.113,0.1856 0.257,0.3107 0.432,0.3751c0.178,0.0606 0.365,0.0909 0.562,0.0909c0.148,0 0.269,-0.0076 0.364,-0.0227c0.095,-0.019 0.171,-0.0341 0.227,-0.0455l0.273,1.2049c-0.091,0.0341 -0.218,0.0682 -0.381,0.1023c-0.162,0.0379 -0.369,0.0568 -0.619,0.0568c-0.379,0 -0.75,-0.0814 -1.114,-0.2444c-0.36,-0.1629 -0.659,-0.4111 -0.898,-0.7445c-0.235,-0.3334 -0.352,-0.754 -0.352,-1.2617zM649.423,74.3691v-8.7295h1.341v8.7295zM650.105,64.1847c-0.262,0 -0.487,-0.0891 -0.677,-0.2672c-0.185,-0.178 -0.278,-0.3921 -0.278,-0.6422c0,-0.25 0.093,-0.4641 0.278,-0.6422c0.19,-0.1781 0.415,-0.2671 0.677,-0.2671c0.261,0 0.485,0.089 0.67,0.2671c0.19,0.1781 0.285,0.3922 0.285,0.6422c0,0.2501 -0.095,0.4642 -0.285,0.6422c-0.185,0.1781 -0.409,0.2672 -0.67,0.2672zM656.767,74.551c-0.788,0 -1.48,-0.1875 -2.074,-0.5626c-0.591,-0.3751 -1.054,-0.8999 -1.387,-1.5743c-0.33,-0.6744 -0.495,-1.4625 -0.495,-2.3643c0,-0.9093 0.165,-1.7031 0.495,-2.3813c0.333,-0.6782 0.796,-1.2048 1.387,-1.5799c0.594,-0.3751 1.286,-0.5627 2.074,-0.5627c0.788,0 1.478,0.1876 2.069,0.5627c0.595,0.3751 1.057,0.9017 1.386,1.5799c0.334,0.6782 0.501,1.472 0.501,2.3813c0,0.9018 -0.167,1.6899 -0.501,2.3643c-0.329,0.6744 -0.791,1.1992 -1.386,1.5743c-0.591,0.3751 -1.281,0.5626 -2.069,0.5626zM656.767,73.3461c0.599,0 1.091,-0.1534 1.478,-0.4603c0.386,-0.3069 0.672,-0.7104 0.858,-1.2105c0.185,-0.5002 0.278,-1.042 0.278,-1.6255c0,-0.5835 -0.093,-1.1272 -0.278,-1.6311c-0.186,-0.5039 -0.472,-0.9112 -0.858,-1.2219c-0.387,-0.3107 -0.879,-0.466 -1.478,-0.466c-0.599,0 -1.091,0.1553 -1.478,0.466c-0.386,0.3107 -0.672,0.718 -0.858,1.2219c-0.186,0.5039 -0.278,1.0476 -0.278,1.6311c0,0.5835 0.092,1.1253 0.278,1.6255c0.186,0.5001 0.472,0.9036 0.858,1.2105c0.387,0.3069 0.879,0.4603 1.478,0.4603zM664.111,69.1178v5.2513h-1.341v-8.7295h1.296v1.364h0.113c0.205,-0.4433 0.516,-0.7995 0.932,-1.0685c0.417,-0.2728 0.955,-0.4092 1.615,-0.4092c0.591,0 1.108,0.1213 1.551,0.3637c0.443,0.2387 0.788,0.6025 1.034,1.0912c0.247,0.485 0.37,1.0988 0.37,1.8414v5.5469h-1.341v-5.4559c0,-0.6858 -0.178,-1.2201 -0.535,-1.6027c-0.356,-0.3865 -0.845,-0.5797 -1.466,-0.5797c-0.428,0 -0.811,0.0928 -1.148,0.2785c-0.333,0.1856 -0.597,0.4565 -0.79,0.8127c-0.193,0.3561 -0.29,0.7881 -0.29,1.2958zM678.315,67.5946l-1.205,0.341c-0.075,-0.2008 -0.187,-0.3959 -0.335,-0.5853c-0.144,-0.1933 -0.341,-0.3524 -0.591,-0.4774c-0.25,-0.1251 -0.57,-0.1876 -0.96,-0.1876c-0.535,0 -0.98,0.1231 -1.336,0.3694c-0.352,0.2425 -0.529,0.5513 -0.529,0.9264c0,0.3334 0.122,0.5968 0.364,0.79c0.243,0.1932 0.622,0.3542 1.137,0.4831l1.296,0.3182c0.78,0.1895 1.362,0.4793 1.744,0.8696c0.383,0.3864 0.574,0.8847 0.574,1.4947c0,0.5001 -0.144,0.9472 -0.432,1.3413c-0.284,0.394 -0.682,0.7047 -1.193,0.932c-0.512,0.2273 -1.106,0.341 -1.785,0.341c-0.89,0 -1.627,-0.1932 -2.21,-0.5797c-0.584,-0.3865 -0.953,-0.951 -1.109,-1.6936l1.273,-0.3183c0.122,0.4698 0.351,0.8222 0.688,1.0571c0.341,0.2349 0.786,0.3524 1.336,0.3524c0.625,0 1.121,-0.1326 1.489,-0.3978c0.371,-0.2691 0.557,-0.5911 0.557,-0.9662c0,-0.3031 -0.106,-0.557 -0.319,-0.7616c-0.212,-0.2084 -0.538,-0.3637 -0.977,-0.466l-1.455,-0.341c-0.8,-0.1894 -1.387,-0.4831 -1.762,-0.8809c-0.371,-0.4016 -0.557,-0.9037 -0.557,-1.5061c0,-0.4926 0.138,-0.9283 0.415,-1.3072c0.28,-0.3788 0.661,-0.6763 1.142,-0.8922c0.485,-0.216 1.035,-0.324 1.649,-0.324c0.863,0 1.542,0.1895 2.034,0.5683c0.496,0.3789 0.849,0.8791 1.057,1.5004z" fill="#6E6E6E"/>
</g></svg>