<svg viewBox="0 0 25 25" fill="none" xmlns="http://www.w3.org/2000/svg" xmlns:xlink="http://www.w3.org/1999/xlink" x="0" y="0"><defs><filter id="filter1_d_859_2287" x="-1" y="0" width="27" height="27" filterUnits="userSpaceOnUse" color-interpolation-filters="sRGB">
<feFlood flood-opacity="0" result="BackgroundImageFix"/>
<feColorMatrix in="SourceAlpha" type="matrix" values="0 0 0 0 0 0 0 0 0 0 0 0 0 0 0 0 0 0 127 0" result="hardAlpha"/>
<feOffset dy="1"/>
<feGaussianBlur stdDeviation="0.5"/>
<feComposite in2="hardAlpha" operator="out"/>
<feColorMatrix type="matrix" values="0 0 0 0 0 0 0 0 0 0 0 0 0 0 0 0 0 0 0.25 0"/>
<feBlend mode="normal" in2="BackgroundImageFix" result="effect1_dropShadow_859_2287"/>
<feBlend mode="normal" in="SourceGraphic" in2="effect1_dropShadow_859_2287" result="shape"/>
</filter></defs><g id="Group 1000013395">
<g id="Group 1000013387">
<g id="Component 7_2">
<g id="Group 22863_2">
<g id="Ellipse 14_2" filter="url(#filter1_d_859_2287)">
<circle cx="12.5" cy="12.5" r="12.5" fill="white"/>
<circle cx="12.5" cy="12.5" r="12.375" stroke="white" stroke-width="0.25"/>
</g>
</g>
</g>
</g>
<path id="Vector_3" fill-rule="evenodd" clip-rule="evenodd" d="M13,7c0.684,0 1.386,0.016 2.066,0.043l0.803,0.036l0.769,0.043l0.72,0.046l0.657,0.048c0.714,0.051 1.386,0.336 1.897,0.806c0.511,0.47 0.829,1.093 0.898,1.761l0.032,0.319l0.06,0.683c0.056,0.707 0.098,1.478 0.098,2.215c0,0.737 -0.042,1.508 -0.098,2.215l-0.06,0.683l-0.032,0.319c-0.069,0.668 -0.387,1.292 -0.898,1.761c-0.512,0.47 -1.184,0.755 -1.898,0.806l-0.656,0.047l-0.72,0.047l-0.769,0.042l-0.803,0.037c-0.689,0.027 -1.377,0.042 -2.066,0.043c-0.689,-0.001 -1.377,-0.016 -2.066,-0.043l-0.803,-0.037l-0.769,-0.042l-0.72,-0.047l-0.657,-0.047c-0.714,-0.051 -1.386,-0.336 -1.897,-0.806c-0.511,-0.47 -0.829,-1.093 -0.898,-1.761l-0.032,-0.319l-0.06,-0.683c-0.061,-0.737 -0.094,-1.476 -0.098,-2.215c0,-0.737 0.042,-1.508 0.098,-2.215l0.06,-0.683l0.032,-0.319c0.069,-0.668 0.387,-1.291 0.898,-1.761c0.511,-0.469 1.182,-0.755 1.896,-0.806l0.657,-0.048l0.72,-0.046l0.769,-0.043l0.804,-0.036c0.688,-0.027 1.377,-0.042 2.066,-0.043zM11.4,11.181v3.638c0,0.346 0.4,0.562 0.72,0.39l3.36,-1.819c0.073,-0.039 0.134,-0.096 0.176,-0.165c0.042,-0.068 0.065,-0.146 0.065,-0.225c0,-0.079 -0.023,-0.157 -0.065,-0.225c-0.042,-0.069 -0.103,-0.126 -0.176,-0.165l-3.36,-1.818c-0.073,-0.04 -0.156,-0.06 -0.24,-0.06c-0.084,0 -0.167,0.021 -0.24,0.06c-0.073,0.04 -0.134,0.096 -0.176,0.165c-0.042,0.068 -0.064,0.146 -0.064,0.225z" fill="#F00004"/>
</g></svg>